<?xml version="1.0" encoding="UTF-8"?>
<svg id="Capa_1" xmlns="http://www.w3.org/2000/svg" version="1.1" viewBox="0 0 100 100">
  <!-- Generator: Adobe Illustrator 29.2.1, SVG Export Plug-In . SVG Version: 2.1.0 Build 116)  -->
  <defs>
    <style>
      .st0 {
        fill: #8e3838;
      }

      .st1 {
        fill: #ffd7d7;
        stroke: #af0000;
        stroke-miterlimit: 10;
        stroke-width: 3px;
      }
    </style>
  </defs>
  <circle class="st1" cx="50" cy="50" r="45"/>
  <path class="st0" d="M50.5,49.4c7.6,1.2,11.3,4.7,11.3,10.4s-2,7.7-6,10.9c-4,3.2-8.5,4.8-13.5,4.8s-5.5-.4-8.1-1.3l4-4.3c3.3,1.4,6.3,2.1,9,2.1s5.5-.8,7.4-2.5c2-1.7,2.9-3.8,2.9-6.4s-1.4-5.6-4.2-7.4-6.5-2.8-11.3-2.8-1.5,0-2.4.3l4.1-4h1.1c.4,0,.9,0,1.7,0,7.2-1.8,10.9-5.2,10.9-10.3s-.7-3.5-2-4.7c-1.3-1.2-3-1.8-5.1-1.8-3.3,0-6,1.1-8.2,3.3-.2-.4-.3-.8-.3-1,0-1.1,1.3-2.2,3.9-3.4,2.6-1.2,5.1-1.8,7.4-1.8s5.2.7,7.1,2.1c1.8,1.4,2.8,3.2,2.8,5.4,0,4.5-4.2,8.6-12.6,12.2Z"/>
</svg>