<?xml version="1.0" encoding="UTF-8"?>
<svg id="Capa_1" data-name="Capa 1" xmlns="http://www.w3.org/2000/svg" viewBox="0 0 360 200">
  <defs>
    <style>
      .cls-1 {
        fill: #691b33;
      }

      .cls-2 {
        fill: #fff;
      }

      .cls-3 {
        fill: #eaf4c6;
      }

      .cls-4 {
        fill: #bf9900;
      }
    </style>
  </defs>
  <g>
    <rect class="cls-2" x="36.35" y="7.4" width="287.3" height="185.2" rx="20.37" ry="20.37"/>
    <path class="cls-4" d="M303.28,10.4c9.58,0,17.37,7.79,17.37,17.37v144.46c0,9.58-7.79,17.37-17.37,17.37H56.72c-9.58,0-17.37-7.79-17.37-17.37V27.77c0-9.58,7.79-17.37,17.37-17.37h246.57M303.28,4.4H56.72c-12.91,0-23.37,10.46-23.37,23.37v144.46c0,12.91,10.46,23.37,23.37,23.37h246.57c12.91,0,23.37-10.46,23.37-23.37V27.77c0-12.91-10.46-23.37-23.37-23.37h0Z"/>
  </g>
  <rect class="cls-3" x="141.57" y="10.96" width="178.86" height="178.86" rx="16.56" ry="16.56"/>
  <g id="IKSMSN">
    <g>
      <path class="cls-1" d="M284.79,67.84c13.24,12.87,15.7,33.17,6.07,48.96-6.68,10.95-14.54,16.53-18.3,30.06-1.18,4.25-.51,9.2-5.26,11.15-.09,3.22.79,6.59-2.2,8.74-.44.32-1.81,1.02-2.32,1.1-1.76.28-11.19.26-12.81-.1-1.93-.44-3.92-2.68-4.16-4.64-.16-1.31.31-4.09-.03-5.1-.14-.4-1.52-.89-2.05-1.37-2.15-1.98-2.29-6.99-3.06-9.88-2.95-11.07-8.7-17.05-15.36-25.67-11.07-14.33-12.18-33.15-1.43-48.06,14.35-19.9,43.32-22.29,60.91-5.19ZM256.02,60.47c-24.2.38-41.43,23.97-33.58,47.12,3.02,8.9,9.56,14.08,14.54,21.61,4.11,6.21,6.8,12.59,8.48,19.85.55,2.4-.2,4.86,2.91,5.15,3.85.36,12.83.42,16.62,0,.85-.1,1.78-.43,2.14-1.28.53-1.26.7-4.17,1.08-5.76,3.26-13.51,10.32-19.59,17.62-30.25,16.81-24.54-.24-56.88-29.8-56.42ZM263.4,158.09h-13.68v3.79c0,.98.93,1.85,1.89,2.02,1.41.25,8.78.26,10.09-.05.86-.2,1.69-1.09,1.69-1.97v-3.79Z"/>
      <path class="cls-1" d="M307.51,108.67c-1.36,1.39-3.66.14-3.56-1.71.09-1.73,1.45-3.55,3.35-2.66,1.47.68,1.19,3.38.22,4.38Z"/>
      <path class="cls-1" d="M222.44,133.25c1.95-1.79,5.71,1.42,3.73,3.6s-5.88-1.64-3.73-3.6Z"/>
      <path class="cls-1" d="M221.22,56.08c2.23-2.82,6.11.11,3.35,2.74-2.44,2.31-5.2-.4-3.35-2.74Z"/>
      <path class="cls-1" d="M216.44,61.92c3.41-.34,2.46,5.15-.51,5.01-3.17-.16-1.86-4.77.51-5.01Z"/>
      <path class="cls-1" d="M212.28,74.73c-1.8,1.64-4.62-.48-2.91-3.27,2.08-3.39,5.83.61,2.91,3.27Z"/>
      <path class="cls-1" d="M305.32,75.63c1.05,1.04,1.5,3.45-.07,4.28-2.71,1.43-4.71-3.36-2.38-4.57.86-.45,1.74-.4,2.45.3Z"/>
      <path class="cls-1" d="M303.14,113.45c3.6-.35,2.44,6.32-1.09,4.89-2.03-.82-1-4.69,1.09-4.89Z"/>
      <path class="cls-1" d="M298.01,122.24c4.39-.99,2.79,5.82-.68,4.72-2.16-.68-1.1-4.32.68-4.72Z"/>
      <path class="cls-1" d="M305.82,84.63c3.19-.96,4.25,4.62,1.1,5.03-2.5.33-3.42-4.34-1.1-5.03Z"/>
      <path class="cls-1" d="M277.01,47.26c.98-.21,2.9.56,3.3,1.48,1.14,2.64-2.09,4.03-4.09,2.14-1.1-1.03-.75-3.28.79-3.62Z"/>
      <path class="cls-1" d="M247.35,43.87c1.58-1.7,5.4-.59,4.43,2.11-1.1,3.06-7.06.71-4.43-2.11Z"/>
      <path class="cls-1" d="M257.95,42.87c1.76-.39,4.02.02,3.73,2.25-.37,2.89-5.71,2.26-5.08-.9.12-.61.75-1.21,1.35-1.35Z"/>
      <path class="cls-1" d="M284.59,135.9c2.58-.34,3.33,3.46.48,4.41-3.91,1.3-4.07-3.93-.48-4.41Z"/>
      <path class="cls-1" d="M298.99,66.3c2.09-.43,4.2,3.11,2.15,4.6-2.75,2-5.54-3.9-2.15-4.6Z"/>
      <path class="cls-1" d="M285.55,52.14c2.43-.5,4.93,3.49,1.9,4.62-2.6.98-5.28-3.93-1.9-4.62Z"/>
      <path class="cls-1" d="M267.73,44.08c1.26-.27,3.27.37,3.47,1.8.37,2.51-1.95,3.07-3.83,2.11-1.61-.82-1.36-3.55.35-3.91Z"/>
      <path class="cls-1" d="M206.33,109.08c2.4-2.62,5.58,2.78,2.7,4.29-2.41,1.26-4.16-2.68-2.7-4.29Z"/>
      <path class="cls-1" d="M211.07,117.59c2.37-.48,4.12,3.17,2.15,4.6-2.77,2.01-5.41-3.94-2.15-4.6Z"/>
      <path class="cls-1" d="M306.8,94.39c3.26-.72,3.37,4.76.9,5.08-3.12.4-3.16-4.58-.9-5.08Z"/>
      <path class="cls-1" d="M205.7,98.79c2.76-.27,3.11,4.64.91,5.07-3.34.66-3.8-4.79-.91-5.07Z"/>
      <path class="cls-1" d="M231.53,49.28c2.59.07,2.61,3.78-.06,4.46-4.04,1.04-3.66-4.56.06-4.46Z"/>
      <path class="cls-1" d="M239.89,45.31c2.48-.35,3.71,3.17.92,4.11-3.97,1.35-4.85-3.56-.92-4.11Z"/>
      <path class="cls-1" d="M206.08,80.01c1.05-1.17,3.33-.7,3.58,1.04.57,3.97-4.45,4.37-4.37,1.23.01-.47.48-1.92.79-2.27Z"/>
      <path class="cls-1" d="M216.19,125.9c2.49-.74,4.91,2.98,2.5,4.45-2.77,1.68-5.2-3.64-2.5-4.45Z"/>
      <path class="cls-1" d="M293.31,58.56c2.21-.06,4.15,3.84,1.61,4.66-3.51,1.12-4.9-4.57-1.61-4.66Z"/>
      <path class="cls-1" d="M205.45,89.02c3.33-.69,3.3,5.8-.25,5.04-2.04-.44-1.99-4.57.25-5.04Z"/>
      <path class="cls-1" d="M290.35,130.82c2.29-2.74,5.69.24,3.3,2.69-2.51,2.59-5.26-.35-3.3-2.69Z"/>
      <path class="cls-1" d="M262.69,74.54c.13.15,3.3.88,3.76,1.42,1.75-1.86,3.28-3.13,5.98-2.25,1.62.53,4.47,3.38,5.01,5.01.97,2.94-.58,4.02-2.22,6.11.57.43,1.24,3.5,1.39,3.63.42.36,3.75-.74,5.55,1.9,1.2,1.76,1.18,6.88-.1,8.61-1.79,2.42-5.08,1.42-5.45,1.75-.15.13-.88,3.3-1.42,3.76,1.13,1.24,2.38,2.15,2.57,3.98.31,3.12-4.21,7.58-7.33,7.33-1.95-.16-2.66-1.61-4.11-2.54-.43.57-3.5,1.24-3.63,1.39-.18.21.36,3.26-1.11,4.87-1.58,1.74-5.39,1.78-7.57,1.44-2.94-.46-3.96-3.71-3.58-6.31-.85.15-3.35-1.46-3.76-1.42-.51.04-1.88,2.71-4.56,2.56s-6.09-3.57-6.64-6.09c-.66-3.04,2.55-4.84,2.43-5.34-.57-.43-1.24-3.5-1.39-3.63-.13-.12-2.45.04-3.16-.14-.83-.21-1.91-1.05-2.39-1.76-1.2-1.75-1.18-6.89.1-8.61,1.36-1.83,3.37-1.82,5.45-1.75-.15-.85,1.46-3.35,1.42-3.76-.03-.38-2.53-1.97-2.6-4.17-.09-2.78,3.79-6.88,6.56-7.07,2.51-.17,3.21,1.25,4.91,2.47.44-.64,3.5-1.24,3.63-1.39.12-.13-.04-2.45.14-3.16.89-3.48,5.2-3.46,8.08-3.18,1.82.18,3.71,1.7,4,3.57.09.57-.11,2.6.04,2.77ZM258.51,72.37c-1.27-.37-2.65-.37-3.91,0v4.03c0,.13-.66,1.16-.88,1.32-.66.46-2.56.75-3.51,1.13-1.24.5-3.08,1.97-4.26,1.82-1.26-.16-2.63-2.44-3.72-3.15-.25-.04-2.32,1.97-2.55,2.29-.18.26-.3.26-.12.62.4.78,2.32,1.94,2.79,2.84.86,1.64-.62,2.84-1.23,4.32-.53,1.28-1.24,5.05-2.77,5.05h-4.03c-.37,1.27-.37,2.65,0,3.91h4.03c.13,0,1.16.66,1.32.88.46.66.75,2.56,1.13,3.51.4,1,1.81,3,1.84,3.79.06,1.33-.97,1.83-1.74,2.68-.21.24-.17.68-.27.81-.06.07-1.31-.01-1.18,1.02.75-.51.34.22.83.76.22.24,1.8,1.64,1.98,1.62,1.08-.7,2.42-2.95,3.68-3.11s2.41,1,3.6,1.5c1.26.53,5.05,1.16,5.05,2.77v4.03c1.27.37,2.65.37,3.91,0v-4.03c0-.13.66-1.16.88-1.32.64-.45,2.57-.76,3.51-1.13.79-.31,1.45-.73,2.12-1.04.43-.2.77-.64,1.24-.74,1.85-.39,3.32,2.14,4.62,3.12.25.04,2.32-1.97,2.55-2.29.18-.26.3-.26.12-.62-.37-.72-2.16-1.86-2.69-2.7-1.13-1.78.77-3.47,1.45-5.12.39-.95.66-2.84,1.13-3.51.16-.22,1.18-.88,1.32-.88h4.03c.37-1.27.37-2.65,0-3.91h-4.03c-1.61,0-1.97-3.23-2.45-4.39-.5-1.23-1.97-3.08-1.82-4.26.16-1.26,2.44-2.63,3.15-3.72.04-.25-1.97-2.32-2.29-2.55-.26-.18-.26-.3-.62-.12-.78.4-1.94,2.32-2.84,2.79-1.64.86-2.84-.62-4.32-1.23-1.28-.53-5.05-1.24-5.05-2.77v-4.03Z"/>
      <path class="cls-1" d="M255.75,124.92c1.1-.33,2.02.01,2.63.93l.12,15.25c-.64,2-3.64,1.81-3.92-.23-.58-4.34.47-9.95,0-14.43-.05-.53.71-1.39,1.16-1.52Z"/>
      <path class="cls-1" d="M255.75,146.42c3.71-1.1,3.71,4.91,0,3.8-1.57-.47-1.57-3.34,0-3.8Z"/>
      <path class="cls-1" d="M254.55,83.91c12.22-1.65,17.59,13.6,7.85,19.82-8.8,5.63-19.59-3.25-15.97-13.04,1.18-3.2,4.7-6.31,8.12-6.78ZM261.36,89.79c-6.29-6.29-15.85,3.34-9.6,9.6,6.26,6.26,15.86-3.33,9.6-9.6Z"/>
    </g>
  </g>
  <rect class="cls-1" x="39.19" y="10.46" width="152.29" height="179.35" rx="16.56" ry="16.56"/>
  <path class="cls-2" d="M119.97,138.92v-21.24h-36.24v-6.96l34.8-49.8h11.4v48.48h10.92v8.28h-10.92v21.24h-9.96ZM119.97,109.4v-26.04c0-4.08.12-8.16.36-12.24h-.36c-2.4,4.56-4.32,7.92-6.48,11.52l-19.08,26.52v.24h25.56Z"/>
</svg>