<?xml version="1.0" encoding="UTF-8"?>
<svg id="Capa_1" xmlns="http://www.w3.org/2000/svg" version="1.1" viewBox="0 0 400 125">
  <!-- Generator: Adobe Illustrator 29.2.1, SVG Export Plug-In . SVG Version: 2.1.0 Build 116)  -->
  <defs>
    <style>
      .st0 {
        fill: #273c59;
      }

      .st1 {
        fill: #8071aa;
        stroke: #000;
        stroke-miterlimit: 10;
      }

      .st2 {
        fill: #1e1249;
      }
    </style>
  </defs>
  <rect class="st1" x="159.5" y="17.9" width="80.9" height="80.9" rx="8.1" ry="8.1" transform="translate(99.8 -124.3) rotate(45)"/>
  <rect class="st0" x="15.9" y="115.5" width="368.3" height="1"/>
  <g>
    <path class="st2" d="M176.2,78.6c-1.6-.2-2.3-1.4-2.5-2.9-.6-5.3,4.8-12,7-16.9,1.5-3.2,2.1-6.8,3.5-10s.7-2.1,2.4-2.6c4.4-1.4,4.6-.9,8.4-4s.3-.4.7-.3c-.4,1.3-1.1,2.8-1.4,4.1s-.2,2.4-.5,3.4c-.5,2.3-1.9,4.9-2.4,7.3-.9,3.6-1,7.3-.2,10.9.8-2,1.4-4,2.3-5.9,2.6-5.8,6.7-12.2,10.3-17.4.8-1.1,2-3.2,2.9-4.1s.2-.3.5-.3,2.4,3.8,3.3,4.5,2.5,1.4,3.4,1.8,3.9,1.3,4.4,1.8c2,1.8.6,7,0,9.3-1.7,6.4-5.2,14.7-8.1,20.7s-.8,1.4-1.3,2.1c1.3,3.3,2.9,6.4,4.2,9.7s1.4,3.3,1.2,3.7c-2.7.4-5.6.8-8.3.9-4.8.2-10.6.2-15.4,0s-4.9-.5-7.3-.8c-.5-.3.2-2.8.3-3.4.7-3.4,1.8-6.8,2.5-10.3l-.4-1.4c-2.9-.3-6.6.4-9.4,0ZM186,69.2c.2-.2-1.2-4.2-1.4-4.5s-2.8-2.5-3.2-2.6-.4.2-.3.5c.5,1.2,3,1.9,2.6,3.6-1.1-1.5-3.4-2.1-5.2-2.2,1.1,1.7,3.7,1,4.3,3.2-1-.4-1.7-1-2.8-1.4s-1.5-.2-2.2-.5c-.7.9,2.4,1.6,2.8,1.9s1.3,1.7.6,1.4-1.2-.8-1.8-1-2.1-.9-1.8-.1,2.4,1.8,2.7,1.8c1.8.3,3.9-.6,5.7,0ZM192.9,69.4c-.7-.7-2.3,2.4-2.4,2.9-.4,1.1-.7,2.4-.6,3.6h1.7c0-1.2,0-2.4.3-3.5s1.1-2.9,1-3Z"/>
    <path class="st2" d="M210.5,24.6c3.6.4,6.8,3,8.5,6.1s1.5,3.2,1.4,4.4-.3,1.4-.7,1.6c.4-2.2-.5-4.6-1.9-6.3.3,1.1.7,2.2.8,3.4s-.4,2.6.3,4,2.7,1.3,3.7,0c0,2.1-3.1,3.4-4.9,2.4-.1,2.5,2.1,4.8,4.4,3l1.2-1.7c0,1.3-.7,2.4-1.5,3.3s-.8.4-1,.6.1.3,0,.5c-1.1,1.1-3.3,1.4-4.7.8s-2.7-1.3-3.3-1.7c-2.3-1.5-3.9-4.6-4.3-7.4-.2-1.6,0-3.5-.2-5s-1,.3-1.5.5-1,.3-1.5.5c-.3,1.9.3,3.8,0,5.6l-7.1,6.9c-.7,1-.1,2.2-.4,3.3s-1.4,2.5-1.8,3,0,.5-.6.4c1.1-2.8.7-5.7.9-8.6s.9-5,0-7.5c-.2-.2-2.1,1.2-3.3-.2s-2.5-5.8-2.7-7.1.3-2.4.2-3.6-.6-2-.4-3.1c-.3,0-.3.6-.4.8-.7,3.9-.4,7.9,1.2,11.5-.3,0-.5-.4-.6-.6-2.7-3.9-3.1-14.4.5-17.8.5-.5,1.3-.7,1.7-1.1s.6-1.1,1.1-1.5c.9-.8,3.1-1.6,4.3-1.7,7.9-.8,13.1,4.2,12.5,12.1Z"/>
  </g>
</svg>