<?xml version="1.0" encoding="UTF-8"?>
<svg id="Capa_1" xmlns="http://www.w3.org/2000/svg" version="1.1" viewBox="0 0 400 125">
  <!-- Generator: Adobe Illustrator 29.2.1, SVG Export Plug-In . SVG Version: 2.1.0 Build 116)  -->
  <defs>
    <style>
      .st0 {
        fill: #fff;
      }

      .st1 {
        fill: #5b2727;
      }

      .st2 {
        fill: #fff3e9;
      }
    </style>
  </defs>
  <g>
    <rect class="st2" x="159.4" y="7.1" width="81.1" height="100.9" rx="6.9" ry="6.9"/>
    <path class="st1" d="M233.7,108.4h-67.4c-4.1,0-7.4-3.3-7.4-7.4V13.9c0-4.1,3.3-7.4,7.4-7.4h67.4c4.1,0,7.4,3.3,7.4,7.4v87.1c0,4.1-3.3,7.4-7.4,7.4ZM166.3,7.6c-3.5,0-6.4,2.9-6.4,6.4v87.1c0,3.5,2.9,6.4,6.4,6.4h67.4c3.5,0,6.4-2.9,6.4-6.4V13.9c0-3.5-2.9-6.4-6.4-6.4h-67.4Z"/>
  </g>
  <g>
    <g>
      <path class="st0" d="M197.4,95.4c-.4-.1.1-1,.2-1.4.2-1.6-.4-3-1.4-4.1l-15.2-11.3,1.2-10.8-4.1,10.6c.5.5,1,.8,1.6,1.2,2.9,2.2,5.9,4.3,8.8,6.5s5.1,3.5,5.9,5c2,4-1.8,8.3-6.1,7-6.7-4.4-12.8-9.5-19.3-14.1-1.6-1.3-2.2-3.4-1.6-5.4,2.9-7.5,5.8-15,8.8-22.4s1.1-4.7,4.5-6.1,5.6-1.5,8.4-2.2l7.3,27.8.2-2.3c0-2.8.3-5.6.4-8.4s-.1-3.8.1-5.5,2.2-2.8,2.9-3.7c-.7-.8-3.2-2.8-3.2-3.9s2.4-3.5,3.7-3.5,3.6,2.4,3.4,3.6-2.5,2.8-3.2,3.8c1.1,1.1,2.2,2.3,2.8,3.7,0,5,.4,10,.5,15l.2,1,6.6-25.3c.2-.4.6-2.3,1-2.4,2.7.6,5.4,1.2,8,2.2s2,.9,2.7,1.8c3.9,8.8,7,17.9,10.6,26.8.5,2.1,0,3.9-1.6,5.3-2.6,2.3-6,4.4-8.9,6.6s-5.9,4.7-8.9,6.8c-5.3,3.5-10.7-2.5-6.8-7.3,5.1-4,10.3-7.7,15.4-11.6l-4.1-10.6,1.2,10.8-15.2,11.3c-1.1,1.1-1.7,2.7-1.4,4.3s.7,1.2,0,1.2h-5.1Z"/>
      <path class="st1" d="M189.8,98.8c-.6,0-1.2,0-1.8-.3h-.1c-4.2-2.8-8.3-5.9-12.3-9-2.3-1.7-4.7-3.5-7-5.3-1.7-1.4-2.4-3.7-1.8-5.9,1.3-3.2,2.5-6.5,3.8-9.7,1.7-4.3,3.3-8.6,5-12.8.2-.6.4-1.1.6-1.5.7-2.1,1.3-3.6,4.2-4.8,2-.8,4.1-1.3,6.1-1.7.8-.2,1.6-.4,2.4-.5h.5c0-.1,6.7,25.4,6.7,25.4,0-1.5.1-3.1.2-4.6,0-1.1.1-2.1.2-3.2,0-.6,0-1.3,0-2,0-1.2,0-2.5.1-3.6.1-1,1.2-2.1,2.2-3.1.2-.2.4-.4.6-.6-.2-.2-.4-.4-.6-.6-1.4-1.3-2.4-2.4-2.4-3.3,0-.8.8-1.9,1.6-2.6.5-.4,1.6-1.4,2.6-1.3,1,0,2.3,1.2,3.1,2.2.4.5.9,1.3.8,2-.2.9-1.2,1.9-2.1,2.7-.4.3-.7.7-1,.9,1,1.1,2.1,2.2,2.6,3.6h0c0,0,0,.2,0,.2,0,2.7.1,5.5.2,8.2,0,1.6.2,3.2.2,4.9l5.9-22.6c0-.1.1-.3.2-.6.4-1.4.6-1.9,1.1-2h0s0,0,0,0c.6.1,1.1.3,1.7.4,2.1.5,4.3,1,6.3,1.8,1.1.5,2.1.9,2.9,2h0c2.4,5.5,4.5,11.1,6.5,16.5,1.3,3.4,2.7,7,4.1,10.5.6,2.3,0,4.3-1.8,5.8-1.7,1.5-3.8,3-5.8,4.4-1.1.7-2.1,1.5-3.1,2.2-1,.8-2.1,1.6-3.1,2.4-1.9,1.5-3.9,3-5.8,4.4-3,2-5.9,1.1-7.5-.6-1.6-1.7-2.2-4.7,0-7.4h0c2.7-2.2,5.5-4.3,8.2-6.3,2.3-1.7,4.6-3.4,6.9-5.2l-2.5-6.6.8,7.2-15.4,11.5c-1,1-1.4,2.4-1.3,3.8,0,0,0,.2.1.3.2.4.3.8,0,1.2,0,.1-.3.3-.6.3h-5.3c-.2,0-.3-.2-.4-.4-.2-.4,0-.8.1-1.2,0-.1,0-.3.1-.3.2-1.4-.3-2.7-1.3-3.7l-15.4-11.5.8-7.2-2.6,6.6c.2.2.4.3.6.5.2.1.4.3.6.4,1.7,1.3,3.4,2.6,5.1,3.8,1.2.9,2.4,1.8,3.6,2.7.3.2.7.5,1.1.8,1.8,1.3,4.3,3.1,5,4.4,1,2,.8,4.3-.7,6-1.1,1.3-2.6,2-4.2,2ZM188.4,97.6c1.8.5,3.7,0,4.9-1.4,1.2-1.4,1.4-3.3.5-4.9-.6-1.2-3-2.9-4.6-4.1-.4-.3-.8-.6-1.1-.8-1.2-.9-2.4-1.8-3.6-2.7-1.7-1.3-3.5-2.5-5.2-3.9-.2-.1-.4-.3-.6-.4-.4-.2-.7-.5-1-.8l-.2-.2,5.6-14.5-1.6,14.3,15,11.2c1.3,1.3,1.8,3,1.6,4.6,0,.2,0,.3-.1.5,0,0,0,.2,0,.3h4.4c0,0,0-.1,0-.1,0-.2-.1-.4-.2-.5-.2-1.7.3-3.4,1.6-4.7l15-11.2-1.6-14.3,5.6,14.5-.3.2c-2.4,1.8-4.9,3.7-7.2,5.4-2.7,2-5.4,4-8.1,6.1-1.8,2.2-1.3,4.6,0,6,1.3,1.4,3.7,2.1,6.2.5,1.9-1.3,3.9-2.8,5.8-4.3,1.1-.8,2.1-1.7,3.1-2.4,1-.7,2.1-1.5,3.1-2.2,2-1.4,4-2.8,5.7-4.3,1.4-1.3,1.9-2.9,1.5-4.8-1.4-3.4-2.7-7-4-10.4-2-5.4-4.2-10.9-6.5-16.3-.6-.8-1.5-1.2-2.5-1.6-2-.8-4.1-1.3-6.2-1.8-.5-.1-.9-.2-1.4-.3-.1.3-.3.9-.4,1.2,0,.3-.2.6-.2.7l-7.1,27.2-.7-3.1c0-2.3-.1-4.5-.2-6.7-.1-2.7-.3-5.4-.2-8.1-.5-1.2-1.4-2.2-2.4-3.2l-.3-.3c-.2.3-.5.6-.8.9-.7.8-1.8,1.9-1.9,2.5-.2,1.1-.1,2.3-.1,3.4,0,.7,0,1.4,0,2,0,1.1,0,2.2-.2,3.2,0,1.7-.2,3.4-.2,5.2l-.5,5.1-7.9-30c-.6.2-1.3.3-1.9.4-2,.4-4,.9-5.9,1.7-2.5,1-2.9,2.2-3.6,4.2-.2.5-.4,1-.6,1.6-1.7,4.3-3.4,8.5-5,12.8-1.2,3.2-2.5,6.4-3.8,9.6-.5,1.7,0,3.6,1.5,4.8,2.4,1.7,4.7,3.5,7,5.3,3.9,3,8,6.1,12.2,8.8ZM200.2,48.9c-.4,0-1,.3-1.8,1.1-.8.8-1.3,1.6-1.3,1.9,0,.6,1.4,1.9,2.1,2.6.4.4.7.7.9,1h0c.3-.4.8-.8,1.3-1.3.7-.7,1.7-1.6,1.8-2.2,0-.2,0-.6-.6-1.2-.8-1-1.9-1.8-2.4-1.8,0,0,0,0,0,0Z"/>
    </g>
    <g>
      <path class="st0" d="M207.3,39.9c-10.6,13.2-23.8-7.8-16.9-18.5s15-6.3,19.1,0c3.5,5.5,1.6,13.6-2.2,18.4Z"/>
      <path class="st1" d="M200,44.6c-1.7,0-3.4-.6-5.1-1.8-7.1-5.1-8.5-16-4.9-21.7,2-3.1,5.7-5,9.9-5h0c4.3,0,8,1.9,10.1,5.1,3.7,5.8,1.6,14.1-2.3,19h0c-2.3,2.9-5,4.4-7.7,4.4ZM199.9,17.2c-3.9,0-7.2,1.7-9.1,4.5-4,6.2-.8,16.4,4.6,20.3,2.3,1.6,6.7,3.5,11.5-2.4h0c3.7-4.6,5.7-12.4,2.2-17.8-1.8-2.9-5.3-4.6-9.2-4.6h0Z"/>
    </g>
    <g>
      <path class="st0" d="M226.1,28.8c4.5,4.5,5.9,9.6,5.4,15.9s-.8,8-1.2,11.9-.1,3.4-.4,5.1c-.2.2-.6-.8-.6-.9-.7-1.6-1.7-3.9-2.2-5.5s-.1-3.8,0-5.4c.4-4.5,1.4-8.6-.2-13s-6-8.4-10.9-9-1.2,0-1.3,0c-.3-.2-.2-1.5-.2-1.9s-.6-1.8-.2-1.9c.9.2,1.9,0,2.8.2,3.3.5,6.6,2.3,8.9,4.6Z"/>
      <path class="st1" d="M230.3,62.3h-.4c-.3,0-.6-.4-.9-1.2l-.2-.4c-.7-1.6-1.6-3.7-2-5.3-.4-1.3-.2-3.2,0-4.8,0-.3,0-.5,0-.8,0-1,.2-2,.3-2.9.4-3.3.8-6.5-.5-9.9-1.7-4.6-6-8.2-10.4-8.7-.1,0-.3,0-.4,0-.5,0-.9,0-1.1-.2-.4-.3-.4-.9-.4-1.8,0-.2,0-.4,0-.4,0,0,0-.2,0-.3-.2-.8-.4-1.4-.1-1.8,0-.2.3-.3.4-.3h.1s.1,0,.1,0c.5,0,.9.1,1.4.1.4,0,.9,0,1.4.1,3.2.5,6.7,2.3,9.2,4.8h0c4.4,4.3,6.1,9.3,5.6,16.3-.2,2.2-.4,4.5-.6,6.7-.2,1.8-.4,3.5-.5,5.3,0,.7,0,1.3-.1,2,0,1,0,2.1-.2,3.1h0c0,.1-.3.5-.3.5ZM215.9,27.3c.1,0,.2,0,.3,0,4.8.6,9.4,4.4,11.3,9.3,1.3,3.6.9,6.9.5,10.3-.1.9-.2,1.9-.3,2.9,0,.3,0,.5,0,.8-.1,1.5-.3,3.3,0,4.4.4,1.5,1.3,3.6,2,5.1,0-.5,0-1.1,0-1.6,0-.7,0-1.3.1-2,.1-1.8.3-3.5.5-5.3.2-2.2.5-4.4.6-6.6.5-6.6-1.2-11.4-5.3-15.5-2.4-2.3-5.6-4-8.6-4.5-.4,0-.8,0-1.2,0-.4,0-.7,0-1.1,0,0,.3.2.7.2.8,0,.2,0,.4.1.5,0,.1,0,.3,0,.6,0,.2,0,.7,0,.9,0,0,.3,0,.5,0,.1,0,.2,0,.3,0Z"/>
    </g>
    <g>
      <path class="st0" d="M175.8,32.4c-5.5,6.4-3,13.7-2.5,21.4-.9,2.3-1.7,4.7-2.6,7s-.4.6-.5-.2c-.4-3.2-.6-6.3-.8-9.5-.5-6.2-1.8-11.1,1-17s8.6-10.1,15.2-10.1c.5.3,0,.9,0,1.2s0,2.3-.2,2.5c-.3.3-1,.1-1.3.2-3.3.6-5.9,2.1-8.1,4.6Z"/>
      <path class="st1" d="M170.2,62s0,0-.1,0c-.4,0-.5-.5-.5-.9,0-.1,0-.3,0-.5-.3-2.2-.4-4.4-.6-6.5,0-1-.1-2-.2-3,0-1.1-.2-2.1-.3-3.1-.5-4.9-1-9.1,1.3-14.1,2.9-6.3,9-10.4,15.7-10.4h.2s.1,0,.1,0c.7.5.4,1.2.3,1.5,0,0,0,.2,0,.2,0,.2,0,.5,0,.9,0,1.3-.1,1.7-.3,1.9-.3.3-.8.3-1.2.3-.1,0-.3,0-.4,0-3.1.5-5.7,2-7.8,4.5h0c-4.2,4.9-3.6,10.5-2.9,16.3.2,1.5.4,3.1.5,4.7h0c0,.1,0,.2,0,.2-.4,1.1-.8,2.1-1.2,3.2-.4,1.2-.9,2.5-1.4,3.7-.3.6-.4,1.1-.8,1.1ZM185.1,24.5c-6,.2-11.8,4.1-14.4,9.8-2.2,4.8-1.8,8.9-1.2,13.6.1,1,.2,2.1.3,3.2,0,1,.2,2,.2,3,.1,1.9.3,3.8.5,5.6.4-1,.7-1.9,1.1-2.9.4-1.1.8-2.1,1.2-3.1-.1-1.5-.3-3-.5-4.5-.7-6.1-1.4-11.8,3.1-17.1,2.2-2.6,5.1-4.2,8.4-4.8.2,0,.3,0,.5,0,.1,0,.3,0,.5,0,0-.3,0-.9,0-1.2,0-.4,0-.8,0-1,0-.2,0-.3.1-.5,0,0,0-.1,0-.2Z"/>
    </g>
  </g>
  <rect class="st1" x="15.9" y="115.5" width="368.3" height="1"/>
</svg>