<?xml version="1.0" encoding="UTF-8"?>
<svg id="Capa_1" xmlns="http://www.w3.org/2000/svg" version="1.1" viewBox="0 0 400 125">
  <!-- Generator: Adobe Illustrator 29.2.1, SVG Export Plug-In . SVG Version: 2.1.0 Build 116)  -->
  <defs>
    <style>
      .st0 {
        fill: #d1e5e1;
      }

      .st1 {
        fill: #fff;
      }

      .st2 {
        fill: #5b2727;
      }
    </style>
  </defs>
  <g>
    <rect class="st0" x="159.4" y="7.1" width="81.1" height="100.9" rx="6.9" ry="6.9"/>
    <path class="st2" d="M233.7,108.4h-67.4c-4.1,0-7.4-3.3-7.4-7.4V13.9c0-4.1,3.3-7.4,7.4-7.4h67.4c4.1,0,7.4,3.3,7.4,7.4v87.1c0,4.1-3.3,7.4-7.4,7.4ZM166.3,7.6c-3.5,0-6.4,2.9-6.4,6.4v87.1c0,3.5,2.9,6.4,6.4,6.4h67.4c3.5,0,6.4-2.9,6.4-6.4V13.9c0-3.5-2.9-6.4-6.4-6.4h-67.4Z"/>
  </g>
  <rect class="st2" x="15.9" y="115.5" width="368.3" height="1"/>
  <g>
    <path class="st2" d="M232.5,48v4.5c0,.4-.3.5-.6.7-1.5.7-3.3,1.1-4.9,1.8-.4.3-.3.5-.2.9.6,1.5,1.6,3.1,2.2,4.6,0,.3,0,.6,0,.8-1,.8-2,2.2-3,3-.1.1-.3.2-.5.3l-5.5-2.4c-.2,0-.3.1-.4.3-.4.6-.5,1.8-.9,2.5,1.2.7,1.8,1.6,2.1,3,1.2,5.4,1.7,11.1,2.8,16.5.2,2.2-1.4,4.2-3.6,4.4h-44.6c-2.2-.2-3.9-2.2-3.7-4.4,1-5.2,1.7-10.5,2.7-15.7.3-1.8.6-2.8,2.2-3.8l14.9-7.6v-3.7c-3.2-2-5.4-5.4-5.8-9.2.3-4-.7-8.6.8-12.5,3.1-8.1,13.6-10.4,19.8-4.1,1.9,1.9,3.2,4.8,3.4,7.4,0,1-.1,2.2,0,3.1,0,.5.5.3.8,0l1.9-5.1c0-.3.4-.5.6-.5,1.3-.2,2.9.1,4.2,0,.4,0,.6.4.8.8.7,1.5,1.1,3.3,1.8,4.8,0,.2.3.2.4.3l5.1-2.4h.6l3.1,3.1c.2.3.2.6,0,1l-2.2,4.8c0,.2,0,.5.2.6l5.1,1.8c.2,0,.4.3.5.5ZM230.9,51.8v-3s-5.2-1.9-5.2-1.9c-.2-.1-.6-1.1-.7-1.4,0-.2-.2-.4,0-.6l2.3-5c-.6-.8-1.4-1.4-2.1-2.1l-4.9,2.3c-.4,0-1.4-.3-1.7-.5-.1,0-.2-.1-.3-.3l-1.9-5.1c-1,0-2,0-3,0l-1.9,5.1c-.2.3-1.6.9-2,.8v2.3c3.5-2.5,8.4-2.2,11.6.7,4.6,4,4.2,11.3-.8,14.8-5.3,3.7-12.4,1.2-14.4-4.8,0-.2-.3-1.1-.3-1.1-.6.5-1.2,1-1.9,1.4v3.7s13.4,6.8,13.4,6.8c.1,0,.2-.2.2-.3.3-.7.6-2.1,1-2.6.2-.3,1.7-1,2.2-.7l4.7,2.2c.4-.4.9-.8,1.3-1.2.2-.2.7-.7.8-.8,0,0,0,0,0-.2l-2.2-4.7c0-.2-.1-.3,0-.5,0-.2.6-1.4.7-1.5l5.3-2ZM219.8,87.3c1,0,2.2-1.5,2.1-2.5-1.1-5.4-1.6-11.2-2.8-16.5-.2-1-.5-1.4-1.4-2l-10.7-5.4c-.2,0-.8.7-.9.9-1.1,1.1-2.3,2.1-3.4,3.2-.6.3-1-.2-1.6-.3l-.6,1.4,2.1,21.4h8.7v-13.4c0,0,.3-.4.3-.5.4-.3,1.1-.1,1.2.4.1,4.2-.2,8.6,0,12.8,0,.2,0,.5.1.6h6.9ZM218.4,57.4c4.3-2.1,5.7-7.6,2.9-11.6-2.9-4-8.2-4.6-11.9-1.2-.3,2.3-1.2,4.3-2.5,6.1.3,5.6,6.3,9.2,11.4,6.6ZM207.9,44v-7.9c-3,1.3-8.7,3.5-11.6,1.2-.3-.3-.6-.7-1-1-2.2-1.6-6.1-.2-8.2.8v6.9c1.4,12.7,19.5,12.6,20.8-.2ZM207.8,34.4c-.3-1.9-1.2-3.6-2.4-5-4.6-5.4-13.2-4.7-16.8,1.4-.8,1.4-1.4,3-1.5,4.6,2.7-1.1,6.3-2.3,9-.5.5.4.9.9,1.4,1.3,1.7,1,4.5.3,6.2-.2,1.4-.4,2.7-1,4-1.6ZM205.4,60l-2.4-1.3-3.9,3.1,3,1.3c.8-.7,1.5-1.4,2.2-2.1.4-.4.8-.7,1.1-1.1ZM202.1,57.4v-3c-2.9,1.2-6.3,1.2-9.2,0v3l4.6,3.6.6-.4,4.1-3.3ZM201.1,87.3l-2.1-20.8h-3l-2.1,20.8h7.2ZM199.2,64.9c0,0,.5-1,.4-1-.5-.1-1.7-.9-2.1-.9-.3,0-1.8.8-2.2,1l.5,1c.4,0,3.3.1,3.5,0ZM195.9,61.9c.1,0,0-.1-.1-.2l-3.8-3-2.5,1.3,3.4,3.2c.9-.4,2.1-.8,3-1.3ZM194.5,65.9l-.6-1.4c-.5.1-1,.6-1.6.3-1.5-1.3-2.8-2.8-4.3-4l-10.7,5.4c-1.1.7-1.2,1.1-1.5,2.3-1.1,5.3-1.7,10.7-2.7,16-.2,1.2.9,2.5,2.1,2.7h6.9v-13.3c0,0,.2-.4.3-.5.5-.5,1.4-.1,1.4.6v13.2h8.7c0-.2,0-.4,0-.5.7-6.9,1.4-13.9,2.1-20.8Z"/>
    <path class="st1" d="M230.9,48.8v3s-5.3,2-5.3,2c0,0-.7,1.4-.7,1.5,0,.2,0,.4,0,.5l2.2,4.7c0,0,0,.1,0,.2-.1.2-.6.6-.8.8-.4.4-.9.8-1.3,1.2l-4.7-2.2c-.4-.3-1.9.4-2.2.7-.3.5-.7,2-1,2.6,0,0-.1.4-.2.3l-13.4-6.8v-3.7c.6-.5,1.3-.9,1.9-1.4,0,0,.3.9.3,1.1,2,6,9.1,8.5,14.4,4.8,5-3.5,5.4-10.8.8-14.8-3.2-2.8-8.1-3.1-11.6-.7v-2.3c.4,0,1.8-.5,2-.8l1.9-5.1c1-.1,2,0,3,0l1.9,5.1c0,.2.2.2.3.3.3.2,1.4.6,1.7.5l4.9-2.3c.7.7,1.5,1.4,2.1,2.1l-2.3,5c0,.2,0,.4,0,.6,0,.3.5,1.2.7,1.4l5.2,1.9Z"/>
    <path class="st1" d="M221.9,84.7c.1,1-1.1,2.5-2.1,2.5h-6.9c-.1-.1-.1-.4-.1-.6-.2-4.2.1-8.6,0-12.8,0-.5-.8-.7-1.2-.4,0,0-.3.4-.3.5v13.4h-8.7l-2.1-21.4.6-1.4c.6.1,1,.6,1.6.3,1.1-1.1,2.3-2.1,3.4-3.2.2-.2.7-.8.9-.9l10.7,5.4c.9.5,1.2,1,1.4,2,1.2,5.4,1.7,11.1,2.8,16.5Z"/>
    <path class="st1" d="M221.3,45.8c2.8,3.9,1.4,9.4-2.9,11.6-5.1,2.5-11.1-1-11.4-6.6,1.3-1.9,2.2-3.9,2.5-6.1,3.6-3.3,9-2.8,11.9,1.2ZM219.8,51.1c.6-3.4-2.2-6.2-5.7-5.8-3.4.4-5.3,4.4-3.7,7.4,2.3,4.1,8.6,3.1,9.3-1.6Z"/>
    <path class="st2" d="M214.1,45.3c3.4-.4,6.2,2.4,5.7,5.8-.8,4.6-7.1,5.7-9.3,1.6-1.6-3,.2-7,3.7-7.4ZM212.6,53c3.4,2.8,7.8-2.2,4.6-5.2-3.5-3.2-8.1,2.3-4.6,5.2Z"/>
    <path class="st1" d="M207.9,36.1v7.9c-1.3,12.8-19.4,12.9-20.8.2v-6.9c2.2-1.1,6.1-2.4,8.3-.8.3.3.6.7,1,1,2.9,2.3,8.6.1,11.6-1.2Z"/>
    <path class="st1" d="M205.4,29.4c1.2,1.4,2.1,3.2,2.4,5-1.3.6-2.6,1.2-4,1.6-1.8.5-4.6,1.2-6.2.2-.6-.3-.9-.9-1.4-1.3-2.7-1.8-6.3-.6-9,.5.1-1.6.6-3.2,1.5-4.6,3.6-6.1,12.2-6.8,16.8-1.4Z"/>
    <path class="st1" d="M203,58.8l2.4,1.3c-.3.4-.8.7-1.1,1.1-.7.7-1.4,1.4-2.2,2.1l-3-1.3,3.9-3.1Z"/>
    <path class="st1" d="M202.1,54.3v3l-4.1,3.3-.6.4-4.6-3.6v-3c2.9,1.2,6.3,1.2,9.2,0Z"/>
    <polygon class="st1" points="199 66.5 201.1 87.3 193.9 87.3 196 66.5 199 66.5"/>
    <path class="st1" d="M199.7,63.9c0,0-.4,1-.4,1-.1.1-3,0-3.5,0l-.5-1c.4-.1,1.9-1,2.2-1,.5,0,1.6.8,2.1.9Z"/>
    <path class="st1" d="M195.8,61.7c0,0,.2.1.1.2-.9.5-2,.8-3,1.3l-3.4-3.2,2.5-1.3,3.8,3Z"/>
    <path class="st1" d="M193.9,64.5l.6,1.4c-.7,6.9-1.4,13.9-2.1,20.8,0,.2,0,.4,0,.5h-8.7v-13.2c0-.7-.9-1-1.4-.6,0,0-.3.4-.3.5v13.3h-6.9c-1.2-.2-2.3-1.5-2.1-2.7,1-5.3,1.6-10.8,2.7-16,.3-1.2.4-1.7,1.5-2.3l10.7-5.4c1.5,1.3,2.8,2.7,4.3,4,.6.3,1-.2,1.6-.3Z"/>
  </g>
</svg>