<?xml version="1.0" encoding="UTF-8"?>
<svg id="Capa_1" xmlns="http://www.w3.org/2000/svg" version="1.1" viewBox="0 0 400 125">
  <!-- Generator: Adobe Illustrator 29.2.1, SVG Export Plug-In . SVG Version: 2.1.0 Build 116)  -->
  <defs>
    <style>
      .st0 {
        fill: #aa8b5e;
        stroke: #000;
        stroke-miterlimit: 10;
      }

      .st1 {
        fill: #273c59;
      }

      .st2 {
        fill: #513817;
      }
    </style>
  </defs>
  <rect class="st0" x="159.5" y="17.9" width="80.9" height="80.9" rx="8.1" ry="8.1" transform="translate(99.8 -124.3) rotate(45)"/>
  <rect class="st1" x="15.9" y="115.5" width="368.3" height="1"/>
  <g id="h2a44z">
    <path class="st2" d="M216,49.5l.8-.3c-.2.9-1.2.6-.9,1.8s2.5,3.2,3.4,4.3c.7,1.6-1.8,1.9-1.9,2.5s.8,1.1.8,1.9-1.1,1.1-1.1,1.2,1,.8.5,1.6-1.3.4-1.4,1c-.3,1,1.4,2.8-.6,3.9s-5.2,0-6.5-.4-.3-.3-.5-.4c-2.1-.8-4.2-1.4-5.9-3-.2.3,1.5,1.5,1.7,1.6.4.3.9.6,1.4.8s1.7.6,1.8.7c.2.2-.6.5-.7.7-1.3,1.2-2.8,6.8-2.1,8.4,2,2.4,4.7,4.6,6.8,7s1.7,2.2,1.6,2.3c-1.3-.4-2.5-1-3.7-1.4-7.2-2.5-15.1-4-22.3-.6l-3.2,1.9c.3-1.5.8-2.9,1.4-4.3s2-4.1,2.9-5.8c1.8-3,3.3-4.7,4.1-8.4s.6-3.1.5-3.2-.7-.2-.7-.1c0,0-.3,1-.5,1.4-1.7,3-6.5,2.4-7.9-.4s-.2-1.1-.3-1.6-.4-.4-.6-.6c-.9-1.4-.6-4.8,1-5.7,0-.1-.5.1-.1-.5.7-1.2,2.3-1.7,3.5-1v-1.1c-.4.2-.7.6-1.1.4s-1.3-3.8-1.2-4.1.3-.3.5-.3c.8,0,1.3,2.6,1.5,3.2s0,.2.2.2c.4-.1,2.2-1.5,2.5-1.8,1.2-1.1,1.8-2.8,3.1-3.7s2.5-1.1,3.7-1.3,4.7-.8,4.9-.7.3.6,1,.6.9-.5,1.2-.7,6.9-1.1,7.9-1.2,1.3-.2,2-.2c0-.2-.3-.1-.5-.1-1.7,0-3.5.1-5.2.3-4,.4-8.7,1.1-12.6,1.8s-7.2,2.8-11.9,3.1-2.6.2-2.5-1.1,1-.8,1.1-1.2-.2-.9-.2-1.4c0-1.2.2-2.3.3-3.5.9-12.8,12.4-18.5,24.1-15.5s3.4,1.3,5.1,3.4c2.7,3.3,4.5,7.2,5.8,11.3.6.8,5.7,2.1,5.8,2.6s0,.3-.1.4c-.3.3-3.1.9-3.8,1s-2.6.3-2.8.4c-.2.1,0,1.5,0,1.9s-.5,2-.4,2.1ZM212.2,34.7c-.2-.5-.7-1.1-1.1-1.6-3.6-4.1-9.2-5.9-14.6-4.9s-6.5,2.3-8.8,4.8c.3.2.6-.4.9-.6,5.4-4.2,12.8-4.9,18.8-1.6s3.2,2.4,4.8,3.9Z"/>
  </g>
</svg>