<?xml version="1.0" encoding="UTF-8"?>
<svg id="Layer_1" data-name="Layer 1" xmlns="http://www.w3.org/2000/svg" viewBox="0 0 100 100">
  <defs>
    <style>
      .cls-1 {
        fill: #edebda;
      }

      .cls-2 {
        fill: #3a414f;
      }

      .cls-3 {
        fill: #fff;
      }

      .cls-4 {
        fill: #666;
      }

      .cls-5 {
        fill: #cec8ae;
      }
    </style>
  </defs>
  <g>
    <path class="cls-4" d="M13.66,8.7v82.59c0-3.65,2.96-6.61,6.61-6.61h66.07V2.1H20.27c-3.65,0-6.61,2.96-6.61,6.61"/>
    <g>
      <path class="cls-2" d="M20.27,84.69h3.3V2.1h-3.3c-3.65,0-6.61,2.96-6.61,6.61v82.59c0-3.65,2.96-6.61,6.61-6.61"/>
      <polygon class="cls-2" points="48.35 18.61 41.74 13.66 35.13 18.61 35.13 2.1 48.35 2.1 48.35 18.61"/>
    </g>
    <path class="cls-1" d="M20.27,84.69c-3.65,0-6.61,2.96-6.61,6.61s2.96,6.61,6.61,6.61h66.07v-13.21H20.27Z"/>
    <path class="cls-5" d="M78.08,92.95H21.92c-.91,0-1.65-.74-1.65-1.65s.74-1.65,1.65-1.65h56.16c.91,0,1.65.74,1.65,1.65s-.74,1.65-1.65,1.65"/>
  </g>
  <path class="cls-3" d="M52.76,45.25h4.19c1.94,0,3.95-.18,6.01-.53-1.54,1.84-2.99,2.75-4.35,2.75l-1.67-.04-1.9-.04-1.51-.04h-1.02l-.14,1.43-.19,1.72c-.22,1.84-.62,3.17-1.19,3.99-.58.83-1.69,1.63-3.34,2.41l5.39.29-2.33,2.27-9.25-.43,2.52-2.42,2.11.23c1.59-1,2.56-3.05,2.93-6.15l.21-1.91,1.54-13.91h-.66c-2.53,0-4.51.52-5.95,1.55-1.44,1.04-2.16,2.45-2.16,4.25,0,1.08.3,2.19.9,3.32l-3.16,3.05c-.3-1.02-.45-2-.45-2.97,0-3.65,1.52-6.59,4.55-8.85,2.21-1.64,5.36-2.46,9.43-2.46h6.46c2.42,0,4.89-.09,7.4-.27l-1.56,4.02-.31.72c-.33.77-.74,1.16-1.25,1.16-.09,0-.19,0-.29-.02.16-.66.23-1.18.23-1.56,0-.86-.46-1.4-1.37-1.61s-3.18-.32-6.79-.32h-1.88l-1.15,10.37Z"/>
</svg>