<?xml version="1.0" encoding="UTF-8"?>
<svg id="Layer_1" data-name="Layer 1" xmlns="http://www.w3.org/2000/svg" viewBox="0 0 100 100">
  <defs>
    <style>
      .cls-1 {
        fill: #edebda;
      }

      .cls-2 {
        fill: #e2e2e2;
      }

      .cls-3 {
        fill: #8e3838;
      }

      .cls-4 {
        fill: #cec8ae;
      }

      .cls-5 {
        fill: #1997b1;
      }
    </style>
  </defs>
  <g>
    <path class="cls-2" d="M13.66,8.7v82.59c0-3.65,2.96-6.61,6.61-6.61h66.07V2.1H20.27c-3.65,0-6.61,2.96-6.61,6.61"/>
    <g>
      <path class="cls-5" d="M20.27,84.69h3.3V2.1h-3.3c-3.65,0-6.61,2.96-6.61,6.61v82.59c0-3.65,2.96-6.61,6.61-6.61"/>
      <polygon class="cls-5" points="48.35 18.61 41.74 13.66 35.13 18.61 35.13 2.1 48.35 2.1 48.35 18.61"/>
    </g>
    <path class="cls-1" d="M20.27,84.69c-3.65,0-6.61,2.96-6.61,6.61s2.96,6.61,6.61,6.61h66.07v-13.21H20.27Z"/>
    <path class="cls-4" d="M78.08,92.95H21.92c-.91,0-1.65-.74-1.65-1.65s.74-1.65,1.65-1.65h56.16c.91,0,1.65.74,1.65,1.65s-.74,1.65-1.65,1.65"/>
  </g>
  <path class="cls-3" d="M58.1,56.75c-2.94,2.04-5.84,3.06-8.69,3.06-2.69,0-4.86-1-6.51-2.99-1.65-1.99-2.47-4.62-2.47-7.88,0-4.83,1.52-8.86,4.57-12.1,3.05-3.24,6.85-4.86,11.41-4.86,2.3,0,4.69.44,7.17,1.31l-1.31,2.87-.37.84c-.31.66-.7,1-1.15,1-.09,0-.23-.02-.41-.06.18-.4.27-.73.27-.99,0-.87-.58-1.63-1.75-2.27-1.17-.65-2.53-.97-4.08-.97-3.25,0-5.85,1.27-7.8,3.81-1.96,2.54-2.93,5.91-2.93,10.11,0,3.08.68,5.49,2.05,7.21,1.37,1.73,3.27,2.59,5.71,2.59,2.24,0,4.41-.88,6.51-2.65l.8-7.04h-3.32c-2.25,0-4.06.22-5.41.66.65-1.33,1.27-2.16,1.85-2.5s1.67-.51,3.27-.51l1.97-.02h5.2l-.2.8-.31,1.23c-.17.73-.29,1.36-.35,1.89l-.87,7.85c-.3,2.64-.68,4.62-1.15,5.93-.47,1.31-1.24,2.52-2.3,3.62-2.13,2.24-4.68,3.36-7.65,3.36-2.73,0-4.86-.94-6.38-2.81l2.9-2.3c1.2,2.3,3.03,3.46,5.52,3.46,1.87,0,3.22-.59,4.04-1.77.83-1.18,1.42-3.35,1.78-6.5l.38-3.38Z"/>
</svg>