<?xml version="1.0" encoding="UTF-8"?>
<svg id="Layer_1" data-name="Layer 1" xmlns="http://www.w3.org/2000/svg" viewBox="0 0 100 100">
  <defs>
    <style>
      .cls-1 {
        fill: #edebda;
      }

      .cls-2 {
        fill: #e2e2e2;
      }

      .cls-3 {
        fill: #8e3838;
      }

      .cls-4 {
        fill: #cec8ae;
      }

      .cls-5 {
        fill: #1997b1;
      }
    </style>
  </defs>
  <g>
    <path class="cls-2" d="M13.66,8.7v82.59c0-3.65,2.96-6.61,6.61-6.61h66.07V2.1H20.27c-3.65,0-6.61,2.96-6.61,6.61"/>
    <g>
      <path class="cls-5" d="M20.27,84.69h3.3V2.1h-3.3c-3.65,0-6.61,2.96-6.61,6.61v82.59c0-3.65,2.96-6.61,6.61-6.61"/>
      <polygon class="cls-5" points="48.35 18.61 41.74 13.66 35.13 18.61 35.13 2.1 48.35 2.1 48.35 18.61"/>
    </g>
    <path class="cls-1" d="M20.27,84.69c-3.65,0-6.61,2.96-6.61,6.61s2.96,6.61,6.61,6.61h66.07v-13.21H20.27Z"/>
    <path class="cls-4" d="M78.08,92.95H21.92c-.91,0-1.65-.74-1.65-1.65s.74-1.65,1.65-1.65h56.16c.91,0,1.65.74,1.65,1.65s-.74,1.65-1.65,1.65"/>
  </g>
  <path class="cls-3" d="M42.11,55.58l3.32-2.01c.52,3.2,2.44,4.8,5.77,4.8,1.62,0,2.94-.44,3.97-1.32s1.54-2.01,1.54-3.39c0-1.89-1.14-3.76-3.42-5.62l-2.37-1.91c-1.9-1.56-3.18-2.8-3.82-3.7-.64-.91-.96-1.92-.96-3.06,0-2.14.85-3.9,2.56-5.29,1.71-1.39,3.86-2.09,6.46-2.09,2.07,0,4.03.5,5.88,1.48l-1.13,2.6-.51,1.15c-.29.68-.62,1.02-1.02,1.02-.17,0-.34-.07-.53-.2.22-.68.33-1.22.33-1.63,0-.84-.46-1.54-1.38-2.1-.92-.56-2.05-.84-3.41-.84-3.07,0-4.61,1.27-4.61,3.81,0,.91.34,1.79,1.03,2.63s2.11,2.14,4.27,3.9l1.89,1.56c2.41,1.96,3.61,4.01,3.61,6.16,0,2.37-1,4.35-3,5.92-2,1.58-4.5,2.37-7.49,2.37-3.65,0-5.98-1.41-7.01-4.24Z"/>
</svg>