<?xml version="1.0" encoding="UTF-8"?>
<svg id="Layer_1" data-name="Layer 1" xmlns="http://www.w3.org/2000/svg" viewBox="0 0 100 100">
  <defs>
    <style>
      .cls-1 {
        fill: #edebda;
      }

      .cls-2 {
        fill: #3a414f;
      }

      .cls-3 {
        fill: #fff;
      }

      .cls-4 {
        fill: #666;
      }

      .cls-5 {
        fill: #cec8ae;
      }
    </style>
  </defs>
  <g>
    <path class="cls-4" d="M13.66,8.7v82.59c0-3.65,2.96-6.61,6.61-6.61h66.07V2.1H20.27c-3.65,0-6.61,2.96-6.61,6.61"/>
    <g>
      <path class="cls-2" d="M20.27,84.69h3.3V2.1h-3.3c-3.65,0-6.61,2.96-6.61,6.61v82.59c0-3.65,2.96-6.61,6.61-6.61"/>
      <polygon class="cls-2" points="48.35 18.61 41.74 13.66 35.13 18.61 35.13 2.1 48.35 2.1 48.35 18.61"/>
    </g>
    <path class="cls-1" d="M20.27,84.69c-3.65,0-6.61,2.96-6.61,6.61s2.96,6.61,6.61,6.61h66.07v-13.21H20.27Z"/>
    <path class="cls-5" d="M78.08,92.95H21.92c-.91,0-1.65-.74-1.65-1.65s.74-1.65,1.65-1.65h56.16c.91,0,1.65.74,1.65,1.65s-.74,1.65-1.65,1.65"/>
  </g>
  <path class="cls-3" d="M54.48,56.46l-3.42,3.36c-.52-4.14-1.44-8.83-2.75-14.08-1.13-4.47-2.01-7.36-2.63-8.68-.62-1.32-1.42-1.98-2.41-1.98-1.71,0-2.94,1.3-3.69,3.91-.48-.1-.71-.36-.68-.78.04-.81.53-1.97,1.48-3.48,1.15-1.82,2.6-2.73,4.38-2.73,1.46,0,2.59.66,3.4,1.98.81,1.32,1.74,4.04,2.79,8.15,1.17,4.62,2.09,8.75,2.78,12.38,5.7-7.98,8.55-13.54,8.55-16.68,0-1.22-.5-2.12-1.48-2.68l2.87-3.16c1.3.73,1.95,1.86,1.95,3.38,0,1.93-1.57,5.38-4.71,10.37l-2.21,3.4-1.6,2.52c-.09.14-.41.69-.96,1.64l-.9,1.58c-.13.22-.38.75-.76,1.58Z"/>
</svg>