<?xml version="1.0" encoding="UTF-8"?>
<svg id="Capa_1" xmlns="http://www.w3.org/2000/svg" version="1.1" viewBox="0 0 100 100">
  <!-- Generator: Adobe Illustrator 29.2.1, SVG Export Plug-In . SVG Version: 2.1.0 Build 116)  -->
  <defs>
    <style>
      .st0, .st1 {
        fill: #771010;
      }

      .st2 {
        fill: #fff;
      }

      .st1 {
        stroke: #af0000;
        stroke-miterlimit: 10;
        stroke-width: 3px;
      }
    </style>
  </defs>
  <circle class="st1" cx="50" cy="50" r="45"/>
  <path class="st2" d="M77.7,30.6l-4.3-.6c0-1.7.6-2.3.7-2.3.3-.2.5-.6.4-1,0-.4-.4-.7-.8-.8-1.5-.3-37.4-6.2-40.9-6.4-1.8-.1-2.9.2-3.5,1-.3.4-.4.9-.4,1.3l-7.3,48.3v.2c.5,2.5,2.6,3.9,6,4.1l1-6.9c-3.9-.8-5-2.6-5-2.6l.5-3.2c1.7,1.4,3.7,2.1,5.1,2.4l4.5-30.7c-3.9-.8-5.1-2.6-5.1-2.6l.5-3.2c1.8,1.4,3.8,2.1,5.1,2.4l.8-5.7c-3-.7-3.9-1.7-4.1-2.2,0,0,0,0,0-.1,0,0,0,0,0,0h0s0,0,0,0c0,0,0,0,0,0,0,0,.3-.4,1.8-.3,3,.2,32.3,5,39.2,6.1-.2.5-.4,1.2-.4,2.1l-23.7-3.5c1.3,5.7-.4,10.4-.4,10.4-.4-1.1-3.1-3.2-3.1-3.2-2.2,2.2-4.1,2.3-4.1,2.3,1.1-6,.6-9.1,0-10.6l-3.3-.5-7.3,49.8c0,0,.1,0,.2,0l39.4,6.1s0,0,.1,0c.5,0,.9-.3.9-.8l8.4-47.9c0-.3,0-.5-.2-.7-.2-.2-.4-.4-.6-.4Z"/>
  <g>
    <path class="st0" d="M53.8,62.2c-.3-.1-.6-.2-1-.3-.6-.1-1.3-.3-1.9-.3s-.9,0-1.4,0l1-7.2,1.3-1.4.9-4,1.3.2s0,0,0,0l-.2,4c.2.6.6,1.1.9,1.7l-1,7.3Z"/>
    <path class="st0" d="M47.7,56.2c-.3,1.8-2,3.3-3.8,3.4-2.6.2-4.7-1.9-4.6-4.6l8.4,1.1Z"/>
    <path class="st0" d="M65.4,58.6c-.3,1.8-2,3.3-3.9,3.4s-4.7-2-4.5-4.6l8.4,1.1Z"/>
    <path class="st0" d="M56.5,65.2l-10.4-1.4c.3-.7,1.1-1.1,1.7-1.4,2.3-.8,5.9-.3,7.7,1.3s.9.9.9,1.5Z"/>
    <path class="st0" d="M44.9,45.6h0c0,0-3.9,8.8-3.9,8.8-.3.3-.6,0-.5-.3l3.8-8.7c-1-1,.2-2.5,1.4-1.7,1.4-1,3-1.9,4.7-2s1.1,0,1.5,0,.4.6,0,.6-.9,0-1.4,0c-1.7.1-3.1,1-4.5,1.9.1.6,0,1.1-.6,1.4l1.4,9.5c0,.4-.5.5-.6.1l-1.4-9.5ZM45.2,44.9c.3,0,.4-.4.3-.7-.3-.6-1.1-.1-.9.5.1-.1.1-.3.3-.5s.3,0,.4,0c.2.2-.1.6-.1.6Z"/>
    <path class="st0" d="M62.6,48h0c0,0-3.9,8.8-3.9,8.8-.3.3-.6,0-.5-.3l3.8-8.7c-.3-.3-.4-.7-.3-1.1s.1-.3.1-.3-.1-.2-.2-.2c-.7-.9-1.8-1.9-2.8-2.4s-1.5-.6-2.4-.8c-.2-.2-.1-.5.2-.5s.7.2.9.2c.9.3,1.7.6,2.4,1.2s1.5,1.4,2.2,2.2c1.1-.4,2,.9,1.2,1.8s-.3.2-.3.3l1.4,9.4c0,.3-.4.4-.6.1-.5-3.2-.9-6.4-1.4-9.5ZM63,47.2c.5-.4-.2-1.1-.6-.7s-.2.7,0,.8c0-.2-.1-.5,0-.7.4-.3.5.3.5.6Z"/>
    <rect class="st0" x="50.8" y="60.1" width=".7" height="10.5" transform="translate(-20.5 107.3) rotate(-82.3)"/>
    <path class="st0" d="M54.2,40.8c1.6,0,2,2.1.6,2.7s-2.3-.7-1.8-1.9.7-.8,1.2-.8Z"/>
    <path class="st0" d="M54.7,44.1l-.5,3.5-1.2-.2.5-3.5c.4.2.8.2,1.2.2Z"/>
    <path class="st0" d="M52.3,47.9l2.4.3c.2,0,.2.5-.2.5-.7,0-1.5-.3-2.2-.3-.3,0-.3-.4,0-.5Z"/>
  </g>
</svg>