<?xml version="1.0" encoding="UTF-8"?>
<svg id="Layer_1" xmlns="http://www.w3.org/2000/svg" xmlns:xlink="http://www.w3.org/1999/xlink" version="1.1" viewBox="0 0 512 512">
  <!-- Generator: Adobe Illustrator 29.2.1, SVG Export Plug-In . SVG Version: 2.1.0 Build 116)  -->
  <defs>
    <style>
      .st0 {
        fill: #151611;
      }

      .st1 {
        fill: #2d2f24;
      }

      .st2 {
        fill: #c9a5a1;
      }

      .st3 {
        fill: #c65c51;
      }

      .st4 {
        fill: #c8817a;
      }

      .st5 {
        fill: #c42b1c;
      }

      .st6 {
        fill: #5d5e57;
      }
    </style>
  </defs>
  <path class="st2" d="M504,192.4C475.7,81.8,375.4,0,256,0S0,114.6,0,256s85.4,224.1,199.7,249.8L504,192.4Z"/>
  <path class="st4" d="M512,256c0-22-2.8-43.3-8-63.6l-58.8-58.8L33.4,278.3l67.7,67.7-12.1,10.2,63.1,63.1-7.4,31.5,55,55c18.1,4.1,37,6.2,56.3,6.2,141.4,0,256-114.6,256-256Z"/>
  <polygon class="st1" points="211.5 406.3 211.5 450.8 144.7 450.8 144.7 406.3 178.1 384 211.5 406.3"/>
  <polygon class="st6" points="189.2 406.3 189.2 428.5 167 428.5 167 406.3 178.1 384 189.2 406.3"/>
  <g>
    <rect class="st0" x="144.7" y="345" width="66.8" height="61.2"/>
    <polygon class="st0" points="423 256 423 311.7 256 311.7 233.7 256 423 256"/>
  </g>
  <polygon class="st1" points="256 256 256 311.7 211.5 356.2 89 356.2 89 333.9 100.2 322.8 89 311.7 89 256 256 256"/>
  <path class="st5" d="M256,55.7l-44.5,200.3,233.7-11.1c0-104.3-84.9-189.2-189.2-189.2Z"/>
  <path class="st3" d="M66.8,244.9l189.2,11.1V55.7c-104.3,0-189.2,84.9-189.2,189.2Z"/>
  <rect class="st5" x="408.9" y="133.6" width="36.3" height="122.4"/>
  <path class="st3" d="M256,77.9l-44.5,183.7,211.5-16.7c0-92.1-74.9-167-167-167Z"/>
  <path class="st4" d="M89,244.9l167,16.7V77.9c-92.1,0-167,74.9-167,167Z"/>
  <polygon class="st5" points="478.6 278.3 256 278.3 233.7 239.3 256 200.3 311.7 200.3 311.7 244.9 445.2 244.9 478.6 278.3"/>
  <polygon class="st3" points="256 200.3 256 278.3 33.4 278.3 66.8 244.9 200.3 244.9 200.3 200.3 256 200.3"/>
  <rect class="st6" x="89" y="311.7" width="100.2" height="22.3"/>
  <g>
    <rect class="st3" x="155.8" y="155.8" width="22.3" height="22.3"/>
    <rect class="st3" x="200.3" y="133.6" width="22.3" height="22.3"/>
  </g>
</svg>