<?xml version="1.0" encoding="UTF-8"?>
<svg id="Layer_1" xmlns="http://www.w3.org/2000/svg" xmlns:xlink="http://www.w3.org/1999/xlink" version="1.1" viewBox="0 0 800 800">
  <!-- Generator: Adobe Illustrator 29.2.1, SVG Export Plug-In . SVG Version: 2.1.0 Build 116)  -->
  <defs>
    <style>
      .st0 {
        fill: #591e14;
      }

      .st1 {
        fill: #993434;
      }

      .st2 {
        fill: #ed4c54;
      }

      .st3 {
        fill: #fff;
      }

      .st4 {
        fill: #f0ba7d;
      }

      .st5 {
        fill: #666;
      }

      .st6 {
        fill: #efc2c2;
      }

      .st7 {
        fill: #fed298;
      }

      .st8 {
        fill: #f2f2f2;
      }

      .st9 {
        fill: #ff5b62;
      }

      .st10 {
        fill: #d65f5f;
      }

      .st11 {
        fill: #9e6969;
      }

      .st12 {
        fill: #ecf0f1;
      }
    </style>
  </defs>
  <circle class="st10" cx="400" cy="400" r="400"/>
  <circle class="st12" cx="400" cy="400" r="229.1"/>
  <path class="st6" d="M363.7,440.1l-32.1,9.3-66.2,15.7s-8.1-5.7-13,9.5c-2.2,6.8-8.5,42.1-14.7,78.9,43.1,38.4,100,61.8,162.3,61.8s119.2-23.4,162.3-61.8c-6.2-36.7-12.5-72.1-14.7-78.9-4.9-15.1-13-9.5-13-9.5l-66.2-15.7-32.1-9.3-36.3,1.6-36.3-1.6h0Z"/>
  <path class="st4" d="M369.8,380.4h60.4l4.9,52.1,8.7,7.1,18.3,11.9-62.1,150-62.1-150,18.3-11.9,8.7-7.1,4.9-52.1h0Z"/>
  <path class="st8" d="M349.9,443.5l-11.9,3.9,62,154.2,62.5-153.9-12.7-4.1-31.1,22.5h-37.3l-31.5-22.6Z"/>
  <path class="st9" d="M388.8,464l4.3,10.8-9.5,123,16.4,12.8,16.4-12.8-9.5-123,4.3-10.8-11.2-.5-11.2.5Z"/>
  <path class="st11" d="M350.8,443.2l-19.1,6.2-3.7,49.6s1,4.1,4,3.7l17.2,6.6s1.1,1.2.1,2.6l-14.7,10.3,42,91.9c7.5.7,15.1,1.1,22.8,1.1l-48.8-172.1h0s0,0,0,0ZM423.3,614.1l42-91.9-14.7-10.3c-1-1.5.1-2.6.1-2.6l17.2-6.6c3,.4,4-3.7,4-3.7l-3.7-49.4-18.5-6-49.4,171.7c7.7,0,15.3-.4,22.8-1.1h0s0,0,0,0h0Z"/>
  <path class="st7" d="M470.3,288.1c0,4.5,1.7,8.9,1.6,13.3,16.2-2.9,8.4,43-.8,49.3-.7.5-2.5-.6-4-1.5-3.2,16.9-30.3,62-47.5,80.9-4.8,5.3-34,5.2-38.8.2-17.6-18.5-44.7-64.2-47.9-81.1-1.5.9-3.3,2-4,1.5-9.2-6.3-17-52.2-.8-49.3-.1-4.3,1.6-8.7,1.6-13.3.9-35.6,34.7-53.4,70.3-53.6,35.6.2,69.4,17.9,70.3,53.6h0s0,0,0,0h0Z"/>
  <path class="st5" d="M448.6,242.4c5.1-.6,23.5,4.8,25.7,23.4,2.2,18.6,1.2,35.8,1.2,35.8,0,0-10.8,2.6-12.2,13.2-1.4,10.6-.4,10.6-.4,10.6l-3.9-.8-2.8-18.1c-16.2-9.7.1-24-16-27.3-43.6,29.7-82.1,24.6-99.5,10.6,0,0,4,14.6.9,19.8-3.1,5.2-1.3,13.4-1.3,13.4l-4.1-.2s.7-21.5-8.3-21.4c-34.2-54,74.1-121,120.5-58.9h0s0,0,0,0h0Z"/>
  <g>
    <path class="st3" d="M364.5,425.1c1.3,0-14.8,18.6-14.8,18.6l13.7,47.8,36.6-28c-20.1-10.1-32.2-23.2-35.5-38.5Z"/>
    <path class="st3" d="M435.5,425.1c-1.3,0,14.8,18.6,14.8,18.6l-13.7,47.8-36.6-28c20.1-10.1,32.2-23.2,35.5-38.5Z"/>
  </g>
  <path class="st6" d="M138.5,435.5l-16.3,4.7-33.6,8s-4.1-2.9-6.6,4.8c-1.1,3.5-4.3,21.4-7.5,40,21.9,19.5,50.8,31.4,82.4,31.4s31.4-3.1,45.4-8.6c-14.2-24.2-24.1-51.3-28.7-80.2l-16.8.8-18.4-.8h0Z"/>
  <path class="st4" d="M141.6,405.2h29.4c.4,19.9,3.4,39.1,8.6,57.4l-22.7,54.9-31.5-76.1,9.3-6.1,4.4-3.6,2.5-26.4h0Z"/>
  <path class="st8" d="M131.5,437.2l-6,2,31.5,78.3,22.5-55.4c-1.8-6.4-3.3-12.9-4.5-19.5l-8.5,6.1h-18.9l-16-11.5Z"/>
  <path class="st9" d="M151.3,447.6l2.2,5.5-4.8,62.4,8.3,6.5,8.3-6.5-4.8-62.4,2.2-5.5-5.7-.2-5.7.2h0Z"/>
  <path class="st11" d="M131.9,437.1l-9.7,3.2-1.9,25.2s.5,2.1,2,1.9l8.7,3.4s.6.6,0,1.3l-7.5,5.2,21.3,46.6c3.8.4,7.7.6,11.6.6l-24.7-87.3h0ZM168.8,523.8l18.1-39.7c-3.8-9.7-7-19.8-9.5-30.1l-20.2,70.3c3.9,0,7.8-.2,11.6-.6h0Z"/>
  <path class="st7" d="M121.2,351.5c0,2.5-.9,4.9-.8,7.2-8.2-1.6-4.2,23.4.4,26.8.4.3,1.3-.3,2-.8,1.6,9.2,15.4,33.7,24.1,44,2.4,2.9,17.3,2.8,19.7.1,1.7-1.9,3.5-4.2,5.3-6.9-.7-7.2-1-14.5-1-21.9,0-24.4,3.8-47.9,10.9-69.9-6.7-5.1-15.7-7.6-24.9-7.7-18.1,0-35.2,9.8-35.7,29.1h0Z"/>
  <path class="st5" d="M132.2,326.6c-2.6-.3-11.9,2.6-13.1,12.7-1.1,10.1-.6,19.5-.6,19.5,0,0,5.5,1.4,6.2,7.2.7,5.8.2,5.8.2,5.8l2-.5,1.4-9.9c8.2-5.3,0-13,8.1-14.9,14.7,10.7,28.3,13.1,38.3,11.3,2.2-11.9,5.3-23.4,9.3-34.6-14.6-12.2-38.4-15.9-51.9,3.4h0Z"/>
  <g>
    <path class="st3" d="M138.9,427.9c.6,0-7.5,9.4-7.5,9.4l6.9,24.3,18.6-14.2c-10.2-5.1-16.3-11.8-18-19.5h0Z"/>
    <path class="st3" d="M177.5,454.6l-2,7-18.6-14.2c8.1-4,13.6-9,16.4-14.8,1.1,7.4,2.5,14.7,4.2,21.9h0Z"/>
  </g>
  <path class="st6" d="M635.9,435.5l-10.1,2.9c-4.4,26.3-13.3,51-25.9,73.4,16.4,8,34.9,12.6,54.4,12.6,31.6,0,60.5-11.9,82.4-31.4-3.2-18.6-6.3-36.6-7.5-40-2.5-7.7-6.6-4.8-6.6-4.8l-33.6-8-16.3-4.7-18.4.8-18.4-.8h0Z"/>
  <path class="st4" d="M639,405.2h30.6l2.5,26.4,4.4,3.6,9.3,6.1-31.5,76.1-29.8-72c.4-2,.8-4,1.1-6l6.5-4.2,4.4-3.6,2.5-26.4h0Z"/>
  <path class="st8" d="M628.9,437.2l-3,1c-.3,2-.7,3.9-1.1,5.9l29.5,73.4,31.7-78.1-6.5-2.1-15.8,11.4h-18.9l-16-11.5Z"/>
  <path class="st9" d="M648.6,447.6l2.2,5.5-4.8,62.4,8.3,6.5,8.3-6.5-4.8-62.4,2.2-5.5-5.7-.2-5.7.2h0Z"/>
  <path class="st11" d="M629.3,437.1l-3.5,1.1c-1.7,9.9-3.9,19.5-6.8,29,.2.1.5.2.8.1l8.7,3.4s.6.6,0,1.3l-7.5,5.2,21.3,46.6c3.8.4,7.7.6,11.6.6l-24.7-87.3h0ZM666.1,523.8l21.3-46.6-7.5-5.2c-.5-.7,0-1.3,0-1.3l8.7-3.4c1.5.2,2-1.9,2-1.9l-1.9-25.1-9.4-3-25,87.1c3.9,0,7.8-.2,11.6-.6h0s0,0,0,0Z"/>
  <path class="st7" d="M629,405.1c4.9,8.9,10.8,18.2,15.4,23.6,2.4,2.9,17.3,2.8,19.7.1,9-10.1,22.7-34.9,24.3-44.1.8.5,1.7,1.1,2,.8,4.6-3.4,8.6-28.4.4-26.8,0-2.4-.8-4.8-.8-7.2-.5-19.4-17.6-29-35.7-29.1-14.1,0-27.7,6-33.2,17.8,5.1,19.1,7.9,39.1,7.9,59.8s0,3.4,0,5.1h0s0,0,0,0Z"/>
  <path class="st5" d="M629.6,326.6c-1.9-.2-7.4,1.3-10.6,6,2.9,9.3,5.1,18.9,6.8,28.7,8.1-5.3,0-13,8.1-14.8,22.1,16.1,41.7,13.4,50.5,5.8,0,0-2.1,7.9-.5,10.8,1.6,2.8.6,7.3.6,7.3h2.1c0-.1-.4-11.8,4.2-11.7,17.4-29.3-37.6-65.8-61.2-32.1h0Z"/>
  <g>
    <path class="st3" d="M636.3,427.9c.6,0-7.5,9.4-7.5,9.4l6.9,24.3,18.6-14.2c-10.2-5.1-16.3-11.8-18-19.5h0Z"/>
    <path class="st3" d="M672.3,427.9c-.6,0,7.5,9.4,7.5,9.4l-6.9,24.3-18.6-14.2c10.2-5.1,16.3-11.8,18-19.5h0Z"/>
  </g>
  <path class="st0" d="M417,640.5v44.5h-34.1v-44.5c5.6.4,11.3.6,17,.6,5.7,0,11.4-.2,17-.6Z"/>
  <path class="st1" d="M400,157.1c67.1,0,127.8,27.2,171.7,71.1,43.9,44,71.1,104.7,71.1,171.7s-27.2,127.8-71.1,171.7c-44,43.9-104.7,71.1-171.7,71.1s-127.8-27.2-171.7-71.1c-43.9-44-71.1-104.7-71.1-171.7s27.2-127.8,71.1-171.7c43.9-43.9,104.7-71.1,171.7-71.1ZM552.2,247.8c-39-38.9-92.8-63-152.2-63s-113.2,24.1-152.2,63c-38.9,39-63,92.8-63,152.2s24.1,113.2,63,152.2c39,38.9,92.8,63,152.2,63s113.2-24.1,152.2-63c38.9-39,63-92.8,63-152.2,0-59.4-24.1-113.2-63-152.2Z"/>
  <path class="st9" d="M368.3,684.9h63.4c7,0,12.7,5.7,12.7,12.7v99.9c-14.6,1.6-29.4,2.5-44.3,2.5s-29.8-.9-44.3-2.5v-99.9c0-7,5.7-12.7,12.7-12.7h0Z"/>
  <path class="st2" d="M355.7,700.5h88.7v6.9h-88.7v-6.9h0ZM355.7,713.9h88.7v6.9h-88.7v-6.9h0Z"/>
  <g>
    <path class="st3" d="M333.8,605.4c-86-28.6-148.1-109.8-148.1-205.4s62-176.8,148.1-205.4c-74.3,38.5-125,116-125,205.4s50.8,167,125,205.4Z"/>
    <path class="st3" d="M488.8,585.4c69.1-25.8,118.9-99.1,118.9-185.4s-49.8-159.5-118.9-185.4c7.9,4.6,15.5,9.8,22.6,15.6,52.4,33.6,87.8,97,87.8,169.8s-35.4,136.2-87.8,169.8c-7.2,5.8-14.7,11-22.6,15.6h0Z"/>
  </g>
</svg>