<?xml version="1.0" encoding="UTF-8"?>
<svg id="Capa_1" xmlns="http://www.w3.org/2000/svg" xmlns:xlink="http://www.w3.org/1999/xlink" version="1.1" viewBox="0 0 261 175">
  <!-- Generator: Adobe Illustrator 29.2.1, SVG Export Plug-In . SVG Version: 2.1.0 Build 116)  -->
  <defs>
    <style>
      .st0 {
        fill: #0d4c20;
      }

      .st1 {
        isolation: isolate;
      }

      .st2 {
        mix-blend-mode: hard-light;
      }

      .st3 {
        fill: #919fe5;
      }

      .st4 {
        fill: #083318;
      }

      .st5 {
        opacity: .9;
      }
    </style>
  </defs>
  <g class="st1">
    <g id="Capa_11" data-name="Capa_1">
      <path class="st3" d="M169.1,152.4h-92.2c-22.4,0-68.9-35.5-68.9-78.9V8.6h230v64.9c0,43.4-46.5,78.9-68.9,78.9h0Z"/>
      <g class="st5">
        <path class="st0" d="M195.3,44.2c5.9,0,10.7,1.7,14.2,5,3.5,3.3,5.3,7.9,5.3,13.7s-2.1,12.1-6.3,15.8c-4.2,3.7-10.3,5.5-18.1,5.5s-12.3-1.1-16.5-3.3v-11.2c2.2,1.2,4.8,2.1,7.7,2.9,2.9.7,5.7,1.1,8.4,1.1,7.9,0,11.9-3.2,11.9-9.7s-4.1-9.3-12.3-9.3-3.1.2-4.9.4c-1.8.3-3.2.6-4.4.9l-5.2-2.8,2.3-31.3h33.3v11h-21.9l-1.1,12,1.5-.3c1.7-.4,3.8-.6,6.3-.6h0Z"/>
      </g>
      <g id="cUuxwO.tif" class="st2">
        <g>
          <path class="st4" d="M171.6,106.7c.6,11.8-.5,24.2,0,36.1-.9,6.3-5.8,11-12.2,11.5h-76.5c-6.7-.4-12-5.6-12.4-12.2.5-11.9-.7-24.3,0-36.2.7-11.9,7.8-23.3,17.9-29.4.6-.3,2.7-1.6,3.2-1.7.2,0,.3,0,.4.1,7.3,12.8,21.1,22.3,36.4,18,9.4-2.6,16.8-10,21.8-18.2,2,.7,4,2,5.8,3.2,9.3,6.6,15,17.2,15.6,28.6h0ZM104.6,101.5c-3.7.6-5.5,5.8-3,8.7,3.9,4,8,7.8,11.7,11.9-4,4.2-8.3,8-12.1,12.4-2.8,4.9,2.2,10.1,7.2,7.6,4.4-3.8,8.3-8.4,12.7-12.3,4.2,4,8.2,8.4,12.5,12.3,5.8,2.8,10.7-4.2,6.3-8.8-3.7-3.8-7.6-7.4-11.2-11.3,4-4.2,8.3-8,12.1-12.4,3-5.8-3.9-10.9-8.6-6.5-3.8,3.7-7.4,7.6-11.3,11.2-4.1-3.9-7.9-8.1-12.1-11.9-1.2-.9-2.8-1.1-4.3-.9h0Z"/>
          <path class="st4" d="M122.8,26.6c13.5.9,24.2,12.1,25,25.5.6,10.4-5.5,22.7-13.8,28.9-21.4,15.9-43.7-12.6-39.2-33.4,2.5-11.5,12.6-20.2,24.4-21,1.1,0,2.6,0,3.6,0h0Z"/>
        </g>
      </g>
    </g>
  </g>
  <rect class="st3" y="8.2" width="261" height="8.5"/>
</svg>