<?xml version="1.0" encoding="UTF-8"?>
<svg id="Capa_1" xmlns="http://www.w3.org/2000/svg" xmlns:xlink="http://www.w3.org/1999/xlink" version="1.1" viewBox="0 0 261 175">
  <!-- Generator: Adobe Illustrator 29.2.1, SVG Export Plug-In . SVG Version: 2.1.0 Build 116)  -->
  <defs>
    <style>
      .st0 {
        fill: #595959;
      }

      .st1 {
        isolation: isolate;
      }

      .st2 {
        fill: #c6c6c6;
      }

      .st3 {
        mix-blend-mode: hard-light;
      }
    </style>
  </defs>
  <g class="st1">
    <g id="Capa_11" data-name="Capa_1">
      <path class="st0" d="M169.1,152.4h-92.2c-22.4,0-68.9-35.5-68.9-78.9V8.6h230v64.9c0,43.4-46.5,78.9-68.9,78.9h0Z"/>
      <g id="cUuxwO.tif" class="st3">
        <g>
          <path class="st2" d="M171.6,106.7c.6,11.8-.5,24.2,0,36.1-.9,6.3-5.8,11-12.2,11.5h-76.5c-6.7-.4-12-5.6-12.4-12.2.5-11.9-.7-24.3,0-36.2.7-11.9,7.8-23.3,17.9-29.4.6-.3,2.7-1.6,3.2-1.7.2,0,.3,0,.4.1,7.3,12.8,21.1,22.3,36.4,18,9.4-2.6,16.8-10,21.8-18.2,2,.7,4,2,5.8,3.2,9.3,6.6,15,17.2,15.6,28.6h0ZM104.6,101.5c-3.7.6-5.5,5.8-3,8.7,3.9,4,8,7.8,11.7,11.9-4,4.2-8.3,8-12.1,12.4-2.8,4.9,2.2,10.1,7.2,7.6,4.4-3.8,8.3-8.4,12.7-12.3,4.2,4,8.2,8.4,12.5,12.3,5.8,2.8,10.7-4.2,6.3-8.8-3.7-3.8-7.6-7.4-11.2-11.3,4-4.2,8.3-8,12.1-12.4,3-5.8-3.9-10.9-8.6-6.5-3.8,3.7-7.4,7.6-11.3,11.2-4.1-3.9-7.9-8.1-12.1-11.9-1.2-.9-2.8-1.1-4.3-.9h0Z"/>
          <path class="st2" d="M122.8,26.6c13.5.9,24.2,12.1,25,25.5.6,10.4-5.5,22.7-13.8,28.9-21.4,15.9-43.7-12.6-39.2-33.4,2.5-11.5,12.6-20.2,24.4-21,1.1,0,2.6,0,3.6,0h0Z"/>
        </g>
      </g>
    </g>
  </g>
</svg>