<?xml version="1.0" encoding="UTF-8"?>
<svg id="Capa_1" xmlns="http://www.w3.org/2000/svg" xmlns:xlink="http://www.w3.org/1999/xlink" version="1.1" viewBox="0 0 261 174">
  <!-- Generator: Adobe Illustrator 29.2.1, SVG Export Plug-In . SVG Version: 2.1.0 Build 116)  -->
  <defs>
    <style>
      .st0 {
        isolation: isolate;
      }

      .st1 {
        mix-blend-mode: hard-light;
      }

      .st2 {
        fill: #e5b191;
      }

      .st3 {
        fill: #962460;
      }

      .st4 {
        opacity: .9;
      }

      .st5 {
        fill: #33081e;
      }
    </style>
  </defs>
  <g class="st0">
    <g id="Capa_11" data-name="Capa_1">
      <path class="st2" d="M169.2,152h-92.2c-22.4,0-68.9-35.5-68.9-78.9V8.2h230v64.9c0,43.4-46.5,78.9-68.9,78.9h0Z"/>
      <g class="st4">
        <path class="st3" d="M215.9,83h-42.9v-9l15.4-15.6c4.6-4.7,7.5-7.9,8.9-9.7s2.4-3.5,3-5c.6-1.5.9-3.1.9-4.8,0-2.5-.7-4.3-2-5.5s-3.2-1.8-5.4-1.8-4.7.5-6.9,1.6c-2.2,1.1-4.6,2.7-7,4.7l-7.1-8.4c3-2.6,5.5-4.4,7.5-5.5,2-1.1,4.2-1.9,6.5-2.5s5-.9,7.9-.9,7.2.7,10.2,2.1,5.2,3.4,6.8,5.9c1.6,2.5,2.4,5.4,2.4,8.6s-.5,5.5-1.5,8c-1,2.5-2.5,5-4.6,7.6s-5.8,6.3-11,11.1l-7.9,7.4v.6h26.7v10.9h0Z"/>
      </g>
      <g id="cUuxwO.tif" class="st1">
        <g>
          <path class="st5" d="M171.7,106.3c.6,11.8-.5,24.2,0,36.1-.9,6.3-5.8,11-12.2,11.5h-76.5c-6.7-.4-12-5.6-12.4-12.2.5-11.9-.7-24.3,0-36.2.7-11.9,7.8-23.3,17.9-29.4.6-.3,2.7-1.6,3.2-1.7.2,0,.3,0,.4.1,7.3,12.8,21.1,22.3,36.4,18,9.4-2.6,16.8-10,21.8-18.2,2,.7,4,2,5.8,3.2,9.3,6.6,15,17.2,15.6,28.6h0ZM104.7,101.1c-3.7.6-5.5,5.8-3,8.7,3.9,4,8,7.8,11.7,11.9-4,4.2-8.3,8-12.1,12.4-2.8,4.9,2.2,10.1,7.2,7.6,4.4-3.8,8.3-8.4,12.7-12.3,4.2,4,8.2,8.4,12.5,12.3,5.8,2.8,10.7-4.2,6.3-8.8-3.7-3.8-7.6-7.4-11.2-11.3,4-4.2,8.3-8,12.1-12.4,3-5.8-3.9-10.9-8.6-6.5-3.8,3.7-7.4,7.6-11.3,11.2-4.1-3.9-7.9-8.1-12.1-11.9-1.2-.9-2.8-1.1-4.3-.9h0Z"/>
          <path class="st5" d="M122.9,26.2c13.5.9,24.2,12.1,25,25.5.6,10.4-5.5,22.7-13.8,28.9-21.4,15.9-43.7-12.6-39.2-33.4,2.5-11.5,12.6-20.2,24.4-21,1.1,0,2.6,0,3.6,0h0Z"/>
        </g>
      </g>
    </g>
  </g>
  <rect class="st2" y="8.2" width="261" height="8.5"/>
</svg>