<?xml version="1.0" encoding="UTF-8"?>
<svg id="Capa_1" xmlns="http://www.w3.org/2000/svg" xmlns:xlink="http://www.w3.org/1999/xlink" version="1.1" viewBox="0 0 261 175">
  <!-- Generator: Adobe Illustrator 29.2.1, SVG Export Plug-In . SVG Version: 2.1.0 Build 116)  -->
  <defs>
    <style>
      .st0 {
        isolation: isolate;
      }

      .st1 {
        mix-blend-mode: hard-light;
      }

      .st2 {
        opacity: .9;
      }

      .st3 {
        fill: #e591a9;
      }

      .st4 {
        fill: #190833;
      }

      .st5 {
        fill: #40227c;
      }
    </style>
  </defs>
  <g class="st0">
    <g id="Capa_11" data-name="Capa_1">
      <path class="st3" d="M169.3,152.2h-92.2c-22.4,0-68.9-35.5-68.9-78.9V8.5h230v64.9c0,43.4-46.5,78.9-68.9,78.9h0Z"/>
      <g class="st2">
        <path class="st5" d="M213.6,35.7c0,3.8-1.2,7.1-3.5,9.8-2.3,2.7-5.6,4.5-9.8,5.5v.2c4.9.6,8.7,2.1,11.2,4.5s3.8,5.6,3.8,9.7c0,5.9-2.1,10.5-6.4,13.8s-10.4,4.9-18.3,4.9-12.6-1.1-17.7-3.3v-11c2.4,1.2,5,2.2,7.9,2.9s5.7,1.1,8.5,1.1c4.3,0,7.4-.7,9.5-2.2,2-1.4,3.1-3.8,3.1-7s-1.2-4.9-3.5-6.1-6.1-1.8-11.2-1.8h-4.7v-10h4.7c4.8,0,8.2-.6,10.4-1.9,2.2-1.2,3.3-3.4,3.3-6.4,0-4.7-2.9-7-8.7-7s-4.1.3-6.1,1c-2.1.7-4.4,1.8-6.9,3.5l-6-8.9c5.6-4,12.3-6,20-6s11.4,1.3,15.1,3.9c3.7,2.6,5.5,6.2,5.5,10.8h0Z"/>
      </g>
      <g id="cUuxwO.tif" class="st1">
        <g>
          <path class="st4" d="M171.8,106.6c.6,11.8-.5,24.2,0,36.1-.9,6.3-5.8,11-12.2,11.5h-76.5c-6.7-.4-12-5.6-12.4-12.2.5-11.9-.7-24.3,0-36.2.7-11.9,7.8-23.3,17.9-29.4.6-.3,2.7-1.6,3.2-1.7.2,0,.3,0,.4.1,7.3,12.8,21.1,22.3,36.4,18,9.4-2.6,16.8-10,21.8-18.2,2,.7,4,2,5.8,3.2,9.3,6.6,15,17.2,15.6,28.6h0ZM104.8,101.4c-3.7.6-5.5,5.8-3,8.7,3.9,4,8,7.8,11.7,11.9-4,4.2-8.3,8-12.1,12.4-2.8,4.9,2.2,10.1,7.2,7.6,4.4-3.8,8.3-8.4,12.7-12.3,4.2,4,8.2,8.4,12.5,12.3,5.8,2.8,10.7-4.2,6.3-8.8-3.7-3.8-7.6-7.4-11.2-11.3,4-4.2,8.3-8,12.1-12.4,3-5.8-3.9-10.9-8.6-6.5-3.8,3.7-7.4,7.6-11.3,11.2-4.1-3.9-7.9-8.1-12.1-11.9-1.2-.9-2.8-1.1-4.3-.9h0Z"/>
          <path class="st4" d="M123,26.5c13.5.9,24.2,12.1,25,25.5.6,10.3-5.5,22.8-13.8,28.9-21.4,15.9-43.7-12.6-39.2-33.4,2.5-11.5,12.6-20.2,24.4-21,1.1,0,2.6,0,3.6,0h0Z"/>
        </g>
      </g>
    </g>
  </g>
  <rect class="st3" y="8.2" width="261" height="8.5"/>
</svg>