<?xml version="1.0" encoding="UTF-8"?>
<svg id="Capa_1" xmlns="http://www.w3.org/2000/svg" version="1.1" viewBox="0 0 217 217">
  <!-- Generator: Adobe Illustrator 29.2.1, SVG Export Plug-In . SVG Version: 2.1.0 Build 116)  -->
  <defs>
    <style>
      .st0, .st1 {
        fill: #ccc;
      }

      .st2, .st1 {
        isolation: isolate;
      }

      .st3 {
        fill: #fff;
      }

      .st1 {
        opacity: .3;
      }

      .st4 {
        fill: #680000;
      }
    </style>
  </defs>
  <g id="Glossary">
    <path class="st1" d="M198.9,10.8H42.4c-.8,0-1.5.2-2.1.7l-13.6,10.5c-1,.8-1.6,2.2-1.4,3.7v183.4c0,2.6,1.8,4.7,4,4.7h156.3c2.2,0,4-2.1,4-4.7h0v-1.6l5.5-4.3h3.8c2.2,0,4-2.1,4-4.7h0V15.5c0-2.6-1.8-4.7-4-4.7h0Z"/>
    <rect class="st0" x="31.9" y="3" width="164.3" height="192.4" rx="3" ry="3"/>
    <path class="st3" d="M186.9,8.8H35.6c-5,0-9,4.7-9,10.5h0v178.1c0,2.1,1.5,3.8,3.2,3.8h144.8c2.6,0,5.1-.7,7.3-2.1l.9.5,5.9-4.6c1.3-1,2.1-2.8,2.1-4.7V13.5c0-2.6-1.8-4.7-4-4.7h0Z"/>
    <path class="st0" d="M178.9,13.5H34l5.9-4.6c.4-.3.5-.8.2-1.3h0l-1.6-2.9c-1.1-1.9-3.3-2.4-4.9-1.2h0l-13.5,10.5c-1,.8-1.6,2.2-1.4,3.7v183.4c0,2.6,1.8,4.7,4,4.7h156.3c2.2,0,4-2.1,4-4.7h0V18.2c0-2.6-1.8-4.7-4-4.7,0,0-.1,0-.1,0Z"/>
    <g class="st2">
      <g class="st2">
        <g class="st2">
          <path class="st4" d="M129.6,83.6l1.1,16.4h-1.1c-1.5-4.9-3.6-8.4-6.3-10.6-2.7-2.2-6-3.2-9.8-3.2s-6.1.8-8.7,2.4-4.6,4.2-6.1,7.8c-1.5,3.6-2.2,8-2.2,13.3s.7,8.1,2.1,11.3c1.4,3.2,3.5,5.7,6.3,7.4s6,2.6,9.6,2.6,5.9-.7,8.3-2,5-4,7.9-8l1.1.7c-2.4,4.3-5.2,7.4-8.5,9.4-3.2,2-7.1,3-11.5,3-8,0-14.2-3-18.6-8.9-3.3-4.4-4.9-9.6-4.9-15.6s1.1-9.2,3.2-13.3c2.2-4,5.1-7.2,8.9-9.4s7.9-3.3,12.4-3.3,6.9.9,10.3,2.6c1,.5,1.7.8,2.1.8.6,0,1.2-.2,1.7-.7s1.1-1.5,1.3-2.7h1.4Z"/>
          <path class="st4" d="M164.3,120.5c-.9,4.3-2.6,7.6-5.2,9.9-2.6,2.3-5.4,3.5-8.5,3.5s-6.9-1.6-9.7-4.7-4.1-7.3-4.1-12.6,1.5-9.3,4.6-12.5,6.7-4.8,11-4.8,5.8.8,7.9,2.5c2.1,1.7,3.1,3.5,3.1,5.3s-.3,1.6-.9,2.2c-.6.6-1.4.8-2.4.8s-2.5-.5-3.2-1.4c-.4-.5-.7-1.4-.8-2.8s-.6-2.5-1.4-3.2c-.8-.7-2-1.1-3.4-1.1-2.4,0-4.3.9-5.7,2.6-1.9,2.3-2.9,5.4-2.9,9.2s1,7.3,2.9,10.3,4.5,4.5,7.7,4.5,4.4-.8,6.3-2.4c1.3-1.1,2.6-3.1,3.8-5.9l1,.5h-.1Z"/>
        </g>
      </g>
    </g>
    <rect class="st4" x="18.6" y="91" width="53.1" height="35.5"/>
  </g>
</svg>