<?xml version="1.0" encoding="UTF-8"?>
<svg id="Layer_1" data-name="Layer 1" xmlns="http://www.w3.org/2000/svg" viewBox="0 0 100 100">
  <defs>
    <style>
      .cls-1 {
        fill: #edebda;
      }

      .cls-2 {
        fill: #e2e2e2;
      }

      .cls-3 {
        fill: #8e3838;
      }

      .cls-4 {
        fill: #cec8ae;
      }

      .cls-5 {
        fill: #1997b1;
      }
    </style>
  </defs>
  <g>
    <path class="cls-2" d="M13.66,8.7v82.59c0-3.65,2.96-6.61,6.61-6.61h66.07V2.1H20.27c-3.65,0-6.61,2.96-6.61,6.61"/>
    <g>
      <path class="cls-5" d="M20.27,84.69h3.3V2.1h-3.3c-3.65,0-6.61,2.96-6.61,6.61v82.59c0-3.65,2.96-6.61,6.61-6.61"/>
      <polygon class="cls-5" points="48.35 18.61 41.74 13.66 35.13 18.61 35.13 2.1 48.35 2.1 48.35 18.61"/>
    </g>
    <path class="cls-1" d="M20.27,84.69c-3.65,0-6.61,2.96-6.61,6.61s2.96,6.61,6.61,6.61h66.07v-13.21H20.27Z"/>
    <path class="cls-4" d="M78.08,92.95H21.92c-.91,0-1.65-.74-1.65-1.65s.74-1.65,1.65-1.65h56.16c.91,0,1.65.74,1.65,1.65s-.74,1.65-1.65,1.65"/>
  </g>
  <path class="cls-3" d="M40.38,58.57l2.48-2.66.61.14c.78.2,1.52.34,2.23.44,1.05-.65,1.77-1.43,2.14-2.35s.71-2.7,1.01-5.35l1.63-14.69c-2.71.2-4.86.92-6.48,2.18-1.61,1.26-2.42,2.85-2.42,4.76,0,1.14.29,2.22.86,3.24l-3.14,2.77c-.27-1-.41-2.02-.41-3.05,0-3.52,1.5-6.4,4.5-8.64,3-2.25,6.84-3.37,11.51-3.37,6.03,0,9.04,1.73,9.04,5.19,0,2.95-2.09,5.31-6.28,7.08,4.09,1.49,6.14,3.77,6.14,6.84,0,2.5-1.27,4.5-3.81,5.98s-5.94,2.23-10.2,2.23c-2.62,0-5.76-.25-9.41-.74ZM52.31,45.83l-.29,2.62-.18,1.64c-.22,1.94-.61,3.3-1.16,4.09-.55.79-1.73,1.64-3.53,2.55,2.58.42,5.13.63,7.64.63,4.07,0,6.11-1.61,6.11-4.84,0-1.39-.56-2.74-1.67-4.03s-2.48-2.18-4.08-2.65l-.51.02-.94.04-.86-.04-.53-.02ZM53.63,33.94l-1.14,10.31c.77.07,1.43.1,1.99.1.62,0,1.37-.04,2.25-.14,2.77-1.6,4.16-3.52,4.16-5.76,0-3.01-2.42-4.51-7.26-4.51Z"/>
</svg>