<?xml version="1.0" encoding="UTF-8"?>
<svg id="Layer_1" data-name="Layer 1" xmlns="http://www.w3.org/2000/svg" viewBox="0 0 100 100">
  <defs>
    <style>
      .cls-1 {
        fill: #edebda;
      }

      .cls-2 {
        fill: #e2e2e2;
      }

      .cls-3 {
        fill: #8e3838;
      }

      .cls-4 {
        fill: #cec8ae;
      }

      .cls-5 {
        fill: #1997b1;
      }
    </style>
  </defs>
  <g>
    <path class="cls-2" d="M13.66,8.7v82.59c0-3.65,2.96-6.61,6.61-6.61h66.07V2.1H20.27c-3.65,0-6.61,2.96-6.61,6.61"/>
    <g>
      <path class="cls-5" d="M20.27,84.69h3.3V2.1h-3.3c-3.65,0-6.61,2.96-6.61,6.61v82.59c0-3.65,2.96-6.61,6.61-6.61"/>
      <polygon class="cls-5" points="48.35 18.61 41.74 13.66 35.13 18.61 35.13 2.1 48.35 2.1 48.35 18.61"/>
    </g>
    <path class="cls-1" d="M20.27,84.69c-3.65,0-6.61,2.96-6.61,6.61s2.96,6.61,6.61,6.61h66.07v-13.21H20.27Z"/>
    <path class="cls-4" d="M78.08,92.95H21.92c-.91,0-1.65-.74-1.65-1.65s.74-1.65,1.65-1.65h56.16c.91,0,1.65.74,1.65,1.65s-.74,1.65-1.65,1.65"/>
  </g>
  <path class="cls-3" d="M37.12,43.88l-3.18,3.05c-.3-1.02-.45-2.03-.45-3.05,0-3.23,1.22-5.91,3.65-8.04s5.5-3.19,9.19-3.19c.61,0,1.15.03,1.62.08.31.03.52.04.62.04h.25c-.01.38-.02.65-.02.82,0,2,.88,5.23,2.63,9.69l.88,2.23c.12.31.31.83.57,1.54l.73,2.03c.39,1.07.73,2.13,1.02,3.18l1.02-1.68c1.12-1.86,2.12-3.55,3.01-5.08l1.91-3.3,1.48-2.73,1.8-3.28c.17-.3.5-.91,1-1.84l3.78-2.36c-.83,4.86-1.25,8.76-1.25,11.7l-.25,6.39-.06,2.4c0,2.03.13,3.36.4,3.99s.84.95,1.71.95c.92,0,1.75-.13,2.48-.39.12.16.18.29.18.41,0,.43-.44.75-1.33.96l-1.04.25-5.56,1.13c-.07-1.22-.1-2.35-.1-3.38,0-6.64.29-12.54.88-17.7-1.8,2.55-3.15,4.62-4.06,6.21l-1.17,2.01c-1.6,2.76-2.89,5.42-3.88,7.99l-2.8,2.93c-.18-2.46-1.16-5.92-2.92-10.37l-.76-1.97c-.1-.23-.34-.81-.71-1.72-.75-1.8-1.3-3.52-1.67-5.16l-1.59,9.66c-.46,2.9-.94,4.88-1.45,5.93-.5,1.05-1.4,1.91-2.69,2.59l4.89.36-2.48,2.3-8.33-.43,2.52-2.42,2.21.19c.86-.64,1.47-1.42,1.84-2.34.36-.92.79-2.79,1.27-5.6l2.34-13.73h-.92c-5.42,0-8.12,1.79-8.12,5.37,0,1.12.31,2.25.92,3.38Z"/>
</svg>