<?xml version="1.0" encoding="UTF-8"?>
<svg id="Layer_1" data-name="Layer 1" xmlns="http://www.w3.org/2000/svg" viewBox="0 0 100 100">
  <defs>
    <style>
      .cls-1 {
        fill: #edebda;
      }

      .cls-2 {
        fill: #3a414f;
      }

      .cls-3 {
        fill: #fff;
      }

      .cls-4 {
        fill: #666;
      }

      .cls-5 {
        fill: #cec8ae;
      }
    </style>
  </defs>
  <g>
    <path class="cls-4" d="M13.66,8.7v82.59c0-3.65,2.96-6.61,6.61-6.61h66.07V2.1H20.27c-3.65,0-6.61,2.96-6.61,6.61"/>
    <g>
      <path class="cls-2" d="M20.27,84.69h3.3V2.1h-3.3c-3.65,0-6.61,2.96-6.61,6.61v82.59c0-3.65,2.96-6.61,6.61-6.61"/>
      <polygon class="cls-2" points="48.35 18.61 41.74 13.66 35.13 18.61 35.13 2.1 48.35 2.1 48.35 18.61"/>
    </g>
    <path class="cls-1" d="M20.27,84.69c-3.65,0-6.61,2.96-6.61,6.61s2.96,6.61,6.61,6.61h66.07v-13.21H20.27Z"/>
    <path class="cls-5" d="M78.08,92.95H21.92c-.91,0-1.65-.74-1.65-1.65s.74-1.65,1.65-1.65h56.16c.91,0,1.65.74,1.65,1.65s-.74,1.65-1.65,1.65"/>
  </g>
  <path class="cls-3" d="M57.6,45.85c.26.5.45.87.57,1.11,2.07,4,3.54,6.64,4.42,7.9.87,1.26,1.68,1.91,2.42,1.95,1.17.07,2.08-.83,2.74-2.7.43.25.65.51.65.8,0,.82-.55,1.84-1.65,3.07s-2.02,1.84-2.77,1.84c-1.08,0-2.49-1.18-4.23-3.55s-3.45-5.47-5.15-9.3c-.72.07-1.33.1-1.84.1s-1.12-.03-1.88-.1l-.14,1.29-.25,2.25c-.22,1.86-.62,3.2-1.19,4.01s-1.69,1.61-3.34,2.39l4.61.29-2.34,2.27-8.46-.43,2.5-2.42,2.13.23c1.58-1,2.55-3.05,2.93-6.15l.21-1.89,1.64-14.8c-5.92,1.12-8.89,3.35-8.89,6.7,0,1.34.28,2.53.84,3.57l-3.14,2.77c-.27-1-.41-2.02-.41-3.05,0-3.53,1.5-6.41,4.51-8.65s6.88-3.36,11.62-3.36c6.43,0,9.65,2.05,9.65,6.14,0,2.99-1.92,5.56-5.75,7.72ZM52.32,33.86l-1.26,11.35c1.05.17,2,.25,2.86.25.81,0,1.69-.08,2.65-.25,2.34-1.67,3.51-3.69,3.51-6.07,0-3.52-2.59-5.28-7.76-5.28Z"/>
</svg>