<?xml version="1.0" encoding="UTF-8"?>
<svg id="Capa_1" xmlns="http://www.w3.org/2000/svg" version="1.1" viewBox="0 0 1381.8 283.1">
  <!-- Generator: Adobe Illustrator 29.2.1, SVG Export Plug-In . SVG Version: 2.1.0 Build 116)  -->
  <defs>
    <style>
      .st0 {
        fill: #727272;
      }

      .st1 {
        fill: none;
        stroke: #bf9900;
        stroke-miterlimit: 10;
        stroke-width: 6px;
      }

      .st2 {
        fill: #691b33;
      }
    </style>
  </defs>
  <g>
    <path class="st2" d="M362.5,123.2c-2.2,1.1-6.7,2.2-12.5,2.2-13.3,0-23.3-8.4-23.3-23.9s10-24.8,24.6-24.8,9.6,1.3,11.2,2.1l-1.5,5c-2.3-1.1-5.6-2-9.5-2-11.1,0-18.4,7.1-18.4,19.5s6.6,19,18.1,19,7.5-.8,9.9-2l1.3,4.8h0Z"/>
    <path class="st2" d="M388.2,124.7l-.5-4.3h-.2c-1.9,2.7-5.5,5-10.4,5-6.9,0-10.4-4.8-10.4-9.7,0-8.2,7.3-12.7,20.4-12.6v-.7c0-2.8-.8-7.8-7.7-7.8s-6.4,1-8.8,2.5l-1.4-4.1c2.8-1.8,6.9-3,11.1-3,10.4,0,12.9,7.1,12.9,13.9v12.7c0,2.9.1,5.8.6,8.1h-5.6ZM387.3,107.4c-6.7-.1-14.4,1-14.4,7.6s2.7,5.9,5.8,5.9,7.2-2.8,8.2-5.7c.2-.6.4-1.3.4-2v-5.9Z"/>
    <path class="st2" d="M431.5,115.5c0,3.5,0,6.6.3,9.2h-5.5l-.4-5.5h-.1c-1.6,2.7-5.2,6.3-11.2,6.3s-11.7-2.9-11.7-14.8v-19.8h6.2v18.8c0,6.4,2,10.8,7.6,10.8s7-2.9,8.1-5.6c.4-.9.6-2,.6-3.2v-20.8h6.2v24.6h0Z"/>
    <path class="st2" d="M440.9,118.4c1.8,1.2,5,2.5,8.1,2.5,4.5,0,6.6-2.2,6.6-5s-1.8-4.5-6.3-6.2c-6.1-2.2-9-5.5-9-9.6s4.4-9.9,11.7-9.9,6.4,1,8.3,2.1l-1.5,4.5c-1.3-.8-3.8-2-6.9-2s-5.7,2.1-5.7,4.6,2,4.1,6.4,5.7,8.9,5.2,8.9,10.2-4.6,10.2-12.7,10.2-7.1-.9-9.5-2.3l1.5-4.7h0Z"/>
    <path class="st2" d="M488.2,124.7l-.5-4.3h-.2c-1.9,2.7-5.5,5-10.4,5-6.9,0-10.4-4.8-10.4-9.7,0-8.2,7.3-12.7,20.4-12.6v-.7c0-2.8-.8-7.8-7.7-7.8s-6.4,1-8.8,2.5l-1.4-4.1c2.8-1.8,6.9-3,11.1-3,10.4,0,12.9,7.1,12.9,13.9v12.7c0,2.9.1,5.8.6,8.1h-5.6ZM487.3,107.4c-6.7-.1-14.4,1-14.4,7.6s2.7,5.9,5.8,5.9,7.2-2.8,8.2-5.7c.2-.6.4-1.3.4-2v-5.9Z"/>
    <path class="st2" d="M503.2,75h6.2v49.7h-6.2v-49.7Z"/>
    <path class="st2" d="M523.2,108.9c.1,8.3,5.5,11.8,11.6,11.8s7.1-.8,9.4-1.8l1,4.4c-2.2,1-5.9,2.1-11.3,2.1-10.4,0-16.7-6.9-16.7-17.1s6-18.3,15.9-18.3,14,9.7,14,16-.1,2.2-.2,2.9h-23.8ZM541.2,104.5c0-3.9-1.6-10-8.5-10s-9,5.7-9.5,10h18Z"/>
    <path class="st2" d="M554,118.4c1.8,1.2,5,2.5,8.1,2.5,4.5,0,6.6-2.2,6.6-5s-1.8-4.5-6.3-6.2c-6.1-2.2-9-5.5-9-9.6s4.4-9.9,11.7-9.9,6.4,1,8.3,2.1l-1.5,4.5c-1.3-.8-3.8-2-6.9-2s-5.7,2.1-5.7,4.6,2,4.1,6.4,5.7c5.9,2.2,8.9,5.2,8.9,10.2s-4.6,10.2-12.7,10.2-7.1-.9-9.5-2.3l1.5-4.7h0Z"/>
    <path class="st2" d="M369.9,184.6c0,16.2-9.9,24.8-21.9,24.8s-21.2-9.7-21.2-23.9,9.3-24.8,21.9-24.8,21.2,9.9,21.2,23.9h0ZM333.3,185.4c0,10.1,5.5,19.1,15,19.1s15.1-8.9,15.1-19.6-4.9-19.2-15-19.2-15.1,9.3-15.1,19.7Z"/>
    <path class="st2" d="M377.3,208.7c.1-2.3.3-5.7.3-8.8v-41h6.1v21.3h.1c2.2-3.8,6.1-6.2,11.5-6.2,8.4,0,14.4,7,14.3,17.3,0,12.1-7.6,18.1-15.2,18.1s-8.8-1.9-11.3-6.4h-.2l-.3,5.6h-5.3ZM383.7,195.1c0,.8.1,1.5.3,2.2,1.2,4.3,4.8,7.2,9.2,7.2,6.4,0,10.3-5.2,10.3-13s-3.5-12.6-10.1-12.6-8.1,2.9-9.4,7.6c-.1.7-.4,1.5-.4,2.5v6.1h0Z"/>
    <path class="st2" d="M409.1,218.5c2.8-.2,5.2-1,6.7-2.6,1.7-2,2.3-4.6,2.3-12.7v-28.3h6.2v30.7c0,6.6-1,10.8-4.1,13.9-2.7,2.7-7.2,3.8-10.5,3.8l-.6-4.8h0ZM425,165.3c0,2-1.4,3.8-3.9,3.8s-3.8-1.8-3.8-3.8,1.6-3.8,3.9-3.8,3.7,1.7,3.7,3.8Z"/>
    <path class="st2" d="M437.8,192.9c.1,8.3,5.5,11.8,11.6,11.8s7.1-.8,9.4-1.8l1,4.4c-2.2,1-5.9,2.1-11.3,2.1-10.4,0-16.7-6.9-16.7-17.1s6-18.3,15.9-18.3,14,9.7,14,16-.1,2.2-.2,2.9h-23.8ZM455.9,188.5c0-3.9-1.6-10-8.5-10s-9,5.7-9.5,10h18Z"/>
    <path class="st2" d="M476.9,165.1v9.7h8.8v4.7h-8.8v18.3c0,4.2,1.2,6.6,4.6,6.6s2.8-.2,3.6-.4l.3,4.6c-1.2.5-3.1.8-5.5.8s-5.2-.9-6.6-2.6c-1.8-1.8-2.4-4.8-2.4-8.8v-18.5h-5.2v-4.7h5.2v-8.1l6-1.6h0Z"/>
    <path class="st2" d="M499.5,165.3c0,2.1-1.5,3.8-3.9,3.8s-3.7-1.7-3.7-3.8,1.6-3.8,3.9-3.8,3.8,1.7,3.8,3.8ZM492.6,208.7v-33.9h6.2v33.9h-6.2Z"/>
    <path class="st2" d="M511.4,174.8l6.6,19c1.1,3.1,2,5.9,2.7,8.7h.2c.8-2.8,1.8-5.6,2.9-8.7l6.6-19h6.4l-13.3,33.9h-5.9l-12.9-33.9h6.6Z"/>
    <path class="st2" d="M561.2,208.7l-.5-4.3h-.2c-1.9,2.7-5.5,5-10.4,5-6.9,0-10.4-4.8-10.4-9.7,0-8.2,7.3-12.7,20.4-12.6v-.7c0-2.8-.8-7.8-7.7-7.8s-6.4,1-8.8,2.5l-1.4-4.1c2.8-1.8,6.9-3,11.1-3,10.4,0,12.9,7.1,12.9,13.9v12.7c0,2.9.1,5.8.6,8.1h-5.6ZM560.3,191.4c-6.7-.1-14.3,1-14.3,7.6s2.7,5.9,5.8,5.9,7.2-2.8,8.2-5.7c.2-.6.3-1.3.3-2v-5.9Z"/>
    <path class="st2" d="M575.3,202.4c1.8,1.2,5,2.5,8.1,2.5,4.5,0,6.6-2.2,6.6-5s-1.8-4.5-6.3-6.2c-6.1-2.2-9-5.5-9-9.6s4.4-9.9,11.7-9.9,6.4,1,8.3,2.1l-1.5,4.5c-1.3-.8-3.8-2-6.9-2s-5.7,2.1-5.7,4.6,2,4.1,6.4,5.7c5.9,2.2,8.9,5.2,8.9,10.2s-4.6,10.2-12.7,10.2-7.1-.9-9.5-2.3l1.5-4.7h0Z"/>
  </g>
  <g>
    <path class="st2" d="M1101.4,90.9c2.9-.5,6.8-.9,11.7-.9s10.4,1.4,13.2,3.9c2.6,2.2,4.1,5.7,4.1,9.9s-1.3,7.6-3.6,10.1c-3.2,3.4-8.5,5.2-14.4,5.2s-3.5,0-4.9-.4v18.9h-6.1v-46.6h0ZM1107.5,113.7c1.3.3,3,.5,5,.5,7.3,0,11.8-3.6,11.8-10.1s-4.4-9.2-11.1-9.2-4.7.2-5.7.5v18.3Z"/>
    <path class="st2" d="M1167.4,120.3c0,12.5-8.7,18-16.9,18s-16.2-6.7-16.2-17.4,7.4-18,16.8-18,16.3,7.1,16.3,17.4h0ZM1140.5,120.7c0,7.4,4.3,13,10.3,13s10.3-5.5,10.3-13.2-2.9-13-10.2-13-10.4,6.7-10.4,13.2Z"/>
    <path class="st2" d="M1175.1,114.3c0-4,0-7.4-.3-10.6h5.4l.2,6.7h.3c1.5-4.5,5.2-7.4,9.4-7.4s1.2,0,1.8.2v5.8c-.6-.1-1.3-.2-2.1-.2-4.3,0-7.4,3.3-8.3,7.9-.1.8-.3,1.8-.3,2.9v18.1h-6.1v-23.3Z"/>
    <path class="st2" d="M1222.7,90.4h6.1v31.6c0,12.5-6.2,16.4-14.3,16.4s-5-.5-6.5-1.1l.9-5c1.3.5,3.1.9,5.1.9,5.5,0,8.7-2.5,8.7-11.7v-31.1Z"/>
    <path class="st2" d="M1267.1,128.3c0,3.5,0,6.6.3,9.2h-5.5l-.3-5.5h-.1c-1.6,2.7-5.2,6.3-11.2,6.3s-11.7-2.9-11.7-14.8v-19.8h6.2v18.8c0,6.4,2,10.8,7.6,10.8s7-2.9,8.1-5.6c.3-.9.6-2,.6-3.2v-20.8h6.2v24.6h0Z"/>
    <path class="st2" d="M1276.5,131.3c1.8,1.2,5,2.5,8.1,2.5,4.5,0,6.6-2.2,6.6-5s-1.8-4.5-6.3-6.2c-6.1-2.2-9-5.5-9-9.6s4.4-9.9,11.7-9.9,6.4,1,8.3,2.1l-1.5,4.5c-1.3-.8-3.8-2-6.9-2s-5.7,2.1-5.7,4.6,2,4.1,6.4,5.7c5.9,2.2,8.9,5.2,8.9,10.2s-4.6,10.2-12.7,10.2-7.1-.9-9.5-2.3l1.5-4.7h0Z"/>
    <path class="st2" d="M1312.5,94v9.7h8.8v4.7h-8.8v18.3c0,4.2,1.2,6.6,4.6,6.6s2.8-.2,3.6-.4l.3,4.6c-1.2.5-3.1.8-5.5.8s-5.2-.9-6.7-2.6c-1.8-1.8-2.4-4.8-2.4-8.8v-18.5h-5.2v-4.7h5.2v-8.1l6-1.6h0Z"/>
    <path class="st2" d="M1347,137.6l-.5-4.3h-.2c-1.9,2.7-5.5,5-10.4,5-6.9,0-10.4-4.8-10.4-9.7,0-8.2,7.3-12.7,20.4-12.6v-.7c0-2.8-.8-7.8-7.7-7.8s-6.4,1-8.8,2.5l-1.4-4.1c2.8-1.8,6.9-3,11.1-3,10.4,0,12.9,7.1,12.9,13.9v12.7c0,2.9.1,5.8.6,8.1h-5.6ZM1346.1,120.3c-6.7-.1-14.3,1-14.3,7.6s2.7,5.9,5.8,5.9,7.2-2.8,8.2-5.7c.2-.6.3-1.3.3-2v-5.9Z"/>
    <path class="st2" d="M1361.1,131.3c1.8,1.2,5,2.5,8.1,2.5,4.5,0,6.6-2.2,6.6-5s-1.8-4.5-6.3-6.2c-6.1-2.2-9-5.5-9-9.6s4.4-9.9,11.7-9.9,6.4,1,8.3,2.1l-1.5,4.5c-1.3-.8-3.8-2-6.9-2s-5.7,2.1-5.7,4.6,2,4.1,6.4,5.7c5.9,2.2,8.9,5.2,8.9,10.2s-4.6,10.2-12.7,10.2-7.1-.9-9.5-2.3l1.5-4.7h0Z"/>
    <path class="st2" d="M1134.4,220c-2.2,1.1-6.7,2.2-12.5,2.2-13.3,0-23.3-8.4-23.3-23.9s10-24.8,24.6-24.8,9.6,1.3,11.2,2.1l-1.5,5c-2.3-1.1-5.6-2-9.5-2-11.1,0-18.4,7.1-18.4,19.5s6.7,19,18.1,19,7.5-.8,9.9-2l1.3,4.8h0Z"/>
    <path class="st2" d="M1160.1,221.6l-.5-4.3h-.2c-1.9,2.7-5.5,5-10.4,5-6.9,0-10.4-4.8-10.4-9.7,0-8.2,7.3-12.7,20.4-12.6v-.7c0-2.8-.8-7.8-7.7-7.8s-6.4,1-8.8,2.5l-1.4-4.1c2.8-1.8,6.9-3,11.1-3,10.4,0,12.9,7.1,12.9,13.9v12.7c0,2.9.1,5.8.6,8.1h-5.6ZM1159.2,204.3c-6.7-.1-14.3,1-14.3,7.6s2.7,5.9,5.8,5.9,7.2-2.8,8.2-5.7c.2-.6.3-1.3.3-2v-5.9Z"/>
    <path class="st2" d="M1203.4,212.3c0,3.5,0,6.6.3,9.2h-5.5l-.3-5.5h-.1c-1.6,2.7-5.2,6.3-11.2,6.3s-11.7-2.9-11.7-14.8v-19.8h6.2v18.8c0,6.4,2,10.8,7.6,10.8s7-2.9,8.1-5.6c.3-.9.6-2,.6-3.2v-20.8h6.2v24.6h0Z"/>
    <path class="st2" d="M1212.8,215.3c1.8,1.2,5,2.5,8.1,2.5,4.5,0,6.6-2.2,6.6-5s-1.8-4.5-6.3-6.2c-6.1-2.2-9-5.5-9-9.6s4.4-9.9,11.7-9.9,6.4,1,8.3,2.1l-1.5,4.5c-1.3-.8-3.8-2-6.9-2s-5.7,2.1-5.7,4.6,2,4.1,6.4,5.7c5.9,2.2,8.9,5.2,8.9,10.2s-4.6,10.2-12.7,10.2-7.1-.9-9.5-2.3l1.5-4.7h0Z"/>
    <path class="st2" d="M1260.1,221.6l-.5-4.3h-.2c-1.9,2.7-5.5,5-10.4,5-6.9,0-10.4-4.8-10.4-9.7,0-8.2,7.3-12.7,20.4-12.6v-.7c0-2.8-.8-7.8-7.7-7.8s-6.4,1-8.8,2.5l-1.4-4.1c2.8-1.8,6.9-3,11.1-3,10.4,0,12.9,7.1,12.9,13.9v12.7c0,2.9.1,5.8.6,8.1h-5.6ZM1259.2,204.3c-6.7-.1-14.3,1-14.3,7.6s2.7,5.9,5.8,5.9,7.2-2.8,8.2-5.7c.2-.6.3-1.3.3-2v-5.9Z"/>
    <path class="st2" d="M1274.2,215.3c1.8,1.2,5,2.5,8.1,2.5,4.5,0,6.6-2.2,6.6-5s-1.8-4.5-6.3-6.2c-6.1-2.2-9-5.5-9-9.6s4.4-9.9,11.7-9.9,6.4,1,8.3,2.1l-1.5,4.5c-1.3-.8-3.8-2-6.9-2s-5.7,2.1-5.7,4.6,2,4.1,6.4,5.7c5.9,2.2,8.9,5.2,8.9,10.2s-4.6,10.2-12.7,10.2-7.1-.9-9.5-2.3l1.5-4.7h0Z"/>
  </g>
  <line class="st1" x1="695.6" y1="43.2" x2="695.6" y2="256.8"/>
  <g>
    <path class="st0" d="M264.8,226.4c-5.2-7.6-12.5-13-21-15.3,0,0-.2,0-.2,0l-30.9-6.5-8.3-12.6c0,0,0-.1-.1-.2-1.3-1.7-3.2-2.8-5.3-3s-4.2.4-5.8,1.7c0,0,0,0,0,0l-36.9,31.8-36.9-31.8s0,0,0,0c-1.6-1.3-3.8-2-5.8-1.7-2.1.2-4,1.4-5.3,3,0,0,0,.1-.1.2l-8.3,12.6-30.9,6.5c0,0-.2,0-.2,0-8.5,2.4-15.8,7.7-21,15.3-4.8,7-7.4,15.4-7.4,23.8v9.6c0,7.7,6.9,14,15.5,14h201.2c8.5,0,15.5-6.3,15.5-14v-9.6c0-8.3-2.6-16.8-7.4-23.8h0ZM198,196.4l7.6,11.5-26.7,36.7-8.4-8.4h0l-8.7-8.7,36.2-31.2ZM152.2,254.4h7.7c.2,0,.5,0,.7,0l2.3,11.6h-13.8l2.3-11.6c.2,0,.5,0,.7,0h0ZM163.8,242.8c0,2.1-1.7,3.9-3.9,3.9h-7.7c-2.1,0-3.9-1.7-3.9-3.9v-2.3l7.7-7.7,7.7,7.7v2.3h0ZM114.2,196.4l36.2,31.2-8.7,8.7h0l-8.4,8.4-26.7-36.7,7.6-11.5ZM47.8,259.7v-9.6c0-12.5,7.8-27.4,22.7-31.6l29.8-6.2,29.5,40.5c.7.9,1.7,1.5,2.8,1.6.1,0,.2,0,.3,0,1,0,2-.4,2.7-1.1l5.9-5.9c.6,1.5,1.6,2.8,2.7,3.9l-3,14.8H55.5c-4.3,0-7.7-2.8-7.7-6.3h0ZM264.4,259.7c0,3.5-3.5,6.3-7.7,6.3h-85.8l-2.9-14.8c1.2-1.1,2.1-2.4,2.7-3.9l5.9,5.9c.7.7,1.7,1.1,2.7,1.1s.2,0,.3,0c1.1,0,2.2-.7,2.8-1.6l29.5-40.5,29.9,6.2c14.9,4.2,22.7,19.1,22.7,31.6v9.6h0Z"/>
    <path class="st0" d="M129,160v17.1c0,7.3,5.1,13.5,12,15.1,1.6,6.9,7.7,12,15.1,12s13.5-5.1,15.1-12c6.9-1.6,12-7.7,12-15.1v-17.1c25-10.6,42.6-35.4,42.6-64.2s-31.2-69.7-69.7-69.7-69.7,31.2-69.7,69.7,17.6,53.6,42.6,64.2h0ZM156.1,196.4c-2.9,0-5.4-1.6-6.7-3.9h13.4c-1.3,2.3-3.8,3.9-6.7,3.9ZM175.4,177c0,4.3-3.5,7.7-7.7,7.7h-23.2c-4.3,0-7.7-3.5-7.7-7.7v-14.3c6.1,1.8,12.6,2.7,19.4,2.7s13.2-1,19.4-2.7v14.3ZM148.2,156.7l-11.6-43.4c1.6.9,3.7,1.8,7,1.8s6.5-1.5,8.2-2.5c1.3-.8,2.1-1.3,4.1-1.3s2.8.5,4.1,1.3c1.7,1.1,4,2.5,8.2,2.5s5.5-.9,7.1-1.8l-11.6,43.4c0,.2,0,.3-.1.5-2.6.3-5.1.5-7.8.5s-5.2-.2-7.8-.5c0-.2,0-.3-.1-.5h0ZM156.1,33.9c34.1,0,61.9,27.8,61.9,61.9s-19.4,52.6-45.7,59.8l14.6-54.9c.6-2.1-.7-4.2-2.7-4.7-2.1-.5-4.2.7-4.7,2.7l-1.4,5.1c-2.5.5-4.2,1.5-5.5,2.3-1.4.8-2.2,1.3-4.1,1.3s-2.8-.5-4.1-1.3c-1.7-1.1-4-2.5-8.2-2.5s-6.5,1.5-8.2,2.5c-1.3.8-2.1,1.3-4.1,1.3s-2.8-.5-4.1-1.3c-1.3-.8-2.9-1.8-5.4-2.3l-1.4-5.1c-.6-2.1-2.7-3.3-4.7-2.7-2.1.5-3.3,2.7-2.7,4.7l14.6,54.9c-26.3-7.1-45.7-31.2-45.7-59.8s27.8-61.9,61.9-61.9h0Z"/>
    <path class="st0" d="M174,52.9c11.2,4.7,20.3,13.8,25,25,.6,1.5,2.1,2.4,3.6,2.4s1,0,1.5-.3c2-.8,2.9-3.1,2.1-5.1-5.5-13-16.1-23.7-29.1-29.1-2-.8-4.2.1-5.1,2.1-.8,2,.1,4.2,2.1,5.1h0Z"/>
  </g>
  <g>
    <path class="st0" d="M833.5,161.6c0,14.6,5.3,29.3,14.6,40.5,9.7,11.7,22.4,18.2,35.8,18.2s26-6.5,35.7-18.2c9.2-11.2,14.5-25.9,14.5-40.5h0c0-2.4-1.9-4.3-4.2-4.3s-4.2,1.9-4.2,4.2h0c0,12.7-4.6,25.5-12.6,35.2-8.1,9.8-18.5,15.2-29.3,15.2s-21.2-5.4-29.3-15.2c-8-9.7-12.6-22.5-12.6-35.2v-5c0-10.4,7-24.5,9.6-29.4,16.8-1.9,33-1.2,48.2,2.1.3,0,.6,0,.9,0,1.9,0,3.7-1.3,4.1-3.3.5-2.3-.9-4.5-3.2-5-16.7-3.7-34.5-4.4-52.9-2.1-1.4,0-2.7.8-3.4,2.1-.3.5-3.9,6.8-7.1,15-1.4-7.8-2.8-16.5-2.8-22.4,0-14.7,9.3-21.2,18.5-21.2s.6,0,.9,0c.3,0,.6,0,.9,0,.9,0,1.8-.3,2.5-.8,9.2-7,21.5-6.1,33.4-4,2.3.4,4.5-1.2,4.8-3.4.4-2.3-1.2-4.5-3.4-4.8-12.7-2.2-27.1-3.2-38.7,4.8-.1,0-.2,0-.4,0-8,0-15,3.2-19.9,9-4.5,5.3-7,12.7-7,20.7,0,13.1,5.6,37.3,6.5,41.1v6.8h0Z"/>
    <path class="st0" d="M956,229.6c0,0-.2,0-.3,0l-24.9-5.2-6.6-10c0,0,0-.1-.2-.2-1.2-1.6-3-2.7-5-2.9-2-.2-4,.3-5.5,1.6,0,0,0,0,0,0l-29.6,25.5-29.6-25.5s0,0,0,0c-1.5-1.3-3.6-1.8-5.5-1.6s-3.8,1.3-5,2.9c0,0,0,.1-.2.2l-6.6,10-24.9,5.2c0,0-.2,0-.3,0-7.2,2-13.4,6.5-17.8,13-4,5.9-6.2,13-6.2,20.1v7.9c0,6.9,6.2,12.5,13.7,12.5h165.2c7.6,0,13.7-5.6,13.7-12.5v-7.9c0-7-2.2-14.2-6.2-20.1-4.4-6.5-10.6-11-17.8-13h0ZM918,220.1l5.2,7.9-20.8,28.6-12.4-12.4,28-24.1ZM881,266.4h5.5l1.7,8.3h-8.8l1.7-8.3h0ZM888,255.7c0,1.4-.8,2.3-1.4,2.3h-5.6c-.6,0-1.4-.9-1.4-2.3v-1.6l4.2-4.2,4.2,4.2v1.6h0ZM849.6,220.1l28,24.1-12.4,12.4-20.8-28.6,5.2-7.9ZM795.8,270.5v-7.9c0-9.9,6.1-21.6,17.8-25l23.8-5,23.8,32.8c.7,1,1.8,1.6,3.1,1.7.1,0,.2,0,.3,0,1.1,0,2.2-.4,3-1.2l4.9-4.9c.2.4.5.8.7,1.2l-2.5,12.4h-69.6c-2.9,0-5.3-1.9-5.3-4.2h0ZM971.7,270.5c0,2.2-2.5,4.2-5.3,4.2h-69.6l-2.5-12.4c.3-.4.5-.8.7-1.2l4.9,4.9c.8.8,1.9,1.2,3,1.2s.2,0,.3,0c1.2,0,2.3-.7,3.1-1.7l23.8-32.8,23.8,5c11.7,3.3,17.8,15.1,17.8,25v7.9h0Z"/>
    <path class="st0" d="M980.2,14.9c-41.6,0-75.4,33.8-75.4,75.4s33.8,75.4,75.4,75.4,75.4-33.8,75.4-75.4-33.8-75.4-75.4-75.4h0ZM980.2,157.4c-37,0-67-30.1-67-67s30.1-67,67-67,67.1,30.1,67.1,67-30.1,67-67,67h0Z"/>
    <path class="st0" d="M1026.3,56.4c0,0,0-.1,0-.2,0,0,0-.2,0-.2,0,0,0-.1,0-.2s0-.1,0-.2c0,0,0-.1,0-.2,0,0,0-.1,0-.2,0,0,0-.1,0-.2,0,0,0-.1,0-.2,0,0,0-.1,0-.2,0,0,0-.1-.1-.2s0-.1-.1-.2c0,0,0,0-.1-.1-.2-.2-.4-.4-.6-.6,0,0,0,0-.1-.1,0,0-.1,0-.2-.1,0,0-.1,0-.2-.1,0,0-.1,0-.2,0,0,0-.1,0-.2,0s-.1,0-.2,0c0,0-.1,0-.2,0,0,0-.1,0-.2,0,0,0-.1,0-.2,0,0,0-.1,0-.2,0,0,0-.2,0-.2,0,0,0-.1,0-.2,0-.1,0-.3,0-.4,0h-25.1c-2.3,0-4.2,1.9-4.2,4.2s1.9,4.2,4.2,4.2h15l-31.8,31.8-9.6-9.6c-1.6-1.6-4.3-1.6-5.9,0l-33.5,33.5c-1.6,1.6-1.6,4.3,0,5.9s1.9,1.2,3,1.2,2.1-.4,3-1.2l30.6-30.6,9.6,9.6c.6.6,1.4,1,2.2,1.2.3,0,.5,0,.8,0s.5,0,.8,0c.8-.2,1.5-.5,2.2-1.2h0l34.8-34.8v15c0,2.3,1.9,4.2,4.2,4.2s4.2-1.9,4.2-4.2v-25.1c0-.1,0-.3,0-.4h0Z"/>
  </g>
</svg>