<?xml version="1.0" encoding="UTF-8"?>
<svg id="Capa_1" xmlns="http://www.w3.org/2000/svg" version="1.1" viewBox="0 0 100 100">
  <!-- Generator: Adobe Illustrator 29.2.1, SVG Export Plug-In . SVG Version: 2.1.0 Build 116)  -->
  <defs>
    <style>
      .st0 {
        fill: #ffd7d7;
        stroke: #af0000;
        stroke-miterlimit: 10;
        stroke-width: 3px;
      }
    </style>
  </defs>
  <circle class="st0" cx="50" cy="50" r="45"/>
  <g>
    <path d="M50.1,6.6v.9l-.5.4-.5.4v2c0,1.1,0,2,0,2,0,0-.6,0-2.4.3-.3,0-.7,0-.9.1s-1.7.2-3.2.4c-1.6.2-2.9.3-2.9.3q-.1,0-.1-.1c0-.2-.1-.3-.2-.4,0,0-.1,0-.2.3v.2h-.3q-.5,0-.5.1h0c0,0,.6.2.6.2,0,0,0,0,0,.1s0,.2-.1.4c-.5,1-1.7,4.8-3,8.7v.2h-.4c0,.3.2.7.4.9.2.3.7.8,1,1,.4.3.8.5,1.4.6.3,0,.4,0,1,0s.9,0,1.4-.2c.8-.3,1.5-.9,1.9-1.6.1-.2.3-.6.3-.7s-.8,0-1.8,0h-1.8v-.9c0-1.2.1-3.1.2-4.7v-2l.2.5c.4,1.2,1.6,4,2.4,6.1.4.8.4,1,.5.9,0,0,.1,0-.5-1.6-1-3-1.9-5.5-2.4-6.9-.1-.3-.2-.4-.2-.6v-.2s.5,0,3.3.5c.7.1,1.9.3,2.6.4,3,.5,3.5.6,3.5.6s0,2.2-.1,4.7c0,.6,0,1.9,0,2.8v1.7s-.3.1-1.1.3c-.4.1-1,.3-1.3.4-.3.1-1.2.3-1.8.5-.7.2-1.3.4-1.3.4s-.5.4-1,.7l-.9.7h-5.5c0,0,0,.2-.1.6-.3,2.4-.3,4.7,0,7.1,0,.4,0,.6.1.7h5l.8.8c.5.4.8.8.9.8h.1s.7-.7,1.6-1.5,1.5-1.5,1.6-1.5h.1s.5.3.9.6.8.6.9.6.3-.2.6-.6c.1-.2.3-.3.3-.4h0c0,0,.1,0,.1,0,0,0,.9.7,1.7,1.4,1.8,1.4,1.7,1.3,1.5,1.6-.2.3-.2.2-.2,1.4v1h.1c0,0,.3-.1.8-.5l.8-.5v-3.2c0-.1-.1-.2-1.7-1.7l-1.1-1.1v-.6h.2v.4l.4.4c.2.2.8.8,1.4,1.4l1.1,1.1v3.3s0,0,.1,0c0,0,1.3-.8,1.4-.9v-4.1l-.2-.2c-1.5-1.6-2.3-2.4-2.6-2.7l-.3-.3h.3l1.5,1.5,1.5,1.5v4.3c0,.1.1.1,1-.5.3-.2.5-.3.5-.4h0v-4.8l-.9-.9-.9-.9h0c0-.1,0-.2,0-.2l1,1,.9.9v2.4c0,2.3,0,2.4,0,2.4h1.6l.8-.8.8-.8h4.1s.1-.4.2-1.2c.1-1,.1-1.5.1-2.8s0-1.9-.1-2.9-.1-1.2-.2-1.3h-3.9l-.7-.6c-.4-.3-.7-.6-.7-.6-.1,0-.4-.1-2.2-.6-.5-.2-1.9-.5-3-.8-1.6-.4-2.1-.5-2.2-.5h-.2v-3c-.1-3.7-.1-4.7,0-4.8v-1.6s.3,0,.6-.1c.3,0,.9-.2,1.4-.2,1.6-.3,4.4-.7,4.9-.8,1.9-.3,2.5-.4,2.5-.4q.1,0,0,.3c-.4.8-1.6,4.5-2.9,8.5l-.2.6h-.2c-.1,0-.2,0-.2,0,0,.3.3.8.5,1,.6.7,1.3,1.2,2.2,1.4.2,0,.4,0,.9,0h.9c.9-.2,1.6-.5,2.1-1.2.3-.4.6-.9.7-1.2h0c0-.1-1.8-.1-1.8-.1h-1.8v-.2c0-.2.1-1.7.2-3.2,0-.5,0-1.5,0-2.4s0-1.6,0-1.7v-.2l.2.6c.3.8.9,2.4,1.4,3.6.6,1.4,1.4,3.3,1.4,3.4s0,0,0,0-2.2-6.6-2.9-8.5c-.1-.3-.2-.4-.2-.6v-.3h.3q.5-.1.5-.2c0-.1,0,0-.6-.1-.4,0-.3,0-.4-.3,0-.2-.1-.3-.2-.3s-.1,0-.1.3v.2h-.2c-.4,0-1.5-.2-5.4-.6-2.2-.2-3.9-.4-3.9-.4v-3.9l-.5-.4-.5-.4v-.9q0-.9,0-.9t0,.9v.3ZM39.1,18.8c0,1.7,0,3.2.1,3.8v.3h-3.2s.3-.6.6-1.4c1.1-2.7,2-5.3,2.4-6.5v-.3c.1,0,.1,1.3.1,1.3,0,.7,0,2,0,2.8h0ZM60.7,17.4c0,2,0,3.1.1,4.8v.7h-3.2l.2-.5c1-2.5,2.1-5.5,2.6-6.8l.3-.7v2.6h0ZM48.7,25.8c0,0-.2.2-.6.4-.3.2-.6.3-.6.4s0,.2,0,.5v.5h-.2v-.4c0-.7,0-.6.7-1,.4-.2.7-.4.7-.4h0c0,.1,0,0,0,0ZM45.1,29.7v.2h-.1q-.2-.2,0-.4c0,0,.1-.1.1-.1v.2h0ZM46.3,30.7h.1c0,.1,1.8.1,1.8.1h.2q.2-.2.3-.2h.2s-.1.1-.3.2l-.3.2h-1.9l-.2-.2-.2-.2h.2q.2,0,.3.1h-.1Z"/>
    <path d="M44.2,35.7c-1.1,1.1-1.6,1.5-1.6,1.6s.1.2.9.8c.5.4.9.8,1,.8s.6-.7,2.2-2.6c.5-.6.8-1,.8-1s-.2-.2-.8-.6c-.5-.3-.8-.5-.9-.5,0,0-.8.7-1.6,1.5h.1ZM45.6,35.4q-.2.2,0,.4s.2.2.3.3l.2.2h0c0,.1,0,.2,0,.2,0,0-.8-.6-.9-.7,0,0,0-.2.3-.3l.3-.3h0c0,0,0,.2,0,.2l-.2.2h0Z"/>
    <path d="M47.6,35.4c-2.2,2.7-2.9,3.5-2.9,3.5h0c0,.1.8.4,1.9.6l.6.2h0c.1-.2,2.8-3.8,2.8-3.9v-.2c-.2-.2-1.6-1.3-1.6-1.3s-.3.3-.9,1h0ZM48.5,35.6c-.1.1-.2.3-.2.3,0,0,.1.2.4.3.1,0,.2.2.2.2h0c0,.2-.4,0-.4,0-.2-.2-.4-.3-.4-.3,0,0,0-.2.2-.4l.3-.3h.1c0,0,.1.1.1.1l-.2.2h-.2Z"/>
    <path d="M49.9,36.5c-.3.4-.9,1.2-1.4,1.9s-.9,1.3-.9,1.3,0,0,0,.1c0,0,.5.2,1,.3q.9.3,1,.2s1.4-2.3,1.9-3c.1-.2.2-.4.2-.4,0-.1-1.2-1-1.3-1,0,0-.2.2-.5.6h-.1ZM50.4,36.7h0c0,0-.1.2-.1.2,0,.1-.1.2-.1.2s0,.1.2.2c.1,0,.2.2.2.2h0c0,.1,0,.1,0,.1,0,0-.3-.1-.3-.1-.2-.2-.3-.2-.3-.3s.3-.5.4-.5h.1c0,0,0,0,0,0Z"/>
    <path d="M40.9,36.1c-.1.1-.6.5-.8.7q-.1.1-.1.2c0,.1,1.2,1.2,1.3,1.2s1.1-1,1.1-1-.2-.2-.3-.4c-.6-.6-.9-.8-.9-.8s-.1,0-.2.1h0Z"/>
    <path d="M42.1,37.8c-.3.3-.4.4-.3.4,0,.1,1.6,1.2,1.7,1.2s.6-.3.7-.4h0c0-.2-1.6-1.5-1.7-1.5s-.2.1-.3.3Z"/>
    <path d="M51.2,38c0,0-.7,1-.9,1.4-.2.3-.2.4,0,.4s.9-.1,1-.2c0,0,0-1.5,0-1.6,0,0,0,0-.2,0Z"/>
    <path d="M44.9,39.4s0,0,0,.2c.1.2.8.7.9.8q0,0,.4-.2c.3-.2.3-.3.3-.3,0,0,0-.1-.1-.1-.2,0-1.4-.4-1.5-.4s0,0-.1,0h0Z"/>
    <path d="M47.6,40c-.1,0-.2.7,0,.7,0,0,.5,0,.9.1h.3l.2-.2c0-.1.2-.2.2-.2,0-.1-.1-.1-.7-.3-.3-.1-.6-.2-.6-.2h-.2Z"/>
  </g>
  <g>
    <path d="M36,79.6c0,.5-.1.7-.4.7-1.1,0-2.4,0-4-.1-1.5-.1-2.7-.2-3.7-.2s-2.3,0-3.7.2c-1.6,0-2.9.1-4,.1s-.4-.2-.4-.7.1-.6.4-.7c2-.2,3.4-.6,4.1-1.1.7-.5,1.1-1.6,1.1-3.1v-23.5c0-1.2-.1-2-.4-2.5-.3-.5-.8-.9-1.5-1.1-.7-.3-1.8-.5-3.2-.7-.3,0-.4-.2-.4-.7s.1-.7.4-.7c1.1,0,2.5,0,4,.1,1.5.1,2.7.2,3.7.2s2.3,0,3.7-.2c1.5,0,2.9-.1,4-.1s.4.2.4.7-.1.7-.4.7c-1.4.2-2.5.4-3.2.7-.7.3-1.2.6-1.5,1.1-.3.5-.4,1.3-.4,2.5v23.5c0,1.2.1,2,.4,2.4.3.5.8.9,1.5,1.1.7.3,1.8.5,3.2.7.3,0,.4.3.4.7Z"/>
    <path d="M58.1,79.6c0,.5-.1.7-.4.7-1.1,0-2.4,0-4-.1-1.5-.1-2.7-.2-3.7-.2s-2.3,0-3.7.2c-1.6,0-2.9.1-4,.1s-.4-.2-.4-.7.1-.6.4-.7c2-.2,3.4-.6,4.1-1.1.7-.5,1.1-1.6,1.1-3.1v-23.5c0-1.2-.1-2-.4-2.5-.3-.5-.8-.9-1.5-1.1-.7-.3-1.8-.5-3.2-.7-.3,0-.4-.2-.4-.7s.1-.7.4-.7c1.1,0,2.5,0,4,.1,1.5.1,2.7.2,3.7.2s2.3,0,3.7-.2c1.5,0,2.9-.1,4-.1s.4.2.4.7-.1.7-.4.7c-1.4.2-2.5.4-3.2.7-.7.3-1.2.6-1.5,1.1-.3.5-.4,1.3-.4,2.5v23.5c0,1.2.1,2,.4,2.4.3.5.8.9,1.5,1.1.7.3,1.8.5,3.2.7.3,0,.4.3.4.7Z"/>
    <path d="M80.2,79.6c0,.5-.1.7-.4.7-1.1,0-2.4,0-4-.1-1.5-.1-2.7-.2-3.7-.2s-2.3,0-3.7.2c-1.5,0-2.9.1-4,.1s-.4-.2-.4-.7.1-.6.4-.7c2-.2,3.4-.6,4.1-1.1.7-.5,1.1-1.6,1.1-3.1v-23.5c0-1.2-.1-2-.4-2.5-.3-.5-.8-.9-1.5-1.1-.7-.3-1.8-.5-3.2-.7-.3,0-.4-.2-.4-.7s.1-.7.4-.7c1.1,0,2.5,0,4,.1,1.5.1,2.7.2,3.7.2s2.3,0,3.7-.2c1.5,0,2.9-.1,4-.1s.4.2.4.7-.1.7-.4.7c-1.4.2-2.5.4-3.2.7-.7.3-1.2.6-1.5,1.1-.3.5-.4,1.3-.4,2.5v23.5c0,1.2.1,2,.4,2.4.3.5.8.9,1.5,1.1.7.3,1.8.5,3.2.7.3,0,.4.3.4.7Z"/>
  </g>
</svg>