<?xml version="1.0" encoding="UTF-8"?>
<svg id="Capa_1" xmlns="http://www.w3.org/2000/svg" version="1.1" viewBox="0 0 217 217">
  <!-- Generator: Adobe Illustrator 29.2.1, SVG Export Plug-In . SVG Version: 2.1.0 Build 116)  -->
  <defs>
    <style>
      .st0, .st1 {
        fill: #44174f;
      }

      .st2, .st1 {
        isolation: isolate;
      }

      .st3 {
        fill: #fff;
      }

      .st4 {
        fill: #fffdb6;
      }

      .st1 {
        opacity: .3;
      }
    </style>
  </defs>
  <g id="Glossary">
    <path class="st1" d="M198.9,10.8H42.4c-.8,0-1.5.2-2.1.7l-13.6,10.5c-1,.8-1.6,2.2-1.4,3.7v183.4c0,2.6,1.8,4.7,4,4.7h156.3c2.2,0,4-2.1,4-4.7h0v-1.6l5.5-4.3h3.8c2.2,0,4-2.1,4-4.7h0V15.5c0-2.6-1.8-4.7-4-4.7h0Z"/>
    <rect class="st0" x="31.9" y="3" width="164.3" height="192.4" rx="3" ry="3"/>
    <path class="st3" d="M186.9,8.8H35.6c-5,0-9,4.7-9,10.5h0v178.1c0,2.1,1.5,3.8,3.2,3.8h144.8c2.6,0,5.1-.7,7.3-2.1l.9.5,5.9-4.6c1.3-1,2.1-2.8,2.1-4.7V13.5c0-2.6-1.8-4.7-4-4.7h0Z"/>
    <path class="st0" d="M178.9,13.5H34l5.9-4.6c.4-.3.5-.8.2-1.3h0l-1.6-2.9c-1.1-1.9-3.3-2.4-4.9-1.2h0l-13.5,10.5c-1,.8-1.6,2.2-1.4,3.7v183.4c0,2.6,1.8,4.7,4,4.7h156.3c2.2,0,4-2.1,4-4.7h0V18.2c0-2.6-1.8-4.7-4-4.7,0,0-.1,0-.1,0Z"/>
    <g class="st2">
      <g class="st2">
        <g class="st2">
          <path class="st4" d="M101,87.3v19.1h10.6c2.7,0,4.6-.4,5.5-1.2,1.2-1.1,1.9-3,2.1-5.8h1.3v16.8h-1.3c-.3-2.3-.7-3.9-1-4.5-.4-.8-1.1-1.5-2.1-2-1-.5-2.5-.7-4.5-.7h-10.6v15.9c0,2.1,0,3.4.3,3.9.2.5.5.8,1,1.1.5.3,1.4.4,2.7.4h8.2c2.7,0,4.7-.2,5.9-.6s2.4-1.1,3.6-2.2c1.5-1.5,3-3.7,4.5-6.6h1.4l-4.2,12.1h-37.1v-1.3h1.7c1.1,0,2.2-.3,3.2-.8.8-.4,1.3-.9,1.5-1.7.3-.8.4-2.3.4-4.7v-31.3c0-3.1-.3-4.9-.9-5.7-.9-.9-2.3-1.4-4.3-1.4h-1.7v-1.3h37.1l.5,10.6h-1.4c-.5-2.5-1-4.3-1.7-5.2-.6-.9-1.5-1.7-2.7-2.2-.9-.4-2.6-.5-5-.5h-13.2Z"/>
          <path class="st4" d="M138,112.6c0,4.8,1.1,8.6,3.5,11.4,2.4,2.7,5.2,4.1,8.4,4.1s4-.6,5.6-1.8,2.9-3.2,4-6l1.1.7c-.5,3.2-1.9,6.2-4.3,8.9s-5.4,4-9,4-7.3-1.5-10-4.6c-2.8-3-4.2-7.1-4.2-12.3s1.4-9.9,4.3-13,6.4-4.7,10.8-4.7,6.6,1.2,9,3.6c2.3,2.4,3.5,5.6,3.5,9.7h-22.5ZM138,110.5h15.1c-.1-2.1-.4-3.6-.7-4.4-.6-1.3-1.5-2.4-2.6-3.1-1.2-.8-2.4-1.1-3.7-1.1-2,0-3.7.8-5.3,2.3-1.6,1.5-2.5,3.7-2.7,6.4Z"/>
        </g>
      </g>
    </g>
    <rect class="st4" x="18.6" y="91" width="53.1" height="35.5"/>
  </g>
</svg>