<?xml version="1.0" encoding="UTF-8"?>
<svg id="Capa_1" data-name="Capa 1" xmlns="http://www.w3.org/2000/svg" viewBox="0 0 1052.13 722.4">
  <defs>
    <style>
      .cls-1, .cls-2 {
        fill: #444;
      }

      .cls-3 {
        fill: #e5e5e5;
        stroke: #000;
        stroke-linecap: round;
        stroke-linejoin: round;
        stroke-width: 4px;
      }

      .cls-2 {
        fill-rule: evenodd;
      }

      .cls-4 {
        fill: #cca783;
      }

      .cls-5 {
        fill: #d2a9db;
      }

      .cls-6 {
        fill: #78efef;
      }

      .cls-7 {
        fill: #eedaf2;
      }

      .cls-8 {
        fill: #e4ea7a;
      }

      .cls-9 {
        fill: #e8c97c;
      }

      .cls-10 {
        fill: #7ac1ed;
      }
    </style>
  </defs>
  <g>
    <path d="M169.97,27.38h-8.2v-2.96h19.96v2.96h-8.24v24h-3.52v-24Z"/>
    <path d="M183.73,42.33c.08,4.76,3.12,6.72,6.64,6.72,2.52,0,4.04-.44,5.36-1l.6,2.52c-1.24.56-3.36,1.2-6.44,1.2-5.96,0-9.52-3.92-9.52-9.76s3.44-10.44,9.08-10.44c6.32,0,8,5.56,8,9.12,0,.72-.08,1.28-.12,1.64h-13.6ZM194.05,39.81c.04-2.24-.92-5.72-4.88-5.72-3.56,0-5.12,3.28-5.4,5.72h10.28Z"/>
    <path d="M201.81,22.98h3.52v28.4h-3.52v-28.4Z"/>
    <path d="M213.21,42.33c.08,4.76,3.12,6.72,6.64,6.72,2.52,0,4.04-.44,5.36-1l.6,2.52c-1.24.56-3.36,1.2-6.44,1.2-5.96,0-9.52-3.92-9.52-9.76s3.44-10.44,9.08-10.44c6.32,0,8,5.56,8,9.12,0,.72-.08,1.28-.12,1.64h-13.6ZM223.53,39.81c.04-2.24-.92-5.72-4.88-5.72-3.56,0-5.12,3.28-5.4,5.72h10.28Z"/>
    <path d="M235.53,26.46v5.56h5.04v2.68h-5.04v10.44c0,2.4.68,3.76,2.64,3.76.92,0,1.6-.12,2.04-.24l.16,2.64c-.68.28-1.76.48-3.12.48-1.64,0-2.96-.52-3.8-1.48-1-1.04-1.36-2.76-1.36-5.04v-10.56h-3v-2.68h3v-4.64l3.44-.92Z"/>
    <path d="M244.53,38.05c0-2.28-.04-4.24-.16-6.04h3.08l.12,3.8h.16c.88-2.6,3-4.24,5.36-4.24.4,0,.68.04,1,.12v3.32c-.36-.08-.72-.12-1.2-.12-2.48,0-4.24,1.88-4.72,4.52-.08.48-.16,1.04-.16,1.64v10.32h-3.48v-13.32Z"/>
    <path d="M268.13,51.37l-.28-2.44h-.12c-1.08,1.52-3.16,2.88-5.92,2.88-3.92,0-5.92-2.76-5.92-5.56,0-4.68,4.16-7.24,11.64-7.2v-.4c0-1.6-.44-4.48-4.4-4.48-1.8,0-3.68.56-5.04,1.44l-.8-2.32c1.6-1.04,3.92-1.72,6.36-1.72,5.92,0,7.36,4.04,7.36,7.92v7.24c0,1.68.08,3.32.32,4.64h-3.2ZM267.61,41.49c-3.84-.08-8.2.6-8.2,4.36,0,2.28,1.52,3.36,3.32,3.36,2.52,0,4.12-1.6,4.68-3.24.12-.36.2-.76.2-1.12v-3.36Z"/>
    <path d="M276.53,51.37c.08-1.32.16-3.28.16-5v-23.4h3.48v12.16h.08c1.24-2.16,3.48-3.56,6.6-3.56,4.8,0,8.2,4,8.16,9.88,0,6.92-4.36,10.36-8.68,10.36-2.8,0-5.04-1.08-6.48-3.64h-.12l-.16,3.2h-3.04ZM280.17,43.61c0,.44.08.88.16,1.28.68,2.44,2.72,4.12,5.28,4.12,3.68,0,5.88-3,5.88-7.44,0-3.88-2-7.2-5.76-7.2-2.4,0-4.64,1.64-5.36,4.32-.08.4-.2.88-.2,1.44v3.48Z"/>
    <path d="M310.17,51.37l-.28-2.44h-.12c-1.08,1.52-3.16,2.88-5.92,2.88-3.92,0-5.92-2.76-5.92-5.56,0-4.68,4.16-7.24,11.64-7.2v-.4c0-1.6-.44-4.48-4.4-4.48-1.8,0-3.68.56-5.04,1.44l-.8-2.32c1.6-1.04,3.92-1.72,6.36-1.72,5.92,0,7.36,4.04,7.36,7.92v7.24c0,1.68.08,3.32.32,4.64h-3.2ZM309.65,41.49c-3.84-.08-8.2.6-8.2,4.36,0,2.28,1.52,3.36,3.32,3.36,2.52,0,4.12-1.6,4.68-3.24.12-.36.2-.76.2-1.12v-3.36Z"/>
    <path d="M314.01,56.97c1.6-.12,3-.56,3.84-1.48.96-1.12,1.32-2.64,1.32-7.28v-16.2h3.52v17.56c0,3.76-.6,6.2-2.32,7.96-1.56,1.56-4.12,2.2-6,2.2l-.36-2.76ZM323.09,26.58c.04,1.16-.8,2.16-2.2,2.16-1.32,0-2.16-1-2.16-2.16,0-1.24.92-2.2,2.24-2.2s2.12.96,2.12,2.2Z"/>
    <path d="M345.96,41.53c0,7.16-4.96,10.28-9.64,10.28-5.24,0-9.28-3.84-9.28-9.96,0-6.48,4.24-10.28,9.6-10.28s9.32,4.04,9.32,9.96ZM330.61,41.73c0,4.24,2.44,7.44,5.88,7.44s5.88-3.16,5.88-7.52c0-3.28-1.64-7.44-5.8-7.44s-5.96,3.84-5.96,7.52Z"/>
  </g>
  <g>
    <path d="M20.44,232c-1.28.64-3.84,1.28-7.12,1.28-7.6,0-13.32-4.8-13.32-13.64s5.72-14.16,14.08-14.16c3.36,0,5.48.72,6.4,1.2l-.84,2.84c-1.32-.64-3.2-1.12-5.44-1.12-6.32,0-10.52,4.04-10.52,11.12,0,6.6,3.8,10.84,10.36,10.84,2.12,0,4.28-.44,5.68-1.12l.72,2.76Z"/>
    <path d="M41.76,223.04c0,7.16-4.96,10.28-9.64,10.28-5.24,0-9.28-3.84-9.28-9.96,0-6.48,4.24-10.28,9.6-10.28s9.32,4.04,9.32,9.96ZM26.4,223.24c0,4.24,2.44,7.44,5.88,7.44s5.88-3.16,5.88-7.52c0-3.28-1.64-7.44-5.8-7.44s-5.96,3.84-5.96,7.52Z"/>
    <path d="M46.2,218.76c0-2-.04-3.64-.16-5.24h3.12l.2,3.2h.08c.96-1.84,3.2-3.64,6.4-3.64,2.68,0,6.84,1.6,6.84,8.24v11.56h-3.52v-11.16c0-3.12-1.16-5.72-4.48-5.72-2.32,0-4.12,1.64-4.72,3.6-.16.44-.24,1.04-.24,1.64v11.64h-3.52v-14.12Z"/>
    <path d="M72.48,207.96v5.56h5.04v2.68h-5.04v10.44c0,2.4.68,3.76,2.64,3.76.92,0,1.6-.12,2.04-.24l.16,2.64c-.68.28-1.76.48-3.12.48-1.64,0-2.96-.52-3.8-1.48-1-1.04-1.36-2.76-1.36-5.04v-10.56h-3v-2.68h3v-4.64l3.44-.92Z"/>
    <path d="M81.48,219.56c0-2.28-.04-4.24-.16-6.04h3.08l.12,3.8h.16c.88-2.6,3-4.24,5.36-4.24.4,0,.68.04,1,.12v3.32c-.36-.08-.72-.12-1.2-.12-2.48,0-4.24,1.88-4.72,4.52-.08.48-.16,1.04-.16,1.64v10.32h-3.48v-13.32Z"/>
    <path d="M105.08,232.88l-.28-2.44h-.12c-1.08,1.52-3.16,2.88-5.92,2.88-3.92,0-5.92-2.76-5.92-5.56,0-4.68,4.16-7.24,11.64-7.2v-.4c0-1.6-.44-4.48-4.4-4.48-1.8,0-3.68.56-5.04,1.44l-.8-2.32c1.6-1.04,3.92-1.72,6.36-1.72,5.92,0,7.36,4.04,7.36,7.92v7.24c0,1.68.08,3.32.32,4.64h-3.2ZM104.56,223c-3.84-.08-8.2.6-8.2,4.36,0,2.28,1.52,3.36,3.32,3.36,2.52,0,4.12-1.6,4.68-3.24.12-.36.2-.76.2-1.12v-3.36Z"/>
    <path d="M117.72,207.96v5.56h5.04v2.68h-5.04v10.44c0,2.4.68,3.76,2.64,3.76.92,0,1.6-.12,2.04-.24l.16,2.64c-.68.28-1.76.48-3.12.48-1.64,0-2.96-.52-3.8-1.48-1-1.04-1.36-2.76-1.36-5.04v-10.56h-3v-2.68h3v-4.64l3.44-.92Z"/>
    <path d="M144,223.04c0,7.16-4.96,10.28-9.64,10.28-5.24,0-9.28-3.84-9.28-9.96,0-6.48,4.24-10.28,9.6-10.28s9.32,4.04,9.32,9.96ZM128.64,223.24c0,4.24,2.44,7.44,5.88,7.44s5.88-3.16,5.88-7.52c0-3.28-1.64-7.44-5.8-7.44s-5.96,3.84-5.96,7.52Z"/>
    <path d="M173.64,204.48v23.4c0,1.72.04,3.68.16,5h-3.16l-.16-3.36h-.08c-1.08,2.16-3.44,3.8-6.6,3.8-4.68,0-8.28-3.96-8.28-9.84-.04-6.44,3.96-10.4,8.68-10.4,2.96,0,4.96,1.4,5.84,2.96h.08v-11.56h3.52ZM170.12,221.4c0-.44-.04-1.04-.16-1.48-.52-2.24-2.44-4.08-5.08-4.08-3.64,0-5.8,3.2-5.8,7.48,0,3.92,1.92,7.16,5.72,7.16,2.36,0,4.52-1.56,5.16-4.2.12-.48.16-.96.16-1.52v-3.36Z"/>
    <path d="M181.44,223.84c.08,4.76,3.12,6.72,6.64,6.72,2.52,0,4.04-.44,5.36-1l.6,2.52c-1.24.56-3.36,1.2-6.44,1.2-5.96,0-9.52-3.92-9.52-9.76s3.44-10.44,9.08-10.44c6.32,0,8,5.56,8,9.12,0,.72-.08,1.28-.12,1.64h-13.6ZM191.76,221.32c.04-2.24-.92-5.72-4.88-5.72-3.56,0-5.12,3.28-5.4,5.72h10.28Z"/>
    <path d="M42.24,244.28c2.12-.32,4.64-.56,7.4-.56,5,0,8.56,1.16,10.92,3.36,2.4,2.2,3.8,5.32,3.8,9.68s-1.36,8-3.88,10.48c-2.52,2.52-6.68,3.88-11.92,3.88-2.48,0-4.56-.12-6.32-.32v-26.52ZM45.72,268.12c.88.16,2.16.2,3.52.2,7.44,0,11.48-4.16,11.48-11.44.04-6.36-3.56-10.4-10.92-10.4-1.8,0-3.16.16-4.08.36v21.28Z"/>
    <path d="M86.44,261.04c0,7.16-4.96,10.28-9.64,10.28-5.24,0-9.28-3.84-9.28-9.96,0-6.48,4.24-10.28,9.6-10.28s9.32,4.04,9.32,9.96ZM71.08,261.24c0,4.24,2.44,7.44,5.88,7.44s5.88-3.16,5.88-7.52c0-3.28-1.64-7.44-5.8-7.44s-5.96,3.84-5.96,7.52Z"/>
    <path d="M104.68,270.16c-.92.48-2.96,1.12-5.56,1.12-5.84,0-9.64-3.96-9.64-9.88s4.08-10.28,10.4-10.28c2.08,0,3.92.52,4.88,1l-.8,2.72c-.84-.48-2.16-.92-4.08-.92-4.44,0-6.84,3.28-6.84,7.32,0,4.48,2.88,7.24,6.72,7.24,2,0,3.32-.52,4.32-.96l.6,2.64Z"/>
    <path d="M110.52,261.84c.08,4.76,3.12,6.72,6.64,6.72,2.52,0,4.04-.44,5.36-1l.6,2.52c-1.24.56-3.36,1.2-6.44,1.2-5.96,0-9.52-3.92-9.52-9.76s3.44-10.44,9.08-10.44c6.32,0,8,5.56,8,9.12,0,.72-.08,1.28-.12,1.64h-13.6ZM120.84,259.32c.04-2.24-.92-5.72-4.88-5.72-3.56,0-5.12,3.28-5.4,5.72h10.28Z"/>
    <path d="M128.6,256.76c0-2-.04-3.64-.16-5.24h3.12l.2,3.2h.08c.96-1.84,3.2-3.64,6.4-3.64,2.68,0,6.84,1.6,6.84,8.24v11.56h-3.52v-11.16c0-3.12-1.16-5.72-4.48-5.72-2.32,0-4.12,1.64-4.72,3.6-.16.44-.24,1.04-.24,1.64v11.64h-3.52v-14.12Z"/>
    <path d="M154.88,245.96v5.56h5.04v2.68h-5.04v10.44c0,2.4.68,3.76,2.64,3.76.92,0,1.6-.12,2.04-.24l.16,2.64c-.68.28-1.76.48-3.12.48-1.64,0-2.96-.52-3.8-1.48-1-1.04-1.36-2.76-1.36-5.04v-10.56h-3v-2.68h3v-4.64l3.44-.92Z"/>
    <path d="M165.6,261.84c.08,4.76,3.12,6.72,6.64,6.72,2.52,0,4.04-.44,5.36-1l.6,2.52c-1.24.56-3.36,1.2-6.44,1.2-5.96,0-9.52-3.92-9.52-9.76s3.44-10.44,9.08-10.44c6.32,0,8,5.56,8,9.12,0,.72-.08,1.28-.12,1.64h-13.6ZM175.92,259.32c.04-2.24-.92-5.72-4.88-5.72-3.56,0-5.12,3.28-5.4,5.72h10.28Z"/>
    <path d="M183.2,267.28c1.04.68,2.88,1.4,4.64,1.4,2.56,0,3.76-1.28,3.76-2.88,0-1.68-1-2.6-3.6-3.56-3.48-1.24-5.12-3.16-5.12-5.48,0-3.12,2.52-5.68,6.68-5.68,1.96,0,3.68.56,4.76,1.2l-.88,2.56c-.76-.48-2.16-1.12-3.96-1.12-2.08,0-3.24,1.2-3.24,2.64,0,1.6,1.16,2.32,3.68,3.28,3.36,1.28,5.08,2.96,5.08,5.84,0,3.4-2.64,5.8-7.24,5.8-2.12,0-4.08-.52-5.44-1.32l.88-2.68Z"/>
  </g>
  <g>
    <path d="M108.81,512.01c-1.28.64-3.84,1.28-7.12,1.28-7.6,0-13.32-4.8-13.32-13.64s5.72-14.16,14.08-14.16c3.36,0,5.48.72,6.4,1.2l-.84,2.84c-1.32-.64-3.2-1.12-5.44-1.12-6.32,0-10.52,4.04-10.52,11.12,0,6.6,3.8,10.84,10.36,10.84,2.12,0,4.28-.44,5.68-1.12l.72,2.76Z"/>
    <path d="M130.13,503.05c0,7.16-4.96,10.28-9.64,10.28-5.24,0-9.28-3.84-9.28-9.96,0-6.48,4.24-10.28,9.6-10.28s9.32,4.04,9.32,9.96ZM114.77,503.25c0,4.24,2.44,7.44,5.88,7.44s5.88-3.16,5.88-7.52c0-3.28-1.64-7.44-5.8-7.44s-5.96,3.84-5.96,7.52Z"/>
    <path d="M134.57,498.77c0-2-.04-3.64-.16-5.24h3.12l.2,3.2h.08c.96-1.84,3.2-3.64,6.4-3.64,2.68,0,6.84,1.6,6.84,8.24v11.56h-3.52v-11.16c0-3.12-1.16-5.72-4.48-5.72-2.32,0-4.12,1.64-4.72,3.6-.16.44-.24,1.04-.24,1.64v11.64h-3.52v-14.12Z"/>
    <path d="M160.85,487.98v5.56h5.04v2.68h-5.04v10.44c0,2.4.68,3.76,2.64,3.76.92,0,1.6-.12,2.04-.24l.16,2.64c-.68.28-1.76.48-3.12.48-1.64,0-2.96-.52-3.8-1.48-1-1.04-1.36-2.76-1.36-5.04v-10.56h-3v-2.68h3v-4.64l3.44-.92Z"/>
    <path d="M169.85,499.57c0-2.28-.04-4.24-.16-6.04h3.08l.12,3.8h.16c.88-2.6,3-4.24,5.36-4.24.4,0,.68.04,1,.12v3.32c-.36-.08-.72-.12-1.2-.12-2.48,0-4.24,1.88-4.72,4.52-.08.48-.16,1.04-.16,1.64v10.32h-3.48v-13.32Z"/>
    <path d="M193.45,512.89l-.28-2.44h-.12c-1.08,1.52-3.16,2.88-5.92,2.88-3.92,0-5.92-2.76-5.92-5.56,0-4.68,4.16-7.24,11.64-7.2v-.4c0-1.6-.44-4.48-4.4-4.48-1.8,0-3.68.56-5.04,1.44l-.8-2.32c1.6-1.04,3.92-1.72,6.36-1.72,5.92,0,7.36,4.04,7.36,7.92v7.24c0,1.68.08,3.32.32,4.64h-3.2ZM192.93,503.01c-3.84-.08-8.2.6-8.2,4.36,0,2.28,1.52,3.36,3.32,3.36,2.52,0,4.12-1.6,4.68-3.24.12-.36.2-.76.2-1.12v-3.36Z"/>
    <path d="M206.09,487.98v5.56h5.04v2.68h-5.04v10.44c0,2.4.68,3.76,2.64,3.76.92,0,1.6-.12,2.04-.24l.16,2.64c-.68.28-1.76.48-3.12.48-1.64,0-2.96-.52-3.8-1.48-1-1.04-1.36-2.76-1.36-5.04v-10.56h-3v-2.68h3v-4.64l3.44-.92Z"/>
    <path d="M232.37,503.05c0,7.16-4.96,10.28-9.64,10.28-5.24,0-9.28-3.84-9.28-9.96,0-6.48,4.24-10.28,9.6-10.28s9.32,4.04,9.32,9.96ZM217.01,503.25c0,4.24,2.44,7.44,5.88,7.44s5.88-3.16,5.88-7.52c0-3.28-1.64-7.44-5.8-7.44s-5.96,3.84-5.96,7.52Z"/>
    <path d="M256.01,512.89l-.28-2.44h-.12c-1.08,1.52-3.16,2.88-5.92,2.88-3.92,0-5.92-2.76-5.92-5.56,0-4.68,4.16-7.24,11.64-7.2v-.4c0-1.6-.44-4.48-4.4-4.48-1.8,0-3.68.56-5.04,1.44l-.8-2.32c1.6-1.04,3.92-1.72,6.36-1.72,5.92,0,7.36,4.04,7.36,7.92v7.24c0,1.68.08,3.32.32,4.64h-3.2ZM255.49,503.01c-3.84-.08-8.2.6-8.2,4.36,0,2.28,1.52,3.36,3.32,3.36,2.52,0,4.12-1.6,4.68-3.24.12-.36.2-.76.2-1.12v-3.36Z"/>
    <path d="M26.25,526.9h-8.2v-2.96h19.96v2.96h-8.24v24h-3.52v-24Z"/>
    <path d="M44.33,526.1c.04,1.2-.84,2.16-2.24,2.16-1.24,0-2.12-.96-2.12-2.16s.92-2.2,2.2-2.2,2.16.96,2.16,2.2ZM40.41,550.89v-19.36h3.52v19.36h-3.52Z"/>
    <path d="M51.73,541.85c.08,4.76,3.12,6.72,6.64,6.72,2.52,0,4.04-.44,5.36-1l.6,2.52c-1.24.56-3.36,1.2-6.44,1.2-5.96,0-9.52-3.92-9.52-9.76s3.44-10.44,9.08-10.44c6.32,0,8,5.56,8,9.12,0,.72-.08,1.28-.12,1.64h-13.6ZM62.05,539.33c.04-2.24-.92-5.72-4.88-5.72-3.56,0-5.12,3.28-5.4,5.72h10.28Z"/>
    <path d="M69.81,536.77c0-2-.04-3.64-.16-5.24h3.08l.16,3.12h.12c1.08-1.84,2.88-3.56,6.08-3.56,2.64,0,4.64,1.6,5.48,3.88h.08c.6-1.08,1.36-1.92,2.16-2.52,1.16-.88,2.44-1.36,4.28-1.36,2.56,0,6.36,1.68,6.36,8.4v11.4h-3.44v-10.96c0-3.72-1.36-5.96-4.2-5.96-2,0-3.56,1.48-4.16,3.2-.16.48-.28,1.12-.28,1.76v11.96h-3.44v-11.6c0-3.08-1.36-5.32-4.04-5.32-2.2,0-3.8,1.76-4.36,3.52-.2.52-.28,1.12-.28,1.72v11.68h-3.44v-14.12Z"/>
    <path d="M103.17,537.85c0-2.48-.08-4.48-.16-6.32h3.16l.16,3.32h.08c1.44-2.36,3.72-3.76,6.88-3.76,4.68,0,8.2,3.96,8.2,9.84,0,6.96-4.24,10.4-8.8,10.4-2.56,0-4.8-1.12-5.96-3.04h-.08v10.52h-3.48v-20.96ZM106.65,543.01c0,.52.08,1,.16,1.44.64,2.44,2.76,4.12,5.28,4.12,3.72,0,5.88-3.04,5.88-7.48,0-3.88-2.04-7.2-5.76-7.2-2.4,0-4.64,1.72-5.32,4.36-.12.44-.24.96-.24,1.44v3.32Z"/>
    <path d="M143.45,541.05c0,7.16-4.96,10.28-9.64,10.28-5.24,0-9.28-3.84-9.28-9.96,0-6.48,4.24-10.28,9.6-10.28s9.32,4.04,9.32,9.96ZM128.09,541.25c0,4.24,2.44,7.44,5.88,7.44s5.88-3.16,5.88-7.52c0-3.28-1.64-7.44-5.8-7.44s-5.96,3.84-5.96,7.52Z"/>
    <path d="M156.49,524.26c1.68-.28,3.88-.52,6.68-.52,3.44,0,5.96.8,7.56,2.24,1.48,1.28,2.36,3.24,2.36,5.64s-.72,4.36-2.08,5.76c-1.84,1.96-4.84,2.96-8.24,2.96-1.04,0-2-.04-2.8-.24v10.8h-3.48v-26.64ZM159.97,537.25c.76.2,1.72.28,2.88.28,4.2,0,6.76-2.04,6.76-5.76s-2.52-5.28-6.36-5.28c-1.52,0-2.68.12-3.28.28v10.48Z"/>
    <path d="M187.33,550.89l-.28-2.44h-.12c-1.08,1.52-3.16,2.88-5.92,2.88-3.92,0-5.92-2.76-5.92-5.56,0-4.68,4.16-7.24,11.64-7.2v-.4c0-1.6-.44-4.48-4.4-4.48-1.8,0-3.68.56-5.04,1.44l-.8-2.32c1.6-1.04,3.92-1.72,6.36-1.72,5.92,0,7.36,4.04,7.36,7.92v7.24c0,1.68.08,3.32.32,4.64h-3.2ZM186.81,541.01c-3.84-.08-8.2.6-8.2,4.36,0,2.28,1.52,3.36,3.32,3.36,2.52,0,4.12-1.6,4.68-3.24.12-.36.2-.76.2-1.12v-3.36Z"/>
    <path d="M195.89,537.57c0-2.28-.04-4.24-.16-6.04h3.08l.12,3.8h.16c.88-2.6,3-4.24,5.36-4.24.4,0,.68.04,1,.12v3.32c-.36-.08-.72-.12-1.2-.12-2.48,0-4.24,1.88-4.72,4.52-.08.48-.16,1.04-.16,1.64v10.32h-3.48v-13.32Z"/>
    <path d="M222.37,550.17c-.92.48-2.96,1.12-5.56,1.12-5.84,0-9.64-3.96-9.64-9.88s4.08-10.28,10.4-10.28c2.08,0,3.92.52,4.88,1l-.8,2.72c-.84-.48-2.16-.92-4.08-.92-4.44,0-6.84,3.28-6.84,7.32,0,4.48,2.88,7.24,6.72,7.24,2,0,3.32-.52,4.32-.96l.6,2.64Z"/>
    <path d="M230.41,526.1c.04,1.2-.84,2.16-2.24,2.16-1.24,0-2.12-.96-2.12-2.16s.92-2.2,2.2-2.2,2.16.96,2.16,2.2ZM226.49,550.89v-19.36h3.52v19.36h-3.52Z"/>
    <path d="M246.57,550.89l-.28-2.44h-.12c-1.08,1.52-3.16,2.88-5.92,2.88-3.92,0-5.92-2.76-5.92-5.56,0-4.68,4.16-7.24,11.64-7.2v-.4c0-1.6-.44-4.48-4.4-4.48-1.8,0-3.68.56-5.04,1.44l-.8-2.32c1.6-1.04,3.92-1.72,6.36-1.72,5.92,0,7.36,4.04,7.36,7.92v7.24c0,1.68.08,3.32.32,4.64h-3.2ZM246.05,541.01c-3.84-.08-8.2.6-8.2,4.36,0,2.28,1.52,3.36,3.32,3.36,2.52,0,4.12-1.6,4.68-3.24.12-.36.2-.76.2-1.12v-3.36Z"/>
    <path d="M255.13,522.5h3.52v28.4h-3.52v-28.4Z"/>
  </g>
  <g>
    <path d="M486.65,683.08c-1.28.64-3.84,1.28-7.12,1.28-7.6,0-13.32-4.8-13.32-13.64s5.72-14.16,14.08-14.16c3.36,0,5.48.72,6.4,1.2l-.84,2.84c-1.32-.64-3.2-1.12-5.44-1.12-6.32,0-10.52,4.04-10.52,11.12,0,6.6,3.8,10.84,10.36,10.84,2.12,0,4.28-.44,5.68-1.12l.72,2.76Z"/>
    <path d="M507.97,674.12c0,7.16-4.96,10.28-9.64,10.28-5.24,0-9.28-3.84-9.28-9.96,0-6.48,4.24-10.28,9.6-10.28s9.32,4.04,9.32,9.96ZM492.61,674.32c0,4.24,2.44,7.44,5.88,7.44s5.88-3.16,5.88-7.52c0-3.28-1.64-7.44-5.8-7.44s-5.96,3.84-5.96,7.52Z"/>
    <path d="M512.41,669.84c0-2-.04-3.64-.16-5.24h3.12l.2,3.2h.08c.96-1.84,3.2-3.64,6.4-3.64,2.68,0,6.84,1.6,6.84,8.24v11.56h-3.52v-11.16c0-3.12-1.16-5.72-4.48-5.72-2.32,0-4.12,1.64-4.72,3.6-.16.44-.24,1.04-.24,1.64v11.64h-3.52v-14.12Z"/>
    <path d="M538.69,659.04v5.56h5.04v2.68h-5.04v10.44c0,2.4.68,3.76,2.64,3.76.92,0,1.6-.12,2.04-.24l.16,2.64c-.68.28-1.76.48-3.12.48-1.64,0-2.96-.52-3.8-1.48-1-1.04-1.36-2.76-1.36-5.04v-10.56h-3v-2.68h3v-4.64l3.44-.92Z"/>
    <path d="M547.69,670.64c0-2.28-.04-4.24-.16-6.04h3.08l.12,3.8h.16c.88-2.6,3-4.24,5.36-4.24.4,0,.68.04,1,.12v3.32c-.36-.08-.72-.12-1.2-.12-2.48,0-4.24,1.88-4.72,4.52-.08.48-.16,1.04-.16,1.64v10.32h-3.48v-13.32Z"/>
    <path d="M571.29,683.96l-.28-2.44h-.12c-1.08,1.52-3.16,2.88-5.92,2.88-3.92,0-5.92-2.76-5.92-5.56,0-4.68,4.16-7.24,11.64-7.2v-.4c0-1.6-.44-4.48-4.4-4.48-1.8,0-3.68.56-5.04,1.44l-.8-2.32c1.6-1.04,3.92-1.72,6.36-1.72,5.92,0,7.36,4.04,7.36,7.92v7.24c0,1.68.08,3.32.32,4.64h-3.2ZM570.77,674.08c-3.84-.08-8.2.6-8.2,4.36,0,2.28,1.52,3.36,3.32,3.36,2.52,0,4.12-1.6,4.68-3.24.12-.36.2-.76.2-1.12v-3.36Z"/>
    <path d="M583.93,659.04v5.56h5.04v2.68h-5.04v10.44c0,2.4.68,3.76,2.64,3.76.92,0,1.6-.12,2.04-.24l.16,2.64c-.68.28-1.76.48-3.12.48-1.64,0-2.96-.52-3.8-1.48-1-1.04-1.36-2.76-1.36-5.04v-10.56h-3v-2.68h3v-4.64l3.44-.92Z"/>
    <path d="M610.21,674.12c0,7.16-4.96,10.28-9.64,10.28-5.24,0-9.28-3.84-9.28-9.96,0-6.48,4.24-10.28,9.6-10.28s9.32,4.04,9.32,9.96ZM594.85,674.32c0,4.24,2.44,7.44,5.88,7.44s5.88-3.16,5.88-7.52c0-3.28-1.64-7.44-5.8-7.44s-5.96,3.84-5.96,7.52Z"/>
    <path d="M482.83,708.2c0,9.28-5.64,14.2-12.52,14.2s-12.12-5.52-12.12-13.68c0-8.56,5.32-14.16,12.52-14.16s12.12,5.64,12.12,13.64ZM461.92,708.64c0,5.76,3.12,10.92,8.6,10.92s8.64-5.08,8.64-11.2c0-5.36-2.8-10.96-8.6-10.96s-8.64,5.32-8.64,11.24Z"/>
    <path d="M501.19,721.24c-.92.48-2.96,1.12-5.56,1.12-5.84,0-9.64-3.96-9.64-9.88s4.08-10.28,10.4-10.28c2.08,0,3.92.52,4.88,1l-.8,2.72c-.84-.48-2.16-.92-4.08-.92-4.44,0-6.84,3.28-6.84,7.32,0,4.48,2.88,7.24,6.72,7.24,2,0,3.32-.52,4.32-.96l.6,2.64Z"/>
    <path d="M516.03,721.96l-.28-2.44h-.12c-1.08,1.52-3.16,2.88-5.92,2.88-3.92,0-5.92-2.76-5.92-5.56,0-4.68,4.16-7.24,11.64-7.2v-.4c0-1.6-.44-4.48-4.4-4.48-1.8,0-3.68.56-5.04,1.44l-.8-2.32c1.6-1.04,3.92-1.72,6.36-1.72,5.92,0,7.36,4.04,7.36,7.92v7.24c0,1.68.08,3.32.32,4.64h-3.2ZM515.51,712.08c-3.84-.08-8.2.6-8.2,4.36,0,2.28,1.52,3.36,3.32,3.36,2.52,0,4.12-1.6,4.68-3.24.12-.36.2-.76.2-1.12v-3.36Z"/>
    <path d="M524.11,718.36c1.04.68,2.88,1.4,4.64,1.4,2.56,0,3.76-1.28,3.76-2.88,0-1.68-1-2.6-3.6-3.56-3.48-1.24-5.12-3.16-5.12-5.48,0-3.12,2.52-5.68,6.68-5.68,1.96,0,3.68.56,4.76,1.2l-.88,2.56c-.76-.48-2.16-1.12-3.96-1.12-2.08,0-3.24,1.2-3.24,2.64,0,1.6,1.16,2.32,3.68,3.28,3.36,1.28,5.08,2.96,5.08,5.84,0,3.4-2.64,5.8-7.24,5.8-2.12,0-4.08-.52-5.44-1.32l.88-2.68Z"/>
    <path d="M544.35,697.17c.04,1.2-.84,2.16-2.24,2.16-1.24,0-2.12-.96-2.12-2.16s.92-2.2,2.2-2.2,2.16.96,2.16,2.2ZM540.43,721.96v-19.36h3.52v19.36h-3.52Z"/>
    <path d="M567.31,712.12c0,7.16-4.96,10.28-9.64,10.28-5.24,0-9.28-3.84-9.28-9.96,0-6.48,4.24-10.28,9.6-10.28s9.32,4.04,9.32,9.96ZM551.95,712.32c0,4.24,2.44,7.44,5.88,7.44s5.88-3.16,5.88-7.52c0-3.28-1.64-7.44-5.8-7.44s-5.96,3.84-5.96,7.52Z"/>
    <path d="M571.75,707.84c0-2-.04-3.64-.16-5.24h3.12l.2,3.2h.08c.96-1.84,3.2-3.64,6.4-3.64,2.68,0,6.84,1.6,6.84,8.24v11.56h-3.52v-11.16c0-3.12-1.16-5.72-4.48-5.72-2.32,0-4.12,1.64-4.72,3.6-.16.44-.24,1.04-.24,1.64v11.64h-3.52v-14.12Z"/>
    <path d="M604.67,721.96l-.28-2.44h-.12c-1.08,1.52-3.16,2.88-5.92,2.88-3.92,0-5.92-2.76-5.92-5.56,0-4.68,4.16-7.24,11.64-7.2v-.4c0-1.6-.44-4.48-4.4-4.48-1.8,0-3.68.56-5.04,1.44l-.8-2.32c1.6-1.04,3.92-1.72,6.36-1.72,5.92,0,7.36,4.04,7.36,7.92v7.24c0,1.68.08,3.32.32,4.64h-3.2ZM604.15,712.08c-3.84-.08-8.2.6-8.2,4.36,0,2.28,1.52,3.36,3.32,3.36,2.52,0,4.12-1.6,4.68-3.24.12-.36.2-.76.2-1.12v-3.36Z"/>
    <path d="M613.23,693.57h3.52v28.4h-3.52v-28.4Z"/>
  </g>
  <g>
    <path d="M842.21,512.01c-1.28.64-3.84,1.28-7.12,1.28-7.6,0-13.32-4.8-13.32-13.64s5.72-14.16,14.08-14.16c3.36,0,5.48.72,6.4,1.2l-.84,2.84c-1.32-.64-3.2-1.12-5.44-1.12-6.32,0-10.52,4.04-10.52,11.12,0,6.6,3.8,10.84,10.36,10.84,2.12,0,4.28-.44,5.68-1.12l.72,2.76Z"/>
    <path d="M863.53,503.05c0,7.16-4.96,10.28-9.64,10.28-5.24,0-9.28-3.84-9.28-9.96,0-6.48,4.24-10.28,9.6-10.28s9.32,4.04,9.32,9.96ZM848.17,503.25c0,4.24,2.44,7.44,5.88,7.44s5.88-3.16,5.88-7.52c0-3.28-1.64-7.44-5.8-7.44s-5.96,3.84-5.96,7.52Z"/>
    <path d="M867.97,498.77c0-2-.04-3.64-.16-5.24h3.12l.2,3.2h.08c.96-1.84,3.2-3.64,6.4-3.64,2.68,0,6.84,1.6,6.84,8.24v11.56h-3.52v-11.16c0-3.12-1.16-5.72-4.48-5.72-2.32,0-4.12,1.64-4.72,3.6-.16.44-.24,1.04-.24,1.64v11.64h-3.52v-14.12Z"/>
    <path d="M894.25,487.98v5.56h5.04v2.68h-5.04v10.44c0,2.4.68,3.76,2.64,3.76.92,0,1.6-.12,2.04-.24l.16,2.64c-.68.28-1.76.48-3.12.48-1.64,0-2.96-.52-3.8-1.48-1-1.04-1.36-2.76-1.36-5.04v-10.56h-3v-2.68h3v-4.64l3.44-.92Z"/>
    <path d="M903.25,499.57c0-2.28-.04-4.24-.16-6.04h3.08l.12,3.8h.16c.88-2.6,3-4.24,5.36-4.24.4,0,.68.04,1,.12v3.32c-.36-.08-.72-.12-1.2-.12-2.48,0-4.24,1.88-4.72,4.52-.08.48-.16,1.04-.16,1.64v10.32h-3.48v-13.32Z"/>
    <path d="M926.85,512.89l-.28-2.44h-.12c-1.08,1.52-3.16,2.88-5.92,2.88-3.92,0-5.92-2.76-5.92-5.56,0-4.68,4.16-7.24,11.64-7.2v-.4c0-1.6-.44-4.48-4.4-4.48-1.8,0-3.68.56-5.04,1.44l-.8-2.32c1.6-1.04,3.92-1.72,6.36-1.72,5.92,0,7.36,4.04,7.36,7.92v7.24c0,1.68.08,3.32.32,4.64h-3.2ZM926.33,503.01c-3.84-.08-8.2.6-8.2,4.36,0,2.28,1.52,3.36,3.32,3.36,2.52,0,4.12-1.6,4.68-3.24.12-.36.2-.76.2-1.12v-3.36Z"/>
    <path d="M939.49,487.98v5.56h5.04v2.68h-5.04v10.44c0,2.4.68,3.76,2.64,3.76.92,0,1.6-.12,2.04-.24l.16,2.64c-.68.28-1.76.48-3.12.48-1.64,0-2.96-.52-3.8-1.48-1-1.04-1.36-2.76-1.36-5.04v-10.56h-3v-2.68h3v-4.64l3.44-.92Z"/>
    <path d="M965.77,503.05c0,7.16-4.96,10.28-9.64,10.28-5.24,0-9.28-3.84-9.28-9.96,0-6.48,4.24-10.28,9.6-10.28s9.32,4.04,9.32,9.96ZM950.41,503.25c0,4.24,2.44,7.44,5.88,7.44s5.88-3.16,5.88-7.52c0-3.28-1.64-7.44-5.8-7.44s-5.96,3.84-5.96,7.52Z"/>
    <path d="M978.69,499.85c0-2.48-.08-4.48-.16-6.32h3.16l.16,3.32h.08c1.44-2.36,3.72-3.76,6.88-3.76,4.68,0,8.2,3.96,8.2,9.84,0,6.96-4.24,10.4-8.8,10.4-2.56,0-4.8-1.12-5.96-3.04h-.08v10.52h-3.48v-20.96ZM982.17,505.01c0,.52.08,1,.16,1.44.64,2.44,2.76,4.12,5.28,4.12,3.72,0,5.88-3.04,5.88-7.48,0-3.88-2.04-7.2-5.76-7.2-2.4,0-4.64,1.72-5.32,4.36-.12.44-.24.96-.24,1.44v3.32Z"/>
    <path d="M1018.96,503.05c0,7.16-4.96,10.28-9.64,10.28-5.24,0-9.28-3.84-9.28-9.96,0-6.48,4.24-10.28,9.6-10.28s9.32,4.04,9.32,9.96ZM1003.61,503.25c0,4.24,2.44,7.44,5.88,7.44s5.88-3.16,5.88-7.52c0-3.28-1.64-7.44-5.8-7.44s-5.96,3.84-5.96,7.52Z"/>
    <path d="M1023.41,499.57c0-2.28-.04-4.24-.16-6.04h3.08l.12,3.8h.16c.88-2.6,3-4.24,5.36-4.24.4,0,.68.04,1,.12v3.32c-.36-.08-.72-.12-1.2-.12-2.48,0-4.24,1.88-4.72,4.52-.08.48-.16,1.04-.16,1.64v10.32h-3.48v-13.32Z"/>
    <path d="M846.41,537.13c0,9.28-5.64,14.2-12.52,14.2s-12.12-5.52-12.12-13.68c0-8.56,5.32-14.16,12.52-14.16s12.12,5.64,12.12,13.64ZM825.49,537.57c0,5.76,3.12,10.92,8.6,10.92s8.64-5.08,8.64-11.2c0-5.36-2.8-10.96-8.6-10.96s-8.64,5.32-8.64,11.24Z"/>
    <path d="M850.65,550.89c.08-1.32.16-3.28.16-5v-23.4h3.48v12.16h.08c1.24-2.16,3.48-3.56,6.6-3.56,4.8,0,8.2,4,8.16,9.88,0,6.92-4.36,10.36-8.68,10.36-2.8,0-5.04-1.08-6.48-3.64h-.12l-.16,3.2h-3.04ZM854.29,543.13c0,.44.08.88.16,1.28.68,2.44,2.72,4.12,5.28,4.12,3.68,0,5.88-3,5.88-7.44,0-3.88-2-7.2-5.76-7.2-2.4,0-4.64,1.64-5.36,4.32-.08.4-.2.88-.2,1.44v3.48Z"/>
    <path d="M873.57,537.57c0-2.28-.04-4.24-.16-6.04h3.08l.12,3.8h.16c.88-2.6,3-4.24,5.36-4.24.4,0,.68.04,1,.12v3.32c-.36-.08-.72-.12-1.2-.12-2.48,0-4.24,1.88-4.72,4.52-.08.48-.16,1.04-.16,1.64v10.32h-3.48v-13.32Z"/>
    <path d="M897.17,550.89l-.28-2.44h-.12c-1.08,1.52-3.16,2.88-5.92,2.88-3.92,0-5.92-2.76-5.92-5.56,0-4.68,4.16-7.24,11.64-7.2v-.4c0-1.6-.44-4.48-4.4-4.48-1.8,0-3.68.56-5.04,1.44l-.8-2.32c1.6-1.04,3.92-1.72,6.36-1.72,5.92,0,7.36,4.04,7.36,7.92v7.24c0,1.68.08,3.32.32,4.64h-3.2ZM896.65,541.01c-3.84-.08-8.2.6-8.2,4.36,0,2.28,1.52,3.36,3.32,3.36,2.52,0,4.12-1.6,4.68-3.24.12-.36.2-.76.2-1.12v-3.36Z"/>
    <path d="M931.73,541.05c0,7.16-4.96,10.28-9.64,10.28-5.24,0-9.28-3.84-9.28-9.96,0-6.48,4.24-10.28,9.6-10.28s9.32,4.04,9.32,9.96ZM916.37,541.25c0,4.24,2.44,7.44,5.88,7.44s5.88-3.16,5.88-7.52c0-3.28-1.64-7.44-5.8-7.44s-5.96,3.84-5.96,7.52Z"/>
    <path d="M944.77,523.94h3.48v24.04h11.52v2.92h-15v-26.96Z"/>
    <path d="M974.25,550.89l-.28-2.44h-.12c-1.08,1.52-3.16,2.88-5.92,2.88-3.92,0-5.92-2.76-5.92-5.56,0-4.68,4.16-7.24,11.64-7.2v-.4c0-1.6-.44-4.48-4.4-4.48-1.8,0-3.68.56-5.04,1.44l-.8-2.32c1.6-1.04,3.92-1.72,6.36-1.72,5.92,0,7.36,4.04,7.36,7.92v7.24c0,1.68.08,3.32.32,4.64h-3.2ZM973.73,541.01c-3.84-.08-8.2.6-8.2,4.36,0,2.28,1.52,3.36,3.32,3.36,2.52,0,4.12-1.6,4.68-3.24.12-.36.2-.76.2-1.12v-3.36Z"/>
    <path d="M982.65,550.89c.08-1.32.16-3.28.16-5v-23.4h3.48v12.16h.08c1.24-2.16,3.48-3.56,6.6-3.56,4.8,0,8.2,4,8.16,9.88,0,6.92-4.36,10.36-8.68,10.36-2.8,0-5.04-1.08-6.48-3.64h-.12l-.16,3.2h-3.04ZM986.29,543.13c0,.44.08.88.16,1.28.68,2.44,2.72,4.12,5.28,4.12,3.68,0,5.88-3,5.88-7.44,0-3.88-2-7.2-5.76-7.2-2.4,0-4.64,1.64-5.36,4.32-.08.4-.2.88-.2,1.44v3.48Z"/>
    <path d="M1023.08,541.05c0,7.16-4.96,10.28-9.64,10.28-5.24,0-9.28-3.84-9.28-9.96,0-6.48,4.24-10.28,9.6-10.28s9.32,4.04,9.32,9.96ZM1007.73,541.25c0,4.24,2.44,7.44,5.88,7.44s5.88-3.16,5.88-7.52c0-3.28-1.64-7.44-5.8-7.44s-5.96,3.84-5.96,7.52Z"/>
    <path d="M1027.53,537.57c0-2.28-.04-4.24-.16-6.04h3.08l.12,3.8h.16c.88-2.6,3-4.24,5.36-4.24.4,0,.68.04,1,.12v3.32c-.36-.08-.72-.12-1.2-.12-2.48,0-4.24,1.88-4.72,4.52-.08.48-.16,1.04-.16,1.64v10.32h-3.48v-13.32Z"/>
  </g>
  <g>
    <path d="M901.73,220.38c-1.28.64-3.84,1.28-7.12,1.28-7.6,0-13.32-4.8-13.32-13.64s5.72-14.16,14.08-14.16c3.36,0,5.48.72,6.4,1.2l-.84,2.84c-1.32-.64-3.2-1.12-5.44-1.12-6.32,0-10.52,4.04-10.52,11.12,0,6.6,3.8,10.84,10.36,10.84,2.12,0,4.28-.44,5.68-1.12l.72,2.76Z"/>
    <path d="M923.05,211.42c0,7.16-4.96,10.28-9.64,10.28-5.24,0-9.28-3.84-9.28-9.96,0-6.48,4.24-10.28,9.6-10.28s9.32,4.04,9.32,9.96ZM907.69,211.62c0,4.24,2.44,7.44,5.88,7.44s5.88-3.16,5.88-7.52c0-3.28-1.64-7.44-5.8-7.44s-5.96,3.84-5.96,7.52Z"/>
    <path d="M927.49,207.15c0-2-.04-3.64-.16-5.24h3.12l.2,3.2h.08c.96-1.84,3.2-3.64,6.4-3.64,2.68,0,6.84,1.6,6.84,8.24v11.56h-3.52v-11.16c0-3.12-1.16-5.72-4.48-5.72-2.32,0-4.12,1.64-4.72,3.6-.16.44-.24,1.04-.24,1.64v11.64h-3.52v-14.12Z"/>
    <path d="M953.77,196.35v5.56h5.04v2.68h-5.04v10.44c0,2.4.68,3.76,2.64,3.76.92,0,1.6-.12,2.04-.24l.16,2.64c-.68.28-1.76.48-3.12.48-1.64,0-2.96-.52-3.8-1.48-1-1.04-1.36-2.76-1.36-5.04v-10.56h-3v-2.68h3v-4.64l3.44-.92Z"/>
    <path d="M962.77,207.95c0-2.28-.04-4.24-.16-6.04h3.08l.12,3.8h.16c.88-2.6,3-4.24,5.36-4.24.4,0,.68.04,1,.12v3.32c-.36-.08-.72-.12-1.2-.12-2.48,0-4.24,1.88-4.72,4.52-.08.48-.16,1.04-.16,1.64v10.32h-3.48v-13.32Z"/>
    <path d="M986.37,221.26l-.28-2.44h-.12c-1.08,1.52-3.16,2.88-5.92,2.88-3.92,0-5.92-2.76-5.92-5.56,0-4.68,4.16-7.24,11.64-7.2v-.4c0-1.6-.44-4.48-4.4-4.48-1.8,0-3.68.56-5.04,1.44l-.8-2.32c1.6-1.04,3.92-1.72,6.36-1.72,5.92,0,7.36,4.04,7.36,7.92v7.24c0,1.68.08,3.32.32,4.64h-3.2ZM985.85,211.38c-3.84-.08-8.2.6-8.2,4.36,0,2.28,1.52,3.36,3.32,3.36,2.52,0,4.12-1.6,4.68-3.24.12-.36.2-.76.2-1.12v-3.36Z"/>
    <path d="M999.01,196.35v5.56h5.04v2.68h-5.04v10.44c0,2.4.68,3.76,2.64,3.76.92,0,1.6-.12,2.04-.24l.16,2.64c-.68.28-1.76.48-3.12.48-1.64,0-2.96-.52-3.8-1.48-1-1.04-1.36-2.76-1.36-5.04v-10.56h-3v-2.68h3v-4.64l3.44-.92Z"/>
    <path d="M1025.29,211.42c0,7.16-4.96,10.28-9.64,10.28-5.24,0-9.28-3.84-9.28-9.96,0-6.48,4.24-10.28,9.6-10.28s9.32,4.04,9.32,9.96ZM1009.93,211.62c0,4.24,2.44,7.44,5.88,7.44s5.88-3.16,5.88-7.52c0-3.28-1.64-7.44-5.8-7.44s-5.96,3.84-5.96,7.52Z"/>
    <path d="M1048.93,221.26l-.28-2.44h-.12c-1.08,1.52-3.16,2.88-5.92,2.88-3.92,0-5.92-2.76-5.92-5.56,0-4.68,4.16-7.24,11.64-7.2v-.4c0-1.6-.44-4.48-4.4-4.48-1.8,0-3.68.56-5.04,1.44l-.8-2.32c1.6-1.04,3.92-1.72,6.36-1.72,5.92,0,7.36,4.04,7.36,7.92v7.24c0,1.68.08,3.32.32,4.64h-3.2ZM1048.41,211.38c-3.84-.08-8.2.6-8.2,4.36,0,2.28,1.52,3.36,3.32,3.36,2.52,0,4.12-1.6,4.68-3.24.12-.36.2-.76.2-1.12v-3.36Z"/>
    <path d="M888.01,235.27h-8.2v-2.96h19.96v2.96h-8.24v24h-3.52v-24Z"/>
    <path d="M901.77,250.22c.08,4.76,3.12,6.72,6.64,6.72,2.52,0,4.04-.44,5.36-1l.6,2.52c-1.24.56-3.36,1.2-6.44,1.2-5.96,0-9.52-3.92-9.52-9.76s3.44-10.44,9.08-10.44c6.32,0,8,5.56,8,9.12,0,.72-.08,1.28-.12,1.64h-13.6ZM912.09,247.71c.04-2.24-.92-5.72-4.88-5.72-3.56,0-5.12,3.28-5.4,5.72h10.28ZM912.93,231.55l-4.88,5.72h-2.52l3.52-5.72h3.88Z"/>
    <path d="M919.85,245.95c0-2.28-.04-4.24-.16-6.04h3.08l.12,3.8h.16c.88-2.6,3-4.24,5.36-4.24.4,0,.68.04,1,.12v3.32c-.36-.08-.72-.12-1.2-.12-2.48,0-4.24,1.88-4.72,4.52-.08.48-.16,1.04-.16,1.64v10.32h-3.48v-13.32Z"/>
    <path d="M933.09,245.15c0-2-.04-3.64-.16-5.24h3.08l.16,3.12h.12c1.08-1.84,2.88-3.56,6.08-3.56,2.64,0,4.64,1.6,5.48,3.88h.08c.6-1.08,1.36-1.92,2.16-2.52,1.16-.88,2.44-1.36,4.28-1.36,2.56,0,6.36,1.68,6.36,8.4v11.4h-3.44v-10.96c0-3.72-1.36-5.96-4.2-5.96-2,0-3.56,1.48-4.16,3.2-.16.48-.28,1.12-.28,1.76v11.96h-3.44v-11.6c0-3.08-1.36-5.32-4.04-5.32-2.2,0-3.8,1.76-4.36,3.52-.2.52-.28,1.12-.28,1.72v11.68h-3.44v-14.12Z"/>
    <path d="M970.37,234.47c.04,1.2-.84,2.16-2.24,2.16-1.24,0-2.12-.96-2.12-2.16s.92-2.2,2.2-2.2,2.16.96,2.16,2.2ZM966.45,259.26v-19.36h3.52v19.36h-3.52Z"/>
    <path d="M975.81,245.15c0-2-.04-3.64-.16-5.24h3.12l.2,3.2h.08c.96-1.84,3.2-3.64,6.4-3.64,2.68,0,6.84,1.6,6.84,8.24v11.56h-3.52v-11.16c0-3.12-1.16-5.72-4.48-5.72-2.32,0-4.12,1.64-4.72,3.6-.16.44-.24,1.04-.24,1.64v11.64h-3.52v-14.12Z"/>
    <path d="M1015.53,249.42c0,7.16-4.96,10.28-9.64,10.28-5.24,0-9.28-3.84-9.28-9.96,0-6.48,4.24-10.28,9.6-10.28s9.32,4.04,9.32,9.96ZM1000.17,249.62c0,4.24,2.44,7.44,5.88,7.44s5.88-3.16,5.88-7.52c0-3.28-1.64-7.44-5.8-7.44s-5.96,3.84-5.96,7.52Z"/>
    <path d="M886.37,270.31v26.96h-3.48v-26.96h3.48Z"/>
    <path d="M892.73,283.15c0-2-.04-3.64-.16-5.24h3.12l.2,3.2h.08c.96-1.84,3.2-3.64,6.4-3.64,2.68,0,6.84,1.6,6.84,8.24v11.56h-3.52v-11.16c0-3.12-1.16-5.72-4.48-5.72-2.32,0-4.12,1.64-4.72,3.6-.16.44-.24,1.04-.24,1.64v11.64h-3.52v-14.12Z"/>
    <path d="M931.65,268.87v23.4c0,1.72.04,3.68.16,5h-3.16l-.16-3.36h-.08c-1.08,2.16-3.44,3.8-6.6,3.8-4.68,0-8.28-3.96-8.28-9.84-.04-6.44,3.96-10.4,8.68-10.4,2.96,0,4.96,1.4,5.84,2.96h.08v-11.56h3.52ZM928.13,285.79c0-.44-.04-1.04-.16-1.48-.52-2.24-2.44-4.08-5.08-4.08-3.64,0-5.8,3.2-5.8,7.48,0,3.92,1.92,7.16,5.72,7.16,2.36,0,4.52-1.56,5.16-4.2.12-.48.16-.96.16-1.52v-3.36Z"/>
    <path d="M939.45,288.22c.08,4.76,3.12,6.72,6.64,6.72,2.52,0,4.04-.44,5.36-1l.6,2.52c-1.24.56-3.36,1.2-6.44,1.2-5.96,0-9.52-3.92-9.52-9.76s3.44-10.44,9.08-10.44c6.32,0,8,5.56,8,9.12,0,.72-.08,1.28-.12,1.64h-13.6ZM949.77,285.71c.04-2.24-.92-5.72-4.88-5.72-3.56,0-5.12,3.28-5.4,5.72h10.28Z"/>
    <path d="M957.89,297.26v-16.68h-2.72v-2.68h2.72v-1.04c0-5.12,3-8.44,8.44-8.44,1.8,0,3.92.56,4.92,1.28l-1,2.68c-.84-.6-2.36-1.12-4.08-1.12-3.72,0-4.8,2.6-4.8,5.68v.96h11.24v19.36h-3.48v-16.68h-7.76v16.68h-3.48Z"/>
    <path d="M978.45,283.15c0-2-.04-3.64-.16-5.24h3.12l.2,3.2h.08c.96-1.84,3.2-3.64,6.4-3.64,2.68,0,6.84,1.6,6.84,8.24v11.56h-3.52v-11.16c0-3.12-1.16-5.72-4.48-5.72-2.32,0-4.12,1.64-4.72,3.6-.16.44-.24,1.04-.24,1.64v11.64h-3.52v-14.12Z"/>
    <path d="M1004.57,272.47c.04,1.2-.84,2.16-2.24,2.16-1.24,0-2.12-.96-2.12-2.16s.92-2.2,2.2-2.2,2.16.96,2.16,2.2ZM1000.65,297.26v-19.36h3.52v19.36h-3.52Z"/>
    <path d="M1026.73,268.87v23.4c0,1.72.04,3.68.16,5h-3.16l-.16-3.36h-.08c-1.08,2.16-3.44,3.8-6.6,3.8-4.68,0-8.28-3.96-8.28-9.84-.04-6.44,3.96-10.4,8.68-10.4,2.96,0,4.96,1.4,5.84,2.96h.08v-11.56h3.52ZM1023.21,285.79c0-.44-.04-1.04-.16-1.48-.52-2.24-2.44-4.08-5.08-4.08-3.64,0-5.8,3.2-5.8,7.48,0,3.92,1.92,7.16,5.72,7.16,2.36,0,4.52-1.56,5.16-4.2.12-.48.16-.96.16-1.52v-3.36Z"/>
    <path d="M1050.09,287.42c0,7.16-4.96,10.28-9.64,10.28-5.24,0-9.28-3.84-9.28-9.96,0-6.48,4.24-10.28,9.6-10.28s9.32,4.04,9.32,9.96ZM1034.73,287.62c0,4.24,2.44,7.44,5.88,7.44s5.88-3.16,5.88-7.52c0-3.28-1.64-7.44-5.8-7.44s-5.96,3.84-5.96,7.52Z"/>
  </g>
  <g>
    <path d="M762.4,26.52c-1.28.64-3.84,1.28-7.12,1.28-7.6,0-13.32-4.8-13.32-13.64s5.72-14.16,14.08-14.16c3.36,0,5.48.72,6.4,1.2l-.84,2.84c-1.32-.64-3.2-1.12-5.44-1.12-6.32,0-10.52,4.04-10.52,11.12,0,6.6,3.8,10.84,10.36,10.84,2.12,0,4.28-.44,5.68-1.12l.72,2.76Z"/>
    <path d="M783.72,17.56c0,7.16-4.96,10.28-9.64,10.28-5.24,0-9.28-3.84-9.28-9.96,0-6.48,4.24-10.28,9.6-10.28s9.32,4.04,9.32,9.96ZM768.36,17.76c0,4.24,2.44,7.44,5.88,7.44s5.88-3.16,5.88-7.52c0-3.28-1.64-7.44-5.8-7.44s-5.96,3.84-5.96,7.52Z"/>
    <path d="M788.16,13.28c0-2-.04-3.64-.16-5.24h3.12l.2,3.2h.08c.96-1.84,3.2-3.64,6.4-3.64,2.68,0,6.84,1.6,6.84,8.24v11.56h-3.52v-11.16c0-3.12-1.16-5.72-4.48-5.72-2.32,0-4.12,1.64-4.72,3.6-.16.44-.24,1.04-.24,1.64v11.64h-3.52v-14.12Z"/>
    <path d="M814.44,2.48v5.56h5.04v2.68h-5.04v10.44c0,2.4.68,3.76,2.64,3.76.92,0,1.6-.12,2.04-.24l.16,2.64c-.68.28-1.76.48-3.12.48-1.64,0-2.96-.52-3.8-1.48-1-1.04-1.36-2.76-1.36-5.04v-10.56h-3v-2.68h3V3.4l3.44-.92Z"/>
    <path d="M823.44,14.08c0-2.28-.04-4.24-.16-6.04h3.08l.12,3.8h.16c.88-2.6,3-4.24,5.36-4.24.4,0,.68.04,1,.12v3.32c-.36-.08-.72-.12-1.2-.12-2.48,0-4.24,1.88-4.72,4.52-.08.48-.16,1.04-.16,1.64v10.32h-3.48v-13.32Z"/>
    <path d="M847.04,27.4l-.28-2.44h-.12c-1.08,1.52-3.16,2.88-5.92,2.88-3.92,0-5.92-2.76-5.92-5.56,0-4.68,4.16-7.24,11.64-7.2v-.4c0-1.6-.44-4.48-4.4-4.48-1.8,0-3.68.56-5.04,1.44l-.8-2.32c1.6-1.04,3.92-1.72,6.36-1.72,5.92,0,7.36,4.04,7.36,7.92v7.24c0,1.68.08,3.32.32,4.64h-3.2ZM846.52,17.52c-3.84-.08-8.2.6-8.2,4.36,0,2.28,1.52,3.36,3.32,3.36,2.52,0,4.12-1.6,4.68-3.24.12-.36.2-.76.2-1.12v-3.36Z"/>
    <path d="M859.68,2.48v5.56h5.04v2.68h-5.04v10.44c0,2.4.68,3.76,2.64,3.76.92,0,1.6-.12,2.04-.24l.16,2.64c-.68.28-1.76.48-3.12.48-1.64,0-2.96-.52-3.8-1.48-1-1.04-1.36-2.76-1.36-5.04v-10.56h-3v-2.68h3V3.4l3.44-.92Z"/>
    <path d="M885.95,17.56c0,7.16-4.96,10.28-9.64,10.28-5.24,0-9.28-3.84-9.28-9.96,0-6.48,4.24-10.28,9.6-10.28s9.32,4.04,9.32,9.96ZM870.6,17.76c0,4.24,2.44,7.44,5.88,7.44s5.88-3.16,5.88-7.52c0-3.28-1.64-7.44-5.8-7.44s-5.96,3.84-5.96,7.52Z"/>
    <path d="M909.6,27.4l-.28-2.44h-.12c-1.08,1.52-3.16,2.88-5.92,2.88-3.92,0-5.92-2.76-5.92-5.56,0-4.68,4.16-7.24,11.64-7.2v-.4c0-1.6-.44-4.48-4.4-4.48-1.8,0-3.68.56-5.04,1.44l-.8-2.32c1.6-1.04,3.92-1.72,6.36-1.72,5.92,0,7.36,4.04,7.36,7.92v7.24c0,1.68.08,3.32.32,4.64h-3.2ZM909.07,17.52c-3.84-.08-8.2.6-8.2,4.36,0,2.28,1.52,3.36,3.32,3.36,2.52,0,4.12-1.6,4.68-3.24.12-.36.2-.76.2-1.12v-3.36Z"/>
    <path d="M748.68,41.4h-8.2v-2.96h19.96v2.96h-8.24v24h-3.52v-24Z"/>
    <path d="M762.44,56.36c.08,4.76,3.12,6.72,6.64,6.72,2.52,0,4.04-.44,5.36-1l.6,2.52c-1.24.56-3.36,1.2-6.44,1.2-5.96,0-9.52-3.92-9.52-9.76s3.44-10.44,9.08-10.44c6.32,0,8,5.56,8,9.12,0,.72-.08,1.28-.12,1.64h-13.6ZM772.76,53.84c.04-2.24-.92-5.72-4.88-5.72-3.56,0-5.12,3.28-5.4,5.72h10.28ZM773.6,37.68l-4.88,5.72h-2.52l3.52-5.72h3.88Z"/>
    <path d="M780.52,52.08c0-2.28-.04-4.24-.16-6.04h3.08l.12,3.8h.16c.88-2.6,3-4.24,5.36-4.24.4,0,.68.04,1,.12v3.32c-.36-.08-.72-.12-1.2-.12-2.48,0-4.24,1.88-4.72,4.52-.08.48-.16,1.04-.16,1.64v10.32h-3.48v-13.32Z"/>
    <path d="M793.76,51.28c0-2-.04-3.64-.16-5.24h3.08l.16,3.12h.12c1.08-1.84,2.88-3.56,6.08-3.56,2.64,0,4.64,1.6,5.48,3.88h.08c.6-1.08,1.36-1.92,2.16-2.52,1.16-.88,2.44-1.36,4.28-1.36,2.56,0,6.36,1.68,6.36,8.4v11.4h-3.44v-10.96c0-3.72-1.36-5.96-4.2-5.96-2,0-3.56,1.48-4.16,3.2-.16.48-.28,1.12-.28,1.76v11.96h-3.44v-11.6c0-3.08-1.36-5.32-4.04-5.32-2.2,0-3.8,1.76-4.36,3.52-.2.52-.28,1.12-.28,1.72v11.68h-3.44v-14.12Z"/>
    <path d="M831.04,40.6c.04,1.2-.84,2.16-2.24,2.16-1.24,0-2.12-.96-2.12-2.16s.92-2.2,2.2-2.2,2.16.96,2.16,2.2ZM827.12,65.4v-19.36h3.52v19.36h-3.52Z"/>
    <path d="M836.48,51.28c0-2-.04-3.64-.16-5.24h3.12l.2,3.2h.08c.96-1.84,3.2-3.64,6.4-3.64,2.68,0,6.84,1.6,6.84,8.24v11.56h-3.52v-11.16c0-3.12-1.16-5.72-4.48-5.72-2.32,0-4.12,1.64-4.72,3.6-.16.44-.24,1.04-.24,1.64v11.64h-3.52v-14.12Z"/>
    <path d="M876.19,55.56c0,7.16-4.96,10.28-9.64,10.28-5.24,0-9.28-3.84-9.28-9.96,0-6.48,4.24-10.28,9.6-10.28s9.32,4.04,9.32,9.96ZM860.84,55.76c0,4.24,2.44,7.44,5.88,7.44s5.88-3.16,5.88-7.52c0-3.28-1.64-7.44-5.8-7.44s-5.96,3.84-5.96,7.52Z"/>
    <path d="M889.24,38.44h14.52v2.92h-11.04v8.96h10.2v2.88h-10.2v12.2h-3.48v-26.96Z"/>
    <path d="M911.48,40.6c.04,1.2-.84,2.16-2.24,2.16-1.24,0-2.12-.96-2.12-2.16s.92-2.2,2.2-2.2,2.16.96,2.16,2.2ZM907.56,65.4v-19.36h3.52v19.36h-3.52Z"/>
    <path d="M912.2,70.99c1.6-.12,3-.56,3.84-1.48.96-1.12,1.32-2.64,1.32-7.28v-16.2h3.52v17.56c0,3.76-.6,6.2-2.32,7.96-1.56,1.56-4.12,2.2-6,2.2l-.36-2.76ZM921.28,40.6c.04,1.16-.8,2.16-2.2,2.16-1.32,0-2.16-1-2.16-2.16,0-1.24.92-2.2,2.24-2.2s2.12.96,2.12,2.2Z"/>
    <path d="M944.15,55.56c0,7.16-4.96,10.28-9.64,10.28-5.24,0-9.28-3.84-9.28-9.96,0-6.48,4.24-10.28,9.6-10.28s9.32,4.04,9.32,9.96ZM928.8,55.76c0,4.24,2.44,7.44,5.88,7.44s5.88-3.16,5.88-7.52c0-3.28-1.64-7.44-5.8-7.44s-5.96,3.84-5.96,7.52Z"/>
  </g>
  <g>
    <g>
      <circle class="cls-7" cx="279.62" cy="244.62" r="62.53"/>
      <path d="M279.62,310.66c-36.41,0-66.03-29.62-66.03-66.04s29.62-66.03,66.03-66.03,66.03,29.62,66.03,66.03-29.62,66.04-66.03,66.04ZM279.62,185.59c-32.55,0-59.03,26.48-59.03,59.03s26.48,59.04,59.03,59.04,59.03-26.48,59.03-59.04-26.48-59.03-59.03-59.03Z"/>
    </g>
    <g>
      <circle class="cls-5" cx="425.36" cy="66.53" r="62.53"/>
      <path d="M425.36,132.56c-36.41,0-66.03-29.62-66.03-66.03S388.95.49,425.36.49s66.03,29.62,66.03,66.04-29.62,66.03-66.03,66.03ZM425.36,7.49c-32.55,0-59.03,26.48-59.03,59.04s26.48,59.03,59.03,59.03,59.03-26.48,59.03-59.03-26.48-59.04-59.03-59.04Z"/>
    </g>
    <g>
      <circle class="cls-6" cx="656.7" cy="66.53" r="62.53"/>
      <path d="M656.7,132.56c-36.41,0-66.03-29.62-66.03-66.03S620.29.49,656.7.49s66.03,29.62,66.03,66.04-29.62,66.03-66.03,66.03ZM656.7,7.49c-32.55,0-59.03,26.48-59.03,59.04s26.48,59.03,59.03,59.03,59.03-26.48,59.03-59.03-26.48-59.04-59.03-59.04Z"/>
    </g>
    <g>
      <circle class="cls-10" cx="800.89" cy="249.29" r="62.53"/>
      <path d="M800.89,315.32c-36.41,0-66.03-29.62-66.03-66.03s29.62-66.04,66.03-66.04,66.03,29.62,66.03,66.04-29.62,66.03-66.03,66.03ZM800.89,190.25c-32.55,0-59.03,26.48-59.03,59.04s26.48,59.03,59.03,59.03,59.03-26.48,59.03-59.03-26.48-59.04-59.03-59.04Z"/>
    </g>
    <g>
      <circle class="cls-8" cx="744.22" cy="477.15" r="62.53"/>
      <path d="M744.22,543.19c-36.41,0-66.03-29.62-66.03-66.03s29.62-66.03,66.03-66.03,66.03,29.62,66.03,66.03-29.62,66.03-66.03,66.03ZM744.22,418.12c-32.55,0-59.03,26.48-59.03,59.03s26.48,59.03,59.03,59.03,59.03-26.48,59.03-59.03-26.48-59.03-59.03-59.03Z"/>
    </g>
    <g>
      <circle class="cls-9" cx="537.1" cy="574.79" r="62.53"/>
      <path d="M537.1,640.82c-36.41,0-66.03-29.62-66.03-66.04s29.62-66.03,66.03-66.03,66.03,29.62,66.03,66.03-29.62,66.04-66.03,66.04ZM537.1,515.75c-32.55,0-59.03,26.48-59.03,59.03s26.48,59.04,59.03,59.04,59.03-26.48,59.03-59.04-26.48-59.03-59.03-59.03Z"/>
    </g>
    <g>
      <circle class="cls-4" cx="332.36" cy="471.84" r="62.53"/>
      <path d="M332.36,537.87c-36.41,0-66.03-29.62-66.03-66.04s29.62-66.03,66.03-66.03,66.03,29.62,66.03,66.03-29.62,66.04-66.03,66.04ZM332.36,412.81c-32.55,0-59.03,26.48-59.03,59.03s26.48,59.04,59.03,59.04,59.03-26.48,59.03-59.04-26.48-59.03-59.03-59.03Z"/>
    </g>
    <g>
      <path class="cls-1" d="M460.54,97.87h-70.37c-1.46,0-2.64-1.18-2.64-2.64s1.18-2.64,2.64-2.64h70.37c1.46,0,2.64,1.18,2.64,2.64s-1.18,2.64-2.64,2.64Z"/>
      <path class="cls-1" d="M460.54,59.17c-.58,0-1.16-.19-1.65-.58l-28.59-22.87c-1.4-1.12-3.15-1.73-4.95-1.73s-3.55.62-4.95,1.73l-2.75,2.2c-1.14.91-2.8.73-3.71-.41-.91-1.14-.73-2.8.41-3.71l2.75-2.2c2.33-1.86,5.26-2.89,8.24-2.89s5.91,1.03,8.24,2.89l28.59,22.87c1.14.91,1.32,2.57.41,3.71-.52.65-1.29.99-2.06.99ZM390.18,59.17c-.77,0-1.54-.34-2.06-.99-.91-1.14-.73-2.8.41-3.71l14.29-11.44c1.14-.91,2.8-.73,3.71.41.91,1.14.73,2.8-.41,3.71l-14.29,11.44c-.49.39-1.07.58-1.65.58Z"/>
      <path class="cls-1" d="M449.99,50.38c-1.46,0-2.64-1.18-2.64-2.64v-16.71h-7.04v6.16c0,1.46-1.18,2.64-2.64,2.64s-2.64-1.18-2.64-2.64v-7.04c0-2.42,1.97-4.4,4.4-4.4h8.8c2.43,0,4.4,1.97,4.4,4.4v17.59c0,1.46-1.18,2.64-2.64,2.64Z"/>
      <path class="cls-1" d="M397.21,97.87c-1.46,0-2.64-1.18-2.64-2.64v-43.98c0-1.46,1.18-2.64,2.64-2.64s2.64,1.18,2.64,2.64v43.98c0,1.46-1.18,2.64-2.64,2.64Z"/>
      <path class="cls-1" d="M453.51,97.87c-1.46,0-2.64-1.18-2.64-2.64v-15.83c0-1.46,1.18-2.64,2.64-2.64s2.64,1.18,2.64,2.64v15.83c0,1.46-1.18,2.64-2.64,2.64ZM453.51,67.97c-1.46,0-2.64-1.18-2.64-2.64v-14.07c0-1.46,1.18-2.64,2.64-2.64s2.64,1.18,2.64,2.64v14.07c0,1.46-1.18,2.64-2.64,2.64Z"/>
      <path class="cls-1" d="M435.91,97.87c-1.46,0-2.64-1.18-2.64-2.64v-17.59c0-3.84,0-6.37-.77-7.14-.77-.77-3.31-.77-7.14-.77s-6.37,0-7.14.77c-1.03,1.03-2.7,1.03-3.73,0-1.03-1.03-1.03-2.7,0-3.73,2.32-2.32,5.54-2.32,10.87-2.32s8.56,0,10.87,2.32c2.32,2.32,2.32,5.54,2.32,10.88v17.59c0,1.46-1.18,2.64-2.64,2.64ZM414.8,97.87c-1.46,0-2.64-1.18-2.64-2.64v-17.59c0-1.46,1.18-2.64,2.64-2.64s2.64,1.18,2.64,2.64v17.59c0,1.46-1.18,2.64-2.64,2.64Z"/>
      <path class="cls-1" d="M425.36,60.93c-5.33,0-9.68-4.34-9.68-9.68s4.34-9.68,9.68-9.68,9.68,4.34,9.68,9.68-4.34,9.68-9.68,9.68ZM425.36,46.86c-2.42,0-4.4,1.97-4.4,4.4s1.97,4.4,4.4,4.4,4.4-1.97,4.4-4.4-1.97-4.4-4.4-4.4Z"/>
    </g>
    <path class="cls-2" d="M647.28,29.71c-.86,0-1.69.34-2.3.95l-19.49,19.49c-.61.61-.95,1.44-.95,2.3v38.99c0,5.38,4.36,9.75,9.75,9.75h3.25c1.79,0,3.25-1.45,3.25-3.25s-1.45-3.25-3.25-3.25h-3.25c-1.79,0-3.25-1.45-3.25-3.25v-35.74h16.25c1.79,0,3.25-1.45,3.25-3.25v-16.25h22.74c1.79,0,3.25,1.45,3.25,3.25v16.25c0,1.79,1.45,3.25,3.25,3.25s3.25-1.45,3.25-3.25v-16.25c0-5.38-4.36-9.75-9.75-9.75h-25.99ZM644.03,49.21h-8.4l8.4-8.4v8.4ZM650.53,65.45c-1.79,0-3.25,1.45-3.25,3.25v25.99c0,1.79,1.45,3.25,3.25,3.25h32.49c1.79,0,3.25-1.45,3.25-3.25v-25.99c0-1.79-1.45-3.25-3.25-3.25h-32.49ZM653.78,78.45v-6.5h6.5v6.5h-6.5ZM666.78,78.45v-6.5h13v6.5h-13ZM666.78,91.44v-6.5h13v6.5h-13ZM660.28,84.94v6.5h-6.5v-6.5h6.5Z"/>
    <path class="cls-1" d="M818.2,272.47c-2.97,0-5.74-.68-8.24-2.01-2.18-1.17-4.14-2.81-5.98-5.02-3.13-3.76-5.36-8.52-7.51-13.12-1.92-4.11-3.74-7.99-5.98-10.75-2.11-2.61-4.26-3.77-6.95-3.77-4.28,0-7.61,1.2-9.9,3.57-2.34,2.41-3.57,6.13-3.57,10.74s2.39,7.5,4.4,9.19c2.58,2.17,5.97,3.47,9.07,3.47,4.08,0,4.37-.51,6.3-3.85,1.06-1.84,3.42-2.47,5.26-1.41,1.84,1.06,2.47,3.42,1.41,5.26-1.28,2.22-2.61,4.33-4.78,5.77-2.05,1.36-4.5,1.94-8.19,1.94-4.86,0-10.1-1.97-14.03-5.27-4.61-3.88-7.15-9.23-7.15-15.09,0-6.65,1.99-12.21,5.74-16.09,3.75-3.87,9.09-5.92,15.44-5.92,2.7,0,5.22.64,7.5,1.91,1.98,1.1,3.75,2.64,5.43,4.71,2.83,3.49,4.94,7.99,6.97,12.34,4.57,9.78,7.85,15.71,14.75,15.71,4.45,0,7.86-1.26,10.13-3.75,2.51-2.75,3.21-6.48,3.35-9.12.23-4.17-.95-7.85-3.33-10.36-2.34-2.48-5.76-3.73-10.15-3.73-3,0-4.87.27-5.86.83-.7.4-1.24,1.1-2.32,3-1.05,1.85-3.4,2.5-5.25,1.45-1.85-1.05-2.5-3.4-1.45-5.25,1.29-2.27,2.66-4.43,5.2-5.88,2.27-1.3,5.17-1.85,9.68-1.85,6.5,0,11.94,2.12,15.75,6.14,3.85,4.06,5.77,9.77,5.43,16.08-.31,5.58-2.16,10.38-5.35,13.89-3.74,4.1-9.21,6.26-15.82,6.26Z"/>
    <g>
      <g>
        <path class="cls-1" d="M747.32,457.13c0,.7.57,1.26,1.26,1.26s1.26-.57,1.26-1.26c0-.23.19-.42.42-.42h6.74c.23,0,.42.19.42.42v6.74c0,.23-.19.42-.42.42h-6.74c-.23,0-.42-.19-.42-.42v-1.69c0-.7-.57-1.26-1.26-1.26s-1.26.57-1.26,1.26v1.69c0,1.63,1.32,2.95,2.95,2.95h6.74c1.63,0,2.95-1.32,2.95-2.95v-6.74c0-1.63-1.32-2.95-2.95-2.95h-6.74c-1.63,0-2.95,1.32-2.95,2.95Z"/>
        <path class="cls-1" d="M757.02,467.82h-6.74c-2.18,0-3.95-1.77-3.95-3.95v-1.69c0-1.25,1.02-2.26,2.26-2.26s2.26,1.02,2.26,2.26v1.11h5.59v-5.58h-5.66c-.26.97-1.14,1.69-2.19,1.69-1.25,0-2.26-1.02-2.26-2.26,0-1.05.41-2.04,1.16-2.79.75-.75,1.74-1.16,2.79-1.16h6.75c2.18,0,3.95,1.77,3.95,3.95v6.74c0,2.18-1.77,3.95-3.95,3.95ZM748.59,461.92c-.15,0-.26.12-.26.26v1.69c0,1.08.87,1.95,1.95,1.95h6.74c1.08,0,1.95-.88,1.95-1.95v-6.74c0-1.08-.88-1.95-1.95-1.95h-6.74c-.52,0-1.01.2-1.38.57s-.57.86-.57,1.38c0,.29.53.29.53,0,0-.78.64-1.42,1.42-1.42h6.74c.78,0,1.42.64,1.42,1.42v6.74c0,.78-.64,1.42-1.42,1.42h-6.74c-.78,0-1.42-.64-1.42-1.42v-1.69c0-.15-.12-.26-.26-.26Z"/>
      </g>
      <g>
        <path class="cls-1" d="M718.25,460.08c4.41,0,8.01-3.59,8.01-8.01s-3.59-8.01-8.01-8.01-8.01,3.59-8.01,8.01,3.59,8.01,8.01,8.01ZM718.25,446.59c3.02,0,5.48,2.46,5.48,5.48s-2.46,5.48-5.48,5.48-5.48-2.46-5.48-5.48,2.46-5.48,5.48-5.48Z"/>
        <path class="cls-1" d="M718.25,461.08c-4.97,0-9.01-4.04-9.01-9.01s4.04-9.01,9.01-9.01,9.01,4.04,9.01,9.01-4.04,9.01-9.01,9.01ZM718.25,445.06c-3.86,0-7.01,3.14-7.01,7.01s3.14,7.01,7.01,7.01,7.01-3.14,7.01-7.01-3.14-7.01-7.01-7.01ZM718.25,458.55c-3.57,0-6.48-2.91-6.48-6.48s2.91-6.48,6.48-6.48,6.48,2.91,6.48,6.48-2.91,6.48-6.48,6.48ZM718.25,447.59c-2.47,0-4.48,2.01-4.48,4.48s2.01,4.48,4.48,4.48,4.48-2.01,4.48-4.48-2.01-4.48-4.48-4.48Z"/>
      </g>
      <g>
        <path class="cls-1" d="M768.82,455.02h5.06c1.63,0,2.95-1.32,2.95-2.95v-5.06c0-1.63-1.32-2.95-2.95-2.95h-5.06c-1.63,0-2.95,1.32-2.95,2.95v5.06c0,1.63,1.32,2.95,2.95,2.95ZM768.39,447.01c0-.23.19-.42.42-.42h5.06c.23,0,.42.19.42.42v5.06c0,.23-.19.42-.42.42h-5.06c-.23,0-.42-.19-.42-.42v-5.06h0Z"/>
        <path class="cls-1" d="M773.87,456.02h-5.06c-2.18,0-3.95-1.77-3.95-3.95v-5.06c0-2.18,1.77-3.95,3.95-3.95h5.06c2.18,0,3.95,1.77,3.95,3.95v5.06c0,2.18-1.77,3.95-3.95,3.95ZM768.82,445.06c-1.08,0-1.95.87-1.95,1.95v5.06c0,1.08.88,1.95,1.95,1.95h5.06c1.08,0,1.95-.88,1.95-1.95v-5.06c0-1.08-.88-1.95-1.95-1.95h-5.06ZM773.87,453.49h-5.06c-.78,0-1.42-.64-1.42-1.42v-5.06c0-.78.64-1.42,1.42-1.42h5.06c.78,0,1.42.64,1.42,1.42v5.06c0,.78-.64,1.42-1.42,1.42ZM769.39,451.49h3.9v-3.9h-3.9v3.9Z"/>
      </g>
      <g>
        <path class="cls-1" d="M743.53,446.59h3.37c1.63,0,2.95-1.32,2.95-2.95v-3.37c0-1.63-1.32-2.95-2.95-2.95h-3.37c-1.63,0-2.95,1.32-2.95,2.95v3.37c0,1.63,1.32,2.95,2.95,2.95ZM743.11,440.27c0-.23.19-.42.42-.42h3.37c.23,0,.42.19.42.42v3.37c0,.23-.19.42-.42.42h-3.37c-.23,0-.42-.19-.42-.42v-3.37Z"/>
        <path class="cls-1" d="M746.9,447.59h-3.37c-2.18,0-3.95-1.77-3.95-3.95v-3.37c0-2.18,1.77-3.95,3.95-3.95h3.37c2.18,0,3.95,1.77,3.95,3.95v3.37c0,2.18-1.77,3.95-3.95,3.95ZM743.53,438.32c-1.08,0-1.95.88-1.95,1.95v3.37c0,1.08.88,1.95,1.95,1.95h3.37c1.08,0,1.95-.88,1.95-1.95v-3.37c0-1.08-.88-1.95-1.95-1.95h-3.37ZM746.9,445.06h-3.37c-.78,0-1.42-.64-1.42-1.42v-3.37c0-.78.64-1.42,1.42-1.42h3.37c.78,0,1.42.64,1.42,1.42v3.37c0,.78-.64,1.42-1.42,1.42ZM744.11,443.06h2.21v-2.21h-2.21v2.21Z"/>
      </g>
      <g>
        <path class="cls-1" d="M780.62,492.95h-3.79v-17.28c0-2.56-2.08-4.64-4.64-4.64h-38.77c-2.56,0-4.64,2.08-4.64,4.64v17.28h-4.05c-.53-.56-1.19-1.01-1.93-1.3-.41-2.14-2.3-3.76-4.55-3.76h-7.16v-10.54c0-.7-.57-1.26-1.26-1.26s-1.26.57-1.26,1.26v11.8c0,.7.57,1.26,1.26,1.26h8.43c1.16,0,2.11.95,2.11,2.11s-.95,2.11-2.11,2.11h-11.8c-1.16,0-2.11-.95-2.11-2.11v-18.54c0-4.88,3.97-8.85,8.85-8.85h10.11c2.61,0,5.07,1.14,6.76,3.13.45.53,1.25.6,1.78.15.53-.45.6-1.25.15-1.78-2.17-2.56-5.33-4.03-8.69-4.03h-10.11c-6.27,0-11.38,5.1-11.38,11.38v18.54c0,2.56,2.08,4.64,4.64,4.64h5.49c.22,2.82,2.58,5.06,5.46,5.06h3.37c3.02,0,5.48-2.46,5.48-5.48,0-.43-.05-.86-.15-1.26h2.68v10.54c0,2.56,2.08,4.64,4.64,4.64h11.57l-.15,4.21h-5.52c-.7,0-1.26.57-1.26,1.26s.57,1.26,1.26,1.26h26.97c.7,0,1.26-.57,1.26-1.26s-.57-1.26-1.26-1.26h-5.52l-.15-4.21h11.57c2.56,0,4.64-2.08,4.64-4.64v-10.54h3.79c.7,0,1.26-.57,1.26-1.26s-.57-1.26-1.26-1.26ZM720.77,499.69h-3.37c-1.48,0-2.71-1.1-2.92-2.53h3.76c1.91,0,3.55-1.16,4.26-2.81.75.54,1.22,1.42,1.22,2.39,0,1.63-1.32,2.95-2.95,2.95ZM774.29,506.01c0,1.16-.95,2.11-2.11,2.11h-11.66l-.44-12.39c-.09-2.51-2.12-4.47-4.63-4.47-.7,0-1.26.57-1.26,1.26s.57,1.26,1.26,1.26c1.14,0,2.07.89,2.11,2.03l.68,19.04h-10.87l.68-19.04c.04-1.14.97-2.03,2.11-2.03.7,0,1.26-.57,1.26-1.26s-.57-1.26-1.26-1.26c-2.51,0-4.54,1.96-4.63,4.47l-.44,12.39h-11.66c-1.16,0-2.11-.95-2.11-2.11v-30.34c0-1.16.95-2.11,2.11-2.11h38.77c1.16,0,2.11.95,2.11,2.11v30.34h0Z"/>
        <path class="cls-1" d="M766.29,518.39h-26.97c-1.25,0-2.26-1.02-2.26-2.26s1.02-2.26,2.26-2.26h4.56l.08-2.21h-10.54c-3.11,0-5.64-2.53-5.64-5.64v-9.54h-.53c0,.09,0,.18,0,.26,0,3.57-2.91,6.48-6.48,6.48h-3.37c-3.05,0-5.67-2.16-6.32-5.06h-4.64c-3.11,0-5.64-2.53-5.64-5.64v-18.54c0-6.83,5.55-12.38,12.38-12.38h10.11c3.65,0,7.09,1.6,9.45,4.38.39.46.58,1.05.53,1.65s-.33,1.15-.79,1.54c-.46.39-1.05.58-1.65.53-.6-.05-1.15-.33-1.54-.79-1.5-1.77-3.68-2.78-5.99-2.78h-10.11c-4.33,0-7.85,3.52-7.85,7.85v18.54c0,.61.5,1.11,1.11,1.11h11.8c.61,0,1.11-.5,1.11-1.11s-.5-1.11-1.11-1.11h-8.43c-1.25,0-2.26-1.02-2.26-2.26v-11.8c0-1.25,1.02-2.26,2.26-2.26s2.26,1.02,2.26,2.26v9.54h6.16c2.52,0,4.71,1.67,5.41,4.04.54.27,1.04.61,1.49,1.01h2.64v-16.28c0-3.11,2.53-5.64,5.64-5.64h38.77c3.11,0,5.64,2.53,5.64,5.64v16.28h2.79c1.25,0,2.26,1.02,2.26,2.26s-1.02,2.26-2.26,2.26h-2.79v9.54c0,3.11-2.53,5.64-5.64,5.64h-10.54l.08,2.21h4.56c1.25,0,2.26,1.02,2.26,2.26s-1.02,2.26-2.26,2.26ZM739.32,515.86c-.15,0-.26.12-.26.26s.12.26.26.26h26.97c.15,0,.26-.12.26-.26s-.12-.26-.26-.26h-6.49l-.22-6.21h12.61c2,0,3.64-1.63,3.64-3.64v-11.54h4.79c.15,0,.26-.12.26-.26s-.12-.26-.26-.26h-4.79v-18.28c0-2-1.63-3.64-3.64-3.64h-38.77c-2,0-3.64,1.63-3.64,3.64v18.28h-5.48l-.29-.31c-.45-.47-.98-.83-1.58-1.06l-.51-.2-.1-.54c-.33-1.71-1.83-2.95-3.57-2.95h-8.16v-11.54c0-.29-.53-.29-.53,0v11.8c0,.15.12.26.26.26h8.43c1.71,0,3.11,1.39,3.11,3.11s-1.39,3.11-3.11,3.11h-11.8c-1.71,0-3.11-1.39-3.11-3.11v-18.54c0-5.43,4.42-9.85,9.85-9.85h10.11c2.9,0,5.64,1.27,7.52,3.49.06.07.13.09.18.09.05,0,.12,0,.19-.06.07-.06.09-.13.09-.18,0-.05,0-.12-.06-.19-1.98-2.34-4.87-3.67-7.92-3.67h-10.11c-5.72,0-10.38,4.66-10.38,10.38v18.54c0,2,1.63,3.64,3.64,3.64h6.42l.07.92c.18,2.32,2.14,4.13,4.47,4.13h3.37c2.47,0,4.48-2.01,4.48-4.48,0-.35-.04-.7-.12-1.04l-.29-1.23h4.94v11.54c0,2,1.63,3.64,3.64,3.64h12.61l-.22,6.21h-6.49ZM759.27,515.86h-12.94l.72-20.08c.06-1.68,1.42-3,3.1-3,.15,0,.26-.12.26-.26s-.12-.26-.26-.26c-1.97,0-3.56,1.54-3.63,3.51l-.48,13.35h-12.63c-1.71,0-3.11-1.39-3.11-3.11v-30.34c0-1.71,1.39-3.11,3.11-3.11h38.77c1.71,0,3.11,1.39,3.11,3.11v30.34c0,1.71-1.39,3.11-3.11,3.11h-12.63l-.48-13.35c-.07-1.97-1.67-3.51-3.63-3.51-.15,0-.26.12-.26.26s.12.26.26.26c1.68,0,3.05,1.32,3.1,3l.72,20.07ZM748.41,513.86h8.79l-.64-18c-.02-.6-.51-1.07-1.11-1.07-1.25,0-2.26-1.02-2.26-2.26s1.02-2.26,2.26-2.26c3.05,0,5.52,2.39,5.63,5.43l.41,11.42h10.7c.61,0,1.11-.5,1.11-1.11v-30.34c0-.61-.5-1.11-1.11-1.11h-38.77c-.61,0-1.11.5-1.11,1.11v30.34c0,.61.5,1.11,1.11,1.11h10.7l.41-11.42c.11-3.05,2.58-5.43,5.63-5.43,1.25,0,2.26,1.02,2.26,2.26s-1.02,2.26-2.26,2.26c-.6,0-1.08.47-1.11,1.07l-.64,18ZM720.77,500.69h-3.37c-1.95,0-3.63-1.46-3.91-3.39l-.16-1.14h4.92c1.45,0,2.77-.87,3.34-2.21l.49-1.15,1.01.73c1.02.74,1.63,1.94,1.63,3.2,0,2.18-1.77,3.95-3.95,3.95ZM716.07,498.16c.35.33.82.53,1.33.53h3.37c1.08,0,1.95-.88,1.95-1.95,0-.22-.04-.44-.11-.65-1.05,1.29-2.65,2.07-4.37,2.07h-2.17Z"/>
      </g>
    </g>
    <path class="cls-2" d="M503.77,575.17c0-18.25,14.79-33.04,33.04-33.04,2.28,0,4.13-1.85,4.13-4.13s-1.85-4.13-4.13-4.13c-22.81,0-41.3,18.49-41.3,41.3s18.49,41.3,41.3,41.3c11.4,0,21.73-4.63,29.2-12.1,1.61-1.61,1.61-4.23,0-5.84s-4.23-1.61-5.84,0c-5.98,5.98-14.24,9.68-23.36,9.68-18.25,0-33.04-14.79-33.04-33.04ZM540.94,550.39c0-2.28-1.85-4.13-4.13-4.13s-4.13,1.85-4.13,4.13v24.78c0,1.1.44,2.15,1.21,2.92l12.39,12.39c1.61,1.61,4.23,1.61,5.84,0,1.61-1.61,1.61-4.23,0-5.84l-11.18-11.18v-23.07ZM577.07,588.26c-.88,2.71-3.79,4.2-6.51,3.31-2.71-.88-4.2-3.79-3.31-6.51.88-2.71,3.79-4.2,6.51-3.31,2.71.88,4.2,3.79,3.31,6.51ZM574.33,574.46c2.82-.45,4.74-3.09,4.29-5.91-.45-2.82-3.09-4.74-5.91-4.29-2.82.45-4.74,3.09-4.29,5.91.45,2.82,3.09,4.74,5.91,4.29ZM571.06,550.29c1.68,2.31,1.16,5.54-1.14,7.21s-5.54,1.16-7.21-1.14c-1.68-2.31-1.16-5.54,1.14-7.21s5.54-1.16,7.21,1.14ZM558.28,544.4c1.29-2.54.28-5.65-2.26-6.94-2.54-1.29-5.65-.28-6.94,2.26-1.29,2.54-.28,5.65,2.26,6.94,2.54,1.29,5.65.28,6.94-2.26Z"/>
    <g id="O17xT3">
      <g>
        <g>
          <path class="cls-1" d="M341.99,506.89c-.1.31-4.02,1.01-4.63,1.09-27.32,3.64-48.6-23.59-38.2-49.24,9.36-23.07,39.1-29.94,57.63-13.02,8.4,7.67,12.76,19.23,11.51,30.6l-.15.25c-.64-.33-1.25-.79-2-.79.09-2.21.2-4.34,0-6.55-1.74-18.87-18.96-32.81-37.84-30.44-24.59,3.09-37.67,30.98-24.06,51.95,7.91,12.2,23.34,18.16,37.43,14.01.11-.03.32.14.32.19,0,.42.09,1.68,0,1.95Z"/>
          <path class="cls-1" d="M332.47,509.8c-11.54,0-22.34-5.25-29.58-14.61-8.27-10.68-10.18-24.52-5.11-37.02,4.59-11.32,14.49-19.7,26.47-22.41,12.15-2.75,24.39.47,33.56,8.85,8.81,8.05,13.3,19.96,11.99,31.87l-.04.32-1.04,1.74-1.25-.64c-.15-.08-.31-.16-.46-.25-.34-.19-.65-.37-.85-.37h-1.57s.08-1.95.08-1.95c.08-2.05.17-3.98-.02-5.96-.81-8.75-5.06-16.63-11.98-22.19-6.9-5.54-15.48-8-24.18-6.9-11.05,1.39-20.47,8.28-25.19,18.43-4.72,10.16-3.9,21.83,2.19,31.22,7.67,11.82,22.37,17.32,35.75,13.39.56-.14,1.12-.01,1.57.34.58.45.67,1,.67,1.29,0,.11,0,.28.01.47.04,1.04.04,1.53-.09,1.93h0c-.19.59-.45,1.4-5.86,2.12-1.71.23-3.41.34-5.09.34Z"/>
        </g>
        <g>
          <path class="cls-1" d="M360.95,491.24v-11.62c0-.35.89-.73,1.23-.71.31.02.98.59.98.84v11.49c.51-.16,1.08-.99,1.16-1.5.44-2.81-.32-6.68,0-9.6.18-1.61,2.06-1.58,2.31-.23-.11,3.03.25,6.32.04,9.33-.16,2.28-1.38,3.81-3.52,4.56v21.28c-.14,1.28-2.07,1.27-2.2,0v-21.28c-2.12-.85-3.32-2.07-3.51-4.43-.24-3.03.16-6.39.04-9.45.24-1.31,2.13-1.43,2.3.36.29,2.9-.42,6.72,0,9.47.09.55.6,1.32,1.16,1.5Z"/>
          <path class="cls-1" d="M362.05,517.53h-.02c-1.35-.01-2.43-.98-2.57-2.3v-.16s0-20.31,0-20.31c-1.58-.81-3.27-2.27-3.51-5.28-.14-1.75-.07-3.58-.01-5.35.05-1.46.1-2.83.04-4.16v-.17s.02-.16.02-.16c.24-1.34,1.37-2.26,2.69-2.22.56.02,1.14.23,1.61.65.57-.42,1.36-.69,1.97-.66.45.03,1.02.29,1.48.68.45-.41,1.03-.66,1.67-.68.03,0,.06,0,.09,0,1.28,0,2.36.92,2.6,2.23l.03.16v.16c-.05,1.31,0,2.66.04,4.09.06,1.75.11,3.55,0,5.29-.18,2.5-1.39,4.36-3.51,5.44v20.39s0,.09,0,.09c-.16,1.32-1.25,2.28-2.6,2.28ZM362.56,489.88h0ZM361.51,489.86h0ZM358.26,480.26h0Z"/>
        </g>
        <g>
          <path class="cls-1" d="M345.22,494.89c-5.31-1.35-5.25-6.57-3.82-10.93,1.85-5.61,6.64-7.31,9.35-1.16,1.69,3.83,2.37,9.55-2.09,11.67-.32.15-1.12.27-1.2.49v19.99c-.37,1.66-2.43,1.36-2.3-.41l.07-19.64ZM348.67,491.68c1.38-1.34,1.21-2.73.97-4.52-.25-1.89-2.27-8.53-4.91-4.92-1.44,1.97-2.78,7.4-1,9.34,1.34,1.47,3.56,1.45,4.94.1Z"/>
          <path class="cls-1" d="M346.28,517.54c-.12,0-.23,0-.35-.02-1.21-.17-2.37-1.27-2.28-3.03l.06-18.5c-1.64-.64-2.87-1.7-3.66-3.14-1.63-2.97-.94-6.72-.07-9.34,1.19-3.62,3.56-5.95,6.19-6.08,1.4-.07,4.05.46,5.96,4.78,2.23,5.06,2.22,11.23-2.82,13.63-.09.04-.21.09-.35.13l-.05,19.3c-.33,1.54-1.52,2.28-2.63,2.28ZM346.28,482.74c-.08.06-.19.18-.35.39-1.3,1.78-2.15,6.3-1.1,7.44.35.38.83.6,1.33.62.54.02,1.06-.19,1.46-.58.79-.77.77-1.42.53-3.24-.22-1.67-1.23-4.12-1.87-4.62Z"/>
        </g>
        <g>
          <path class="cls-1" d="M333.69,475.77c-.11-.07-.74-1.77-1.12-1.9l-2.14,1.14c0-.44-1.09-1.79-.9-2.07.35-.09,1.97-.94,1.93-1.22l-12.61-21.68c-.55-1.54.84-2.24,1.91-1.26l12.74,21.94,13.6-7.82c1.49-.53,2.3,1.15,1,2.03l-13.44,7.73,1.09,2.02c-.01.16-1.76,1.26-2.04,1.09Z"/>
          <path class="cls-1" d="M328.91,477.51l.02-2.29c-.07-.13-.18-.32-.26-.45-.46-.78-1.03-1.76-.37-2.69l.31-.44.52-.14c.06-.02.2-.09.36-.17l-12.06-20.78c-.48-1.33-.13-2.63.9-3.31,1.03-.68,2.42-.5,3.44.45l.16.15,12.1,20.84,12.54-7.19c1.38-.49,2.77,0,3.38,1.2.61,1.2.18,2.67-1.03,3.49l-.1.06-12.18,7.01.6,1.12-.03.44c-.03.4-.08,1.07-2.1,2.09-.45.22-1.38.69-2.23.15h0c-.41-.26-.56-.58-.8-1.12-.01-.02-.02-.05-.03-.07l-3.14,1.67Z"/>
        </g>
        <g>
          <path class="cls-1" d="M332.18,442.34c.49-.14,1.12.07,1.34.56.24.53.25,2.69.08,3.26-.39,1.26-2.08,1.14-2.25-.57-.09-.93-.26-2.94.83-3.25Z"/>
          <path class="cls-1" d="M332.56,448.49c-.08,0-.17,0-.25-.01-1.1-.11-2.28-1-2.46-2.74-.1-1.03-.42-4.18,1.92-4.84h0c1.24-.35,2.6.26,3.11,1.39.43.94.4,3.48.15,4.31-.35,1.15-1.35,1.9-2.47,1.9ZM332.88,445.63h0Z"/>
        </g>
        <g>
          <path class="cls-1" d="M332.35,497.63c1.59-.27,1.44,2.42,1.33,3.42-.18,1.63-2.17,1.74-2.34-.12-.09-1-.25-3.08,1.01-3.29Z"/>
          <path class="cls-1" d="M332.51,503.79h-.03c-1.15-.01-2.46-.87-2.64-2.74-.27-2.96.48-4.62,2.26-4.91h0c.81-.13,1.56.08,2.12.62.87.83,1.19,2.33.95,4.45-.17,1.5-1.29,2.58-2.66,2.58Z"/>
        </g>
        <g>
          <path class="cls-1" d="M303.64,471.14c.94.35,3.24-.42,3.52.85.39,1.78-2.31,1.59-3.42,1.46-1.62-.18-1.61-2.02-.1-2.31Z"/>
          <path class="cls-1" d="M304.97,475.02c-.43,0-.89-.03-1.4-.09-1.45-.17-2.5-1.21-2.55-2.53-.05-1.34.91-2.47,2.34-2.74l.41-.08.37.14c.14.03.54.01.81,0,1.05-.03,3.23-.11,3.68,1.94.19.88,0,1.7-.55,2.31-.64.71-1.64,1.05-3.1,1.05Z"/>
        </g>
        <g>
          <path class="cls-1" d="M361.41,471.17c1.32.1,1.41,1.89.33,2.21-.39.12-2.61.12-3.03.03-1.04-.23-1.16-1.89-.26-2.15.26-.08,2.58-.12,2.96-.09Z"/>
          <path class="cls-1" d="M360.1,474.99c-.73,0-1.43-.04-1.72-.1-1.16-.26-1.99-1.32-2.03-2.57-.04-1.18.64-2.18,1.68-2.48.62-.18,3.31-.16,3.5-.15h0c1.3.09,2.3,1.06,2.44,2.34.14,1.29-.59,2.44-1.79,2.81-.37.11-1.25.16-2.08.16Z"/>
        </g>
      </g>
    </g>
    <g id="YZGbny.tif">
      <g>
        <g>
          <path class="cls-1" d="M240.47,260.44c-3.64.27-7.16-.81-9.08-4.08-1.35-2.3-1.36-5.58-1.2-8.2.1-1.58.68-3.06,2.13-3.84,2.2-1.19,3.13.33,4.83,1.39,2.23,1.4,4.72,2.45,7.33,2.89-1.46-2.57-3.39-5.28-1.07-8.07s5.91-2.12,7.68.92c.96,1.66,1.7,3.49,2.59,5.18.15.11.79-.83.93-.98,1.18-1.28,2.57-2.29,4.06-3.18-2.45-.97-4.15-3.16-4.71-5.71-6.88-.56-9.61-9.24-4.3-13.68-.13-.68-.42-1.26-.55-1.96-.64-3.69,1.4-7.32,4.91-8.63,1.7-.64,3.46-.58,5.23-.29.81-8.89,8.17-15.96,16.8-17.47,11.62-2.04,23.25,5.61,24.47,17.57,1.48-.26,3.03-.33,4.5.05,4.61,1.21,7.1,6.42,5.02,10.76,5.39,4.46,2.7,13.11-4.24,13.78-.42,1.76-1.34,3.35-2.73,4.5-.4.33-.97.55-1.31.82-.08.06-.1.16-.06.2s.72.29.91.41c3.71,2.31,5.34,6.35,7.66,9.85l9.27-1.47c1.16.02,1.35.94,1.42,1.91.32,4.63.17,9.62.29,14.29.06,2.64.36,5.37.29,8.01-.01.53-.44,1.13-.95,1.3l-7.94,1.3c-.08,1.65.21,3.39-.25,4.99-1.23,4.36-7.03,5.33-9.65,1.64-1.28-1.79-.92-3.67-.96-5.74l-13.61-2.18c-1.28-.44-.82-2.63-.85-3.74-.15-4.95-.06-9.91-.1-14.86-.01-1.76-.26-3.7-.11-5.48.06-.7.38-1.16,1.05-1.39,5.41.61,10.81,1.55,16.21,2.32l2.98-.39-2.31-4c-1.46-2.1-3.49-4.7-6.25-4.9l-10.99.02-6.86,18.23c-.48,1.03-1.98,1-2.42-.03l-6.99-18.2-9.82-.02c-2.16-.13-7.09,4.4-7.09,6.31v23.52l5.01-7.56c1.78-2.46,3.57-4.95,5.56-7.25.58-.67,2.1-2.51,2.74-2.93,1.21-.79,2.63.5,1.94,1.74-.27.49-1.54,1.59-1.99,2.11-1.11,1.27-3.5,3.89-4.21,5.28-1.03,2.02.26,4.77,2.49,5.14,1.12.19,2.35-.35,2.72,1.19l.02,11.91c-.1,1.59-2.11,1.88-2.63.39l-.02-10.79c-2.3-.28-4.47-1.89-5.17-4.12-.98,1.24-1.83,2.59-2.68,3.92-1.12,1.74-2.58,3.88-3.5,5.7-.43.86-.45,1.72-.82,2.61-2.15,5.19-9.43,5.86-12.47,1.13-.46-.71-1.17-2.4-1.17-3.23v-18.92ZM278.4,197.1c-8.01.55-15.22,6.58-16.48,14.62-.14.89-.07,2.09-.24,2.88-.04.17-.29.54-.43.64-1.02.77-1.69-.2-2.67-.43-4.06-.97-7.98,2.19-6.72,6.43.33,1.11,1.61,2.17.51,3.21-.58.55-1.27.81-1.85,1.57-2.52,3.28-.13,8.01,3.92,8.2.62.03.91-.27,1.55.2.69.51.49,1.48.68,2.25.6,2.42,3.09,4.02,5.55,3.69,2.02-.27,4.33-2.56,5.11-4.38.12-.29.45-1.14.42-1.4-.02-.17-1.06-1.36-1.27-1.65-1.71-2.46-2.67-5.43-2.82-8.43-.11-2.22-.19-5.66,0-7.83.17-1.95,2.2-1.33,3.58-1.41,5.28-.3,14.3-3.69,17.08-8.45.35-.6.55-1.51,1.19-1.85.77-.4,1.71.06,1.88.89.12.61-.29,1.35-.35,2.01-.33,3.69,2.03,6.63,5.65,7.26,1.18.2,2.69-.22,3.03,1.27-.03,5.49.72,10.65-2.18,15.57-.24.41-1.65,2.19-1.69,2.33-.16.68,1.18,2.83,1.65,3.4,2.06,2.47,5.14,3.97,7.97,1.62,1.58-1.32,1.46-2.24,1.83-4.04.29-1.42,2.26-.92,3.31-1.19,3.41-.88,4.81-5.24,2.64-8.02-.57-.73-1.41-1.07-1.91-1.61-.9-.98.07-1.74.42-2.62,1.83-4.52-2.82-8.5-7.14-6.75-.73.29-.89.79-1.8.39-1.07-.48-.71-1.92-.83-2.89-1.17-9.76-9.95-16.14-19.57-15.48ZM293.09,217.8c-4-.23-7.6-3.11-8.51-7.04-.8.59-1.51,1.27-2.32,1.84-1.85,1.32-4.05,2.41-6.17,3.22-3.1,1.18-6.47,2.01-9.8,2.08.05,4.57-.57,8.83,1.92,12.9,5.31,8.68,18.29,8.35,23.23-.51,2.21-3.97,1.56-8.11,1.65-12.49ZM293.87,241.66c-1.83-1.43-3.29-3.15-4.25-5.28-.17.17-1.42.92-1.42,1.02v4.25h5.67ZM271.08,237.26l-1.12-.68c-.71,1.58-1.7,3-2.98,4.16l-1.17.93h5.28v-4.4ZM285.65,238.63c-3.79,1.5-8.16,1.55-11.93,0v4.06l2.04,5.27.15.07,7.68-.05,2.05-5.28v-4.06ZM252.01,257.8v-8.75l-3.67-6.99c-.4-.38-1.07-.77-1.65-.69-.25.04-1.1.67-1.27.88-.59.74-.52,1.49-.17,2.31.72,1.69,2.07,3.4,2.79,5.13.31.79-.35,1.65-1.15,1.74-.51.06-1.5-.05-2.04-.11-4.06-.47-7.86-2.44-11.14-4.76-.5.19-.78.81-.84,1.31-.27,2.22-.2,5.95,1.22,7.76,2.08,2.65,4.8,2.07,7.73,2.1,3.4.03,6.8.1,10.2.06ZM282.62,250.66h-5.77l2.88,7.63,2.88-7.63ZM303.35,256.04l-13.59-1.96v2.3l13.59,2.98v-3.33ZM318.32,254.08l-12.32,1.96v3.33l12.42-2.74c.04-.1-.1-.21-.1-.24v-2.3ZM303.35,262.01l-13.49-2.84c.03,5.08-.09,10.19.1,15.26l13.4,2.05v-14.47ZM305.99,262.01v14.47l3.81-.59c-.37-2.14-1.57-5.04,1.35-5.84.97-.26,4.46-.95,5.35-.92.66.03,1.45.47,1.85.99.14.18.16.49.35.58-.04-3.82-.15-7.63-.29-11.44l-12.42,2.74ZM252.01,260.44h-8.9v3.72h8.9v-3.72ZM252.01,266.8h-8.9v12.37c0,2.43,2.76,4.19,5.04,3.96,1.66-.17,3.86-2.02,3.86-3.76v-12.57ZM316.75,274.72l-.49-2.93-4.4.78.49,2.83,4.4-.68ZM310,278.53l-5.57.88c.1,1.36-.35,2.72.58,3.86,1.22,1.5,3.7,1.35,4.62-.37.08-.16.37-.88.37-1v-3.37Z"/>
          <path class="cls-1" d="M307.16,287.45c-1.91,0-3.69-.9-4.82-2.49-1.12-1.57-1.09-3.23-1.06-4.83,0-.26,0-.51,0-.78l-13.19-2.11c-1.45-.49-1.36-2.19-1.3-3.44.02-.29.03-.56.02-.78-.1-3.29-.1-6.65-.09-9.89,0-1.66,0-3.33,0-4.99,0-.63-.04-1.29-.08-1.96-.06-1.18-.13-2.4-.03-3.57.08-.92.55-1.53,1.39-1.82l.11-.04h.11c3.56.41,7.18.97,10.67,1.5,1.83.28,3.66.56,5.49.82l2.17-.28-1.93-3.35c-1.52-2.18-3.42-4.47-5.85-4.65l-10.61.02-6.73,17.91c-.32.68-.95,1.08-1.67,1.08,0,0-.02,0-.03,0-.73-.01-1.37-.43-1.65-1.09l-6.87-17.89-9.48-.02c-.9-.03-2.65.97-4.27,2.49-1.59,1.5-2.32,2.77-2.32,3.32v21.86l4.25-6.41c1.71-2.37,3.49-4.82,5.43-7.07l.3-.35c.98-1.15,1.99-2.31,2.55-2.68.75-.49,1.67-.42,2.31.18.62.58.76,1.47.34,2.23-.19.35-.65.81-1.33,1.47-.29.28-.56.54-.72.73l-.53.6c-1.13,1.29-3.03,3.44-3.61,4.57-.43.83-.41,1.88.05,2.8.44.88,1.2,1.48,2.08,1.63.25.04.53.04.79.04.83,0,1.97,0,2.33,1.53v.12s.04,11.91.04,11.91c-.07,1.15-.85,1.75-1.6,1.85-.73.1-1.64-.26-2.01-1.3l-.03-.17-.02-10.36c-2.09-.4-3.91-1.75-4.81-3.54-.66.9-1.27,1.85-1.86,2.78l-.27.42c-.23.36-.48.75-.74,1.14-.95,1.45-2.02,3.1-2.73,4.51-.21.42-.31.85-.42,1.31-.1.41-.2.83-.38,1.27-1.07,2.58-3.49,4.34-6.33,4.59-2.87.26-5.5-1.01-7.02-3.38-.44-.68-1.25-2.48-1.25-3.5v-18.39c-4.08.17-7.26-1.38-9.01-4.35-1.44-2.45-1.43-5.82-1.26-8.48.12-2,.95-3.47,2.39-4.25,2-1.08,3.18-.18,4.33.7.31.24.64.48,1,.71,1.99,1.25,4.03,2.12,6.07,2.6-1.35-2.34-2.71-4.97-.47-7.67,1.16-1.4,2.67-2.1,4.24-1.96,1.7.14,3.25,1.22,4.26,2.96.57.99,1.07,2.04,1.55,3.06.25.53.5,1.06.76,1.58.08-.1.15-.2.2-.26.09-.12.17-.22.21-.26.92-1,2-1.89,3.38-2.78-1.98-1.08-3.46-3-4.06-5.31-3.21-.4-5.8-2.54-6.79-5.68-1.01-3.17-.11-6.45,2.34-8.64-.05-.21-.12-.4-.19-.6-.11-.34-.23-.7-.3-1.1-.68-3.94,1.52-7.8,5.23-9.18,1.43-.54,2.98-.66,4.97-.39,1.03-8.54,8.17-15.81,17.16-17.4,6.06-1.07,12.31.42,17.15,4.09,4.38,3.32,7.15,8.06,7.84,13.4,1.6-.23,2.97-.18,4.19.14,2.37.62,4.32,2.27,5.36,4.52.98,2.11,1.02,4.49.14,6.59,2.43,2.19,3.34,5.44,2.38,8.57-.97,3.16-3.56,5.36-6.82,5.8-.49,1.78-1.46,3.31-2.81,4.43-.24.2-.52.36-.77.5.11.05.2.09.26.13,2.9,1.81,4.58,4.64,6.2,7.38.46.78.94,1.58,1.44,2.35l8.95-1.42c1.84.03,1.95,1.67,2,2.37.21,2.99.22,6.15.23,9.21,0,1.72.01,3.43.05,5.1.02,1.01.08,2.04.14,3.07.09,1.63.19,3.32.15,4.96-.02.75-.58,1.52-1.28,1.76l-7.62,1.25c0,.4,0,.81.01,1.22.03,1.15.06,2.33-.27,3.47-.62,2.19-2.41,3.8-4.68,4.19-.35.06-.7.09-1.05.09ZM288.23,251.78c-.4.17-.57.43-.62.92-.1,1.09-.03,2.28.03,3.42.04.68.07,1.36.08,2.01.01,1.67,0,3.33,0,5,0,3.23,0,6.58.09,9.86,0,.25,0,.54-.02.86-.06,1.2-.07,2.21.54,2.42l13.94,2.23v.42c.02.42.01.83,0,1.23-.03,1.57-.05,2.93.87,4.23,1.11,1.56,2.98,2.32,4.88,2,1.88-.33,3.37-1.66,3.88-3.48.28-1,.26-2.05.23-3.17-.01-.57-.03-1.14,0-1.7l.02-.4,8.34-1.36c.22-.08.52-.49.53-.82.04-1.59-.05-3.26-.15-4.87-.06-1.04-.12-2.08-.14-3.11-.04-1.68-.05-3.39-.05-5.12-.01-3.04-.02-6.19-.23-9.14-.08-1.22-.37-1.44-.93-1.45l-9.5,1.51-.18-.27c-.58-.87-1.12-1.78-1.64-2.66-1.63-2.76-3.18-5.36-5.87-7.04-.1-.06-.34-.15-.53-.23-.32-.14-.39-.16-.48-.25l-.15-.16v-.29c.01-.19.11-.37.27-.5.18-.14.41-.27.65-.4.23-.13.47-.26.65-.41,1.27-1.06,2.16-2.52,2.57-4.23l.08-.35.36-.04c3.02-.29,5.44-2.26,6.32-5.14.88-2.86-.02-5.83-2.35-7.76l-.3-.25.17-.35c.92-1.91.92-4.13.02-6.09-.92-1.98-2.63-3.43-4.71-3.97-1.2-.32-2.61-.33-4.29-.04l-.53.09-.05-.53c-.54-5.28-3.2-9.97-7.51-13.23-4.62-3.5-10.59-4.92-16.38-3.9-8.74,1.54-15.63,8.7-16.39,17.03l-.05.53-.53-.09c-2.06-.33-3.59-.25-4.98.27-3.26,1.22-5.19,4.61-4.59,8.07.06.33.16.63.26.95.1.32.21.64.28,1l.05.29-.23.19c-2.3,1.92-3.17,4.9-2.26,7.77.91,2.86,3.31,4.78,6.28,5.02l.37.03.08.36c.54,2.47,2.19,4.47,4.4,5.35l.94.37-.87.52c-1.67,1-2.93,1.98-3.95,3.09-.03.03-.08.1-.14.19-.48.63-.93,1.23-1.45.86l-.09-.07-.05-.1c-.37-.71-.72-1.44-1.07-2.18-.47-1-.96-2.04-1.51-2.99-.84-1.45-2.11-2.35-3.47-2.46-1.23-.1-2.44.47-3.39,1.61-1.9,2.29-.61,4.51.76,6.87l.89,1.55-1.04-.18c-2.53-.43-5.05-1.43-7.51-2.96-.39-.24-.74-.51-1.07-.76-1.14-.87-1.82-1.39-3.25-.61-1.13.61-1.76,1.77-1.86,3.43-.15,2.32-.19,5.67,1.13,7.92,2.18,3.72,6.33,4,8.61,3.83l.54-.04v19.46c0,.7.66,2.29,1.09,2.96,1.32,2.06,3.6,3.15,6.09,2.93,2.5-.22,4.56-1.71,5.49-3.98.15-.37.24-.73.33-1.12.12-.49.24-1,.5-1.52.73-1.47,1.82-3.14,2.79-4.61.25-.39.5-.77.74-1.13l.27-.41c.76-1.19,1.55-2.42,2.44-3.54l.58-.74.28.9c.62,1.95,2.57,3.5,4.76,3.77l.44.05.02,11.14c.2.48.58.61.9.57.33-.05.7-.3.74-.89l-.02-11.81c-.17-.67-.49-.7-1.34-.7-.31,0-.63,0-.96-.06-1.19-.2-2.22-.99-2.81-2.17-.6-1.2-.62-2.58-.05-3.7.64-1.25,2.51-3.37,3.75-4.78l.53-.6c.17-.2.47-.49.78-.79.43-.42,1.02-.99,1.16-1.24.24-.42.08-.8-.14-1.01-.24-.22-.65-.36-1.08-.07-.49.32-1.73,1.78-2.33,2.49l-.3.35c-1.92,2.22-3.68,4.65-5.38,7.01l-.15.21-5.91,8.93v-25.18c0-1.45,2.01-3.46,2.63-4.04,1.48-1.39,3.59-2.87,4.99-2.76l10.13.02,7.11,18.52c.12.28.4.46.74.47.33,0,.62-.17.76-.47l6.96-18.52,11.34-.02c2.89.22,4.98,2.71,6.66,5.12l2.7,4.68-3.79.5h-.07c-1.86-.27-3.71-.56-5.57-.84-3.45-.53-7.01-1.08-10.51-1.47ZM307.22,284.81c-1.01,0-1.96-.44-2.59-1.21-.79-.97-.75-2.02-.7-3.04.02-.36.03-.73,0-1.1l-.03-.46,6.6-1.04v3.96c0,.3-.4,1.18-.43,1.23-.5.94-1.42,1.54-2.52,1.65-.11.01-.23.02-.34.02ZM304.94,279.84c0,.26,0,.51-.02.75-.04.91-.07,1.7.48,2.37.49.6,1.26.91,2.06.83.76-.07,1.39-.48,1.73-1.13.07-.13.29-.7.32-.82v-2.73s-4.56.72-4.56.72ZM247.74,283.65c-1.3,0-2.67-.53-3.68-1.44-.93-.84-1.45-1.92-1.45-3.04v-12.87h9.9v13.07c0,2.02-2.41,4.07-4.31,4.26-.15.02-.31.02-.46.02ZM243.61,267.3v11.87c0,.83.4,1.65,1.12,2.29.91.82,2.23,1.28,3.37,1.17,1.43-.14,3.41-1.82,3.41-3.27v-12.07h-7.9ZM305.49,277.06v-15.46l13.4-2.95.02.6c.12,3.39.25,7.41.29,11.46v.8s-.72-.35-.72-.35c-.29-.14-.4-.41-.47-.59-.02-.05-.05-.12-.06-.14-.32-.42-.98-.77-1.47-.79-.8-.05-4.17.62-5.2.9-1.88.52-1.71,1.94-1.2,4.23.08.36.16.7.21,1.03l.09.5-4.89.75ZM306.49,262.41v13.49l2.72-.42c-.03-.16-.07-.32-.11-.49-.43-1.95-1.02-4.61,1.91-5.42.9-.25,4.5-.96,5.5-.93.55.02,1.17.27,1.66.64-.05-3.31-.15-6.55-.25-9.39l-11.44,2.52ZM303.85,277.06l-14.38-2.2-.02-.41c-.12-3.36-.11-6.79-.1-10.1,0-1.72.01-3.45,0-5.17v-.62s14.49,3.05,14.49,3.05v15.46ZM290.44,273.99l12.41,1.9v-13.49l-12.49-2.62c0,1.52,0,3.04,0,4.56-.01,3.17-.02,6.44.08,9.65ZM311.95,275.97l-.66-3.81,5.39-.96.66,3.93-5.38.83ZM312.44,272.97l.32,1.86,3.41-.53-.32-1.94-3.41.61ZM252.51,264.66h-9.9v-4.72h9.9v4.72ZM243.61,263.66h7.9v-2.72h-7.9v2.72ZM305.49,259.99v-4.37l13.32-2.12v2.74c.08.13.15.33.07.56l-.1.25-13.29,2.93ZM306.49,256.47v2.28l11.32-2.5v-1.58l-11.32,1.8ZM303.85,259.99l-14.59-3.2v-3.28l14.59,2.1v4.38ZM290.26,255.98l12.59,2.76v-2.27l-12.59-1.81v1.32ZM279.74,259.7l-3.61-9.54h7.22l-3.61,9.54ZM277.57,251.16l2.16,5.72,2.16-5.72h-4.32ZM249.8,258.31c-1.88,0-3.76-.02-5.6-.05l-2.4-.03c-.46,0-.93,0-1.38.02-2.38.06-4.84.12-6.74-2.31-1.47-1.87-1.63-5.55-1.32-8.12.07-.62.42-1.44,1.16-1.72l.25-.09.22.15c3.88,2.75,7.45,4.28,10.91,4.67.48.06,1.47.17,1.93.11.27-.03.53-.21.68-.46.08-.14.17-.36.07-.61-.35-.84-.88-1.72-1.39-2.57-.5-.83-1.02-1.69-1.39-2.55-.3-.71-.6-1.76.24-2.82.18-.22,1.14-1,1.59-1.07.76-.1,1.57.35,2.06.82l.1.13,3.73,7.1v9.37h-.49c-.74.01-1.48.02-2.21.02ZM241.58,257.24c.08,0,.16,0,.23,0l2.41.03c2.39.03,4.86.06,7.29.04v-8.13l-3.58-6.8c-.34-.3-.83-.56-1.18-.5-.16.06-.83.55-.95.7-.4.5-.43,1.02-.1,1.8.34.79.82,1.59,1.33,2.43.53.88,1.08,1.79,1.46,2.71.19.49.14,1.03-.14,1.5-.31.52-.84.87-1.42.94-.58.07-1.61-.05-2.16-.11-3.55-.41-7.18-1.93-11.1-4.66-.18.18-.29.5-.33.77-.3,2.49-.08,5.87,1.12,7.39,1.59,2.03,3.6,1.98,5.94,1.92.39,0,.78-.02,1.18-.02ZM275.81,248.53l-.44-.19-2.15-5.64v-4.8l.69.28c3.6,1.48,7.81,1.48,11.56,0l.68-.27-.03,4.97-2.18,5.6-8.13.06ZM274.22,242.6l1.91,4.93,7.12-.05,1.9-4.88v-3.25c-3.57,1.23-7.47,1.24-10.93,0v3.24ZM295.31,242.16h-7.62v-4.75c0-.33.18-.44,1.03-1.01.24-.16.47-.31.54-.38l.51-.45.29.6c.88,1.95,2.22,3.61,4.11,5.09l1.14.89ZM288.7,241.16h3.81c-1.31-1.21-2.33-2.54-3.09-4.03-.04.03-.09.06-.14.09-.17.11-.43.29-.59.4v3.54ZM271.58,242.16h-7.22l2.31-1.82c1.18-1.07,2.14-2.41,2.84-3.97l.23-.52,1.85,1.13v5.18ZM267.24,241.16h3.34v-3.62l-.41-.25c-.73,1.47-1.69,2.75-2.86,3.81l-.07.06ZM298.44,241c-2.04,0-3.96-1.33-5.34-2.98-.21-.25-2-2.78-1.75-3.83.04-.15.09-.24.87-1.26.34-.46.77-1.02.88-1.2,2.32-3.92,2.23-8.04,2.15-12.4-.02-.94-.04-1.89-.03-2.85-.17-.64-.59-.72-1.64-.76-.33-.01-.66-.03-.97-.08-3.92-.68-6.41-3.88-6.06-7.79.03-.31.12-.61.2-.91.1-.35.21-.71.16-.96-.05-.25-.21-.45-.45-.56-.23-.11-.49-.11-.72.01-.29.15-.49.59-.67,1.01-.1.23-.2.45-.31.64-2.88,4.94-12.12,8.39-17.48,8.69-.31.02-.65,0-.99-.01-1.44-.07-2.03,0-2.11.97-.18,2.07-.12,5.37,0,7.76.15,2.95,1.12,5.85,2.73,8.17.07.1.24.3.43.54.78.95.9,1.13.93,1.35.05.46-.4,1.53-.46,1.65-.84,1.97-3.31,4.38-5.5,4.68-2.76.37-5.44-1.41-6.1-4.06-.06-.26-.09-.54-.12-.82-.05-.58-.1-.95-.38-1.15-.27-.2-.38-.19-.67-.15-.18.03-.37.05-.6.04-2.12-.1-3.99-1.37-4.9-3.32-.89-1.91-.66-4.03.61-5.68.4-.52.85-.84,1.24-1.11.24-.17.46-.32.66-.51.45-.43.32-.77-.16-1.64-.19-.34-.38-.69-.49-1.07-.59-1.99-.15-3.95,1.2-5.38,1.5-1.58,3.85-2.22,6.12-1.68.37.09.69.26.98.41.59.31.85.43,1.28.11.06-.06.22-.28.25-.37.08-.37.1-.91.13-1.43.02-.48.04-.97.11-1.41,1.25-8,8.53-14.47,16.94-15.04h0c10.28-.7,18.92,6.14,20.1,15.92.03.26.03.55.03.85,0,.88.03,1.43.5,1.64.4.18.48.13.81-.08.17-.11.36-.22.6-.32,2.29-.92,4.88-.41,6.6,1.31,1.63,1.63,2.08,3.91,1.19,6.09-.1.25-.24.49-.38.72-.42.69-.52.95-.13,1.37.18.19.43.37.7.56.4.28.86.6,1.23,1.08,1.14,1.46,1.45,3.43.83,5.26-.6,1.78-2,3.11-3.74,3.56-.35.09-.75.11-1.17.12-1.16.04-1.66.15-1.77.69-.06.3-.11.58-.15.83-.23,1.32-.39,2.28-1.85,3.49-1.1.92-2.23,1.3-3.33,1.3ZM292.31,234.46c0,.49,1.01,2.27,1.55,2.92.88,1.05,4,4.27,7.27,1.55,1.17-.97,1.29-1.65,1.5-2.89.05-.27.09-.55.16-.87.28-1.39,1.69-1.45,2.71-1.49.37-.01.71-.03.96-.09,1.41-.36,2.54-1.45,3.04-2.91.51-1.51.26-3.12-.67-4.32-.28-.36-.66-.62-1.02-.88-.3-.21-.61-.43-.86-.7-.92-1-.36-1.94.01-2.56.11-.19.23-.38.31-.58.73-1.8.37-3.67-.97-5.01-1.44-1.44-3.6-1.86-5.52-1.09-.18.07-.32.16-.44.24-.4.25-.86.54-1.75.14-1.1-.49-1.1-1.68-1.09-2.55,0-.26,0-.51-.02-.73-1.11-9.24-9.28-15.69-19.04-15.04h0c-7.95.54-14.84,6.65-16.02,14.2-.06.38-.08.85-.1,1.3-.02.56-.05,1.15-.15,1.62-.07.3-.4.76-.62.93-.95.72-1.76.29-2.35-.02-.25-.13-.49-.26-.74-.32-1.93-.46-3.9.07-5.16,1.4-1.12,1.18-1.46,2.74-.97,4.41.08.27.24.56.41.86.43.78,1.02,1.85-.03,2.85-.25.24-.52.43-.78.61-.37.26-.72.5-1.02.9-1.04,1.35-1.22,3.09-.49,4.65.75,1.61,2.3,2.66,4.04,2.74.15,0,.29-.01.41-.03.36-.05.81-.12,1.41.33.66.49.73,1.25.78,1.87.02.23.04.45.09.66.53,2.13,2.77,3.61,5,3.32,1.8-.25,3.98-2.36,4.71-4.08.14-.34.33-.87.37-1.1-.13-.2-.49-.63-.69-.88-.21-.26-.4-.49-.48-.6-1.74-2.5-2.75-5.51-2.91-8.69-.12-2.43-.19-5.78,0-7.9.18-2.02,1.97-1.93,3.16-1.88.31.01.61.03.89.01,5.01-.28,14-3.62,16.67-8.2.09-.16.18-.35.26-.54.24-.55.52-1.18,1.13-1.5.5-.26,1.09-.27,1.61-.03.52.25.88.71,1,1.26.1.49-.04.97-.17,1.44-.07.26-.15.5-.16.72-.3,3.37,1.85,6.14,5.24,6.72.27.05.55.06.84.07.95.04,2.25.09,2.59,1.59v.06s.01.06.01.06c0,.97.01,1.93.03,2.89.09,4.51.17,8.77-2.29,12.93-.13.21-.45.65-.94,1.3-.25.33-.58.77-.69.94ZM279.62,237.63c-4.91,0-9.32-2.44-11.85-6.57-2.12-3.46-2.06-6.99-2-10.72.01-.8.02-1.61.02-2.44v-.5s.49,0,.49,0c2.99-.06,6.23-.75,9.64-2.04,2.28-.87,4.37-1.96,6.06-3.16.42-.3.81-.62,1.2-.95.36-.3.73-.6,1.11-.88l.61-.45.17.74c.85,3.64,4.23,6.43,8.05,6.65l.48.03v.48c-.03.89-.01,1.77,0,2.64.05,3.5.11,6.81-1.72,10.08-2.42,4.34-6.89,6.99-11.96,7.09-.1,0-.2,0-.3,0ZM266.79,218.39c0,.66,0,1.32-.02,1.97-.06,3.58-.11,6.97,1.86,10.18,2.39,3.9,6.58,6.13,11.27,6.08,4.71-.09,8.86-2.55,11.1-6.58,1.7-3.04,1.65-6.22,1.59-9.58-.01-.73-.02-1.46-.02-2.2-3.8-.41-7.13-3.1-8.29-6.65-.16.13-.32.27-.48.4-.41.34-.82.68-1.26,1-1.75,1.25-3.92,2.38-6.28,3.28-3.32,1.27-6.51,1.98-9.48,2.1Z"/>
        </g>
        <g>
          <path class="cls-1" d="M272.43,218.22c6.08-.82,5.9,8.47.02,7.56-4.21-.65-4.07-7.01-.02-7.56ZM272.72,220.85c-1.07.24-1.07,2.29.37,2.34,1.81.05,1.64-2.8-.37-2.34Z"/>
          <path class="cls-1" d="M273.22,226.34c-.27,0-.56-.02-.85-.07-2.46-.38-3.55-2.44-3.53-4.32.02-1.81,1.13-3.91,3.52-4.23h0c1.9-.26,3.49.4,4.38,1.8.93,1.48.91,3.55-.06,5.02-.76,1.16-2,1.79-3.46,1.79ZM272.49,218.71h0c-1.82.25-2.64,1.81-2.66,3.25-.01,1.44.81,3.03,2.68,3.32,1.45.22,2.63-.23,3.32-1.28.75-1.14.77-2.8.05-3.94-.68-1.07-1.88-1.55-3.4-1.35ZM273.14,223.69s-.04,0-.06,0c-1.01-.03-1.53-.79-1.61-1.53-.08-.87.39-1.63,1.14-1.8h0c.77-.18,1.46.03,1.87.56.41.52.48,1.28.18,1.88-.29.57-.84.89-1.52.89ZM273.14,221.31c-.11,0-.21.02-.31.04h0c-.27.06-.4.42-.37.73.02.18.12.61.64.62.31.03.54-.11.66-.34.13-.25.1-.59-.07-.81-.14-.18-.35-.24-.55-.24Z"/>
        </g>
        <g>
          <path class="cls-1" d="M285.63,218.22c3.38-.49,5.86,2.98,3.94,5.89-2.2,3.33-7.34,1.49-7.04-2.45.12-1.6,1.49-3.21,3.1-3.45ZM285.49,222.85c.97,1.02,2.78-.29,1.83-1.58s-3.02.33-1.83,1.58Z"/>
          <path class="cls-1" d="M286.44,226.35c-.48,0-.97-.08-1.46-.25-1.6-.55-3.13-2.14-2.95-4.47.14-1.89,1.73-3.65,3.53-3.91h0c1.84-.26,3.57.51,4.53,2.02.91,1.44.87,3.17-.1,4.65-.84,1.26-2.14,1.96-3.54,1.96ZM286.27,218.67c-.19,0-.37.01-.56.04h0c-1.34.19-2.57,1.56-2.68,2.99-.14,1.92,1.14,3.06,2.28,3.45,1.12.38,2.8.27,3.84-1.31.75-1.14.79-2.47.09-3.56-.64-1.02-1.75-1.6-2.98-1.6ZM286.31,223.71c-.41,0-.84-.15-1.18-.51h0c-.46-.49-.62-1.1-.42-1.68.21-.62.79-1.11,1.45-1.21.6-.09,1.17.15,1.56.67.66.89.34,1.83-.24,2.31-.31.26-.73.43-1.16.43ZM285.85,222.51c.3.32.72.23.98.01.15-.12.45-.46.08-.95-.16-.22-.36-.31-.6-.27-.29.04-.56.27-.66.54-.08.23-.01.45.19.67h0Z"/>
        </g>
        <g>
          <path class="cls-1" d="M283.09,227.7c1.76-.3,1.7,1.55,1.34,2.71-1.61,5.16-9.37,4.51-10.17-.58-.15-.92.07-1.99,1.19-2.02,1.4-.04,1.2,1.26,1.58,2.09.9,1.98,3.95,1.96,4.79-.04.31-.74.17-1.97,1.27-2.16Z"/>
          <path class="cls-1" d="M279.47,234.48c-.16,0-.33,0-.5-.02-2.26-.17-4.75-1.64-5.21-4.55-.08-.48-.13-1.39.4-2.02.3-.36.74-.56,1.27-.58,1.44-.05,1.69,1.04,1.86,1.75.06.23.11.46.19.63.41.89,1.29,1.16,1.98,1.18.67-.01,1.53-.33,1.89-1.21.07-.18.12-.39.16-.6.14-.66.35-1.66,1.48-1.86h0c.9-.15,1.41.17,1.67.47.61.7.52,1.95.23,2.88-.76,2.42-2.86,3.92-5.43,3.92ZM275.52,228.31s-.04,0-.05,0c-.24,0-.41.08-.53.22-.2.24-.27.7-.18,1.23.4,2.53,2.56,3.58,4.3,3.71,1.76.13,4.1-.63,4.9-3.2.25-.81.24-1.62-.03-1.92-.05-.06-.21-.24-.75-.15-.42.07-.52.37-.68,1.08-.06.26-.11.53-.22.78-.46,1.1-1.53,1.8-2.8,1.82h-.06c-1.26,0-2.35-.67-2.85-1.77-.12-.26-.19-.54-.25-.81-.17-.73-.26-.98-.81-.98Z"/>
        </g>
      </g>
    </g>
  </g>
  <path class="cls-3" d="M686.56,247.31l4.64,18.8-47.09,11.61c-7.62-26.95-25.62-49.53-49.4-63.17l21.59-44.37,17.41,8.47-12.18-35.23-35.23,12.16,17.41,8.47-21.58,44.36c-12.38-5.06-25.92-7.86-40.12-7.86s-27.91,2.83-40.35,7.95l-21.14-43.45,17.41-8.47-35.24-12.16-12.17,35.23,17.41-8.47,21.16,43.49c-23.27,13.42-40.97,35.42-48.79,61.67l-46.11-9.84,4.04-18.94-31.28,20.29,20.27,31.28,4.04-18.94,45.94,9.8c-.86,5.43-1.31,10.99-1.31,16.66,0,22.23,6.84,42.86,18.53,59.91l-36.48,31.49-12.65-14.66-2.72,37.18,37.17,2.73-12.65-14.66,36-31.08c17.75,19.74,42.81,32.79,70.91,34.88v50.55h-19.36l26.37,26.35,26.36-26.35h-19.36v-50.42c28.73-1.6,54.4-14.63,72.56-34.61l38.16,31.58-12.35,14.92,37.11-3.51-3.5-37.11-12.34,14.92-38.38-31.76c11.87-17.14,18.84-37.93,18.84-60.36,0-5.17-.38-10.26-1.09-15.23l47.54-11.72,4.64,18.8,19.27-31.91-31.9-19.28Z"/>
  <g id="_3PLJco.tif" data-name="3PLJco.tif">
    <g>
      <path d="M560.18,365.8c-.91-.14-5.06-3.07-5.41-3.04-.17.01-.8.81-1.14,1.02-3.35,2.08-6.71.64-8.56-2.56-2.54,1.15-5.69-.18-7.01-2.54-.22-.4-.34-1.42-.61-1.6-.35-.23-1.47-.05-2.05-.15-1.94-.33-3.99-2.35-4.16-4.34-4.4.16-7.79-3.46-6.13-7.83.51-1.34,1.65-2.15,1.96-3.45-1.93.38-3.04,1.16-5.13.83-1.19-.19-5.13-2.36-6.11-3.16-1.48-1.22-1.74-3.33-.8-4.96,5.11-7.13,8.88-16.81,14.07-23.69,2.56-3.4,6.18-.99,8.86,1,2.34,1.73,3,3.63,2.84,6.55,4.15,3,7.82-1.31,12-1.31,2.24,0,4.5,1.88,5.52,1.92,1.74.06,5.66-1.9,7.93-1.87,2.74.04,5.62,2.38,8.19,2.42,2.29.03,1.15-1.01,1.2-2.56.05-1.65,1-3.54,2.22-4.64.63-.57,4.37-2.91,5.07-3.1,1.2-.32,2.84-.22,3.77.66,4.67,8.01,10.28,16.08,14.6,24.26.33.63.54,1.28.85,1.91v.88c-.33.51-.36,1.06-.7,1.62-.92,1.5-5.76,4.03-7.57,4.13-.98.06-2.62-.5-3.05-.41-.49.11-1.29,1.02-1.93,1.06,3.53,4.73-.83,10.64-6.4,9.05-.38,3.22-3.71,5.61-6.84,4.64-.37,4.06-4.58,6.39-8.26,4.66-.35.09-.6,1.39-.83,1.82-.81,1.48-2.03,2.1-3.49,2.8h-2.87ZM532.25,311.94l-14.15,23.82c-.16.29-.04.35.13.55.22.25,3.23,1.98,3.63,2.12,1.53.51,2.82.19,3.75-1.13l11.51-19.41c.97-3.62-2.53-4.38-4.87-5.95ZM556.65,324.62c-.41,2.45.3,5.94,0,8.5,1.46.07,3.18-.99,3.71-2.37.6-1.57-.2-3.95,2.53-3.55l22.09,13.02,1.09.37,1.91-1.37-5.72-9.76c.22-2.15,2.01-2.69,3.41-.96,1.95,2.41,3.36,6.61,5.33,9.02,2.26,2.77,5.37-.19,7.6-1.44l-14.46-24.14c-2.16,1.7-6.03,2.4-4.7,6,.55,1.5,3.99,5.06,1.44,6.17-2.25.98-2.66-2.07-3.39-2.22-.4-.08-2.53.63-3.47.6-2.61-.1-5.83-2.42-7.96-2.39-.93.02-6.52,1.47-7.35,1.92-.76.41-1.91,1.74-2.05,2.58ZM554.89,320.53c-3.14-1.38-5.7.98-8.6,1.66-1.44.34-2.78.35-4.21,0-.69-.17-2.46-1.16-2.87-.9l-10.15,17.35c.81.44,1.26-.21,1.98-.34,1.68-.31,2.97-.29,4.5.6.57.33,1.74,1.74,2.03,1.74s.92-.66,1.35-.87c2.62-1.23,5.92-.22,7.37,2.29.27.47.59,1.81.66,1.88.03.03.54-.24.95-.21,3.93.27,6.33,3.97,5.22,7.72,4.07.65,5.61,5.11,3.77,8.59,1.72.71,5.45,4.04,6.66,1.07,1.38-3.38-4.63-3.69-4.9-5.82-.19-1.49,1.04-2.42,2.43-1.98l8.55,4.94c2.27.22,3.39-2.32,1.68-3.9l-8.81-5.32c-1.27-1.53.24-3.53,2.05-2.71l11.53,6.79c2.28.66,3.79-1.64,2.42-3.52l-12.01-7.2c-.59-.83-.64-1.99.21-2.65,1.06-.81,1.79-.16,2.77.33,4.74,2.37,9.37,5.93,14.11,8.41,2.61.79,4.15-1.92,2.21-3.75l-21.77-12.9c-.35-.06-1.52,2.23-2.05,2.75-2.38,2.33-8.16,3.38-8.83-.91-.27-1.75-.19-6.96-.02-8.83.15-1.59.98-2.97,1.78-4.29ZM532.32,341.55c-1.08.13-3.75,3.61-4.04,4.59-.59,1.95,1.64,3.73,3.44,2.34.53-.41,2.75-3.5,2.94-4.14.43-1.47-.82-2.98-2.34-2.79ZM540.69,342.88c-.52.12-.92.57-1.26.95-.68.77-4.41,5.86-4.69,6.57-.92,2.27,1.54,3.99,3.48,2.6,1.18-2.27,4.08-4.87,5.05-7.09.83-1.9-.52-3.5-2.58-3.02ZM547.32,347.29c-.37.07-.99.45-1.27.73-.55.55-4.58,6.23-4.83,6.87-1,2.46,1.49,4.26,3.41,2.53.49-.44,4.81-6.4,5.01-6.92.65-1.72-.46-3.56-2.31-3.21ZM550.54,355.27c-.51.43-2.29,3.13-2.29,3.79,0,1.84,2.3,2.82,3.66,1.66.46-.39,2.27-3.11,2.31-3.66.12-1.93-2.22-3.03-3.68-1.79Z"/>
      <path d="M579.17,275.04h-11.37c-3.05,0-7.4-4.34-7.4-7.4v-11.26s-.31-.33-.33-.33h-50.11c-2.4,0-4.91,2.56-4.97,4.97l.06,88.71c.35,2.03,1.7,3.65,3.68,4.27,5.87.66,12.69-.55,18.45.1,2.76.31,2.37,3.29.45,3.54-5.93-.41-12.49.5-18.34,0-4.37-.38-7.67-4.18-7.84-8.5v-87.9c.33-4.43,3.08-7.94,7.62-8.5h51.9c1.39.11,2.7.9,3.75,1.77,5.61,4.61,10.64,11.42,16.23,16.23l1.48,2.5c.66,10.22.09,20.59.29,30.86-.25,1.87-3.09,1.87-3.33,0-.52-9.04.73-18.91.02-27.85-.03-.43-.13-.8-.23-1.2ZM576.74,271.51l-12.8-12.81v8.94c0,1.19,2.69,3.86,3.86,3.86h8.94Z"/>
      <path d="M513.89,296.39c-1.04-.88-.51-2.92.92-3.04h54.55c2.7.49,1.82,3.62-.66,3.55h-53c-.5-.04-1.43-.2-1.8-.52Z"/>
      <path d="M513.89,283.5c.37-.32,1.3-.47,1.8-.52h53c2.48-.07,3.36,3.06.66,3.55h-54.55c-1.37-.11-1.93-2.17-.92-3.03Z"/>
      <path d="M514.87,271.56l27.33-.06c2.23.22,2.24,3.32,0,3.54h-27.16c-2.12-.19-2.29-3.13-.16-3.49Z"/>
    </g>
  </g>
</svg>