<?xml version="1.0" encoding="UTF-8"?>
<svg id="Layer_1" data-name="Layer 1" xmlns="http://www.w3.org/2000/svg" viewBox="0 0 100 100">
  <defs>
    <style>
      .cls-1 {
        fill: #edebda;
      }

      .cls-2 {
        fill: #e2e2e2;
      }

      .cls-3 {
        fill: #8e3838;
      }

      .cls-4 {
        fill: #cec8ae;
      }

      .cls-5 {
        fill: #1997b1;
      }
    </style>
  </defs>
  <g>
    <path class="cls-2" d="M13.66,8.7v82.59c0-3.65,2.96-6.61,6.61-6.61h66.07V2.1H20.27c-3.65,0-6.61,2.96-6.61,6.61"/>
    <g>
      <path class="cls-5" d="M20.27,84.69h3.3V2.1h-3.3c-3.65,0-6.61,2.96-6.61,6.61v82.59c0-3.65,2.96-6.61,6.61-6.61"/>
      <polygon class="cls-5" points="48.35 18.61 41.74 13.66 35.13 18.61 35.13 2.1 48.35 2.1 48.35 18.61"/>
    </g>
    <path class="cls-1" d="M20.27,84.69c-3.65,0-6.61,2.96-6.61,6.61s2.96,6.61,6.61,6.61h66.07v-13.21H20.27Z"/>
    <path class="cls-4" d="M78.08,92.95H21.92c-.91,0-1.65-.74-1.65-1.65s.74-1.65,1.65-1.65h56.16c.91,0,1.65.74,1.65,1.65s-.74,1.65-1.65,1.65"/>
  </g>
  <path class="cls-3" d="M37.96,58.51l2.71-2.89c.66.25,1.59.48,2.77.67.96-.59,1.62-1.33,1.97-2.24.35-.9.68-2.68.98-5.33l1.61-14.57c-5.89.69-8.83,2.82-8.83,6.4,0,1.07.29,2.18.86,3.35l-3.16,2.97c-.29-.64-.43-1.58-.43-2.83,0-3.91,1.52-6.89,4.56-8.96,3.04-2.06,7.42-3.1,13.15-3.1,9.45,0,14.18,3.29,14.18,9.86,0,3.93-1.33,7.56-3.98,10.88-3.53,4.39-8.91,6.58-16.13,6.58-3.03,0-6.45-.27-10.25-.8ZM51.2,33.7l-1.63,14.68-.2,1.84c-.2,1.71-.56,2.95-1.09,3.73-.53.78-1.58,1.63-3.14,2.54,2.85.4,5.51.59,7.99.59,2.31,0,4.09-.32,5.35-.97,1.26-.64,2.49-1.87,3.68-3.67,1.68-2.5,2.52-5.31,2.52-8.42,0-6.88-4.28-10.32-12.84-10.32h-.65Z"/>
</svg>