<?xml version="1.0" encoding="UTF-8"?>
<svg id="Layer_1" data-name="Layer 1" xmlns="http://www.w3.org/2000/svg" viewBox="0 0 100 100">
  <defs>
    <style>
      .cls-1 {
        fill: #edebda;
      }

      .cls-2 {
        fill: #e2e2e2;
      }

      .cls-3 {
        fill: #8e3838;
      }

      .cls-4 {
        fill: #cec8ae;
      }

      .cls-5 {
        fill: #1997b1;
      }
    </style>
  </defs>
  <g>
    <path class="cls-2" d="M13.66,8.7v82.59c0-3.65,2.96-6.61,6.61-6.61h66.07V2.1H20.27c-3.65,0-6.61,2.96-6.61,6.61"/>
    <g>
      <path class="cls-5" d="M20.27,84.69h3.3V2.1h-3.3c-3.65,0-6.61,2.96-6.61,6.61v82.59c0-3.65,2.96-6.61,6.61-6.61"/>
      <polygon class="cls-5" points="48.35 18.61 41.74 13.66 35.13 18.61 35.13 2.1 48.35 2.1 48.35 18.61"/>
    </g>
    <path class="cls-1" d="M20.27,84.69c-3.65,0-6.61,2.96-6.61,6.61s2.96,6.61,6.61,6.61h66.07v-13.21H20.27Z"/>
    <path class="cls-4" d="M78.08,92.95H21.92c-.91,0-1.65-.74-1.65-1.65s.74-1.65,1.65-1.65h56.16c.91,0,1.65.74,1.65,1.65s-.74,1.65-1.65,1.65"/>
  </g>
  <path class="cls-3" d="M37.92,58.51l3.28-2.54c1,.18,1.85.29,2.54.33,1.5-.57,2.55-1.57,3.16-2.98.61-1.41.92-3.56.92-6.44l.08-3.03c0-3.89,1.33-6.94,3.98-9.14,2.21-1.82,4.55-2.73,7.01-2.73,1.05,0,2.14.24,3.24.73l-2.88,2.85c-1.18-.77-2.35-1.15-3.51-1.15-2.9,0-4.35,2.37-4.35,7.12l-.08,2.69c0,3.68-.35,6.38-1.05,8.09s-2.05,3.12-4.04,4.24l4.04.33,1.8.14,2.17.14c.57.04,1.21.06,1.93.06,3.22,0,5.74-.94,7.55-2.81.21.26.31.45.31.57,0,.43-.62,1.17-1.88,2.21-2.14,1.76-4.43,2.64-6.88,2.64-1,0-2.23-.05-3.69-.16l-5.8-.44c-3.02-.22-5.64-.46-7.85-.71Z"/>
</svg>