<?xml version="1.0" encoding="UTF-8"?>
<svg id="Layer_1" data-name="Layer 1" xmlns="http://www.w3.org/2000/svg" viewBox="0 0 100 100">
  <defs>
    <style>
      .cls-1 {
        fill: #edebda;
      }

      .cls-2 {
        fill: #e2e2e2;
      }

      .cls-3 {
        fill: #8e3838;
      }

      .cls-4 {
        fill: #cec8ae;
      }

      .cls-5 {
        fill: #1997b1;
      }
    </style>
  </defs>
  <g>
    <path class="cls-2" d="M13.66,8.7v82.59c0-3.65,2.96-6.61,6.61-6.61h66.07V2.1H20.27c-3.65,0-6.61,2.96-6.61,6.61"/>
    <g>
      <path class="cls-5" d="M20.27,84.69h3.3V2.1h-3.3c-3.65,0-6.61,2.96-6.61,6.61v82.59c0-3.65,2.96-6.61,6.61-6.61"/>
      <polygon class="cls-5" points="48.35 18.61 41.74 13.66 35.13 18.61 35.13 2.1 48.35 2.1 48.35 18.61"/>
    </g>
    <path class="cls-1" d="M20.27,84.69c-3.65,0-6.61,2.96-6.61,6.61s2.96,6.61,6.61,6.61h66.07v-13.21H20.27Z"/>
    <path class="cls-4" d="M78.08,92.95H21.92c-.91,0-1.65-.74-1.65-1.65s.74-1.65,1.65-1.65h56.16c.91,0,1.65.74,1.65,1.65s-.74,1.65-1.65,1.65"/>
  </g>
  <path class="cls-3" d="M42.83,43.94l-3.07,2.95c-.53-1.39-.8-2.74-.8-4.04,0-3.23,1.4-5.83,4.2-7.81,2.34-1.67,6.35-2.5,12.03-2.5.96,0,1.81.02,2.54.06,2.02.13,3.05.2,3.11.2h1.37c-1.02,1.59-1.52,4.8-1.52,9.64l.02,1.01.08,2.24c0,2.69.33,5.45,1,8.27.26,1.09.51,1.8.76,2.11.25.31.68.47,1.29.47.66,0,1.42-.21,2.27-.64.09.22.14.4.14.55,0,.33-.25.61-.76.84l-.92.45-4.8,2.09c-1.07-3.29-1.71-6.75-1.93-10.35l-1.48,1.04h-6.56c-1.2,3.05-2.84,5.22-4.92,6.52l4.04.2-2.11,2.23-7.79-.27,2.6-2.34,1.95.12c.89-.65,1.64-1.56,2.27-2.74.62-1.18,1.56-3.46,2.79-6.84l.59-1.62c1.2-3.26,2.34-5.64,3.42-7.13s2.55-2.72,4.41-3.68c-2.04-.38-4.2-.57-6.46-.57-5.77,0-8.65,1.95-8.65,5.84,0,1.33.31,2.57.94,3.73ZM57.77,48.39c-.18-2.26-.27-4.09-.27-5.5,0-.71.01-1.3.04-1.75l.16-2.26c.1-1.55.25-2.73.43-3.55-2.55,1.56-4.65,4.75-6.29,9.56-.47,1.39-.74,2.19-.82,2.4l-.45,1.11h7.21Z"/>
</svg>