<?xml version="1.0" encoding="UTF-8"?>
<svg id="Layer_1" data-name="Layer 1" xmlns="http://www.w3.org/2000/svg" viewBox="0 0 100 100">
  <defs>
    <style>
      .cls-1 {
        fill: #edebda;
      }

      .cls-2 {
        fill: #e2e2e2;
      }

      .cls-3 {
        fill: #8e3838;
      }

      .cls-4 {
        fill: #cec8ae;
      }

      .cls-5 {
        fill: #1997b1;
      }
    </style>
  </defs>
  <g>
    <path class="cls-2" d="M13.66,8.7v82.59c0-3.65,2.96-6.61,6.61-6.61h66.07V2.1H20.27c-3.65,0-6.61,2.96-6.61,6.61"/>
    <g>
      <path class="cls-5" d="M20.27,84.69h3.3V2.1h-3.3c-3.65,0-6.61,2.96-6.61,6.61v82.59c0-3.65,2.96-6.61,6.61-6.61"/>
      <polygon class="cls-5" points="48.35 18.61 41.74 13.66 35.13 18.61 35.13 2.1 48.35 2.1 48.35 18.61"/>
    </g>
    <path class="cls-1" d="M20.27,84.69c-3.65,0-6.61,2.96-6.61,6.61s2.96,6.61,6.61,6.61h66.07v-13.21H20.27Z"/>
    <path class="cls-4" d="M78.08,92.95H21.92c-.91,0-1.65-.74-1.65-1.65s.74-1.65,1.65-1.65h56.16c.91,0,1.65.74,1.65,1.65s-.74,1.65-1.65,1.65"/>
  </g>
  <path class="cls-3" d="M61.36,52.22c.3.14.45.35.45.62,0,.86-.79,1.99-2.36,3.4-2.67,2.38-5.7,3.57-9.1,3.57-2.75,0-4.94-.99-6.57-2.98-1.63-1.99-2.45-4.65-2.45-8,0-4.78,1.53-8.78,4.59-12.01,3.06-3.23,6.86-4.84,11.39-4.84,2.3,0,4.69.44,7.17,1.31l-1.31,2.87-.37.84c-.31.66-.7,1-1.15,1-.09,0-.23-.02-.41-.06.18-.4.27-.73.27-.99,0-.87-.58-1.63-1.75-2.27-1.17-.65-2.53-.97-4.08-.97-3.18,0-5.77,1.26-7.75,3.77s-2.98,5.78-2.98,9.8c0,3.11.7,5.59,2.09,7.44,1.39,1.85,3.26,2.77,5.59,2.77,1.68,0,3.36-.5,5.04-1.51,1.68-1.01,2.91-2.26,3.71-3.74Z"/>
</svg>