<?xml version="1.0" encoding="UTF-8"?>
<svg id="Layer_1" data-name="Layer 1" xmlns="http://www.w3.org/2000/svg" viewBox="0 0 100 100">
  <defs>
    <style>
      .cls-1 {
        fill: #edebda;
      }

      .cls-2 {
        fill: #e2e2e2;
      }

      .cls-3 {
        fill: #8e3838;
      }

      .cls-4 {
        fill: #cec8ae;
      }

      .cls-5 {
        fill: #1997b1;
      }
    </style>
  </defs>
  <g>
    <path class="cls-2" d="M13.66,8.7v82.59c0-3.65,2.96-6.61,6.61-6.61h66.07V2.1H20.27c-3.65,0-6.61,2.96-6.61,6.61"/>
    <g>
      <path class="cls-5" d="M20.27,84.69h3.3V2.1h-3.3c-3.65,0-6.61,2.96-6.61,6.61v82.59c0-3.65,2.96-6.61,6.61-6.61"/>
      <polygon class="cls-5" points="48.35 18.61 41.74 13.66 35.13 18.61 35.13 2.1 48.35 2.1 48.35 18.61"/>
    </g>
    <path class="cls-1" d="M20.27,84.69c-3.65,0-6.61,2.96-6.61,6.61s2.96,6.61,6.61,6.61h66.07v-13.21H20.27Z"/>
    <path class="cls-4" d="M78.08,92.95H21.92c-.91,0-1.65-.74-1.65-1.65s.74-1.65,1.65-1.65h56.16c.91,0,1.65.74,1.65,1.65s-.74,1.65-1.65,1.65"/>
  </g>
  <path class="cls-3" d="M48.87,59.82c-2.55,0-4.64-1-6.26-3.02-1.62-2.01-2.43-4.6-2.43-7.76,0-4.59,1.55-8.58,4.66-11.97s6.77-5.08,10.99-5.08c2.62,0,4.74.99,6.37,2.98s2.44,4.58,2.44,7.78c0,4.63-1.56,8.64-4.68,12.01-3.12,3.38-6.81,5.06-11.08,5.06ZM51.43,58.21c2.7,0,4.95-1.29,6.77-3.88,1.82-2.59,2.72-5.8,2.72-9.63,0-3.21-.71-5.87-2.13-7.99s-3.2-3.17-5.35-3.17c-2.72,0-4.99,1.29-6.82,3.87-1.82,2.58-2.73,5.8-2.73,9.66,0,3.22.71,5.89,2.13,7.99,1.42,2.1,3.22,3.15,5.41,3.15Z"/>
</svg>