<?xml version="1.0" encoding="UTF-8"?>
<svg id="Layer_1" data-name="Layer 1" xmlns="http://www.w3.org/2000/svg" viewBox="0 0 100 100">
  <defs>
    <style>
      .cls-1 {
        fill: #edebda;
      }

      .cls-2 {
        fill: #3a414f;
      }

      .cls-3 {
        fill: #fff;
      }

      .cls-4 {
        fill: #666;
      }

      .cls-5 {
        fill: #cec8ae;
      }
    </style>
  </defs>
  <g>
    <path class="cls-4" d="M13.66,8.7v82.59c0-3.65,2.96-6.61,6.61-6.61h66.07V2.1H20.27c-3.65,0-6.61,2.96-6.61,6.61"/>
    <g>
      <path class="cls-2" d="M20.27,84.69h3.3V2.1h-3.3c-3.65,0-6.61,2.96-6.61,6.61v82.59c0-3.65,2.96-6.61,6.61-6.61"/>
      <polygon class="cls-2" points="48.35 18.61 41.74 13.66 35.13 18.61 35.13 2.1 48.35 2.1 48.35 18.61"/>
    </g>
    <path class="cls-1" d="M20.27,84.69c-3.65,0-6.61,2.96-6.61,6.61s2.96,6.61,6.61,6.61h66.07v-13.21H20.27Z"/>
    <path class="cls-5" d="M78.08,92.95H21.92c-.91,0-1.65-.74-1.65-1.65s.74-1.65,1.65-1.65h56.16c.91,0,1.65.74,1.65,1.65s-.74,1.65-1.65,1.65"/>
  </g>
  <path class="cls-3" d="M48.29,56.91l5.14.29-2.33,2.27-9-.43,2.52-2.42,2.11.23c1.59-1,2.56-3.05,2.93-6.15l.21-1.89,1.64-14.8c-5.91,1.12-8.87,3.35-8.87,6.7,0,1.34.28,2.53.84,3.57l-3.14,2.77c-.27-1-.41-2.02-.41-3.05,0-3.54,1.5-6.43,4.51-8.66s6.9-3.35,11.68-3.35c6.41,0,9.61,2.1,9.61,6.29,0,2.66-1.19,4.93-3.58,6.82-2.39,1.89-5.41,2.94-9.08,3.16-.31,3.03-.72,5.01-1.22,5.94s-1.69,1.83-3.56,2.71ZM54.68,33.76l-1.4,12.46c.73.13,1.37.2,1.92.2,5,0,7.5-2.18,7.5-6.54,0-4.08-2.67-6.11-8.02-6.11Z"/>
</svg>