<?xml version="1.0" encoding="UTF-8"?>
<svg id="Layer_1" data-name="Layer 1" xmlns="http://www.w3.org/2000/svg" viewBox="0 0 100 100">
  <defs>
    <style>
      .cls-1 {
        fill: #edebda;
      }

      .cls-2 {
        fill: #e2e2e2;
      }

      .cls-3 {
        fill: #8e3838;
      }

      .cls-4 {
        fill: #cec8ae;
      }

      .cls-5 {
        fill: #1997b1;
      }
    </style>
  </defs>
  <g>
    <path class="cls-2" d="M13.66,8.7v82.59c0-3.65,2.96-6.61,6.61-6.61h66.07V2.1H20.27c-3.65,0-6.61,2.96-6.61,6.61"/>
    <g>
      <path class="cls-5" d="M20.27,84.69h3.3V2.1h-3.3c-3.65,0-6.61,2.96-6.61,6.61v82.59c0-3.65,2.96-6.61,6.61-6.61"/>
      <polygon class="cls-5" points="48.35 18.61 41.74 13.66 35.13 18.61 35.13 2.1 48.35 2.1 48.35 18.61"/>
    </g>
    <path class="cls-1" d="M20.27,84.69c-3.65,0-6.61,2.96-6.61,6.61s2.96,6.61,6.61,6.61h66.07v-13.21H20.27Z"/>
    <path class="cls-4" d="M78.08,92.95H21.92c-.91,0-1.65-.74-1.65-1.65s.74-1.65,1.65-1.65h56.16c.91,0,1.65.74,1.65,1.65s-.74,1.65-1.65,1.65"/>
  </g>
  <path class="cls-3" d="M41.7,43.88l-3.18,3.05c-.3-1.02-.45-2.01-.45-2.99,0-3.58,1.49-6.48,4.47-8.69,2.23-1.65,5.29-2.48,9.2-2.48h11.66c4.83,0,7.25-1.49,7.25-4.47,0-1.04-.36-2-1.07-2.89l2.46-2.34c.57.78.86,1.78.86,3.01,0,2.57-1.16,4.72-3.47,6.46-2.31,1.74-5.17,2.61-8.57,2.61h-5.43l-1.46,13.2-.23,2.17c-.22,1.85-.62,3.18-1.2,4s-1.69,1.62-3.35,2.4l5.68.29-2.34,2.27-9.53-.43,2.52-2.42,2.13.23c1.58-1,2.55-3.05,2.93-6.15l.2-1.89,1.51-13.67h-3.32c-5.45,0-8.18,1.8-8.18,5.41,0,1.09.31,2.21.92,3.34Z"/>
</svg>