<?xml version="1.0" encoding="UTF-8"?>
<svg id="Capa_1" data-name="Capa 1" xmlns="http://www.w3.org/2000/svg" viewBox="0 0 1439.11 213.11">
  <defs>
    <style>
      .cls-1 {
        fill: #1d1d1b;
      }

      .cls-2 {
        fill: #5ca51c;
      }
    </style>
  </defs>
  <g>
    <path d="M28.4,133.25c0,1.12-.34,2.06-1.01,2.84-.68.78-1.62,1.32-2.84,1.61v.07c1.44.18,2.53.62,3.27,1.31.74.7,1.11,1.63,1.11,2.81,0,1.72-.62,3.05-1.87,4.01-1.25.96-3.02,1.43-5.33,1.43-1.94,0-3.65-.32-5.15-.96v-3.21c.69.35,1.45.63,2.28.85s1.65.33,2.47.33c1.25,0,2.16-.21,2.76-.63.59-.42.89-1.1.89-2.04,0-.84-.34-1.43-1.03-1.78-.68-.35-1.77-.52-3.27-.52h-1.35v-2.89h1.38c1.38,0,2.39-.18,3.03-.54.64-.36.96-.98.96-1.86,0-1.35-.85-2.03-2.54-2.03-.59,0-1.18.1-1.79.29-.61.2-1.28.53-2.02,1.01l-1.75-2.6c1.63-1.17,3.57-1.76,5.82-1.76,1.85,0,3.31.37,4.38,1.12,1.07.75,1.6,1.79,1.6,3.12Z"/>
    <path d="M46.18,147.1l-4.3-14h-.11c.15,2.85.23,4.75.23,5.7v8.3h-3.38v-17.85h5.15l4.22,13.65h.07l4.48-13.65h5.15v17.85h-3.53v-8.45c0-.4,0-.86.02-1.38.01-.52.07-1.9.16-4.15h-.11l-4.6,13.98h-3.47Z"/>
    <path d="M72.48,147.1h-10.28v-17.85h10.28v3.1h-6.49v3.92h6.04v3.1h-6.04v4.6h6.49v3.12Z"/>
    <path d="M86.74,142.15c0,1.61-.58,2.88-1.74,3.81-1.16.93-2.77,1.39-4.84,1.39-1.9,0-3.59-.36-5.05-1.07v-3.52c1.2.54,2.22.92,3.06,1.14.83.22,1.6.33,2.29.33.83,0,1.47-.16,1.91-.48.44-.32.67-.79.67-1.42,0-.35-.1-.66-.29-.93-.2-.27-.48-.53-.86-.79-.38-.25-1.15-.65-2.31-1.21-1.09-.51-1.91-1-2.45-1.48-.55-.47-.98-1.02-1.31-1.65-.33-.63-.49-1.36-.49-2.2,0-1.58.54-2.82,1.6-3.72,1.07-.9,2.55-1.35,4.44-1.35.93,0,1.81.11,2.66.33.84.22,1.72.53,2.64.93l-1.22,2.94c-.95-.39-1.74-.66-2.36-.82-.62-.15-1.23-.23-1.84-.23-.72,0-1.27.17-1.65.5-.38.33-.57.77-.57,1.31,0,.33.08.62.23.87.15.25.4.49.74.72.34.23,1.14.65,2.4,1.25,1.67.8,2.81,1.6,3.43,2.4.62.8.93,1.78.93,2.95Z"/>
    <path d="M100.25,147.1h-10.28v-17.85h10.28v3.1h-6.49v3.92h6.04v3.1h-6.04v4.6h6.49v3.12Z"/>
    <path d="M114.51,142.15c0,1.61-.58,2.88-1.74,3.81-1.16.93-2.77,1.39-4.84,1.39-1.9,0-3.59-.36-5.05-1.07v-3.52c1.2.54,2.22.92,3.06,1.14.83.22,1.6.33,2.29.33.83,0,1.47-.16,1.91-.48.44-.32.67-.79.67-1.42,0-.35-.1-.66-.29-.93-.2-.27-.48-.53-.86-.79-.38-.25-1.15-.65-2.31-1.21-1.09-.51-1.91-1-2.45-1.48-.55-.47-.98-1.02-1.31-1.65-.33-.63-.49-1.36-.49-2.2,0-1.58.54-2.82,1.6-3.72,1.07-.9,2.55-1.35,4.44-1.35.93,0,1.81.11,2.66.33.84.22,1.72.53,2.64.93l-1.22,2.94c-.95-.39-1.74-.66-2.36-.82-.62-.15-1.23-.23-1.84-.23-.72,0-1.27.17-1.65.5-.38.33-.57.77-.57,1.31,0,.33.08.62.23.87.15.25.4.49.74.72.34.23,1.14.65,2.4,1.25,1.67.8,2.81,1.6,3.43,2.4.62.8.93,1.78.93,2.95Z"/>
    <path d="M116.92,135.27c0-.68.18-1.2.55-1.55.37-.35.9-.52,1.6-.52s1.2.18,1.57.54c.37.36.56.87.56,1.54s-.19,1.17-.57,1.53c-.38.36-.9.54-1.56.54s-1.21-.18-1.59-.54c-.37-.36-.56-.87-.56-1.54ZM116.92,145.36c0-.68.18-1.2.55-1.55.37-.35.9-.52,1.6-.52s1.2.18,1.57.54c.37.36.56.87.56,1.54s-.19,1.15-.56,1.52c-.37.37-.9.56-1.56.56s-1.21-.18-1.59-.54c-.37-.36-.56-.87-.56-1.53Z"/>
    <path d="M145.82,138.01c0,2.95-.8,5.2-2.4,6.76-1.6,1.56-3.9,2.34-6.9,2.34h-4.94v-17.85h5.47c2.77,0,4.93.77,6.47,2.31s2.31,3.69,2.31,6.45ZM143.62,138.08c0-2.33-.58-4.08-1.75-5.26-1.17-1.18-2.9-1.77-5.21-1.77h-3.02v14.26h2.53c2.47,0,4.33-.61,5.58-1.82,1.25-1.22,1.87-3.02,1.87-5.4Z"/>
    <path d="M155.14,147.35c-1.98,0-3.54-.6-4.68-1.81-1.14-1.2-1.72-2.88-1.72-5.02s.53-3.87,1.59-5.14c1.06-1.27,2.49-1.9,4.28-1.9,1.68,0,3,.55,3.98,1.65.98,1.1,1.46,2.56,1.46,4.36v1.28h-9.22c.04,1.57.44,2.76,1.19,3.58.75.81,1.81,1.22,3.18,1.22,1.44,0,2.86-.3,4.27-.9v1.81c-.72.31-1.39.53-2.03.67-.64.13-1.41.2-2.31.2ZM154.59,135.18c-1.07,0-1.93.35-2.57,1.05-.64.7-1.02,1.67-1.13,2.91h6.99c0-1.28-.29-2.26-.85-2.94-.57-.68-1.38-1.02-2.44-1.02Z"/>
    <path d="M165.54,147.1h-2.03v-18.99h2.03v18.99Z"/>
    <path d="M182.92,147.1h-1.98v-12.72c0-1.06.03-2.06.1-3-.17.17-.36.35-.57.54-.21.19-1.18.98-2.91,2.38l-1.07-1.39,4.72-3.65h1.71v17.85Z"/>
    <path d="M200.76,133.46c0,1.14-.32,2.07-.96,2.8-.64.72-1.54,1.21-2.72,1.45v.1c1.43.18,2.49.63,3.19,1.37.69.73,1.04,1.69,1.04,2.88,0,1.7-.59,3.01-1.77,3.92-1.18.92-2.86,1.37-5.03,1.37-.94,0-1.81-.07-2.59-.21-.79-.14-1.55-.39-2.29-.75v-1.93c.77.38,1.6.67,2.47.87.88.2,1.7.3,2.48.3,3.08,0,4.63-1.21,4.63-3.63,0-2.16-1.7-3.25-5.1-3.25h-1.76v-1.75h1.78c1.39,0,2.49-.31,3.31-.92.81-.61,1.22-1.47,1.22-2.56,0-.87-.3-1.55-.9-2.05-.6-.5-1.41-.74-2.44-.74-.78,0-1.52.11-2.21.32-.69.21-1.48.6-2.37,1.17l-1.03-1.37c.73-.58,1.58-1.03,2.53-1.36.96-.33,1.96-.49,3.02-.49,1.73,0,3.08.4,4.04,1.19.96.79,1.44,1.88,1.44,3.27Z"/>
    <path d="M220.52,145.31h-.11c-.94,1.36-2.34,2.04-4.2,2.04-1.75,0-3.11-.6-4.08-1.79-.97-1.2-1.46-2.9-1.46-5.1s.49-3.92,1.46-5.14,2.34-1.83,4.08-1.83,3.21.66,4.17,1.98h.16l-.09-.96-.05-.94v-5.44h2.03v18.99h-1.65l-.27-1.79ZM216.47,145.65c1.38,0,2.39-.38,3.01-1.13.62-.75.93-1.97.93-3.64v-.43c0-1.9-.32-3.25-.95-4.06-.63-.81-1.64-1.21-3.02-1.21-1.19,0-2.1.46-2.73,1.39-.63.92-.95,2.23-.95,3.91s.31,3,.94,3.87c.63.87,1.55,1.31,2.76,1.31Z"/>
    <path d="M232.39,147.35c-1.98,0-3.54-.6-4.68-1.81-1.14-1.2-1.72-2.88-1.72-5.02s.53-3.87,1.59-5.14c1.06-1.27,2.49-1.9,4.28-1.9,1.68,0,3,.55,3.98,1.65.98,1.1,1.46,2.56,1.46,4.36v1.28h-9.22c.04,1.57.44,2.76,1.19,3.58.75.81,1.81,1.22,3.18,1.22,1.44,0,2.86-.3,4.27-.9v1.81c-.72.31-1.39.53-2.03.67-.64.13-1.41.2-2.31.2ZM231.84,135.18c-1.07,0-1.93.35-2.57,1.05-.64.7-1.02,1.67-1.13,2.91h6.99c0-1.28-.29-2.26-.85-2.94-.57-.68-1.38-1.02-2.44-1.02Z"/>
    <path d="M34.82,177.1v-8.7c0-1.07-.23-1.87-.68-2.4-.46-.53-1.16-.8-2.12-.8-1.26,0-2.19.36-2.8,1.09-.6.72-.9,1.84-.9,3.34v7.47h-2.03v-8.7c0-1.07-.23-1.87-.68-2.4-.46-.53-1.17-.8-2.14-.8-1.27,0-2.2.38-2.79,1.14-.59.76-.88,2.01-.88,3.74v7.02h-2.03v-13.38h1.65l.33,1.83h.1c.38-.65.92-1.16,1.62-1.53.7-.37,1.48-.55,2.34-.55,2.09,0,3.46.76,4.1,2.27h.1c.4-.7.98-1.25,1.73-1.66.76-.41,1.62-.61,2.59-.61,1.51,0,2.65.39,3.4,1.17.75.78,1.13,2.02,1.13,3.73v8.73h-2.03Z"/>
    <path d="M49.25,177.1l-.4-1.9h-.1c-.67.84-1.33,1.41-2,1.7-.66.3-1.49.45-2.48.45-1.33,0-2.37-.34-3.12-1.03-.75-.68-1.13-1.66-1.13-2.92,0-2.7,2.16-4.12,6.48-4.25l2.27-.07v-.83c0-1.05-.23-1.82-.68-2.33-.45-.5-1.17-.75-2.17-.75-1.12,0-2.38.34-3.78,1.03l-.62-1.55c.66-.36,1.38-.64,2.17-.84.79-.2,1.57-.31,2.36-.31,1.59,0,2.78.35,3.55,1.06.77.71,1.15,1.84,1.15,3.41v9.13h-1.5ZM44.67,175.67c1.26,0,2.25-.35,2.97-1.04.72-.69,1.08-1.66,1.08-2.91v-1.21l-2.03.09c-1.61.06-2.77.31-3.48.75-.71.44-1.07,1.13-1.07,2.07,0,.73.22,1.29.67,1.67.44.38,1.06.57,1.86.57Z"/>
    <path d="M61.03,163.48c.59,0,1.13.05,1.6.15l-.28,1.88c-.55-.12-1.04-.18-1.46-.18-1.08,0-2.01.44-2.78,1.32-.77.88-1.15,1.97-1.15,3.28v7.18h-2.03v-13.38h1.67l.23,2.48h.1c.5-.87,1.09-1.54,1.79-2.01.7-.47,1.47-.71,2.31-.71Z"/>
    <path d="M73.69,177.1h-9.7v-1.38l7.3-10.42h-6.85v-1.57h9.07v1.57l-7.2,10.23h7.39v1.57Z"/>
    <path d="M88.37,170.4c0,2.18-.55,3.88-1.65,5.11-1.1,1.22-2.62,1.84-4.55,1.84-1.2,0-2.26-.28-3.19-.84s-1.64-1.37-2.15-2.42c-.5-1.05-.76-2.28-.76-3.69,0-2.18.54-3.88,1.64-5.1,1.09-1.22,2.6-1.83,4.54-1.83s3.36.62,4.46,1.87c1.1,1.25,1.65,2.93,1.65,5.05ZM78.18,170.4c0,1.71.34,3.01,1.03,3.91.68.9,1.69,1.34,3.02,1.34s2.33-.45,3.02-1.34c.69-.89,1.03-2.2,1.03-3.91s-.34-2.99-1.03-3.88c-.69-.88-1.7-1.32-3.05-1.32s-2.33.44-3,1.31c-.68.87-1.01,2.17-1.01,3.89Z"/>
    <path d="M107.52,175.31h-.11c-.94,1.36-2.34,2.04-4.2,2.04-1.75,0-3.11-.6-4.08-1.79-.97-1.2-1.46-2.9-1.46-5.1s.49-3.92,1.46-5.14,2.34-1.83,4.08-1.83,3.21.66,4.17,1.98h.16l-.09-.96-.05-.94v-5.44h2.03v18.99h-1.65l-.27-1.79ZM103.47,175.65c1.38,0,2.39-.38,3.01-1.13.62-.75.93-1.97.93-3.64v-.43c0-1.9-.32-3.25-.95-4.06-.63-.81-1.64-1.21-3.02-1.21-1.19,0-2.1.46-2.73,1.39-.63.92-.95,2.23-.95,3.91s.31,3,.94,3.87c.63.87,1.55,1.31,2.76,1.31Z"/>
    <path d="M119.39,177.35c-1.98,0-3.54-.6-4.68-1.81-1.14-1.2-1.72-2.88-1.72-5.02s.53-3.87,1.59-5.14c1.06-1.27,2.49-1.9,4.28-1.9,1.68,0,3,.55,3.98,1.65.98,1.1,1.46,2.56,1.46,4.36v1.28h-9.22c.04,1.57.44,2.76,1.19,3.58.75.81,1.81,1.22,3.18,1.22,1.44,0,2.86-.3,4.27-.9v1.81c-.72.31-1.39.53-2.03.67-.64.13-1.41.2-2.31.2ZM118.84,165.18c-1.07,0-1.93.35-2.57,1.05-.64.7-1.02,1.67-1.13,2.91h6.99c0-1.28-.29-2.26-.85-2.94-.57-.68-1.38-1.02-2.44-1.02Z"/>
    <path d="M145.06,177.1h-11.73v-1.75l4.7-4.72c1.43-1.45,2.38-2.48,2.83-3.1.46-.62.8-1.22,1.03-1.81.23-.59.34-1.22.34-1.89,0-.95-.29-1.71-.87-2.26-.58-.56-1.38-.84-2.4-.84-.74,0-1.44.12-2.11.37-.66.24-1.4.69-2.22,1.33l-1.07-1.38c1.64-1.37,3.43-2.05,5.37-2.05,1.68,0,2.99.43,3.94,1.29.95.86,1.43,2.01,1.43,3.46,0,1.13-.32,2.25-.95,3.36-.63,1.11-1.82,2.51-3.56,4.2l-3.91,3.82v.1h9.18v1.88Z"/>
    <path d="M159.45,168.15c0,3.08-.49,5.39-1.46,6.91-.97,1.52-2.46,2.28-4.46,2.28s-3.38-.78-4.38-2.34c-1-1.56-1.5-3.84-1.5-6.85s.48-5.42,1.45-6.92c.97-1.51,2.45-2.26,4.43-2.26s3.41.79,4.41,2.36c1,1.57,1.51,3.85,1.51,6.82ZM149.7,168.15c0,2.6.31,4.49.92,5.67.61,1.18,1.58,1.78,2.92,1.78s2.33-.6,2.94-1.8c.61-1.2.91-3.08.91-5.65s-.3-4.44-.91-5.63c-.61-1.19-1.58-1.79-2.94-1.79s-2.31.59-2.92,1.76c-.61,1.18-.92,3.06-.92,5.66Z"/>
    <path d="M173.65,177.1h-11.73v-1.75l4.7-4.72c1.43-1.45,2.38-2.48,2.83-3.1.46-.62.8-1.22,1.03-1.81.23-.59.34-1.22.34-1.89,0-.95-.29-1.71-.87-2.26-.58-.56-1.38-.84-2.4-.84-.74,0-1.44.12-2.11.37-.66.24-1.4.69-2.22,1.33l-1.07-1.38c1.64-1.37,3.43-2.05,5.37-2.05,1.68,0,2.99.43,3.94,1.29.95.86,1.43,2.01,1.43,3.46,0,1.13-.32,2.25-.95,3.36-.63,1.11-1.82,2.51-3.56,4.2l-3.91,3.82v.1h9.18v1.88Z"/>
    <path d="M188.79,173h-2.65v4.1h-1.94v-4.1h-8.68v-1.77l8.47-12.07h2.15v12h2.65v1.84ZM184.2,171.16v-5.93c0-1.16.04-2.48.12-3.94h-.1c-.39.78-.76,1.43-1.1,1.94l-5.58,7.93h6.65Z"/>
    <path d="M206.16,177.1l-.4-1.9h-.1c-.67.84-1.33,1.41-2,1.7-.66.3-1.49.45-2.48.45-1.33,0-2.37-.34-3.12-1.03-.75-.68-1.13-1.66-1.13-2.92,0-2.7,2.16-4.12,6.48-4.25l2.27-.07v-.83c0-1.05-.23-1.82-.68-2.33-.45-.5-1.17-.75-2.17-.75-1.12,0-2.38.34-3.78,1.03l-.62-1.55c.66-.36,1.38-.64,2.17-.84.79-.2,1.57-.31,2.36-.31,1.59,0,2.78.35,3.55,1.06.77.71,1.15,1.84,1.15,3.41v9.13h-1.5ZM201.58,175.67c1.26,0,2.25-.35,2.97-1.04.72-.69,1.08-1.66,1.08-2.91v-1.21l-2.03.09c-1.61.06-2.77.31-3.48.75-.71.44-1.07,1.13-1.07,2.07,0,.73.22,1.29.67,1.67.44.38,1.06.57,1.86.57Z"/>
    <path d="M213.86,177.1h-2.03v-18.99h2.03v18.99Z"/>
    <path d="M231.23,177.1h-1.98v-12.72c0-1.06.03-2.06.1-3-.17.17-.36.35-.57.54-.21.19-1.18.98-2.91,2.38l-1.07-1.39,4.72-3.65h1.71v17.85Z"/>
    <path d="M249.75,177.1h-11.73v-1.75l4.7-4.72c1.43-1.45,2.38-2.48,2.83-3.1.46-.62.8-1.22,1.03-1.81.23-.59.34-1.22.34-1.89,0-.95-.29-1.71-.87-2.26-.58-.56-1.38-.84-2.4-.84-.74,0-1.44.12-2.11.37-.66.24-1.4.69-2.22,1.33l-1.07-1.38c1.64-1.37,3.43-2.05,5.37-2.05,1.68,0,2.99.43,3.94,1.29.95.86,1.43,2.01,1.43,3.46,0,1.13-.32,2.25-.95,3.36-.63,1.11-1.82,2.51-3.56,4.2l-3.91,3.82v.1h9.18v1.88Z"/>
    <path d="M268.84,175.31h-.11c-.94,1.36-2.34,2.04-4.2,2.04-1.75,0-3.11-.6-4.08-1.79-.97-1.2-1.46-2.9-1.46-5.1s.49-3.92,1.46-5.14,2.34-1.83,4.08-1.83,3.21.66,4.17,1.98h.16l-.09-.96-.05-.94v-5.44h2.03v18.99h-1.65l-.27-1.79ZM264.79,175.65c1.38,0,2.39-.38,3.01-1.13.62-.75.93-1.97.93-3.64v-.43c0-1.9-.32-3.25-.95-4.06-.63-.81-1.64-1.21-3.02-1.21-1.19,0-2.1.46-2.73,1.39-.63.92-.95,2.23-.95,3.91s.31,3,.94,3.87c.63.87,1.55,1.31,2.76,1.31Z"/>
    <path d="M280.71,177.35c-1.98,0-3.54-.6-4.68-1.81-1.14-1.2-1.72-2.88-1.72-5.02s.53-3.87,1.59-5.14c1.06-1.27,2.49-1.9,4.28-1.9,1.68,0,3,.55,3.98,1.65.98,1.1,1.46,2.56,1.46,4.36v1.28h-9.22c.04,1.57.44,2.76,1.19,3.58.75.81,1.81,1.22,3.18,1.22,1.44,0,2.86-.3,4.27-.9v1.81c-.72.31-1.39.53-2.03.67-.64.13-1.41.2-2.31.2ZM280.16,165.18c-1.07,0-1.93.35-2.57,1.05-.64.7-1.02,1.67-1.13,2.91h6.99c0-1.28-.29-2.26-.85-2.94-.57-.68-1.38-1.02-2.44-1.02Z"/>
    <path d="M16.14,213.11c-.77,0-1.4-.1-1.88-.31v-1.65c.56.16,1.12.24,1.66.24.63,0,1.1-.17,1.4-.52.3-.35.45-.87.45-1.58v-15.58h2.03v15.43c0,2.64-1.22,3.96-3.65,3.96ZM17.6,190.1c0-.46.11-.8.34-1.02.23-.22.51-.32.85-.32s.61.11.84.33c.24.22.35.56.35,1.01s-.12.8-.35,1.02c-.24.22-.52.34-.84.34-.34,0-.63-.11-.85-.34-.23-.22-.34-.56-.34-1.02Z"/>
    <path d="M25.99,193.72v8.68c0,1.09.25,1.9.74,2.44.5.54,1.27.81,2.33.81,1.4,0,2.42-.38,3.07-1.15.65-.76.97-2.01.97-3.75v-7.03h2.03v13.38h-1.67l-.29-1.79h-.11c-.42.66-.99,1.16-1.73,1.51-.74.35-1.58.52-2.52.52-1.63,0-2.85-.39-3.66-1.16-.81-.77-1.21-2.01-1.21-3.71v-8.75h2.05Z"/>
    <path d="M48.59,207.1v-8.65c0-1.09-.25-1.9-.74-2.44-.5-.54-1.27-.81-2.33-.81-1.4,0-2.43.38-3.08,1.14-.65.76-.98,2.01-.98,3.75v7.02h-2.03v-13.38h1.65l.33,1.83h.1c.42-.66,1-1.17,1.75-1.53.75-.36,1.58-.54,2.5-.54,1.61,0,2.82.39,3.64,1.17.81.78,1.22,2.02,1.22,3.73v8.73h-2.03Z"/>
    <path d="M54.61,190.1c0-.46.11-.8.34-1.02.23-.22.51-.32.85-.32s.61.11.84.33c.24.22.35.56.35,1.01s-.12.8-.35,1.02c-.24.22-.52.34-.84.34-.34,0-.63-.11-.85-.34-.23-.22-.34-.56-.34-1.02ZM56.8,207.1h-2.03v-13.38h2.03v13.38Z"/>
    <path d="M72.65,200.4c0,2.18-.55,3.88-1.65,5.11-1.1,1.22-2.62,1.84-4.55,1.84-1.2,0-2.26-.28-3.19-.84s-1.64-1.37-2.15-2.42c-.5-1.05-.76-2.28-.76-3.69,0-2.18.54-3.88,1.64-5.1,1.09-1.22,2.6-1.83,4.54-1.83s3.36.62,4.46,1.87c1.1,1.25,1.65,2.93,1.65,5.05ZM62.46,200.4c0,1.71.34,3.01,1.03,3.91.68.9,1.69,1.34,3.02,1.34s2.33-.45,3.02-1.34c.69-.89,1.03-2.2,1.03-3.91s-.34-2.99-1.03-3.88c-.69-.88-1.7-1.32-3.05-1.32s-2.33.44-3,1.31c-.68.87-1.01,2.17-1.01,3.89Z"/>
    <path d="M91.8,205.31h-.11c-.94,1.36-2.34,2.04-4.2,2.04-1.75,0-3.11-.6-4.08-1.79-.97-1.2-1.46-2.9-1.46-5.1s.49-3.92,1.46-5.14,2.34-1.83,4.08-1.83,3.21.66,4.17,1.98h.16l-.09-.96-.05-.94v-5.44h2.03v18.99h-1.65l-.27-1.79ZM87.75,205.65c1.38,0,2.39-.38,3.01-1.13.62-.75.93-1.97.93-3.64v-.43c0-1.9-.32-3.25-.95-4.06-.63-.81-1.64-1.21-3.02-1.21-1.19,0-2.1.46-2.73,1.39-.63.92-.95,2.23-.95,3.91s.31,3,.94,3.87c.63.87,1.55,1.31,2.76,1.31Z"/>
    <path d="M103.67,207.35c-1.98,0-3.54-.6-4.68-1.81-1.14-1.2-1.72-2.88-1.72-5.02s.53-3.87,1.59-5.14c1.06-1.27,2.49-1.9,4.28-1.9,1.68,0,3,.55,3.98,1.65.98,1.1,1.46,2.56,1.46,4.36v1.28h-9.22c.04,1.57.44,2.76,1.19,3.58.75.81,1.81,1.22,3.18,1.22,1.44,0,2.86-.3,4.27-.9v1.81c-.72.31-1.39.53-2.03.67-.64.13-1.41.2-2.31.2ZM103.12,195.18c-1.07,0-1.93.35-2.57,1.05-.64.7-1.02,1.67-1.13,2.91h6.99c0-1.28-.29-2.26-.85-2.94-.57-.68-1.38-1.02-2.44-1.02Z"/>
    <path d="M129.34,207.1h-11.73v-1.75l4.7-4.72c1.43-1.45,2.38-2.48,2.83-3.1.46-.62.8-1.22,1.03-1.81.23-.59.34-1.22.34-1.89,0-.95-.29-1.71-.87-2.26-.58-.56-1.38-.84-2.4-.84-.74,0-1.44.12-2.11.37-.66.24-1.4.69-2.22,1.33l-1.07-1.38c1.64-1.37,3.43-2.05,5.37-2.05,1.68,0,2.99.43,3.94,1.29.95.86,1.43,2.01,1.43,3.46,0,1.13-.32,2.25-.95,3.36-.63,1.11-1.82,2.51-3.56,4.2l-3.91,3.82v.1h9.18v1.88Z"/>
    <path d="M143.73,198.15c0,3.08-.49,5.39-1.46,6.91-.97,1.52-2.46,2.28-4.46,2.28s-3.38-.78-4.38-2.34c-1-1.56-1.5-3.84-1.5-6.85s.48-5.42,1.45-6.92c.97-1.51,2.45-2.26,4.43-2.26s3.41.79,4.41,2.36c1,1.57,1.51,3.85,1.51,6.82ZM133.98,198.15c0,2.6.31,4.49.92,5.67.61,1.18,1.58,1.78,2.92,1.78s2.33-.6,2.94-1.8c.61-1.2.91-3.08.91-5.65s-.3-4.44-.91-5.63c-.61-1.19-1.58-1.79-2.94-1.79s-2.31.59-2.92,1.76c-.61,1.18-.92,3.06-.92,5.66Z"/>
    <path d="M157.93,207.1h-11.73v-1.75l4.7-4.72c1.43-1.45,2.38-2.48,2.83-3.1.46-.62.8-1.22,1.03-1.81.23-.59.34-1.22.34-1.89,0-.95-.29-1.71-.87-2.26-.58-.56-1.38-.84-2.4-.84-.74,0-1.44.12-2.11.37-.66.24-1.4.69-2.22,1.33l-1.07-1.38c1.64-1.37,3.43-2.05,5.37-2.05,1.68,0,2.99.43,3.94,1.29.95.86,1.43,2.01,1.43,3.46,0,1.13-.32,2.25-.95,3.36-.63,1.11-1.82,2.51-3.56,4.2l-3.91,3.82v.1h9.18v1.88Z"/>
    <path d="M173.06,203h-2.65v4.1h-1.94v-4.1h-8.68v-1.77l8.47-12.07h2.15v12h2.65v1.84ZM168.47,201.16v-5.93c0-1.16.04-2.48.12-3.94h-.1c-.39.78-.76,1.43-1.1,1.94l-5.58,7.93h6.65Z"/>
  </g>
  <g>
    <path d="M28.39,9.99c-1.71,0-3.03.64-3.97,1.93s-1.41,3.07-1.41,5.37c0,4.78,1.79,7.16,5.38,7.16,1.5,0,3.33-.38,5.46-1.13v3.81c-1.76.73-3.72,1.1-5.89,1.1-3.12,0-5.5-.94-7.15-2.83s-2.48-4.6-2.48-8.14c0-2.23.41-4.18,1.22-5.85s1.98-2.96,3.49-3.85,3.3-1.34,5.34-1.34,4.17.5,6.27,1.51l-1.46,3.69c-.8-.38-1.61-.71-2.42-1s-1.61-.42-2.39-.42Z"/>
    <path d="M57.85,17.2c0,3.54-.88,6.27-2.64,8.17s-4.28,2.86-7.56,2.86-5.8-.95-7.56-2.86-2.64-4.64-2.64-8.2.88-6.29,2.64-8.17,4.29-2.82,7.58-2.82,5.81.95,7.55,2.84,2.61,4.62,2.61,8.17ZM42.22,17.2c0,2.39.45,4.19,1.36,5.41s2.27,1.82,4.07,1.82c3.62,0,5.43-2.41,5.43-7.22s-1.8-7.24-5.41-7.24c-1.81,0-3.17.61-4.09,1.82s-1.38,3.02-1.38,5.41Z"/>
    <path d="M81.29,27.93h-5.77l-9.32-16.2h-.13c.19,2.86.28,4.9.28,6.12v10.08h-4.06V6.52h5.73l9.3,16.04h.1c-.15-2.78-.22-4.75-.22-5.9V6.52h4.09v21.42Z"/>
    <path d="M94.94,27.93h-4.54V10.3h-5.82v-3.78h16.17v3.78h-5.82v17.64Z"/>
    <path d="M108.59,19.72v8.22h-4.54V6.52h6.24c2.91,0,5.06.53,6.46,1.59s2.09,2.67,2.09,4.83c0,1.26-.35,2.38-1.04,3.36s-1.67,1.75-2.94,2.31c3.22,4.81,5.32,7.92,6.3,9.33h-5.04l-5.11-8.22h-2.42ZM108.59,16.03h1.46c1.44,0,2.5-.24,3.18-.72s1.03-1.23,1.03-2.26-.35-1.74-1.05-2.17-1.78-.64-3.24-.64h-1.38v5.79Z"/>
    <path d="M136.97,27.93l-1.55-5.1h-7.81l-1.55,5.1h-4.89l7.56-21.5h5.55l7.59,21.5h-4.89ZM134.33,19.03c-1.44-4.62-2.24-7.23-2.42-7.84s-.31-1.08-.39-1.44c-.32,1.25-1.25,4.34-2.77,9.27h5.58Z"/>
    <path d="M152.82,27.93h-4.54V10.3h-5.82v-3.78h16.17v3.78h-5.82v17.64Z"/>
    <path d="M181.37,17.2c0,3.54-.88,6.27-2.64,8.17s-4.28,2.86-7.56,2.86-5.8-.95-7.56-2.86-2.64-4.64-2.64-8.2.88-6.29,2.64-8.17,4.29-2.82,7.58-2.82,5.81.95,7.55,2.84,2.61,4.62,2.61,8.17ZM165.74,17.2c0,2.39.45,4.19,1.36,5.41s2.27,1.82,4.07,1.82c3.62,0,5.43-2.41,5.43-7.22s-1.8-7.24-5.41-7.24c-1.81,0-3.17.61-4.09,1.82s-1.38,3.02-1.38,5.41Z"/>
  </g>
  <g>
    <path d="M332.3,13.2c0,2.3-.72,4.07-2.16,5.29s-3.49,1.83-6.15,1.83h-1.95v7.62h-4.54V6.52h6.84c2.6,0,4.57.56,5.93,1.68s2.03,2.79,2.03,5ZM322.04,16.6h1.49c1.4,0,2.44-.28,3.13-.83s1.04-1.35,1.04-2.41-.29-1.85-.87-2.36-1.49-.76-2.73-.76h-2.07v6.36Z"/>
    <path d="M340.88,19.72v8.22h-4.54V6.52h6.24c2.91,0,5.06.53,6.46,1.59s2.09,2.67,2.09,4.83c0,1.26-.35,2.38-1.04,3.36s-1.67,1.75-2.94,2.31c3.22,4.81,5.32,7.92,6.3,9.33h-5.04l-5.11-8.22h-2.42ZM340.88,16.03h1.46c1.44,0,2.5-.24,3.18-.72s1.03-1.23,1.03-2.26-.35-1.74-1.05-2.17-1.78-.64-3.24-.64h-1.38v5.79Z"/>
    <path d="M375.58,17.2c0,3.54-.88,6.27-2.64,8.17s-4.28,2.86-7.56,2.86-5.8-.95-7.56-2.86-2.64-4.64-2.64-8.2.88-6.29,2.64-8.17,4.29-2.82,7.58-2.82,5.81.95,7.55,2.84,2.61,4.62,2.61,8.17ZM359.95,17.2c0,2.39.45,4.19,1.36,5.41s2.27,1.82,4.07,1.82c3.62,0,5.43-2.41,5.43-7.22s-1.8-7.24-5.41-7.24c-1.81,0-3.17.61-4.09,1.82s-1.38,3.02-1.38,5.41ZM363.09,4.8v-.4c1.68-1.95,2.83-3.42,3.44-4.41h5.01v.31c-.51.51-1.37,1.26-2.6,2.26s-2.19,1.75-2.88,2.23h-2.97Z"/>
    <path d="M384.56,19.72v8.22h-4.54V6.52h6.24c2.91,0,5.06.53,6.46,1.59s2.09,2.67,2.09,4.83c0,1.26-.35,2.38-1.04,3.36s-1.67,1.75-2.94,2.31c3.22,4.81,5.32,7.92,6.3,9.33h-5.04l-5.11-8.22h-2.42ZM384.56,16.03h1.46c1.44,0,2.5-.24,3.18-.72s1.03-1.23,1.03-2.26-.35-1.74-1.05-2.17-1.78-.64-3.24-.64h-1.38v5.79Z"/>
    <path d="M404.37,19.72v8.22h-4.54V6.52h6.24c2.91,0,5.06.53,6.46,1.59s2.09,2.67,2.09,4.83c0,1.26-.35,2.38-1.04,3.36s-1.67,1.75-2.94,2.31c3.22,4.81,5.32,7.92,6.3,9.33h-5.04l-5.11-8.22h-2.42ZM404.37,16.03h1.46c1.44,0,2.5-.24,3.18-.72s1.03-1.23,1.03-2.26-.35-1.74-1.05-2.17-1.78-.64-3.24-.64h-1.38v5.79Z"/>
    <path d="M439.07,17.2c0,3.54-.88,6.27-2.64,8.17s-4.28,2.86-7.56,2.86-5.8-.95-7.56-2.86-2.64-4.64-2.64-8.2.88-6.29,2.64-8.17,4.29-2.82,7.58-2.82,5.81.95,7.55,2.84,2.61,4.62,2.61,8.17ZM423.44,17.2c0,2.39.45,4.19,1.36,5.41s2.27,1.82,4.07,1.82c3.62,0,5.43-2.41,5.43-7.22s-1.8-7.24-5.41-7.24c-1.81,0-3.17.61-4.09,1.82s-1.38,3.02-1.38,5.41Z"/>
    <path d="M451.64,15.91h8.5v11.1c-1.38.45-2.67.76-3.89.94s-2.46.27-3.73.27c-3.23,0-5.7-.95-7.4-2.85s-2.56-4.63-2.56-8.18.99-6.15,2.97-8.09,4.72-2.9,8.23-2.9c2.2,0,4.32.44,6.36,1.32l-1.51,3.63c-1.56-.78-3.19-1.17-4.88-1.17-1.96,0-3.54.66-4.72,1.98s-1.77,3.09-1.77,5.32.48,4.1,1.43,5.32,2.34,1.84,4.15,1.84c.95,0,1.91-.1,2.89-.29v-4.47h-4.06v-3.78Z"/>
    <path d="M478.34,27.93l-1.55-5.1h-7.81l-1.55,5.1h-4.89l7.56-21.5h5.55l7.59,21.5h-4.89ZM475.7,19.03c-1.44-4.62-2.24-7.23-2.42-7.84s-.31-1.08-.39-1.44c-.32,1.25-1.25,4.34-2.77,9.27h5.58Z"/>
    <path d="M503.42,27.93h-4.53v-12.39l.04-2.04.07-2.23c-.75.75-1.27,1.25-1.57,1.48l-2.46,1.98-2.18-2.72,6.9-5.49h3.72v21.42Z"/>
  </g>
  <g>
    <path d="M640.15,13.2c0,2.3-.72,4.07-2.16,5.29s-3.49,1.83-6.15,1.83h-1.95v7.62h-4.54V6.52h6.84c2.6,0,4.57.56,5.93,1.68s2.03,2.79,2.03,5ZM629.89,16.6h1.49c1.4,0,2.44-.28,3.13-.83s1.04-1.35,1.04-2.41-.29-1.85-.87-2.36-1.49-.76-2.73-.76h-2.07v6.36Z"/>
    <path d="M648.73,19.72v8.22h-4.54V6.52h6.24c2.91,0,5.06.53,6.46,1.59s2.09,2.67,2.09,4.83c0,1.26-.35,2.38-1.04,3.36s-1.67,1.75-2.94,2.31c3.22,4.81,5.32,7.92,6.3,9.33h-5.04l-5.11-8.22h-2.42ZM648.73,16.03h1.46c1.44,0,2.5-.24,3.18-.72s1.03-1.23,1.03-2.26-.35-1.74-1.05-2.17-1.78-.64-3.24-.64h-1.38v5.79Z"/>
    <path d="M683.44,17.2c0,3.54-.88,6.27-2.64,8.17s-4.28,2.86-7.56,2.86-5.8-.95-7.56-2.86-2.64-4.64-2.64-8.2.88-6.29,2.64-8.17,4.29-2.82,7.58-2.82,5.81.95,7.55,2.84,2.61,4.62,2.61,8.17ZM667.81,17.2c0,2.39.45,4.19,1.36,5.41s2.27,1.82,4.07,1.82c3.62,0,5.43-2.41,5.43-7.22s-1.8-7.24-5.41-7.24c-1.81,0-3.17.61-4.09,1.82s-1.38,3.02-1.38,5.41ZM670.94,4.8v-.4c1.68-1.95,2.83-3.42,3.44-4.41h5.01v.31c-.51.51-1.37,1.26-2.6,2.26s-2.19,1.75-2.88,2.23h-2.97Z"/>
    <path d="M692.41,19.72v8.22h-4.54V6.52h6.24c2.91,0,5.06.53,6.46,1.59s2.09,2.67,2.09,4.83c0,1.26-.35,2.38-1.04,3.36s-1.67,1.75-2.94,2.31c3.22,4.81,5.32,7.92,6.3,9.33h-5.04l-5.11-8.22h-2.42ZM692.41,16.03h1.46c1.44,0,2.5-.24,3.18-.72s1.03-1.23,1.03-2.26-.35-1.74-1.05-2.17-1.78-.64-3.24-.64h-1.38v5.79Z"/>
    <path d="M712.22,19.72v8.22h-4.54V6.52h6.24c2.91,0,5.06.53,6.46,1.59s2.09,2.67,2.09,4.83c0,1.26-.35,2.38-1.04,3.36s-1.67,1.75-2.94,2.31c3.22,4.81,5.32,7.92,6.3,9.33h-5.04l-5.11-8.22h-2.42ZM712.22,16.03h1.46c1.44,0,2.5-.24,3.18-.72s1.03-1.23,1.03-2.26-.35-1.74-1.05-2.17-1.78-.64-3.24-.64h-1.38v5.79Z"/>
    <path d="M746.92,17.2c0,3.54-.88,6.27-2.64,8.17s-4.28,2.86-7.56,2.86-5.8-.95-7.56-2.86-2.64-4.64-2.64-8.2.88-6.29,2.64-8.17,4.29-2.82,7.58-2.82,5.81.95,7.55,2.84,2.61,4.62,2.61,8.17ZM731.29,17.2c0,2.39.45,4.19,1.36,5.41s2.27,1.82,4.07,1.82c3.62,0,5.43-2.41,5.43-7.22s-1.8-7.24-5.41-7.24c-1.81,0-3.17.61-4.09,1.82s-1.38,3.02-1.38,5.41Z"/>
    <path d="M759.49,15.91h8.5v11.1c-1.38.45-2.67.76-3.89.94s-2.46.27-3.73.27c-3.23,0-5.7-.95-7.4-2.85s-2.56-4.63-2.56-8.18.99-6.15,2.97-8.09,4.72-2.9,8.23-2.9c2.2,0,4.32.44,6.36,1.32l-1.51,3.63c-1.56-.78-3.19-1.17-4.88-1.17-1.96,0-3.54.66-4.72,1.98s-1.77,3.09-1.77,5.32.48,4.1,1.43,5.32,2.34,1.84,4.15,1.84c.95,0,1.91-.1,2.89-.29v-4.47h-4.06v-3.78Z"/>
    <path d="M786.19,27.93l-1.55-5.1h-7.81l-1.55,5.1h-4.89l7.56-21.5h5.55l7.59,21.5h-4.89ZM783.56,19.03c-1.44-4.62-2.24-7.23-2.42-7.84s-.31-1.08-.39-1.44c-.32,1.25-1.25,4.34-2.77,9.27h5.58Z"/>
    <path d="M815.05,27.93h-14.97v-3.15l5.38-5.43c1.59-1.63,2.63-2.76,3.12-3.39s.84-1.21,1.05-1.75.32-1.09.32-1.67c0-.86-.24-1.5-.71-1.92s-1.11-.63-1.9-.63c-.83,0-1.64.19-2.42.57s-1.6.92-2.45,1.63l-2.46-2.92c1.05-.9,1.93-1.53,2.62-1.9s1.45-.66,2.27-.86,1.74-.3,2.75-.3c1.34,0,2.52.24,3.54.73s1.82,1.17,2.39,2.05.85,1.88.85,3.02c0,.99-.17,1.91-.52,2.78s-.88,1.75-1.61,2.66-2.01,2.2-3.85,3.88l-2.75,2.59v.21h9.33v3.81Z"/>
  </g>
  <g>
    <path d="M926.64,13.2c0,2.3-.72,4.07-2.16,5.29s-3.49,1.83-6.15,1.83h-1.95v7.62h-4.54V6.52h6.84c2.6,0,4.57.56,5.93,1.68s2.03,2.79,2.03,5ZM916.39,16.6h1.49c1.4,0,2.44-.28,3.13-.83s1.04-1.35,1.04-2.41-.29-1.85-.87-2.36-1.49-.76-2.73-.76h-2.07v6.36Z"/>
    <path d="M935.23,19.72v8.22h-4.54V6.52h6.24c2.91,0,5.06.53,6.46,1.59s2.09,2.67,2.09,4.83c0,1.26-.35,2.38-1.04,3.36s-1.67,1.75-2.94,2.31c3.22,4.81,5.32,7.92,6.3,9.33h-5.04l-5.11-8.22h-2.42ZM935.23,16.03h1.46c1.44,0,2.5-.24,3.18-.72s1.02-1.23,1.02-2.26-.35-1.74-1.05-2.17-1.78-.64-3.24-.64h-1.38v5.79Z"/>
    <path d="M969.93,17.2c0,3.54-.88,6.27-2.64,8.17s-4.28,2.86-7.56,2.86-5.8-.95-7.56-2.86-2.64-4.64-2.64-8.2.88-6.29,2.64-8.17,4.29-2.82,7.58-2.82,5.81.95,7.55,2.84,2.61,4.62,2.61,8.17ZM954.3,17.2c0,2.39.45,4.19,1.36,5.41s2.27,1.82,4.07,1.82c3.62,0,5.43-2.41,5.43-7.22s-1.8-7.24-5.41-7.24c-1.81,0-3.17.61-4.09,1.82s-1.38,3.02-1.38,5.41ZM957.43,4.8v-.4c1.68-1.95,2.83-3.42,3.44-4.41h5.01v.31c-.51.51-1.37,1.26-2.6,2.26s-2.19,1.75-2.88,2.23h-2.97Z"/>
    <path d="M978.91,19.72v8.22h-4.54V6.52h6.24c2.91,0,5.06.53,6.46,1.59s2.09,2.67,2.09,4.83c0,1.26-.35,2.38-1.04,3.36s-1.67,1.75-2.94,2.31c3.22,4.81,5.32,7.92,6.3,9.33h-5.04l-5.11-8.22h-2.42ZM978.91,16.03h1.46c1.44,0,2.5-.24,3.18-.72s1.03-1.23,1.03-2.26-.35-1.74-1.05-2.17-1.78-.64-3.25-.64h-1.38v5.79Z"/>
    <path d="M998.71,19.72v8.22h-4.54V6.52h6.24c2.91,0,5.06.53,6.46,1.59s2.09,2.67,2.09,4.83c0,1.26-.35,2.38-1.04,3.36s-1.67,1.75-2.94,2.31c3.22,4.81,5.32,7.92,6.3,9.33h-5.04l-5.11-8.22h-2.42ZM998.71,16.03h1.46c1.44,0,2.5-.24,3.18-.72s1.03-1.23,1.03-2.26-.35-1.74-1.05-2.17-1.78-.64-3.25-.64h-1.38v5.79Z"/>
    <path d="M1033.41,17.2c0,3.54-.88,6.27-2.64,8.17s-4.28,2.86-7.56,2.86-5.8-.95-7.56-2.86-2.64-4.64-2.64-8.2.88-6.29,2.64-8.17,4.29-2.82,7.58-2.82,5.81.95,7.55,2.84,2.61,4.62,2.61,8.17ZM1017.78,17.2c0,2.39.45,4.19,1.36,5.41s2.27,1.82,4.07,1.82c3.62,0,5.43-2.41,5.43-7.22s-1.8-7.24-5.41-7.24c-1.81,0-3.17.61-4.09,1.82s-1.38,3.02-1.38,5.41Z"/>
    <path d="M1045.98,15.91h8.5v11.1c-1.38.45-2.67.76-3.89.94s-2.46.27-3.73.27c-3.23,0-5.7-.95-7.4-2.85s-2.56-4.63-2.56-8.18.99-6.15,2.97-8.09,4.72-2.9,8.22-2.9c2.2,0,4.32.44,6.36,1.32l-1.51,3.63c-1.56-.78-3.19-1.17-4.88-1.17-1.96,0-3.54.66-4.72,1.98s-1.77,3.09-1.77,5.32.48,4.1,1.43,5.32,2.34,1.84,4.15,1.84c.95,0,1.91-.1,2.89-.29v-4.47h-4.06v-3.78Z"/>
    <path d="M1072.69,27.93l-1.55-5.1h-7.81l-1.55,5.1h-4.89l7.56-21.5h5.55l7.59,21.5h-4.89ZM1070.05,19.03c-1.44-4.62-2.24-7.23-2.42-7.84s-.31-1.08-.39-1.44c-.32,1.25-1.25,4.34-2.77,9.27h5.58Z"/>
    <path d="M1100.71,11.31c0,1.34-.41,2.48-1.22,3.41s-1.95,1.58-3.41,1.93v.09c1.73.21,3.04.74,3.93,1.57s1.33,1.96,1.33,3.38c0,2.06-.75,3.66-2.24,4.81s-3.63,1.72-6.4,1.72c-2.32,0-4.38-.39-6.18-1.16v-3.85c.83.42,1.74.76,2.74,1.03s1.98.4,2.96.4c1.49,0,2.6-.25,3.31-.76s1.07-1.32,1.07-2.45c0-1.01-.41-1.72-1.23-2.14s-2.13-.63-3.93-.63h-1.63v-3.47h1.66c1.66,0,2.87-.22,3.64-.65s1.15-1.18,1.15-2.23c0-1.62-1.02-2.43-3.05-2.43-.7,0-1.42.12-2.15.35s-1.54.64-2.42,1.22l-2.09-3.12c1.95-1.41,4.28-2.11,6.99-2.11,2.22,0,3.97.45,5.25,1.35s1.93,2.15,1.93,3.75Z"/>
  </g>
  <g>
    <path d="M1216.42,13.2c0,2.3-.72,4.07-2.16,5.29s-3.49,1.83-6.14,1.83h-1.95v7.62h-4.54V6.52h6.84c2.6,0,4.57.56,5.92,1.68s2.03,2.79,2.03,5ZM1206.17,16.6h1.49c1.4,0,2.44-.28,3.13-.83s1.04-1.35,1.04-2.41-.29-1.85-.87-2.36-1.49-.76-2.73-.76h-2.07v6.36Z"/>
    <path d="M1225,19.72v8.22h-4.54V6.52h6.24c2.91,0,5.06.53,6.46,1.59s2.09,2.67,2.09,4.83c0,1.26-.35,2.38-1.04,3.36s-1.67,1.75-2.94,2.31c3.22,4.81,5.32,7.92,6.3,9.33h-5.04l-5.11-8.22h-2.42ZM1225,16.03h1.46c1.44,0,2.5-.24,3.18-.72s1.03-1.23,1.03-2.26-.35-1.74-1.05-2.17-1.78-.64-3.24-.64h-1.38v5.79Z"/>
    <path d="M1259.71,17.2c0,3.54-.88,6.27-2.64,8.17s-4.28,2.86-7.56,2.86-5.8-.95-7.56-2.86-2.64-4.64-2.64-8.2.88-6.29,2.64-8.17,4.29-2.82,7.58-2.82,5.81.95,7.55,2.84,2.62,4.62,2.62,8.17ZM1244.08,17.2c0,2.39.45,4.19,1.36,5.41s2.27,1.82,4.07,1.82c3.62,0,5.43-2.41,5.43-7.22s-1.8-7.24-5.41-7.24c-1.81,0-3.17.61-4.09,1.82s-1.38,3.02-1.38,5.41ZM1247.21,4.8v-.4c1.68-1.95,2.83-3.42,3.44-4.41h5.01v.31c-.51.51-1.38,1.26-2.6,2.26s-2.18,1.75-2.88,2.23h-2.97Z"/>
    <path d="M1268.69,19.72v8.22h-4.54V6.52h6.24c2.91,0,5.06.53,6.46,1.59s2.09,2.67,2.09,4.83c0,1.26-.35,2.38-1.04,3.36s-1.67,1.75-2.94,2.31c3.22,4.81,5.32,7.92,6.3,9.33h-5.04l-5.11-8.22h-2.42ZM1268.69,16.03h1.46c1.44,0,2.5-.24,3.18-.72s1.03-1.23,1.03-2.26-.35-1.74-1.05-2.17-1.78-.64-3.24-.64h-1.38v5.79Z"/>
    <path d="M1288.49,19.72v8.22h-4.54V6.52h6.24c2.91,0,5.06.53,6.46,1.59s2.09,2.67,2.09,4.83c0,1.26-.35,2.38-1.04,3.36s-1.67,1.75-2.94,2.31c3.22,4.81,5.32,7.92,6.3,9.33h-5.04l-5.11-8.22h-2.42ZM1288.49,16.03h1.46c1.44,0,2.5-.24,3.18-.72s1.03-1.23,1.03-2.26-.35-1.74-1.05-2.17-1.78-.64-3.24-.64h-1.38v5.79Z"/>
    <path d="M1323.19,17.2c0,3.54-.88,6.27-2.64,8.17s-4.28,2.86-7.56,2.86-5.8-.95-7.56-2.86-2.64-4.64-2.64-8.2.88-6.29,2.64-8.17,4.29-2.82,7.58-2.82,5.81.95,7.55,2.84,2.62,4.62,2.62,8.17ZM1307.56,17.2c0,2.39.45,4.19,1.36,5.41s2.27,1.82,4.07,1.82c3.62,0,5.43-2.41,5.43-7.22s-1.8-7.24-5.41-7.24c-1.81,0-3.17.61-4.09,1.82s-1.38,3.02-1.38,5.41Z"/>
    <path d="M1335.76,15.91h8.5v11.1c-1.38.45-2.67.76-3.89.94s-2.46.27-3.73.27c-3.23,0-5.7-.95-7.41-2.85s-2.56-4.63-2.56-8.18.99-6.15,2.97-8.09,4.72-2.9,8.23-2.9c2.2,0,4.32.44,6.36,1.32l-1.51,3.63c-1.56-.78-3.19-1.17-4.88-1.17-1.96,0-3.54.66-4.72,1.98s-1.77,3.09-1.77,5.32.48,4.1,1.43,5.32,2.34,1.84,4.15,1.84c.95,0,1.91-.1,2.89-.29v-4.47h-4.06v-3.78Z"/>
    <path d="M1362.47,27.93l-1.55-5.1h-7.81l-1.55,5.1h-4.89l7.56-21.5h5.55l7.59,21.5h-4.89ZM1359.83,19.03c-1.44-4.62-2.24-7.23-2.42-7.84s-.31-1.08-.39-1.44c-.32,1.25-1.25,4.34-2.77,9.27h5.58Z"/>
    <path d="M1391.81,23.5h-2.58v4.44h-4.42v-4.44h-9.14v-3.15l9.39-13.83h4.17v13.46h2.58v3.52ZM1384.8,19.98v-3.63c0-.61.02-1.48.07-2.64s.09-1.82.12-2.01h-.12c-.36.8-.8,1.58-1.3,2.34l-3.93,5.93h5.16Z"/>
  </g>
  <g>
    <path d="M628.95,138.01c0,2.95-.8,5.2-2.4,6.76-1.6,1.56-3.9,2.34-6.9,2.34h-4.94v-17.85h5.47c2.77,0,4.93.77,6.47,2.31s2.31,3.69,2.31,6.45ZM626.75,138.08c0-2.33-.58-4.08-1.75-5.26-1.17-1.18-2.9-1.77-5.21-1.77h-3.02v14.26h2.53c2.47,0,4.33-.61,5.58-1.82,1.25-1.22,1.87-3.02,1.87-5.4Z"/>
    <path d="M638.27,147.35c-1.98,0-3.54-.6-4.68-1.81-1.14-1.2-1.72-2.88-1.72-5.02s.53-3.87,1.59-5.14c1.06-1.27,2.49-1.9,4.28-1.9,1.68,0,3,.55,3.98,1.65.98,1.1,1.46,2.56,1.46,4.36v1.28h-9.22c.04,1.57.44,2.76,1.19,3.58.75.81,1.81,1.22,3.18,1.22,1.44,0,2.86-.3,4.27-.9v1.81c-.72.31-1.39.53-2.03.67-.64.13-1.41.2-2.31.2ZM637.72,135.18c-1.07,0-1.93.35-2.57,1.05-.64.7-1.02,1.67-1.13,2.91h6.99c0-1.28-.29-2.26-.85-2.94-.57-.68-1.38-1.02-2.44-1.02Z"/>
    <path d="M648.67,147.1h-2.03v-18.99h2.03v18.99Z"/>
    <path d="M666.04,147.1h-1.98v-12.72c0-1.06.03-2.06.1-3-.17.17-.36.35-.57.54-.21.19-1.18.98-2.91,2.38l-1.07-1.39,4.72-3.65h1.71v17.85Z"/>
    <path d="M683.89,133.46c0,1.14-.32,2.07-.96,2.8-.64.72-1.54,1.21-2.72,1.45v.1c1.43.18,2.49.63,3.19,1.37.69.73,1.04,1.69,1.04,2.88,0,1.7-.59,3.01-1.77,3.92-1.18.92-2.86,1.37-5.03,1.37-.94,0-1.81-.07-2.59-.21-.79-.14-1.55-.39-2.29-.75v-1.93c.77.38,1.6.67,2.47.87.88.2,1.7.3,2.48.3,3.08,0,4.63-1.21,4.63-3.63,0-2.16-1.7-3.25-5.1-3.25h-1.76v-1.75h1.78c1.39,0,2.49-.31,3.31-.92.81-.61,1.22-1.47,1.22-2.56,0-.87-.3-1.55-.9-2.05-.6-.5-1.41-.74-2.44-.74-.78,0-1.52.11-2.21.32-.69.21-1.48.6-2.37,1.17l-1.03-1.37c.73-.58,1.58-1.03,2.53-1.36.96-.33,1.96-.49,3.02-.49,1.73,0,3.08.4,4.04,1.19.96.79,1.44,1.88,1.44,3.27Z"/>
    <path d="M703.65,145.31h-.11c-.94,1.36-2.34,2.04-4.2,2.04-1.75,0-3.11-.6-4.08-1.79-.97-1.2-1.46-2.9-1.46-5.1s.49-3.92,1.46-5.14,2.34-1.83,4.08-1.83,3.21.66,4.17,1.98h.16l-.09-.96-.05-.94v-5.44h2.03v18.99h-1.65l-.27-1.79ZM699.6,145.65c1.38,0,2.39-.38,3.01-1.13.62-.75.93-1.97.93-3.64v-.43c0-1.9-.32-3.25-.95-4.06-.63-.81-1.64-1.21-3.02-1.21-1.19,0-2.1.46-2.73,1.39-.63.92-.95,2.23-.95,3.91s.31,3,.94,3.87c.63.87,1.55,1.31,2.76,1.31Z"/>
    <path d="M715.52,147.35c-1.98,0-3.54-.6-4.68-1.81-1.14-1.2-1.72-2.88-1.72-5.02s.53-3.87,1.59-5.14c1.06-1.27,2.49-1.9,4.28-1.9,1.68,0,3,.55,3.98,1.65.98,1.1,1.46,2.56,1.46,4.36v1.28h-9.22c.04,1.57.44,2.76,1.19,3.58.75.81,1.81,1.22,3.18,1.22,1.44,0,2.86-.3,4.27-.9v1.81c-.72.31-1.39.53-2.03.67-.64.13-1.41.2-2.31.2ZM714.97,135.18c-1.07,0-1.93.35-2.57,1.05-.64.7-1.02,1.67-1.13,2.91h6.99c0-1.28-.29-2.26-.85-2.94-.57-.68-1.38-1.02-2.44-1.02Z"/>
    <path d="M739.02,143.45c0,1.25-.46,2.21-1.39,2.88-.93.68-2.23,1.01-3.91,1.01-1.77,0-3.16-.28-4.15-.84v-1.88c.64.33,1.33.58,2.07.77.74.19,1.45.28,2.13.28,1.06,0,1.87-.17,2.44-.51.57-.34.85-.85.85-1.54,0-.52-.23-.97-.68-1.34-.45-.37-1.33-.81-2.64-1.31-1.25-.46-2.13-.87-2.65-1.21-.53-.35-.92-.74-1.17-1.18-.26-.44-.38-.96-.38-1.57,0-1.09.44-1.95,1.33-2.58.89-.63,2.1-.95,3.65-.95,1.44,0,2.85.29,4.22.88l-.72,1.65c-1.34-.55-2.56-.83-3.65-.83-.96,0-1.68.15-2.17.45-.49.3-.73.72-.73,1.25,0,.36.09.66.27.92.18.25.48.49.89.72.41.23,1.19.56,2.34.99,1.59.58,2.66,1.16,3.22,1.75.56.59.84,1.32.84,2.21Z"/>
    <path d="M747.96,147.35c-1.98,0-3.54-.6-4.68-1.81-1.14-1.2-1.72-2.88-1.72-5.02s.53-3.87,1.59-5.14c1.06-1.27,2.49-1.9,4.28-1.9,1.68,0,3,.55,3.98,1.65.98,1.1,1.46,2.56,1.46,4.36v1.28h-9.22c.04,1.57.44,2.76,1.19,3.58.75.81,1.81,1.22,3.18,1.22,1.44,0,2.86-.3,4.27-.9v1.81c-.72.31-1.39.53-2.03.67-.64.13-1.41.2-2.31.2ZM747.41,135.18c-1.07,0-1.93.35-2.57,1.05-.64.7-1.02,1.67-1.13,2.91h6.99c0-1.28-.29-2.26-.85-2.94-.57-.68-1.38-1.02-2.44-1.02Z"/>
    <path d="M762.56,147.35c-.87,0-1.67-.16-2.39-.48-.72-.32-1.32-.82-1.81-1.48h-.15c.1.78.15,1.52.15,2.22v5.51h-2.03v-19.38h1.65l.28,1.83h.1c.52-.73,1.13-1.26,1.82-1.59.69-.33,1.48-.49,2.38-.49,1.77,0,3.14.61,4.11,1.82.96,1.21,1.45,2.91,1.45,5.1s-.49,3.9-1.47,5.12c-.98,1.22-2.34,1.83-4.08,1.83ZM762.27,135.2c-1.37,0-2.36.38-2.97,1.14s-.92,1.96-.94,3.61v.45c0,1.88.31,3.22.94,4.03.63.81,1.63,1.21,3.02,1.21,1.16,0,2.06-.47,2.72-1.4.66-.94.98-2.23.98-3.87s-.33-2.95-.98-3.84c-.65-.89-1.58-1.34-2.76-1.34Z"/>
    <path d="M775.98,145.67c.36,0,.7-.03,1.04-.08.33-.05.6-.11.79-.16v1.55c-.22.11-.54.19-.97.26-.43.07-.81.1-1.15.1-2.59,0-3.88-1.36-3.88-4.09v-7.96h-1.92v-.98l1.92-.84.85-2.86h1.17v3.1h3.88v1.57h-3.88v7.87c0,.81.19,1.42.57,1.86.38.43.91.65,1.57.65Z"/>
    <path d="M780.31,130.1c0-.46.11-.8.34-1.02.23-.22.51-.32.85-.32s.61.11.84.33c.24.22.35.56.35,1.01s-.12.8-.35,1.02c-.24.22-.52.34-.84.34-.34,0-.63-.11-.85-.34-.23-.22-.34-.56-.34-1.02ZM782.51,147.1h-2.03v-13.38h2.03v13.38Z"/>
    <path d="M792.46,147.35c-1.98,0-3.54-.6-4.68-1.81-1.14-1.2-1.72-2.88-1.72-5.02s.53-3.87,1.59-5.14c1.06-1.27,2.49-1.9,4.28-1.9,1.68,0,3,.55,3.98,1.65.98,1.1,1.46,2.56,1.46,4.36v1.28h-9.22c.04,1.57.44,2.76,1.19,3.58.75.81,1.81,1.22,3.18,1.22,1.44,0,2.86-.3,4.27-.9v1.81c-.72.31-1.39.53-2.03.67-.64.13-1.41.2-2.31.2ZM791.91,135.18c-1.07,0-1.93.35-2.57,1.05-.64.7-1.02,1.67-1.13,2.91h6.99c0-1.28-.29-2.26-.85-2.94-.57-.68-1.38-1.02-2.44-1.02Z"/>
    <path d="M817.89,147.1v-8.7c0-1.07-.23-1.87-.68-2.4-.46-.53-1.16-.8-2.12-.8-1.26,0-2.19.36-2.8,1.09-.6.72-.9,1.84-.9,3.34v7.47h-2.03v-8.7c0-1.07-.23-1.87-.68-2.4-.46-.53-1.17-.8-2.14-.8-1.27,0-2.2.38-2.79,1.14-.59.76-.88,2.01-.88,3.74v7.02h-2.03v-13.38h1.65l.33,1.83h.1c.38-.65.92-1.16,1.62-1.53.7-.37,1.48-.55,2.34-.55,2.09,0,3.46.76,4.1,2.27h.1c.4-.7.98-1.25,1.73-1.66.76-.41,1.62-.61,2.59-.61,1.51,0,2.65.39,3.4,1.17.75.78,1.13,2.02,1.13,3.73v8.73h-2.03Z"/>
    <path d="M830.31,133.5c1.76,0,3.12.6,4.1,1.8.97,1.2,1.46,2.9,1.46,5.1s-.49,3.9-1.47,5.12c-.98,1.22-2.34,1.83-4.08,1.83-.87,0-1.67-.16-2.39-.48-.72-.32-1.32-.82-1.81-1.48h-.15l-.43,1.72h-1.45v-18.99h2.03v4.61c0,1.03-.03,1.96-.1,2.78h.1c.94-1.33,2.34-2,4.2-2ZM830.02,135.2c-1.38,0-2.38.4-2.99,1.19-.61.79-.92,2.13-.92,4.01s.31,3.22.94,4.03c.63.81,1.63,1.21,3.02,1.21,1.25,0,2.17-.45,2.78-1.36.61-.91.92-2.21.92-3.91s-.31-3.04-.92-3.89-1.55-1.28-2.83-1.28Z"/>
    <path d="M845.51,133.48c.59,0,1.13.05,1.6.15l-.28,1.88c-.55-.12-1.04-.18-1.46-.18-1.08,0-2.01.44-2.78,1.32-.77.88-1.15,1.97-1.15,3.28v7.18h-2.03v-13.38h1.67l.23,2.48h.1c.5-.87,1.09-1.54,1.79-2.01.7-.47,1.47-.71,2.31-.71Z"/>
    <path d="M855.26,147.35c-1.98,0-3.54-.6-4.68-1.81-1.14-1.2-1.72-2.88-1.72-5.02s.53-3.87,1.59-5.14c1.06-1.27,2.49-1.9,4.28-1.9,1.68,0,3,.55,3.98,1.65.98,1.1,1.46,2.56,1.46,4.36v1.28h-9.22c.04,1.57.44,2.76,1.19,3.58.75.81,1.81,1.22,3.18,1.22,1.44,0,2.86-.3,4.27-.9v1.81c-.72.31-1.39.53-2.03.67-.64.13-1.41.2-2.31.2ZM854.71,135.18c-1.07,0-1.93.35-2.57,1.05-.64.7-1.02,1.67-1.13,2.91h6.99c0-1.28-.29-2.26-.85-2.94-.57-.68-1.38-1.02-2.44-1.02Z"/>
    <path d="M623.5,175.31h-.11c-.94,1.36-2.34,2.04-4.2,2.04-1.75,0-3.11-.6-4.08-1.79-.97-1.2-1.46-2.9-1.46-5.1s.49-3.92,1.46-5.14,2.34-1.83,4.08-1.83,3.21.66,4.17,1.98h.16l-.09-.96-.05-.94v-5.44h2.03v18.99h-1.65l-.27-1.79ZM619.45,175.65c1.38,0,2.39-.38,3.01-1.13.62-.75.93-1.97.93-3.64v-.43c0-1.9-.32-3.25-.95-4.06-.63-.81-1.64-1.21-3.02-1.21-1.19,0-2.1.46-2.73,1.39-.63.92-.95,2.23-.95,3.91s.31,3,.94,3.87c.63.87,1.55,1.31,2.76,1.31Z"/>
    <path d="M635.37,177.35c-1.98,0-3.54-.6-4.68-1.81-1.14-1.2-1.72-2.88-1.72-5.02s.53-3.87,1.59-5.14c1.06-1.27,2.49-1.9,4.28-1.9,1.68,0,3,.55,3.98,1.65.98,1.1,1.46,2.56,1.46,4.36v1.28h-9.22c.04,1.57.44,2.76,1.19,3.58.75.81,1.81,1.22,3.18,1.22,1.44,0,2.86-.3,4.27-.9v1.81c-.72.31-1.39.53-2.03.67-.64.13-1.41.2-2.31.2ZM634.82,165.18c-1.07,0-1.93.35-2.57,1.05-.64.7-1.02,1.67-1.13,2.91h6.99c0-1.28-.29-2.26-.85-2.94-.57-.68-1.38-1.02-2.44-1.02Z"/>
    <path d="M661.04,177.1h-11.73v-1.75l4.7-4.72c1.43-1.45,2.38-2.48,2.83-3.1.46-.62.8-1.22,1.03-1.81.23-.59.34-1.22.34-1.89,0-.95-.29-1.71-.87-2.26-.58-.56-1.38-.84-2.4-.84-.74,0-1.44.12-2.11.37-.66.24-1.4.69-2.22,1.33l-1.07-1.38c1.64-1.37,3.43-2.05,5.37-2.05,1.68,0,2.99.43,3.94,1.29.95.86,1.43,2.01,1.43,3.46,0,1.13-.32,2.25-.95,3.36-.63,1.11-1.82,2.51-3.56,4.2l-3.91,3.82v.1h9.18v1.88Z"/>
    <path d="M675.43,168.15c0,3.08-.49,5.39-1.46,6.91-.97,1.52-2.46,2.28-4.46,2.28s-3.38-.78-4.38-2.34c-1-1.56-1.5-3.84-1.5-6.85s.48-5.42,1.45-6.92c.97-1.51,2.45-2.26,4.43-2.26s3.41.79,4.41,2.36c1,1.57,1.51,3.85,1.51,6.82ZM665.68,168.15c0,2.6.31,4.49.92,5.67.61,1.18,1.58,1.78,2.92,1.78s2.33-.6,2.94-1.8c.61-1.2.91-3.08.91-5.65s-.3-4.44-.91-5.63c-.61-1.19-1.58-1.79-2.94-1.79s-2.31.59-2.92,1.76c-.61,1.18-.92,3.06-.92,5.66Z"/>
    <path d="M689.63,177.1h-11.73v-1.75l4.7-4.72c1.43-1.45,2.38-2.48,2.83-3.1.46-.62.8-1.22,1.03-1.81.23-.59.34-1.22.34-1.89,0-.95-.29-1.71-.87-2.26-.58-.56-1.38-.84-2.4-.84-.74,0-1.44.12-2.11.37-.66.24-1.4.69-2.22,1.33l-1.07-1.38c1.64-1.37,3.43-2.05,5.37-2.05,1.68,0,2.99.43,3.94,1.29.95.86,1.43,2.01,1.43,3.46,0,1.13-.32,2.25-.95,3.36-.63,1.11-1.82,2.51-3.56,4.2l-3.91,3.82v.1h9.18v1.88Z"/>
    <path d="M704.76,173h-2.65v4.1h-1.94v-4.1h-8.68v-1.77l8.47-12.07h2.15v12h2.65v1.84ZM700.17,171.16v-5.93c0-1.16.04-2.48.12-3.94h-.1c-.39.78-.76,1.43-1.1,1.94l-5.58,7.93h6.65Z"/>
    <path d="M722.13,177.1l-.4-1.9h-.1c-.67.84-1.33,1.41-2,1.7-.66.3-1.49.45-2.48.45-1.33,0-2.37-.34-3.12-1.03-.75-.68-1.13-1.66-1.13-2.92,0-2.7,2.16-4.12,6.48-4.25l2.27-.07v-.83c0-1.05-.23-1.82-.68-2.33-.45-.5-1.17-.75-2.17-.75-1.12,0-2.38.34-3.78,1.03l-.62-1.55c.66-.36,1.38-.64,2.17-.84.79-.2,1.57-.31,2.36-.31,1.59,0,2.78.35,3.55,1.06.77.71,1.15,1.84,1.15,3.41v9.13h-1.5ZM717.56,175.67c1.26,0,2.25-.35,2.97-1.04.72-.69,1.08-1.66,1.08-2.91v-1.21l-2.03.09c-1.61.06-2.77.31-3.48.75-.71.44-1.07,1.13-1.07,2.07,0,.73.22,1.29.67,1.67.44.38,1.06.57,1.86.57Z"/>
    <path d="M729.84,177.1h-2.03v-18.99h2.03v18.99Z"/>
    <path d="M747.21,177.1h-1.98v-12.72c0-1.06.03-2.06.1-3-.17.17-.36.35-.57.54-.21.19-1.18.98-2.91,2.38l-1.07-1.39,4.72-3.65h1.71v17.85Z"/>
    <path d="M765.73,177.1h-11.73v-1.75l4.7-4.72c1.43-1.45,2.38-2.48,2.83-3.1.46-.62.8-1.22,1.03-1.81.23-.59.34-1.22.34-1.89,0-.95-.29-1.71-.87-2.26-.58-.56-1.38-.84-2.4-.84-.74,0-1.44.12-2.11.37-.66.24-1.4.69-2.22,1.33l-1.07-1.38c1.64-1.37,3.43-2.05,5.37-2.05,1.68,0,2.99.43,3.94,1.29.95.86,1.43,2.01,1.43,3.46,0,1.13-.32,2.25-.95,3.36-.63,1.11-1.82,2.51-3.56,4.2l-3.91,3.82v.1h9.18v1.88Z"/>
    <path d="M784.82,175.31h-.11c-.94,1.36-2.34,2.04-4.2,2.04-1.75,0-3.11-.6-4.08-1.79-.97-1.2-1.46-2.9-1.46-5.1s.49-3.92,1.46-5.14,2.34-1.83,4.08-1.83,3.21.66,4.17,1.98h.16l-.09-.96-.05-.94v-5.44h2.03v18.99h-1.65l-.27-1.79ZM780.76,175.65c1.38,0,2.39-.38,3.01-1.13.62-.75.93-1.97.93-3.64v-.43c0-1.9-.32-3.25-.95-4.06-.63-.81-1.64-1.21-3.02-1.21-1.19,0-2.1.46-2.73,1.39-.63.92-.95,2.23-.95,3.91s.31,3,.94,3.87c.63.87,1.55,1.31,2.76,1.31Z"/>
    <path d="M796.68,177.35c-1.98,0-3.54-.6-4.68-1.81-1.14-1.2-1.72-2.88-1.72-5.02s.53-3.87,1.59-5.14c1.06-1.27,2.49-1.9,4.28-1.9,1.68,0,3,.55,3.98,1.65.98,1.1,1.46,2.56,1.46,4.36v1.28h-9.22c.04,1.57.44,2.76,1.19,3.58.75.81,1.81,1.22,3.18,1.22,1.44,0,2.86-.3,4.27-.9v1.81c-.72.31-1.39.53-2.03.67-.64.13-1.41.2-2.31.2ZM796.13,165.18c-1.07,0-1.93.35-2.57,1.05-.64.7-1.02,1.67-1.13,2.91h6.99c0-1.28-.29-2.26-.85-2.94-.57-.68-1.38-1.02-2.44-1.02Z"/>
    <path d="M623.5,205.31h-.11c-.94,1.36-2.34,2.04-4.2,2.04-1.75,0-3.11-.6-4.08-1.79-.97-1.2-1.46-2.9-1.46-5.1s.49-3.92,1.46-5.14,2.34-1.83,4.08-1.83,3.21.66,4.17,1.98h.16l-.09-.96-.05-.94v-5.44h2.03v18.99h-1.65l-.27-1.79ZM619.45,205.65c1.38,0,2.39-.38,3.01-1.13.62-.75.93-1.97.93-3.64v-.43c0-1.9-.32-3.25-.95-4.06-.63-.81-1.64-1.21-3.02-1.21-1.19,0-2.1.46-2.73,1.39-.63.92-.95,2.23-.95,3.91s.31,3,.94,3.87c.63.87,1.55,1.31,2.76,1.31Z"/>
    <path d="M629.54,190.1c0-.46.11-.8.34-1.02.23-.22.51-.32.85-.32s.61.11.84.33c.24.22.35.56.35,1.01s-.12.8-.35,1.02c-.24.22-.52.34-.84.34-.34,0-.63-.11-.85-.34-.23-.22-.34-.56-.34-1.02ZM631.74,207.1h-2.03v-13.38h2.03v13.38Z"/>
    <path d="M641.38,207.35c-1.94,0-3.44-.6-4.5-1.79-1.06-1.19-1.59-2.88-1.59-5.06s.54-3.97,1.62-5.19c1.08-1.22,2.61-1.83,4.61-1.83.64,0,1.29.07,1.93.21.64.14,1.15.3,1.51.49l-.62,1.72c-.45-.18-.94-.33-1.46-.45-.53-.12-1-.18-1.4-.18-2.72,0-4.08,1.73-4.08,5.2,0,1.64.33,2.91.99,3.78.66.88,1.65,1.32,2.95,1.32,1.11,0,2.26-.24,3.43-.72v1.79c-.9.46-2.02.7-3.38.7Z"/>
    <path d="M647.77,190.1c0-.46.11-.8.34-1.02.23-.22.51-.32.85-.32s.61.11.84.33c.24.22.35.56.35,1.01s-.12.8-.35,1.02c-.24.22-.52.34-.84.34-.34,0-.63-.11-.85-.34-.23-.22-.34-.56-.34-1.02ZM649.97,207.1h-2.03v-13.38h2.03v13.38Z"/>
    <path d="M659.91,207.35c-1.98,0-3.54-.6-4.68-1.81-1.14-1.2-1.72-2.88-1.72-5.02s.53-3.87,1.59-5.14c1.06-1.27,2.49-1.9,4.28-1.9,1.68,0,3,.55,3.98,1.65.98,1.1,1.46,2.56,1.46,4.36v1.28h-9.22c.04,1.57.44,2.76,1.19,3.58.75.81,1.81,1.22,3.18,1.22,1.44,0,2.86-.3,4.27-.9v1.81c-.72.31-1.39.53-2.03.67-.64.13-1.41.2-2.31.2ZM659.37,195.18c-1.07,0-1.93.35-2.57,1.05-.64.7-1.02,1.67-1.13,2.91h6.99c0-1.28-.29-2.26-.85-2.94-.57-.68-1.38-1.02-2.44-1.02Z"/>
    <path d="M685.34,207.1v-8.7c0-1.07-.23-1.87-.68-2.4-.46-.53-1.16-.8-2.12-.8-1.26,0-2.19.36-2.8,1.09-.6.72-.9,1.84-.9,3.34v7.47h-2.03v-8.7c0-1.07-.23-1.87-.68-2.4-.46-.53-1.17-.8-2.14-.8-1.27,0-2.2.38-2.79,1.14-.59.76-.88,2.01-.88,3.74v7.02h-2.03v-13.38h1.65l.33,1.83h.1c.38-.65.92-1.16,1.62-1.53.7-.37,1.48-.55,2.34-.55,2.09,0,3.46.76,4.1,2.27h.1c.4-.7.98-1.25,1.73-1.66.76-.41,1.62-.61,2.59-.61,1.51,0,2.65.39,3.4,1.17.75.78,1.13,2.02,1.13,3.73v8.73h-2.03Z"/>
    <path d="M697.77,193.5c1.76,0,3.12.6,4.1,1.8.97,1.2,1.46,2.9,1.46,5.1s-.49,3.9-1.47,5.12c-.98,1.22-2.34,1.83-4.08,1.83-.87,0-1.67-.16-2.39-.48-.72-.32-1.32-.82-1.81-1.48h-.15l-.43,1.72h-1.45v-18.99h2.03v4.61c0,1.03-.03,1.96-.1,2.78h.1c.94-1.33,2.34-2,4.2-2ZM697.48,195.2c-1.38,0-2.38.4-2.99,1.19-.61.79-.92,2.13-.92,4.01s.31,3.22.94,4.03c.63.81,1.63,1.21,3.02,1.21,1.25,0,2.17-.45,2.78-1.36.61-.91.92-2.21.92-3.91s-.31-3.04-.92-3.89-1.55-1.28-2.83-1.28Z"/>
    <path d="M712.97,193.48c.59,0,1.13.05,1.6.15l-.28,1.88c-.55-.12-1.04-.18-1.46-.18-1.08,0-2.01.44-2.78,1.32-.77.88-1.15,1.97-1.15,3.28v7.18h-2.03v-13.38h1.67l.23,2.48h.1c.5-.87,1.09-1.54,1.79-2.01.7-.47,1.47-.71,2.31-.71Z"/>
    <path d="M722.72,207.35c-1.98,0-3.54-.6-4.68-1.81-1.14-1.2-1.72-2.88-1.72-5.02s.53-3.87,1.59-5.14c1.06-1.27,2.49-1.9,4.28-1.9,1.68,0,3,.55,3.98,1.65.98,1.1,1.46,2.56,1.46,4.36v1.28h-9.22c.04,1.57.44,2.76,1.19,3.58.75.81,1.81,1.22,3.18,1.22,1.44,0,2.86-.3,4.27-.9v1.81c-.72.31-1.39.53-2.03.67-.64.13-1.41.2-2.31.2ZM722.17,195.18c-1.07,0-1.93.35-2.57,1.05-.64.7-1.02,1.67-1.13,2.91h6.99c0-1.28-.29-2.26-.85-2.94-.57-.68-1.38-1.02-2.44-1.02Z"/>
    <path d="M746.69,205.31h-.11c-.94,1.36-2.34,2.04-4.2,2.04-1.75,0-3.11-.6-4.08-1.79-.97-1.2-1.46-2.9-1.46-5.1s.49-3.92,1.46-5.14,2.34-1.83,4.08-1.83,3.21.66,4.17,1.98h.16l-.09-.96-.05-.94v-5.44h2.03v18.99h-1.65l-.27-1.79ZM742.64,205.65c1.38,0,2.39-.38,3.01-1.13.62-.75.93-1.97.93-3.64v-.43c0-1.9-.32-3.25-.95-4.06-.63-.81-1.64-1.21-3.02-1.21-1.19,0-2.1.46-2.73,1.39-.63.92-.95,2.23-.95,3.91s.31,3,.94,3.87c.63.87,1.55,1.31,2.76,1.31Z"/>
    <path d="M758.56,207.35c-1.98,0-3.54-.6-4.68-1.81-1.14-1.2-1.72-2.88-1.72-5.02s.53-3.87,1.59-5.14c1.06-1.27,2.49-1.9,4.28-1.9,1.68,0,3,.55,3.98,1.65.98,1.1,1.46,2.56,1.46,4.36v1.28h-9.22c.04,1.57.44,2.76,1.19,3.58.75.81,1.81,1.22,3.18,1.22,1.44,0,2.86-.3,4.27-.9v1.81c-.72.31-1.39.53-2.03.67-.64.13-1.41.2-2.31.2ZM758.01,195.18c-1.07,0-1.93.35-2.57,1.05-.64.7-1.02,1.67-1.13,2.91h6.99c0-1.28-.29-2.26-.85-2.94-.57-.68-1.38-1.02-2.44-1.02Z"/>
    <path d="M784.23,207.1h-11.73v-1.75l4.7-4.72c1.43-1.45,2.38-2.48,2.83-3.1.46-.62.8-1.22,1.03-1.81.23-.59.34-1.22.34-1.89,0-.95-.29-1.71-.87-2.26-.58-.56-1.38-.84-2.4-.84-.74,0-1.44.12-2.11.37-.66.24-1.4.69-2.22,1.33l-1.07-1.38c1.64-1.37,3.43-2.05,5.37-2.05,1.68,0,2.99.43,3.94,1.29.95.86,1.43,2.01,1.43,3.46,0,1.13-.32,2.25-.95,3.36-.63,1.11-1.82,2.51-3.56,4.2l-3.91,3.82v.1h9.18v1.88Z"/>
    <path d="M798.62,198.15c0,3.08-.49,5.39-1.46,6.91-.97,1.52-2.46,2.28-4.46,2.28s-3.38-.78-4.38-2.34c-1-1.56-1.5-3.84-1.5-6.85s.48-5.42,1.45-6.92c.97-1.51,2.45-2.26,4.43-2.26s3.41.79,4.41,2.36c1,1.57,1.51,3.85,1.51,6.82ZM788.87,198.15c0,2.6.31,4.49.92,5.67.61,1.18,1.58,1.78,2.92,1.78s2.33-.6,2.94-1.8c.61-1.2.91-3.08.91-5.65s-.3-4.44-.91-5.63c-.61-1.19-1.58-1.79-2.94-1.79s-2.31.59-2.92,1.76c-.61,1.18-.92,3.06-.92,5.66Z"/>
    <path d="M812.82,207.1h-11.73v-1.75l4.7-4.72c1.43-1.45,2.38-2.48,2.83-3.1.46-.62.8-1.22,1.03-1.81.23-.59.34-1.22.34-1.89,0-.95-.29-1.71-.87-2.26-.58-.56-1.38-.84-2.4-.84-.74,0-1.44.12-2.11.37-.66.24-1.4.69-2.22,1.33l-1.07-1.38c1.64-1.37,3.43-2.05,5.37-2.05,1.68,0,2.99.43,3.94,1.29.95.86,1.43,2.01,1.43,3.46,0,1.13-.32,2.25-.95,3.36-.63,1.11-1.82,2.51-3.56,4.2l-3.91,3.82v.1h9.18v1.88Z"/>
    <path d="M827.96,203h-2.65v4.1h-1.94v-4.1h-8.68v-1.77l8.47-12.07h2.15v12h2.65v1.84ZM823.37,201.16v-5.93c0-1.16.04-2.48.12-3.94h-.1c-.39.78-.76,1.43-1.1,1.94l-5.58,7.93h6.65Z"/>
  </g>
  <g>
    <path d="M334.37,138.01c0,2.95-.8,5.2-2.4,6.76-1.6,1.56-3.9,2.34-6.9,2.34h-4.94v-17.85h5.47c2.77,0,4.93.77,6.47,2.31s2.31,3.69,2.31,6.45ZM332.18,138.08c0-2.33-.58-4.08-1.75-5.26-1.17-1.18-2.9-1.77-5.21-1.77h-3.02v14.26h2.53c2.47,0,4.33-.61,5.58-1.82,1.25-1.22,1.87-3.02,1.87-5.4Z"/>
    <path d="M343.7,147.35c-1.98,0-3.54-.6-4.68-1.81-1.14-1.2-1.72-2.88-1.72-5.02s.53-3.87,1.59-5.14c1.06-1.27,2.49-1.9,4.28-1.9,1.68,0,3,.55,3.98,1.65.98,1.1,1.46,2.56,1.46,4.36v1.28h-9.22c.04,1.57.44,2.76,1.19,3.58.75.81,1.81,1.22,3.18,1.22,1.44,0,2.86-.3,4.27-.9v1.81c-.72.31-1.39.53-2.03.67-.64.13-1.41.2-2.31.2ZM343.15,135.18c-1.07,0-1.93.35-2.57,1.05-.64.7-1.02,1.67-1.13,2.91h6.99c0-1.28-.29-2.26-.85-2.94-.57-.68-1.38-1.02-2.44-1.02Z"/>
    <path d="M354.1,147.1h-2.03v-18.99h2.03v18.99Z"/>
    <path d="M371.47,147.1h-1.98v-12.72c0-1.06.03-2.06.1-3-.17.17-.36.35-.57.54-.21.19-1.18.98-2.91,2.38l-1.07-1.39,4.72-3.65h1.71v17.85Z"/>
    <path d="M389.32,133.46c0,1.14-.32,2.07-.96,2.8-.64.72-1.54,1.21-2.72,1.45v.1c1.43.18,2.49.63,3.19,1.37.69.73,1.04,1.69,1.04,2.88,0,1.7-.59,3.01-1.77,3.92-1.18.92-2.86,1.37-5.03,1.37-.94,0-1.81-.07-2.59-.21-.79-.14-1.55-.39-2.29-.75v-1.93c.77.38,1.6.67,2.47.87.88.2,1.7.3,2.48.3,3.08,0,4.63-1.21,4.63-3.63,0-2.16-1.7-3.25-5.1-3.25h-1.76v-1.75h1.78c1.39,0,2.49-.31,3.31-.92.81-.61,1.22-1.47,1.22-2.56,0-.87-.3-1.55-.9-2.05-.6-.5-1.41-.74-2.44-.74-.78,0-1.52.11-2.21.32-.69.21-1.48.6-2.37,1.17l-1.03-1.37c.73-.58,1.58-1.03,2.53-1.36.96-.33,1.96-.49,3.02-.49,1.73,0,3.08.4,4.04,1.19.96.79,1.44,1.88,1.44,3.27Z"/>
    <path d="M409.08,145.31h-.11c-.94,1.36-2.34,2.04-4.2,2.04-1.75,0-3.11-.6-4.08-1.79-.97-1.2-1.46-2.9-1.46-5.1s.49-3.92,1.46-5.14,2.34-1.83,4.08-1.83,3.21.66,4.17,1.98h.16l-.09-.96-.05-.94v-5.44h2.03v18.99h-1.65l-.27-1.79ZM405.03,145.65c1.38,0,2.39-.38,3.01-1.13.62-.75.93-1.97.93-3.64v-.43c0-1.9-.32-3.25-.95-4.06-.63-.81-1.64-1.21-3.02-1.21-1.19,0-2.1.46-2.73,1.39-.63.92-.95,2.23-.95,3.91s.31,3,.94,3.87c.63.87,1.55,1.31,2.76,1.31Z"/>
    <path d="M420.95,147.35c-1.98,0-3.54-.6-4.68-1.81-1.14-1.2-1.72-2.88-1.72-5.02s.53-3.87,1.59-5.14c1.06-1.27,2.49-1.9,4.28-1.9,1.68,0,3,.55,3.98,1.65.98,1.1,1.46,2.56,1.46,4.36v1.28h-9.22c.04,1.57.44,2.76,1.19,3.58.75.81,1.81,1.22,3.18,1.22,1.44,0,2.86-.3,4.27-.9v1.81c-.72.31-1.39.53-2.03.67-.64.13-1.41.2-2.31.2ZM420.4,135.18c-1.07,0-1.93.35-2.57,1.05-.64.7-1.02,1.67-1.13,2.91h6.99c0-1.28-.29-2.26-.85-2.94-.57-.68-1.38-1.02-2.44-1.02Z"/>
    <path d="M434.19,153.11c-.77,0-1.4-.1-1.88-.31v-1.65c.56.16,1.12.24,1.66.24.63,0,1.1-.17,1.4-.52.3-.35.45-.87.45-1.58v-15.58h2.03v15.43c0,2.64-1.22,3.96-3.65,3.96ZM435.64,130.1c0-.46.11-.8.34-1.02.23-.22.51-.32.85-.32s.61.11.84.33c.24.22.35.56.35,1.01s-.12.8-.35,1.02c-.24.22-.52.34-.84.34-.34,0-.63-.11-.85-.34-.23-.22-.34-.56-.34-1.02Z"/>
    <path d="M444.04,133.72v8.68c0,1.09.25,1.9.74,2.44.5.54,1.27.81,2.33.81,1.4,0,2.42-.38,3.07-1.15.65-.76.97-2.01.97-3.75v-7.03h2.03v13.38h-1.67l-.29-1.79h-.11c-.42.66-.99,1.16-1.73,1.51-.74.35-1.58.52-2.52.52-1.63,0-2.85-.39-3.66-1.16-.81-.77-1.21-2.01-1.21-3.71v-8.75h2.05Z"/>
    <path d="M466.64,147.1v-8.65c0-1.09-.25-1.9-.74-2.44-.5-.54-1.27-.81-2.33-.81-1.4,0-2.43.38-3.08,1.14-.65.76-.98,2.01-.98,3.75v7.02h-2.03v-13.38h1.65l.33,1.83h.1c.42-.66,1-1.17,1.75-1.53.75-.36,1.58-.54,2.5-.54,1.61,0,2.82.39,3.64,1.17.81.78,1.22,2.02,1.22,3.73v8.73h-2.03Z"/>
    <path d="M472.66,130.1c0-.46.11-.8.34-1.02.23-.22.51-.32.85-.32s.61.11.84.33c.24.22.35.56.35,1.01s-.12.8-.35,1.02c-.24.22-.52.34-.84.34-.34,0-.63-.11-.85-.34-.23-.22-.34-.56-.34-1.02ZM474.85,147.1h-2.03v-13.38h2.03v13.38Z"/>
    <path d="M490.7,140.4c0,2.18-.55,3.88-1.65,5.11-1.1,1.22-2.62,1.84-4.55,1.84-1.2,0-2.26-.28-3.19-.84s-1.64-1.37-2.15-2.42c-.5-1.05-.76-2.28-.76-3.69,0-2.18.54-3.88,1.64-5.1,1.09-1.22,2.6-1.83,4.54-1.83s3.36.62,4.46,1.87c1.1,1.25,1.65,2.93,1.65,5.05ZM480.5,140.4c0,1.71.34,3.01,1.03,3.91.68.9,1.69,1.34,3.02,1.34s2.33-.45,3.02-1.34c.69-.89,1.03-2.2,1.03-3.91s-.34-2.99-1.03-3.88c-.69-.88-1.7-1.32-3.05-1.32s-2.33.44-3,1.31c-.68.87-1.01,2.17-1.01,3.89Z"/>
    <path d="M509.85,145.31h-.11c-.94,1.36-2.34,2.04-4.2,2.04-1.75,0-3.11-.6-4.08-1.79-.97-1.2-1.46-2.9-1.46-5.1s.49-3.92,1.46-5.14,2.34-1.83,4.08-1.83,3.21.66,4.17,1.98h.16l-.09-.96-.05-.94v-5.44h2.03v18.99h-1.65l-.27-1.79ZM505.8,145.65c1.38,0,2.39-.38,3.01-1.13.62-.75.93-1.97.93-3.64v-.43c0-1.9-.32-3.25-.95-4.06-.63-.81-1.64-1.21-3.02-1.21-1.19,0-2.1.46-2.73,1.39-.63.92-.95,2.23-.95,3.91s.31,3,.94,3.87c.63.87,1.55,1.31,2.76,1.31Z"/>
    <path d="M521.72,147.35c-1.98,0-3.54-.6-4.68-1.81-1.14-1.2-1.72-2.88-1.72-5.02s.53-3.87,1.59-5.14c1.06-1.27,2.49-1.9,4.28-1.9,1.68,0,3,.55,3.98,1.65.98,1.1,1.46,2.56,1.46,4.36v1.28h-9.22c.04,1.57.44,2.76,1.19,3.58.75.81,1.81,1.22,3.18,1.22,1.44,0,2.86-.3,4.27-.9v1.81c-.72.31-1.39.53-2.03.67-.64.13-1.41.2-2.31.2ZM521.17,135.18c-1.07,0-1.93.35-2.57,1.05-.64.7-1.02,1.67-1.13,2.91h6.99c0-1.28-.29-2.26-.85-2.94-.57-.68-1.38-1.02-2.44-1.02Z"/>
    <path d="M330.63,177.1h-11.73v-1.75l4.7-4.72c1.43-1.45,2.38-2.48,2.83-3.1.46-.62.8-1.22,1.03-1.81.23-.59.34-1.22.34-1.89,0-.95-.29-1.71-.87-2.26-.58-.56-1.38-.84-2.4-.84-.74,0-1.44.12-2.11.37-.66.24-1.4.69-2.22,1.33l-1.07-1.38c1.64-1.37,3.43-2.05,5.37-2.05,1.68,0,2.99.43,3.94,1.29.95.86,1.43,2.01,1.43,3.46,0,1.13-.32,2.25-.95,3.36-.63,1.11-1.82,2.51-3.56,4.2l-3.91,3.82v.1h9.18v1.88Z"/>
    <path d="M345.02,168.15c0,3.08-.49,5.39-1.46,6.91-.97,1.52-2.46,2.28-4.46,2.28s-3.38-.78-4.38-2.34c-1-1.56-1.5-3.84-1.5-6.85s.48-5.42,1.45-6.92c.97-1.51,2.45-2.26,4.43-2.26s3.41.79,4.41,2.36c1,1.57,1.51,3.85,1.51,6.82ZM335.27,168.15c0,2.6.31,4.49.92,5.67.61,1.18,1.58,1.78,2.92,1.78s2.33-.6,2.94-1.8c.61-1.2.91-3.08.91-5.65s-.3-4.44-.91-5.63c-.61-1.19-1.58-1.79-2.94-1.79s-2.31.59-2.92,1.76c-.61,1.18-.92,3.06-.92,5.66Z"/>
    <path d="M359.22,177.1h-11.73v-1.75l4.7-4.72c1.43-1.45,2.38-2.48,2.83-3.1.46-.62.8-1.22,1.03-1.81.23-.59.34-1.22.34-1.89,0-.95-.29-1.71-.87-2.26-.58-.56-1.38-.84-2.4-.84-.74,0-1.44.12-2.11.37-.66.24-1.4.69-2.22,1.33l-1.07-1.38c1.64-1.37,3.43-2.05,5.37-2.05,1.68,0,2.99.43,3.94,1.29.95.86,1.43,2.01,1.43,3.46,0,1.13-.32,2.25-.95,3.36-.63,1.11-1.82,2.51-3.56,4.2l-3.91,3.82v.1h9.18v1.88Z"/>
    <path d="M374.35,173h-2.65v4.1h-1.94v-4.1h-8.68v-1.77l8.47-12.07h2.15v12h2.65v1.84ZM369.76,171.16v-5.93c0-1.16.04-2.48.12-3.94h-.1c-.39.78-.76,1.43-1.1,1.94l-5.58,7.93h6.65Z"/>
    <path d="M391.72,177.1l-.4-1.9h-.1c-.67.84-1.33,1.41-2,1.7-.66.3-1.49.45-2.48.45-1.33,0-2.37-.34-3.12-1.03-.75-.68-1.13-1.66-1.13-2.92,0-2.7,2.16-4.12,6.48-4.25l2.27-.07v-.83c0-1.05-.23-1.82-.68-2.33-.45-.5-1.17-.75-2.17-.75-1.12,0-2.38.34-3.78,1.03l-.62-1.55c.66-.36,1.38-.64,2.17-.84.79-.2,1.57-.31,2.36-.31,1.59,0,2.78.35,3.55,1.06.77.71,1.15,1.84,1.15,3.41v9.13h-1.5ZM387.15,175.67c1.26,0,2.25-.35,2.97-1.04.72-.69,1.08-1.66,1.08-2.91v-1.21l-2.03.09c-1.61.06-2.77.31-3.48.75-.71.44-1.07,1.13-1.07,2.07,0,.73.22,1.29.67,1.67.44.38,1.06.57,1.86.57Z"/>
    <path d="M399.43,177.1h-2.03v-18.99h2.03v18.99Z"/>
    <path d="M416.8,177.1h-1.98v-12.72c0-1.06.03-2.06.1-3-.17.17-.36.35-.57.54-.21.19-1.18.98-2.91,2.38l-1.07-1.39,4.72-3.65h1.71v17.85Z"/>
    <path d="M435.31,177.1h-11.73v-1.75l4.7-4.72c1.43-1.45,2.38-2.48,2.83-3.1.46-.62.8-1.22,1.03-1.81.23-.59.34-1.22.34-1.89,0-.95-.29-1.71-.87-2.26-.58-.56-1.38-.84-2.4-.84-.74,0-1.44.12-2.11.37-.66.24-1.4.69-2.22,1.33l-1.07-1.38c1.64-1.37,3.43-2.05,5.37-2.05,1.68,0,2.99.43,3.94,1.29.95.86,1.43,2.01,1.43,3.46,0,1.13-.32,2.25-.95,3.36-.63,1.11-1.82,2.51-3.56,4.2l-3.91,3.82v.1h9.18v1.88Z"/>
    <path d="M454.41,175.31h-.11c-.94,1.36-2.34,2.04-4.2,2.04-1.75,0-3.11-.6-4.08-1.79-.97-1.2-1.46-2.9-1.46-5.1s.49-3.92,1.46-5.14,2.34-1.83,4.08-1.83,3.21.66,4.17,1.98h.16l-.09-.96-.05-.94v-5.44h2.03v18.99h-1.65l-.27-1.79ZM450.35,175.65c1.38,0,2.39-.38,3.01-1.13.62-.75.93-1.97.93-3.64v-.43c0-1.9-.32-3.25-.95-4.06-.63-.81-1.64-1.21-3.02-1.21-1.19,0-2.1.46-2.73,1.39-.63.92-.95,2.23-.95,3.91s.31,3,.94,3.87c.63.87,1.55,1.31,2.76,1.31Z"/>
    <path d="M466.27,177.35c-1.98,0-3.54-.6-4.68-1.81-1.14-1.2-1.72-2.88-1.72-5.02s.53-3.87,1.59-5.14c1.06-1.27,2.49-1.9,4.28-1.9,1.68,0,3,.55,3.98,1.65.98,1.1,1.46,2.56,1.46,4.36v1.28h-9.22c.04,1.57.44,2.76,1.19,3.58.75.81,1.81,1.22,3.18,1.22,1.44,0,2.86-.3,4.27-.9v1.81c-.72.31-1.39.53-2.03.67-.64.13-1.41.2-2.31.2ZM465.72,165.18c-1.07,0-1.93.35-2.57,1.05-.64.7-1.02,1.67-1.13,2.91h6.99c0-1.28-.29-2.26-.85-2.94-.57-.68-1.38-1.02-2.44-1.02Z"/>
    <path d="M328.45,203.45c0,1.25-.46,2.21-1.39,2.88-.93.68-2.23,1.01-3.91,1.01-1.77,0-3.16-.28-4.15-.84v-1.88c.64.33,1.33.58,2.07.77.74.19,1.45.28,2.13.28,1.06,0,1.87-.17,2.44-.51.57-.34.85-.85.85-1.54,0-.52-.23-.97-.68-1.34-.45-.37-1.33-.81-2.64-1.31-1.25-.46-2.13-.87-2.65-1.21-.53-.35-.92-.74-1.17-1.18-.26-.44-.38-.96-.38-1.57,0-1.09.44-1.95,1.33-2.58.89-.63,2.1-.95,3.65-.95,1.44,0,2.85.29,4.22.88l-.72,1.65c-1.34-.55-2.56-.83-3.65-.83-.96,0-1.68.15-2.17.45-.49.3-.73.72-.73,1.25,0,.36.09.66.27.92.18.25.48.49.89.72.41.23,1.19.56,2.34.99,1.59.58,2.66,1.16,3.22,1.75.56.59.84,1.32.84,2.21Z"/>
    <path d="M337.4,207.35c-1.98,0-3.54-.6-4.68-1.81-1.14-1.2-1.72-2.88-1.72-5.02s.53-3.87,1.59-5.14c1.06-1.27,2.49-1.9,4.28-1.9,1.68,0,3,.55,3.98,1.65.98,1.1,1.46,2.56,1.46,4.36v1.28h-9.22c.04,1.57.44,2.76,1.19,3.58.75.81,1.81,1.22,3.18,1.22,1.44,0,2.86-.3,4.27-.9v1.81c-.72.31-1.39.53-2.03.67-.64.13-1.41.2-2.31.2ZM336.85,195.18c-1.07,0-1.93.35-2.57,1.05-.64.7-1.02,1.67-1.13,2.91h6.99c0-1.28-.29-2.26-.85-2.94-.57-.68-1.38-1.02-2.44-1.02Z"/>
    <path d="M352,207.35c-.87,0-1.67-.16-2.39-.48-.72-.32-1.32-.82-1.81-1.48h-.15c.1.78.15,1.52.15,2.22v5.51h-2.03v-19.38h1.65l.28,1.83h.1c.52-.73,1.13-1.26,1.82-1.59.69-.33,1.48-.49,2.38-.49,1.77,0,3.14.61,4.11,1.82.96,1.21,1.45,2.91,1.45,5.1s-.49,3.9-1.47,5.12c-.98,1.22-2.34,1.83-4.08,1.83ZM351.71,195.2c-1.37,0-2.36.38-2.97,1.14s-.92,1.96-.94,3.61v.45c0,1.88.31,3.22.94,4.03.63.81,1.63,1.21,3.02,1.21,1.16,0,2.06-.47,2.72-1.4.66-.94.98-2.23.98-3.87s-.33-2.95-.98-3.84c-.65-.89-1.58-1.34-2.76-1.34Z"/>
    <path d="M365.42,205.67c.36,0,.7-.03,1.04-.08.33-.05.6-.11.79-.16v1.55c-.22.11-.54.19-.97.26-.43.07-.81.1-1.15.1-2.59,0-3.88-1.36-3.88-4.09v-7.96h-1.92v-.98l1.92-.84.85-2.86h1.17v3.1h3.88v1.57h-3.88v7.87c0,.81.19,1.42.57,1.86.38.43.91.65,1.57.65Z"/>
    <path d="M369.75,190.1c0-.46.11-.8.34-1.02.23-.22.51-.32.85-.32s.61.11.84.33c.24.22.35.56.35,1.01s-.12.8-.35,1.02c-.24.22-.52.34-.84.34-.34,0-.63-.11-.85-.34-.23-.22-.34-.56-.34-1.02ZM371.95,207.1h-2.03v-13.38h2.03v13.38Z"/>
    <path d="M381.9,207.35c-1.98,0-3.54-.6-4.68-1.81-1.14-1.2-1.72-2.88-1.72-5.02s.53-3.87,1.59-5.14c1.06-1.27,2.49-1.9,4.28-1.9,1.68,0,3,.55,3.98,1.65.98,1.1,1.46,2.56,1.46,4.36v1.28h-9.22c.04,1.57.44,2.76,1.19,3.58.75.81,1.81,1.22,3.18,1.22,1.44,0,2.86-.3,4.27-.9v1.81c-.72.31-1.39.53-2.03.67-.64.13-1.41.2-2.31.2ZM381.35,195.18c-1.07,0-1.93.35-2.57,1.05-.64.7-1.02,1.67-1.13,2.91h6.99c0-1.28-.29-2.26-.85-2.94-.57-.68-1.38-1.02-2.44-1.02Z"/>
    <path d="M407.32,207.1v-8.7c0-1.07-.23-1.87-.68-2.4-.46-.53-1.16-.8-2.12-.8-1.26,0-2.19.36-2.8,1.09-.6.72-.9,1.84-.9,3.34v7.47h-2.03v-8.7c0-1.07-.23-1.87-.68-2.4-.46-.53-1.17-.8-2.14-.8-1.27,0-2.2.38-2.79,1.14-.59.76-.88,2.01-.88,3.74v7.02h-2.03v-13.38h1.65l.33,1.83h.1c.38-.65.92-1.16,1.62-1.53.7-.37,1.48-.55,2.34-.55,2.09,0,3.46.76,4.1,2.27h.1c.4-.7.98-1.25,1.73-1.66.76-.41,1.62-.61,2.59-.61,1.51,0,2.65.39,3.4,1.17.75.78,1.13,2.02,1.13,3.73v8.73h-2.03Z"/>
    <path d="M419.75,193.5c1.76,0,3.12.6,4.1,1.8.97,1.2,1.46,2.9,1.46,5.1s-.49,3.9-1.47,5.12c-.98,1.22-2.34,1.83-4.08,1.83-.87,0-1.67-.16-2.39-.48-.72-.32-1.32-.82-1.81-1.48h-.15l-.43,1.72h-1.45v-18.99h2.03v4.61c0,1.03-.03,1.96-.1,2.78h.1c.94-1.33,2.34-2,4.2-2ZM419.46,195.2c-1.38,0-2.38.4-2.99,1.19-.61.79-.92,2.13-.92,4.01s.31,3.22.94,4.03c.63.81,1.63,1.21,3.02,1.21,1.25,0,2.17-.45,2.78-1.36.61-.91.92-2.21.92-3.91s-.31-3.04-.92-3.89-1.55-1.28-2.83-1.28Z"/>
    <path d="M434.95,193.48c.59,0,1.13.05,1.6.15l-.28,1.88c-.55-.12-1.04-.18-1.46-.18-1.08,0-2.01.44-2.78,1.32-.77.88-1.15,1.97-1.15,3.28v7.18h-2.03v-13.38h1.67l.23,2.48h.1c.5-.87,1.09-1.54,1.79-2.01.7-.47,1.47-.71,2.31-.71Z"/>
    <path d="M444.7,207.35c-1.98,0-3.54-.6-4.68-1.81-1.14-1.2-1.72-2.88-1.72-5.02s.53-3.87,1.59-5.14c1.06-1.27,2.49-1.9,4.28-1.9,1.68,0,3,.55,3.98,1.65.98,1.1,1.46,2.56,1.46,4.36v1.28h-9.22c.04,1.57.44,2.76,1.19,3.58.75.81,1.81,1.22,3.18,1.22,1.44,0,2.86-.3,4.27-.9v1.81c-.72.31-1.39.53-2.03.67-.64.13-1.41.2-2.31.2ZM444.15,195.18c-1.07,0-1.93.35-2.57,1.05-.64.7-1.02,1.67-1.13,2.91h6.99c0-1.28-.29-2.26-.85-2.94-.57-.68-1.38-1.02-2.44-1.02Z"/>
    <path d="M468.68,205.31h-.11c-.94,1.36-2.34,2.04-4.2,2.04-1.75,0-3.11-.6-4.08-1.79-.97-1.2-1.46-2.9-1.46-5.1s.49-3.92,1.46-5.14,2.34-1.83,4.08-1.83,3.21.66,4.17,1.98h.16l-.09-.96-.05-.94v-5.44h2.03v18.99h-1.65l-.27-1.79ZM464.62,205.65c1.38,0,2.39-.38,3.01-1.13.62-.75.93-1.97.93-3.64v-.43c0-1.9-.32-3.25-.95-4.06-.63-.81-1.64-1.21-3.02-1.21-1.19,0-2.1.46-2.73,1.39-.63.92-.95,2.23-.95,3.91s.31,3,.94,3.87c.63.87,1.55,1.31,2.76,1.31Z"/>
    <path d="M480.54,207.35c-1.98,0-3.54-.6-4.68-1.81-1.14-1.2-1.72-2.88-1.72-5.02s.53-3.87,1.59-5.14c1.06-1.27,2.49-1.9,4.28-1.9,1.68,0,3,.55,3.98,1.65.98,1.1,1.46,2.56,1.46,4.36v1.28h-9.22c.04,1.57.44,2.76,1.19,3.58.75.81,1.81,1.22,3.18,1.22,1.44,0,2.86-.3,4.27-.9v1.81c-.72.31-1.39.53-2.03.67-.64.13-1.41.2-2.31.2ZM479.99,195.18c-1.07,0-1.93.35-2.57,1.05-.64.7-1.02,1.67-1.13,2.91h6.99c0-1.28-.29-2.26-.85-2.94-.57-.68-1.38-1.02-2.44-1.02Z"/>
    <path d="M506.21,207.1h-11.73v-1.75l4.7-4.72c1.43-1.45,2.38-2.48,2.83-3.1.46-.62.8-1.22,1.03-1.81.23-.59.34-1.22.34-1.89,0-.95-.29-1.71-.87-2.26-.58-.56-1.38-.84-2.4-.84-.74,0-1.44.12-2.11.37-.66.24-1.4.69-2.22,1.33l-1.07-1.38c1.64-1.37,3.43-2.05,5.37-2.05,1.68,0,2.99.43,3.94,1.29.95.86,1.43,2.01,1.43,3.46,0,1.13-.32,2.25-.95,3.36-.63,1.11-1.82,2.51-3.56,4.2l-3.91,3.82v.1h9.18v1.88Z"/>
    <path d="M520.6,198.15c0,3.08-.49,5.39-1.46,6.91-.97,1.52-2.46,2.28-4.46,2.28s-3.38-.78-4.38-2.34c-1-1.56-1.5-3.84-1.5-6.85s.48-5.42,1.45-6.92c.97-1.51,2.45-2.26,4.43-2.26s3.41.79,4.41,2.36c1,1.57,1.51,3.85,1.51,6.82ZM510.85,198.15c0,2.6.31,4.49.92,5.67.61,1.18,1.58,1.78,2.92,1.78s2.33-.6,2.94-1.8c.61-1.2.91-3.08.91-5.65s-.3-4.44-.91-5.63c-.61-1.19-1.58-1.79-2.94-1.79s-2.31.59-2.92,1.76c-.61,1.18-.92,3.06-.92,5.66Z"/>
    <path d="M534.8,207.1h-11.73v-1.75l4.7-4.72c1.43-1.45,2.38-2.48,2.83-3.1.46-.62.8-1.22,1.03-1.81.23-.59.34-1.22.34-1.89,0-.95-.29-1.71-.87-2.26-.58-.56-1.38-.84-2.4-.84-.74,0-1.44.12-2.11.37-.66.24-1.4.69-2.22,1.33l-1.07-1.38c1.64-1.37,3.43-2.05,5.37-2.05,1.68,0,2.99.43,3.94,1.29.95.86,1.43,2.01,1.43,3.46,0,1.13-.32,2.25-.95,3.36-.63,1.11-1.82,2.51-3.56,4.2l-3.91,3.82v.1h9.18v1.88Z"/>
    <path d="M549.94,203h-2.65v4.1h-1.94v-4.1h-8.68v-1.77l8.47-12.07h2.15v12h2.65v1.84ZM545.35,201.16v-5.93c0-1.16.04-2.48.12-3.94h-.1c-.39.78-.76,1.43-1.1,1.94l-5.58,7.93h6.65Z"/>
  </g>
  <g>
    <path d="M919.95,138.01c0,2.95-.8,5.2-2.4,6.76-1.6,1.56-3.9,2.34-6.9,2.34h-4.94v-17.85h5.47c2.77,0,4.93.77,6.47,2.31s2.31,3.69,2.31,6.45ZM917.75,138.08c0-2.33-.58-4.08-1.75-5.26-1.17-1.18-2.9-1.77-5.21-1.77h-3.01v14.26h2.53c2.47,0,4.33-.61,5.58-1.82,1.25-1.22,1.87-3.02,1.87-5.4Z"/>
    <path d="M929.28,147.35c-1.98,0-3.54-.6-4.68-1.81-1.14-1.2-1.72-2.88-1.72-5.02s.53-3.87,1.59-5.14c1.06-1.27,2.49-1.9,4.28-1.9,1.68,0,3,.55,3.98,1.65.98,1.1,1.46,2.56,1.46,4.36v1.28h-9.22c.04,1.57.44,2.76,1.19,3.58.75.81,1.81,1.22,3.18,1.22,1.44,0,2.86-.3,4.27-.9v1.81c-.72.31-1.39.53-2.03.67-.64.13-1.41.2-2.31.2ZM928.73,135.18c-1.07,0-1.93.35-2.57,1.05-.64.7-1.02,1.67-1.13,2.91h7c0-1.28-.29-2.26-.85-2.94-.57-.68-1.38-1.02-2.44-1.02Z"/>
    <path d="M939.68,147.1h-2.03v-18.99h2.03v18.99Z"/>
    <path d="M957.05,147.1h-1.98v-12.72c0-1.06.03-2.06.1-3-.17.17-.36.35-.57.54-.21.19-1.18.98-2.91,2.38l-1.07-1.39,4.72-3.65h1.71v17.85Z"/>
    <path d="M974.89,133.46c0,1.14-.32,2.07-.96,2.8-.64.72-1.54,1.21-2.72,1.45v.1c1.43.18,2.49.63,3.19,1.37.69.73,1.04,1.69,1.04,2.88,0,1.7-.59,3.01-1.77,3.92-1.18.92-2.86,1.37-5.03,1.37-.94,0-1.81-.07-2.59-.21-.79-.14-1.55-.39-2.29-.75v-1.93c.77.38,1.6.67,2.47.87.88.2,1.7.3,2.48.3,3.08,0,4.63-1.21,4.63-3.63,0-2.16-1.7-3.25-5.1-3.25h-1.76v-1.75h1.78c1.39,0,2.49-.31,3.31-.92.81-.61,1.22-1.47,1.22-2.56,0-.87-.3-1.55-.9-2.05-.6-.5-1.41-.74-2.44-.74-.78,0-1.52.11-2.21.32-.69.21-1.48.6-2.37,1.17l-1.03-1.37c.73-.58,1.58-1.03,2.53-1.36.96-.33,1.96-.49,3.02-.49,1.73,0,3.08.4,4.04,1.19.96.79,1.44,1.88,1.44,3.27Z"/>
    <path d="M994.66,145.31h-.11c-.94,1.36-2.34,2.04-4.2,2.04-1.75,0-3.11-.6-4.08-1.79-.97-1.2-1.46-2.9-1.46-5.1s.49-3.92,1.46-5.14,2.33-1.83,4.08-1.83,3.21.66,4.17,1.98h.16l-.08-.96-.05-.94v-5.44h2.03v18.99h-1.65l-.27-1.79ZM990.6,145.65c1.38,0,2.39-.38,3.01-1.13.62-.75.93-1.97.93-3.64v-.43c0-1.9-.32-3.25-.95-4.06-.63-.81-1.64-1.21-3.02-1.21-1.19,0-2.1.46-2.73,1.39-.63.92-.95,2.23-.95,3.91s.31,3,.94,3.87c.63.87,1.55,1.31,2.76,1.31Z"/>
    <path d="M1006.52,147.35c-1.98,0-3.54-.6-4.68-1.81-1.14-1.2-1.72-2.88-1.72-5.02s.53-3.87,1.59-5.14c1.06-1.27,2.49-1.9,4.28-1.9,1.68,0,3,.55,3.98,1.65.98,1.1,1.46,2.56,1.46,4.36v1.28h-9.22c.04,1.57.44,2.76,1.19,3.58.75.81,1.81,1.22,3.18,1.22,1.44,0,2.86-.3,4.27-.9v1.81c-.72.31-1.39.53-2.03.67-.64.13-1.41.2-2.31.2ZM1005.97,135.18c-1.07,0-1.93.35-2.57,1.05-.64.7-1.02,1.67-1.13,2.91h7c0-1.28-.29-2.26-.85-2.94-.57-.68-1.38-1.02-2.44-1.02Z"/>
    <path d="M1030.5,145.31h-.11c-.94,1.36-2.34,2.04-4.2,2.04-1.75,0-3.11-.6-4.08-1.79-.97-1.2-1.46-2.9-1.46-5.1s.49-3.92,1.46-5.14,2.33-1.83,4.08-1.83,3.21.66,4.17,1.98h.16l-.08-.96-.05-.94v-5.44h2.03v18.99h-1.65l-.27-1.79ZM1026.44,145.65c1.38,0,2.39-.38,3.01-1.13.62-.75.93-1.97.93-3.64v-.43c0-1.9-.32-3.25-.95-4.06-.63-.81-1.64-1.21-3.02-1.21-1.19,0-2.1.46-2.73,1.39-.63.92-.95,2.23-.95,3.91s.31,3,.94,3.87c.63.87,1.55,1.31,2.76,1.31Z"/>
    <path d="M1036.54,130.1c0-.46.11-.8.34-1.02.23-.22.51-.32.85-.32s.61.11.84.33.35.56.35,1.01-.12.8-.35,1.02c-.24.22-.52.34-.84.34-.34,0-.63-.11-.85-.34-.23-.22-.34-.56-.34-1.02ZM1038.74,147.1h-2.03v-13.38h2.03v13.38Z"/>
    <path d="M1048.38,147.35c-1.94,0-3.44-.6-4.5-1.79-1.06-1.19-1.59-2.88-1.59-5.06s.54-3.97,1.62-5.19c1.08-1.22,2.61-1.83,4.61-1.83.64,0,1.29.07,1.93.21.64.14,1.15.3,1.51.49l-.62,1.72c-.45-.18-.94-.33-1.46-.45-.53-.12-1-.18-1.4-.18-2.72,0-4.08,1.73-4.08,5.2,0,1.64.33,2.91,1,3.78s1.65,1.32,2.95,1.32c1.11,0,2.26-.24,3.43-.72v1.79c-.9.46-2.02.7-3.38.7Z"/>
    <path d="M1054.76,130.1c0-.46.11-.8.34-1.02.23-.22.51-.32.85-.32s.61.11.84.33c.24.22.35.56.35,1.01s-.12.8-.35,1.02c-.24.22-.52.34-.84.34-.34,0-.63-.11-.85-.34-.23-.22-.34-.56-.34-1.02ZM1056.96,147.1h-2.03v-13.38h2.03v13.38Z"/>
    <path d="M1066.91,147.35c-1.98,0-3.54-.6-4.68-1.81-1.14-1.2-1.71-2.88-1.71-5.02s.53-3.87,1.59-5.14c1.06-1.27,2.49-1.9,4.28-1.9,1.68,0,3,.55,3.98,1.65.98,1.1,1.46,2.56,1.46,4.36v1.28h-9.22c.04,1.57.44,2.76,1.19,3.58.75.81,1.81,1.22,3.18,1.22,1.44,0,2.86-.3,4.27-.9v1.81c-.72.31-1.39.53-2.03.67-.64.13-1.41.2-2.31.2ZM1066.36,135.18c-1.07,0-1.93.35-2.57,1.05-.64.7-1.02,1.67-1.13,2.91h6.99c0-1.28-.29-2.26-.85-2.94-.57-.68-1.38-1.02-2.44-1.02Z"/>
    <path d="M1092.34,147.1v-8.7c0-1.07-.23-1.87-.68-2.4-.46-.53-1.16-.8-2.12-.8-1.26,0-2.19.36-2.79,1.09-.6.72-.9,1.84-.9,3.34v7.47h-2.03v-8.7c0-1.07-.23-1.87-.68-2.4-.46-.53-1.17-.8-2.14-.8-1.27,0-2.2.38-2.79,1.14-.59.76-.88,2.01-.88,3.74v7.02h-2.03v-13.38h1.65l.33,1.83h.1c.38-.65.92-1.16,1.62-1.53.7-.37,1.47-.55,2.34-.55,2.09,0,3.46.76,4.1,2.27h.1c.4-.7.98-1.25,1.73-1.66.76-.41,1.62-.61,2.59-.61,1.51,0,2.65.39,3.4,1.17.75.78,1.13,2.02,1.13,3.73v8.73h-2.03Z"/>
    <path d="M1104.76,133.5c1.76,0,3.12.6,4.1,1.8.97,1.2,1.46,2.9,1.46,5.1s-.49,3.9-1.47,5.12c-.98,1.22-2.34,1.83-4.08,1.83-.87,0-1.67-.16-2.39-.48-.72-.32-1.32-.82-1.81-1.48h-.15l-.43,1.72h-1.45v-18.99h2.03v4.61c0,1.03-.03,1.96-.1,2.78h.1c.94-1.33,2.34-2,4.2-2ZM1104.47,135.2c-1.38,0-2.38.4-2.99,1.19-.61.79-.92,2.13-.92,4.01s.31,3.22.94,4.03c.63.81,1.63,1.21,3.01,1.21,1.25,0,2.17-.45,2.78-1.36.61-.91.92-2.21.92-3.91s-.31-3.04-.92-3.89-1.55-1.28-2.83-1.28Z"/>
    <path d="M1119.96,133.48c.59,0,1.13.05,1.6.15l-.28,1.88c-.55-.12-1.04-.18-1.46-.18-1.08,0-2.01.44-2.78,1.32-.77.88-1.15,1.97-1.15,3.28v7.18h-2.03v-13.38h1.67l.23,2.48h.1c.5-.87,1.09-1.54,1.79-2.01.7-.47,1.47-.71,2.31-.71Z"/>
    <path d="M1129.72,147.35c-1.98,0-3.54-.6-4.68-1.81-1.14-1.2-1.72-2.88-1.72-5.02s.53-3.87,1.59-5.14c1.06-1.27,2.49-1.9,4.28-1.9,1.68,0,3,.55,3.98,1.65.98,1.1,1.46,2.56,1.46,4.36v1.28h-9.22c.04,1.57.44,2.76,1.19,3.58.75.81,1.81,1.22,3.18,1.22,1.44,0,2.86-.3,4.27-.9v1.81c-.72.31-1.39.53-2.03.67-.64.13-1.41.2-2.31.2ZM1129.17,135.18c-1.07,0-1.93.35-2.57,1.05-.64.7-1.02,1.67-1.13,2.91h7c0-1.28-.29-2.26-.85-2.94-.57-.68-1.38-1.02-2.44-1.02Z"/>
    <path d="M1153.69,145.31h-.11c-.94,1.36-2.34,2.04-4.2,2.04-1.75,0-3.11-.6-4.08-1.79-.97-1.2-1.46-2.9-1.46-5.1s.49-3.92,1.46-5.14,2.33-1.83,4.08-1.83,3.21.66,4.17,1.98h.16l-.08-.96-.05-.94v-5.44h2.03v18.99h-1.65l-.27-1.79ZM1149.64,145.65c1.38,0,2.39-.38,3.01-1.13.62-.75.93-1.97.93-3.64v-.43c0-1.9-.32-3.25-.95-4.06-.63-.81-1.64-1.21-3.02-1.21-1.19,0-2.1.46-2.73,1.39-.63.92-.95,2.23-.95,3.91s.31,3,.94,3.87c.63.87,1.55,1.31,2.76,1.31Z"/>
    <path d="M1165.56,147.35c-1.98,0-3.54-.6-4.68-1.81-1.14-1.2-1.72-2.88-1.72-5.02s.53-3.87,1.59-5.14c1.06-1.27,2.49-1.9,4.28-1.9,1.68,0,3,.55,3.98,1.65.98,1.1,1.46,2.56,1.46,4.36v1.28h-9.22c.04,1.57.44,2.76,1.19,3.58.75.81,1.81,1.22,3.18,1.22,1.44,0,2.86-.3,4.27-.9v1.81c-.72.31-1.39.53-2.03.67-.64.13-1.41.2-2.31.2ZM1165.01,135.18c-1.07,0-1.93.35-2.57,1.05-.64.7-1.02,1.67-1.13,2.91h7c0-1.28-.29-2.26-.85-2.94-.57-.68-1.38-1.02-2.44-1.02Z"/>
    <path d="M916.2,177.1h-11.73v-1.75l4.7-4.72c1.43-1.45,2.38-2.48,2.83-3.1.46-.62.8-1.22,1.03-1.81.23-.59.34-1.22.34-1.89,0-.95-.29-1.71-.87-2.26-.58-.56-1.38-.84-2.4-.84-.74,0-1.44.12-2.11.37-.66.24-1.4.69-2.21,1.33l-1.07-1.38c1.64-1.37,3.43-2.05,5.37-2.05,1.68,0,2.99.43,3.94,1.29.95.86,1.43,2.01,1.43,3.46,0,1.13-.32,2.25-.95,3.36-.63,1.11-1.82,2.51-3.56,4.2l-3.91,3.82v.1h9.18v1.88Z"/>
    <path d="M930.59,168.15c0,3.08-.49,5.39-1.46,6.91-.97,1.52-2.46,2.28-4.46,2.28s-3.38-.78-4.38-2.34c-1-1.56-1.5-3.84-1.5-6.85s.48-5.42,1.45-6.92c.97-1.51,2.45-2.26,4.43-2.26s3.41.79,4.41,2.36c1,1.57,1.51,3.85,1.51,6.82ZM920.84,168.15c0,2.6.3,4.49.92,5.67.61,1.18,1.58,1.78,2.92,1.78s2.33-.6,2.94-1.8c.61-1.2.91-3.08.91-5.65s-.3-4.44-.91-5.63c-.61-1.19-1.58-1.79-2.94-1.79s-2.31.59-2.92,1.76c-.61,1.18-.92,3.06-.92,5.66Z"/>
    <path d="M944.79,177.1h-11.73v-1.75l4.7-4.72c1.43-1.45,2.38-2.48,2.83-3.1.46-.62.8-1.22,1.03-1.81.23-.59.34-1.22.34-1.89,0-.95-.29-1.71-.87-2.26-.58-.56-1.38-.84-2.4-.84-.74,0-1.44.12-2.11.37-.66.24-1.4.69-2.21,1.33l-1.07-1.38c1.64-1.37,3.43-2.05,5.37-2.05,1.68,0,2.99.43,3.94,1.29.95.86,1.43,2.01,1.43,3.46,0,1.13-.32,2.25-.95,3.36-.63,1.11-1.82,2.51-3.56,4.2l-3.91,3.82v.1h9.18v1.88Z"/>
    <path d="M959.93,173h-2.65v4.1h-1.94v-4.1h-8.68v-1.77l8.47-12.07h2.15v12h2.65v1.84ZM955.34,171.16v-5.93c0-1.16.04-2.48.12-3.94h-.1c-.39.78-.76,1.43-1.1,1.94l-5.58,7.93h6.65Z"/>
    <path d="M977.3,177.1l-.4-1.9h-.1c-.67.84-1.33,1.41-2,1.7-.66.3-1.49.45-2.48.45-1.33,0-2.37-.34-3.12-1.03-.75-.68-1.13-1.66-1.13-2.92,0-2.7,2.16-4.12,6.48-4.25l2.27-.07v-.83c0-1.05-.23-1.82-.68-2.33-.45-.5-1.17-.75-2.17-.75-1.12,0-2.38.34-3.78,1.03l-.62-1.55c.66-.36,1.38-.64,2.17-.84.79-.2,1.57-.31,2.36-.31,1.59,0,2.78.35,3.55,1.06.77.71,1.15,1.84,1.15,3.41v9.13h-1.5ZM972.72,175.67c1.26,0,2.25-.35,2.97-1.04.72-.69,1.08-1.66,1.08-2.91v-1.21l-2.03.09c-1.61.06-2.77.31-3.49.75-.71.44-1.07,1.13-1.07,2.07,0,.73.22,1.29.67,1.67.44.38,1.06.57,1.86.57Z"/>
    <path d="M985,177.1h-2.03v-18.99h2.03v18.99Z"/>
    <path d="M1002.37,177.1h-1.98v-12.72c0-1.06.03-2.06.1-3-.17.17-.36.35-.57.54-.21.19-1.18.98-2.91,2.38l-1.07-1.39,4.72-3.65h1.71v17.85Z"/>
    <path d="M1020.89,177.1h-11.73v-1.75l4.7-4.72c1.43-1.45,2.38-2.48,2.83-3.1.46-.62.8-1.22,1.03-1.81.23-.59.34-1.22.34-1.89,0-.95-.29-1.71-.87-2.26-.58-.56-1.38-.84-2.4-.84-.74,0-1.44.12-2.11.37-.66.24-1.4.69-2.21,1.33l-1.07-1.38c1.64-1.37,3.43-2.05,5.37-2.05,1.68,0,2.99.43,3.94,1.29.95.86,1.43,2.01,1.43,3.46,0,1.13-.32,2.25-.95,3.36-.63,1.11-1.82,2.51-3.56,4.2l-3.91,3.82v.1h9.18v1.88Z"/>
    <path d="M1039.98,175.31h-.11c-.94,1.36-2.34,2.04-4.2,2.04-1.75,0-3.11-.6-4.08-1.79s-1.46-2.9-1.46-5.1.49-3.92,1.46-5.14,2.34-1.83,4.08-1.83,3.21.66,4.17,1.98h.16l-.09-.96-.05-.94v-5.44h2.03v18.99h-1.65l-.27-1.79ZM1035.93,175.65c1.38,0,2.39-.38,3.01-1.13.62-.75.93-1.97.93-3.64v-.43c0-1.9-.32-3.25-.95-4.06-.63-.81-1.64-1.21-3.02-1.21-1.19,0-2.1.46-2.73,1.39-.63.92-.95,2.23-.95,3.91s.31,3,.94,3.87c.63.87,1.55,1.31,2.76,1.31Z"/>
    <path d="M1051.85,177.35c-1.98,0-3.54-.6-4.68-1.81-1.14-1.2-1.71-2.88-1.71-5.02s.53-3.87,1.59-5.14c1.06-1.27,2.49-1.9,4.28-1.9,1.68,0,3,.55,3.98,1.65.98,1.1,1.46,2.56,1.46,4.36v1.28h-9.22c.04,1.57.44,2.76,1.19,3.58.75.81,1.81,1.22,3.18,1.22,1.44,0,2.86-.3,4.27-.9v1.81c-.72.31-1.39.53-2.03.67-.64.13-1.41.2-2.31.2ZM1051.3,165.18c-1.07,0-1.93.35-2.57,1.05-.64.7-1.02,1.67-1.13,2.91h6.99c0-1.28-.29-2.26-.85-2.94-.57-.68-1.38-1.02-2.44-1.02Z"/>
    <path d="M1083.77,177.1v-8.7c0-1.07-.23-1.87-.68-2.4-.46-.53-1.16-.8-2.12-.8-1.26,0-2.19.36-2.79,1.09-.6.72-.9,1.84-.9,3.34v7.47h-2.03v-8.7c0-1.07-.23-1.87-.68-2.4-.46-.53-1.17-.8-2.14-.8-1.27,0-2.2.38-2.79,1.14-.59.76-.88,2.01-.88,3.74v7.02h-2.03v-13.38h1.65l.33,1.83h.1c.38-.65.92-1.16,1.62-1.53.7-.37,1.47-.55,2.34-.55,2.09,0,3.46.76,4.1,2.27h.1c.4-.7.98-1.25,1.73-1.66.76-.41,1.62-.61,2.59-.61,1.51,0,2.65.39,3.4,1.17.75.78,1.13,2.02,1.13,3.73v8.73h-2.03Z"/>
    <path d="M1098.2,177.1l-.4-1.9h-.1c-.67.84-1.33,1.41-2,1.7-.66.3-1.49.45-2.48.45-1.33,0-2.37-.34-3.12-1.03-.75-.68-1.13-1.66-1.13-2.92,0-2.7,2.16-4.12,6.48-4.25l2.27-.07v-.83c0-1.05-.23-1.82-.68-2.33-.45-.5-1.17-.75-2.17-.75-1.12,0-2.38.34-3.78,1.03l-.62-1.55c.66-.36,1.38-.64,2.17-.84.79-.2,1.57-.31,2.36-.31,1.59,0,2.78.35,3.55,1.06.77.71,1.15,1.84,1.15,3.41v9.13h-1.5ZM1093.62,175.67c1.26,0,2.25-.35,2.97-1.04.72-.69,1.08-1.66,1.08-2.91v-1.21l-2.03.09c-1.61.06-2.77.31-3.49.75-.71.44-1.07,1.13-1.07,2.07,0,.73.22,1.29.67,1.67.44.38,1.06.57,1.86.57Z"/>
    <path d="M1109.98,163.48c.59,0,1.13.05,1.6.15l-.28,1.88c-.55-.12-1.04-.18-1.46-.18-1.08,0-2.01.44-2.78,1.32-.77.88-1.15,1.97-1.15,3.28v7.18h-2.03v-13.38h1.67l.23,2.48h.1c.5-.87,1.09-1.54,1.79-2.01.7-.47,1.47-.71,2.31-.71Z"/>
    <path d="M1122.64,177.1h-9.7v-1.38l7.3-10.42h-6.85v-1.57h9.07v1.57l-7.2,10.23h7.38v1.57Z"/>
    <path d="M1137.32,170.4c0,2.18-.55,3.88-1.65,5.11-1.1,1.22-2.62,1.84-4.55,1.84-1.2,0-2.26-.28-3.19-.84s-1.64-1.37-2.15-2.42-.76-2.28-.76-3.69c0-2.18.54-3.88,1.64-5.1,1.09-1.22,2.6-1.83,4.54-1.83s3.36.62,4.46,1.87,1.65,2.93,1.65,5.05ZM1127.13,170.4c0,1.71.34,3.01,1.03,3.91.68.9,1.69,1.34,3.02,1.34s2.33-.45,3.02-1.34c.69-.89,1.03-2.2,1.03-3.91s-.34-2.99-1.03-3.88c-.69-.88-1.7-1.32-3.05-1.32s-2.33.44-3,1.31c-.68.87-1.01,2.17-1.01,3.89Z"/>
    <path d="M1156.47,175.31h-.11c-.94,1.36-2.34,2.04-4.2,2.04-1.75,0-3.11-.6-4.08-1.79-.97-1.2-1.46-2.9-1.46-5.1s.49-3.92,1.46-5.14,2.33-1.83,4.08-1.83,3.21.66,4.17,1.98h.16l-.08-.96-.05-.94v-5.44h2.03v18.99h-1.65l-.27-1.79ZM1152.42,175.65c1.38,0,2.39-.38,3.01-1.13.62-.75.93-1.97.93-3.64v-.43c0-1.9-.32-3.25-.95-4.06-.63-.81-1.64-1.21-3.02-1.21-1.19,0-2.1.46-2.73,1.39-.63.92-.95,2.23-.95,3.91s.31,3,.94,3.87c.63.87,1.55,1.31,2.76,1.31Z"/>
    <path d="M1168.34,177.35c-1.98,0-3.54-.6-4.68-1.81-1.14-1.2-1.72-2.88-1.72-5.02s.53-3.87,1.59-5.14c1.06-1.27,2.49-1.9,4.28-1.9,1.68,0,3,.55,3.98,1.65.98,1.1,1.46,2.56,1.46,4.36v1.28h-9.22c.04,1.57.44,2.76,1.19,3.58.75.81,1.81,1.22,3.18,1.22,1.44,0,2.86-.3,4.27-.9v1.81c-.72.31-1.39.53-2.03.67-.64.13-1.41.2-2.31.2ZM1167.79,165.18c-1.07,0-1.93.35-2.57,1.05-.64.7-1.02,1.67-1.13,2.91h7c0-1.28-.29-2.26-.85-2.94-.57-.68-1.38-1.02-2.44-1.02Z"/>
    <path d="M916.2,207.1h-11.73v-1.75l4.7-4.72c1.43-1.45,2.38-2.48,2.83-3.1.46-.62.8-1.22,1.03-1.81.23-.59.34-1.22.34-1.89,0-.95-.29-1.71-.87-2.26-.58-.56-1.38-.84-2.4-.84-.74,0-1.44.12-2.11.37-.66.24-1.4.69-2.21,1.33l-1.07-1.38c1.64-1.37,3.43-2.05,5.37-2.05,1.68,0,2.99.43,3.94,1.29.95.86,1.43,2.01,1.43,3.46,0,1.13-.32,2.25-.95,3.36-.63,1.11-1.82,2.51-3.56,4.2l-3.91,3.82v.1h9.18v1.88Z"/>
    <path d="M930.59,198.15c0,3.08-.49,5.39-1.46,6.91-.97,1.52-2.46,2.28-4.46,2.28s-3.38-.78-4.38-2.34c-1-1.56-1.5-3.84-1.5-6.85s.48-5.42,1.45-6.92c.97-1.51,2.45-2.26,4.43-2.26s3.41.79,4.41,2.36c1,1.57,1.51,3.85,1.51,6.82ZM920.84,198.15c0,2.6.3,4.49.92,5.67.61,1.18,1.58,1.78,2.92,1.78s2.33-.6,2.94-1.8c.61-1.2.91-3.08.91-5.65s-.3-4.44-.91-5.63c-.61-1.19-1.58-1.79-2.94-1.79s-2.31.59-2.92,1.76c-.61,1.18-.92,3.06-.92,5.66Z"/>
    <path d="M944.79,207.1h-11.73v-1.75l4.7-4.72c1.43-1.45,2.38-2.48,2.83-3.1.46-.62.8-1.22,1.03-1.81.23-.59.34-1.22.34-1.89,0-.95-.29-1.71-.87-2.26-.58-.56-1.38-.84-2.4-.84-.74,0-1.44.12-2.11.37-.66.24-1.4.69-2.21,1.33l-1.07-1.38c1.64-1.37,3.43-2.05,5.37-2.05,1.68,0,2.99.43,3.94,1.29.95.86,1.43,2.01,1.43,3.46,0,1.13-.32,2.25-.95,3.36-.63,1.11-1.82,2.51-3.56,4.2l-3.91,3.82v.1h9.18v1.88Z"/>
    <path d="M952.93,196.2c1.88,0,3.36.47,4.44,1.4,1.08.93,1.62,2.21,1.62,3.83,0,1.85-.59,3.3-1.76,4.35s-2.8,1.57-4.86,1.57-3.54-.32-4.6-.96v-1.95c.57.37,1.28.65,2.12.86.85.21,1.68.31,2.5.31,1.43,0,2.54-.34,3.34-1.01.79-.68,1.19-1.65,1.19-2.93,0-2.49-1.53-3.74-4.58-3.74-.77,0-1.81.12-3.1.35l-1.05-.67.67-8.35h8.88v1.87h-7.14l-.45,5.36c.94-.19,1.87-.28,2.79-.28Z"/>
  </g>
  <g>
    <path d="M1219.96,138.01c0,2.95-.8,5.2-2.4,6.76-1.6,1.56-3.9,2.34-6.9,2.34h-4.94v-17.85h5.47c2.77,0,4.93.77,6.47,2.31s2.31,3.69,2.31,6.45ZM1217.76,138.08c0-2.33-.58-4.08-1.75-5.26-1.17-1.18-2.9-1.77-5.21-1.77h-3.01v14.26h2.53c2.47,0,4.33-.61,5.58-1.82,1.25-1.22,1.87-3.02,1.87-5.4Z"/>
    <path d="M1229.28,147.35c-1.98,0-3.54-.6-4.68-1.81-1.14-1.2-1.72-2.88-1.72-5.02s.53-3.87,1.59-5.14c1.06-1.27,2.49-1.9,4.28-1.9,1.68,0,3,.55,3.98,1.65.98,1.1,1.46,2.56,1.46,4.36v1.28h-9.22c.04,1.57.44,2.76,1.19,3.58.75.81,1.81,1.22,3.18,1.22,1.44,0,2.86-.3,4.27-.9v1.81c-.72.31-1.39.53-2.03.67-.64.13-1.41.2-2.31.2ZM1228.73,135.18c-1.07,0-1.93.35-2.57,1.05-.64.7-1.02,1.67-1.13,2.91h7c0-1.28-.29-2.26-.85-2.94-.57-.68-1.38-1.02-2.44-1.02Z"/>
    <path d="M1239.68,147.1h-2.03v-18.99h2.03v18.99Z"/>
    <path d="M1257.05,147.1h-1.98v-12.72c0-1.06.03-2.06.1-3-.17.17-.36.35-.57.54-.21.19-1.18.98-2.91,2.38l-1.07-1.39,4.72-3.65h1.71v17.85Z"/>
    <path d="M1274.9,133.46c0,1.14-.32,2.07-.96,2.8-.64.72-1.54,1.21-2.72,1.45v.1c1.43.18,2.49.63,3.19,1.37.69.73,1.04,1.69,1.04,2.88,0,1.7-.59,3.01-1.77,3.92-1.18.92-2.86,1.37-5.03,1.37-.94,0-1.81-.07-2.59-.21-.79-.14-1.55-.39-2.29-.75v-1.93c.77.38,1.6.67,2.47.87.88.2,1.7.3,2.48.3,3.08,0,4.63-1.21,4.63-3.63,0-2.16-1.7-3.25-5.1-3.25h-1.76v-1.75h1.78c1.39,0,2.49-.31,3.31-.92.81-.61,1.22-1.47,1.22-2.56,0-.87-.3-1.55-.9-2.05-.6-.5-1.41-.74-2.44-.74-.78,0-1.52.11-2.21.32-.69.21-1.48.6-2.37,1.17l-1.03-1.37c.73-.58,1.58-1.03,2.53-1.36.96-.33,1.96-.49,3.02-.49,1.73,0,3.08.4,4.04,1.19.96.79,1.44,1.88,1.44,3.27Z"/>
    <path d="M1294.66,145.31h-.11c-.94,1.36-2.34,2.04-4.2,2.04-1.75,0-3.11-.6-4.08-1.79-.97-1.2-1.46-2.9-1.46-5.1s.49-3.92,1.46-5.14,2.33-1.83,4.08-1.83,3.21.66,4.17,1.98h.16l-.08-.96-.05-.94v-5.44h2.03v18.99h-1.65l-.27-1.79ZM1290.61,145.65c1.38,0,2.39-.38,3.01-1.13.62-.75.93-1.97.93-3.64v-.43c0-1.9-.32-3.25-.95-4.06-.63-.81-1.64-1.21-3.02-1.21-1.19,0-2.1.46-2.73,1.39-.63.92-.95,2.23-.95,3.91s.31,3,.94,3.87c.63.87,1.55,1.31,2.76,1.31Z"/>
    <path d="M1306.53,147.35c-1.98,0-3.54-.6-4.68-1.81-1.14-1.2-1.72-2.88-1.72-5.02s.53-3.87,1.59-5.14c1.06-1.27,2.49-1.9,4.28-1.9,1.68,0,3,.55,3.98,1.65.98,1.1,1.46,2.56,1.46,4.36v1.28h-9.22c.04,1.57.44,2.76,1.19,3.58.75.81,1.81,1.22,3.18,1.22,1.44,0,2.86-.3,4.27-.9v1.81c-.72.31-1.39.53-2.03.67-.64.13-1.41.2-2.31.2ZM1305.98,135.18c-1.07,0-1.93.35-2.57,1.05-.64.7-1.02,1.67-1.13,2.91h7c0-1.28-.29-2.26-.85-2.94-.57-.68-1.38-1.02-2.44-1.02Z"/>
    <path d="M1338.45,147.1v-8.7c0-1.07-.23-1.87-.68-2.4-.46-.53-1.16-.8-2.12-.8-1.26,0-2.19.36-2.8,1.09-.6.72-.9,1.84-.9,3.34v7.47h-2.03v-8.7c0-1.07-.23-1.87-.68-2.4-.46-.53-1.17-.8-2.14-.8-1.27,0-2.2.38-2.79,1.14-.59.76-.88,2.01-.88,3.74v7.02h-2.03v-13.38h1.65l.33,1.83h.1c.38-.65.92-1.16,1.62-1.53.7-.37,1.48-.55,2.34-.55,2.09,0,3.46.76,4.1,2.27h.1c.4-.7.98-1.25,1.73-1.66.76-.41,1.62-.61,2.59-.61,1.51,0,2.65.39,3.4,1.17.75.78,1.13,2.02,1.13,3.73v8.73h-2.03Z"/>
    <path d="M1352.88,147.1l-.4-1.9h-.1c-.67.84-1.33,1.41-2,1.7-.66.3-1.49.45-2.48.45-1.33,0-2.37-.34-3.12-1.03s-1.13-1.66-1.13-2.92c0-2.7,2.16-4.12,6.48-4.25l2.27-.07v-.83c0-1.05-.23-1.82-.68-2.33-.45-.5-1.17-.75-2.17-.75-1.12,0-2.38.34-3.78,1.03l-.62-1.55c.66-.36,1.38-.64,2.17-.84.79-.2,1.57-.31,2.36-.31,1.59,0,2.78.35,3.55,1.06.77.71,1.15,1.84,1.15,3.41v9.13h-1.5ZM1348.3,145.67c1.26,0,2.25-.35,2.97-1.04.72-.69,1.08-1.66,1.08-2.91v-1.21l-2.03.09c-1.61.06-2.77.31-3.48.75-.71.44-1.07,1.13-1.07,2.07,0,.73.22,1.29.67,1.67.44.38,1.06.57,1.86.57Z"/>
    <path d="M1364.66,133.48c.59,0,1.13.05,1.6.15l-.28,1.88c-.55-.12-1.04-.18-1.46-.18-1.08,0-2.01.44-2.78,1.32-.77.88-1.15,1.97-1.15,3.28v7.18h-2.03v-13.38h1.67l.23,2.48h.1c.5-.87,1.09-1.54,1.79-2.01.7-.47,1.47-.71,2.31-.71Z"/>
    <path d="M1377.32,147.1h-9.71v-1.38l7.3-10.42h-6.85v-1.57h9.07v1.57l-7.2,10.23h7.39v1.57Z"/>
    <path d="M1392,140.4c0,2.18-.55,3.88-1.65,5.11-1.1,1.22-2.62,1.84-4.55,1.84-1.2,0-2.26-.28-3.19-.84s-1.64-1.37-2.15-2.42c-.5-1.05-.76-2.28-.76-3.69,0-2.18.54-3.88,1.64-5.1,1.09-1.22,2.6-1.83,4.54-1.83s3.36.62,4.46,1.87c1.1,1.25,1.65,2.93,1.65,5.05ZM1381.81,140.4c0,1.71.34,3.01,1.03,3.91.68.9,1.69,1.34,3.01,1.34s2.33-.45,3.02-1.34c.69-.89,1.03-2.2,1.03-3.91s-.34-2.99-1.03-3.88c-.69-.88-1.7-1.32-3.05-1.32s-2.33.44-3,1.31c-.68.87-1.01,2.17-1.01,3.89Z"/>
    <path d="M1411.16,145.31h-.11c-.94,1.36-2.34,2.04-4.2,2.04-1.75,0-3.11-.6-4.08-1.79s-1.46-2.9-1.46-5.1.49-3.92,1.46-5.14,2.34-1.83,4.08-1.83,3.21.66,4.17,1.98h.16l-.09-.96-.05-.94v-5.44h2.03v18.99h-1.65l-.27-1.79ZM1407.1,145.65c1.38,0,2.39-.38,3.01-1.13.62-.75.93-1.97.93-3.64v-.43c0-1.9-.32-3.25-.95-4.06-.63-.81-1.64-1.21-3.02-1.21-1.19,0-2.1.46-2.73,1.39-.63.92-.95,2.23-.95,3.91s.31,3,.94,3.87c.63.87,1.55,1.31,2.76,1.31Z"/>
    <path d="M1423.02,147.35c-1.98,0-3.54-.6-4.68-1.81-1.14-1.2-1.71-2.88-1.71-5.02s.53-3.87,1.59-5.14c1.06-1.27,2.49-1.9,4.28-1.9,1.68,0,3,.55,3.98,1.65.98,1.1,1.46,2.56,1.46,4.36v1.28h-9.22c.04,1.57.44,2.76,1.19,3.58.75.81,1.81,1.22,3.18,1.22,1.44,0,2.86-.3,4.27-.9v1.81c-.72.31-1.39.53-2.03.67-.64.13-1.41.2-2.31.2ZM1422.47,135.18c-1.07,0-1.93.35-2.57,1.05-.64.7-1.02,1.67-1.13,2.91h6.99c0-1.28-.29-2.26-.85-2.94-.57-.68-1.38-1.02-2.44-1.02Z"/>
    <path d="M1216.21,177.1h-11.73v-1.75l4.7-4.72c1.43-1.45,2.38-2.48,2.83-3.1.46-.62.8-1.22,1.03-1.81.23-.59.34-1.22.34-1.89,0-.95-.29-1.71-.87-2.26-.58-.56-1.38-.84-2.4-.84-.74,0-1.44.12-2.11.37-.66.24-1.4.69-2.21,1.33l-1.07-1.38c1.64-1.37,3.43-2.05,5.37-2.05,1.68,0,2.99.43,3.94,1.29.95.86,1.43,2.01,1.43,3.46,0,1.13-.32,2.25-.95,3.36-.63,1.11-1.82,2.51-3.56,4.2l-3.91,3.82v.1h9.18v1.88Z"/>
    <path d="M1230.6,168.15c0,3.08-.49,5.39-1.46,6.91-.97,1.52-2.46,2.28-4.46,2.28s-3.38-.78-4.38-2.34c-1-1.56-1.5-3.84-1.5-6.85s.48-5.42,1.45-6.92c.97-1.51,2.45-2.26,4.43-2.26s3.41.79,4.41,2.36c1,1.57,1.51,3.85,1.51,6.82ZM1220.85,168.15c0,2.6.3,4.49.92,5.67.61,1.18,1.58,1.78,2.92,1.78s2.33-.6,2.94-1.8c.61-1.2.91-3.08.91-5.65s-.3-4.44-.91-5.63c-.61-1.19-1.58-1.79-2.94-1.79s-2.31.59-2.92,1.76c-.61,1.18-.92,3.06-.92,5.66Z"/>
    <path d="M1244.8,177.1h-11.73v-1.75l4.7-4.72c1.43-1.45,2.38-2.48,2.83-3.1.46-.62.8-1.22,1.03-1.81.23-.59.34-1.22.34-1.89,0-.95-.29-1.71-.87-2.26-.58-.56-1.38-.84-2.4-.84-.74,0-1.44.12-2.11.37-.66.24-1.4.69-2.21,1.33l-1.07-1.38c1.64-1.37,3.43-2.05,5.37-2.05,1.68,0,2.99.43,3.94,1.29.95.86,1.43,2.01,1.43,3.46,0,1.13-.32,2.25-.95,3.36-.63,1.11-1.82,2.51-3.56,4.2l-3.91,3.82v.1h9.18v1.88Z"/>
    <path d="M1252.94,166.2c1.88,0,3.36.47,4.44,1.4,1.08.93,1.62,2.21,1.62,3.83,0,1.85-.59,3.3-1.76,4.35s-2.8,1.57-4.86,1.57-3.54-.32-4.6-.96v-1.95c.57.37,1.28.65,2.12.86.85.21,1.68.31,2.5.31,1.43,0,2.54-.34,3.34-1.01.79-.68,1.19-1.65,1.19-2.93,0-2.49-1.53-3.74-4.58-3.74-.77,0-1.81.12-3.1.35l-1.05-.67.67-8.35h8.88v1.87h-7.14l-.45,5.36c.94-.19,1.87-.28,2.79-.28Z"/>
    <path d="M1277.3,177.1l-.4-1.9h-.1c-.67.84-1.33,1.41-2,1.7-.66.3-1.49.45-2.48.45-1.33,0-2.37-.34-3.12-1.03-.75-.68-1.13-1.66-1.13-2.92,0-2.7,2.16-4.12,6.48-4.25l2.27-.07v-.83c0-1.05-.23-1.82-.68-2.33-.45-.5-1.17-.75-2.17-.75-1.12,0-2.38.34-3.78,1.03l-.62-1.55c.66-.36,1.38-.64,2.17-.84.79-.2,1.57-.31,2.36-.31,1.59,0,2.78.35,3.55,1.06.77.71,1.15,1.84,1.15,3.41v9.13h-1.5ZM1272.73,175.67c1.26,0,2.25-.35,2.97-1.04.72-.69,1.08-1.66,1.08-2.91v-1.21l-2.03.09c-1.61.06-2.77.31-3.49.75-.71.44-1.07,1.13-1.07,2.07,0,.73.22,1.29.67,1.67.44.38,1.06.57,1.86.57Z"/>
    <path d="M1285.01,177.1h-2.03v-18.99h2.03v18.99Z"/>
    <path d="M1302.38,177.1h-1.98v-12.72c0-1.06.03-2.06.1-3-.17.17-.36.35-.57.54-.21.19-1.18.98-2.91,2.38l-1.07-1.39,4.72-3.65h1.71v17.85Z"/>
    <path d="M1320.9,177.1h-11.73v-1.75l4.7-4.72c1.43-1.45,2.38-2.48,2.83-3.1.46-.62.8-1.22,1.03-1.81.23-.59.34-1.22.34-1.89,0-.95-.29-1.71-.87-2.26-.58-.56-1.38-.84-2.4-.84-.74,0-1.44.12-2.11.37-.66.24-1.4.69-2.21,1.33l-1.07-1.38c1.64-1.37,3.43-2.05,5.37-2.05,1.68,0,2.99.43,3.94,1.29.95.86,1.43,2.01,1.43,3.46,0,1.13-.32,2.25-.95,3.36-.63,1.11-1.82,2.51-3.56,4.2l-3.91,3.82v.1h9.18v1.88Z"/>
    <path d="M1339.99,175.31h-.11c-.94,1.36-2.34,2.04-4.2,2.04-1.75,0-3.11-.6-4.08-1.79s-1.46-2.9-1.46-5.1.49-3.92,1.46-5.14,2.34-1.83,4.08-1.83,3.21.66,4.17,1.98h.16l-.09-.96-.05-.94v-5.44h2.03v18.99h-1.65l-.27-1.79ZM1335.94,175.65c1.38,0,2.39-.38,3.01-1.13.62-.75.93-1.97.93-3.64v-.43c0-1.9-.32-3.25-.95-4.06-.63-.81-1.64-1.21-3.02-1.21-1.19,0-2.1.46-2.73,1.39-.63.92-.95,2.23-.95,3.91s.31,3,.94,3.87c.63.87,1.55,1.31,2.76,1.31Z"/>
    <path d="M1351.85,177.35c-1.98,0-3.54-.6-4.68-1.81-1.14-1.2-1.71-2.88-1.71-5.02s.53-3.87,1.59-5.14c1.06-1.27,2.49-1.9,4.28-1.9,1.68,0,3,.55,3.98,1.65.98,1.1,1.46,2.56,1.46,4.36v1.28h-9.22c.04,1.57.44,2.76,1.19,3.58.75.81,1.81,1.22,3.18,1.22,1.44,0,2.86-.3,4.27-.9v1.81c-.72.31-1.39.53-2.03.67-.64.13-1.41.2-2.31.2ZM1351.3,165.18c-1.07,0-1.93.35-2.57,1.05-.64.7-1.02,1.67-1.13,2.91h6.99c0-1.28-.29-2.26-.85-2.94-.57-.68-1.38-1.02-2.44-1.02Z"/>
    <path d="M1383.77,177.1v-8.7c0-1.07-.23-1.87-.68-2.4-.46-.53-1.16-.8-2.12-.8-1.26,0-2.19.36-2.79,1.09-.6.72-.9,1.84-.9,3.34v7.47h-2.03v-8.7c0-1.07-.23-1.87-.68-2.4-.46-.53-1.17-.8-2.14-.8-1.27,0-2.2.38-2.79,1.14-.59.76-.88,2.01-.88,3.74v7.02h-2.03v-13.38h1.65l.33,1.83h.1c.38-.65.92-1.16,1.62-1.53.7-.37,1.47-.55,2.34-.55,2.09,0,3.46.76,4.1,2.27h.1c.4-.7.98-1.25,1.73-1.66.76-.41,1.62-.61,2.59-.61,1.51,0,2.65.39,3.4,1.17.75.78,1.13,2.02,1.13,3.73v8.73h-2.03Z"/>
    <path d="M1398.2,177.1l-.4-1.9h-.1c-.67.84-1.33,1.41-2,1.7-.66.3-1.49.45-2.48.45-1.33,0-2.37-.34-3.12-1.03-.75-.68-1.13-1.66-1.13-2.92,0-2.7,2.16-4.12,6.48-4.25l2.27-.07v-.83c0-1.05-.23-1.82-.68-2.33-.45-.5-1.17-.75-2.17-.75-1.12,0-2.38.34-3.78,1.03l-.62-1.55c.66-.36,1.38-.64,2.17-.84.79-.2,1.57-.31,2.36-.31,1.59,0,2.78.35,3.55,1.06.77.71,1.15,1.84,1.15,3.41v9.13h-1.5ZM1393.63,175.67c1.26,0,2.25-.35,2.97-1.04.72-.69,1.08-1.66,1.08-2.91v-1.21l-2.03.09c-1.61.06-2.77.31-3.49.75-.71.44-1.07,1.13-1.07,2.07,0,.73.22,1.29.67,1.67.44.38,1.06.57,1.86.57Z"/>
    <path d="M1409.98,163.48c.59,0,1.13.05,1.6.15l-.28,1.88c-.55-.12-1.04-.18-1.46-.18-1.08,0-2.01.44-2.78,1.32-.77.88-1.15,1.97-1.15,3.28v7.18h-2.03v-13.38h1.67l.23,2.48h.1c.5-.87,1.09-1.54,1.79-2.01.7-.47,1.47-.71,2.31-.71Z"/>
    <path d="M1422.64,177.1h-9.7v-1.38l7.3-10.42h-6.85v-1.57h9.07v1.57l-7.2,10.23h7.38v1.57Z"/>
    <path d="M1437.33,170.4c0,2.18-.55,3.88-1.65,5.11-1.1,1.22-2.62,1.84-4.55,1.84-1.2,0-2.26-.28-3.19-.84s-1.64-1.37-2.15-2.42-.76-2.28-.76-3.69c0-2.18.54-3.88,1.64-5.1,1.09-1.22,2.6-1.83,4.54-1.83s3.36.62,4.46,1.87,1.65,2.93,1.65,5.05ZM1427.13,170.4c0,1.71.34,3.01,1.03,3.91.68.9,1.69,1.34,3.02,1.34s2.33-.45,3.02-1.34c.69-.89,1.03-2.2,1.03-3.91s-.34-2.99-1.03-3.88c-.69-.88-1.7-1.32-3.05-1.32s-2.33.44-3,1.31c-.68.87-1.01,2.17-1.01,3.89Z"/>
    <path d="M1214.51,205.31h-.11c-.94,1.36-2.34,2.04-4.2,2.04-1.75,0-3.11-.6-4.08-1.79-.97-1.2-1.46-2.9-1.46-5.1s.49-3.92,1.46-5.14,2.33-1.83,4.08-1.83,3.21.66,4.17,1.98h.16l-.08-.96-.05-.94v-5.44h2.03v18.99h-1.65l-.27-1.79ZM1210.46,205.65c1.38,0,2.39-.38,3.01-1.13.62-.75.93-1.97.93-3.64v-.43c0-1.9-.32-3.25-.95-4.06-.63-.81-1.64-1.21-3.02-1.21-1.19,0-2.1.46-2.73,1.39-.63.92-.95,2.23-.95,3.91s.31,3,.94,3.87c.63.87,1.55,1.31,2.76,1.31Z"/>
    <path d="M1226.38,207.35c-1.98,0-3.54-.6-4.68-1.81-1.14-1.2-1.72-2.88-1.72-5.02s.53-3.87,1.59-5.14c1.06-1.27,2.49-1.9,4.28-1.9,1.68,0,3,.55,3.98,1.65.98,1.1,1.46,2.56,1.46,4.36v1.28h-9.22c.04,1.57.44,2.76,1.19,3.58.75.81,1.81,1.22,3.18,1.22,1.44,0,2.86-.3,4.27-.9v1.81c-.72.31-1.39.53-2.03.67-.64.13-1.41.2-2.31.2ZM1225.83,195.18c-1.07,0-1.93.35-2.57,1.05-.64.7-1.02,1.67-1.13,2.91h7c0-1.28-.29-2.26-.85-2.94-.57-.68-1.38-1.02-2.44-1.02Z"/>
    <path d="M1252.05,207.1h-11.73v-1.75l4.7-4.72c1.43-1.45,2.38-2.48,2.83-3.1.46-.62.8-1.22,1.03-1.81.23-.59.34-1.22.34-1.89,0-.95-.29-1.71-.87-2.26-.58-.56-1.38-.84-2.4-.84-.74,0-1.44.12-2.11.37-.66.24-1.4.69-2.21,1.33l-1.07-1.38c1.64-1.37,3.43-2.05,5.37-2.05,1.68,0,2.99.43,3.94,1.29.95.86,1.43,2.01,1.43,3.46,0,1.13-.32,2.25-.95,3.36-.63,1.11-1.82,2.51-3.56,4.2l-3.91,3.82v.1h9.18v1.88Z"/>
    <path d="M1266.44,198.15c0,3.08-.49,5.39-1.46,6.91-.97,1.52-2.46,2.28-4.46,2.28s-3.38-.78-4.38-2.34c-1-1.56-1.5-3.84-1.5-6.85s.48-5.42,1.45-6.92c.97-1.51,2.45-2.26,4.43-2.26s3.41.79,4.41,2.36c1,1.57,1.51,3.85,1.51,6.82ZM1256.69,198.15c0,2.6.3,4.49.92,5.67.61,1.18,1.58,1.78,2.92,1.78s2.33-.6,2.94-1.8c.61-1.2.91-3.08.91-5.65s-.3-4.44-.91-5.63c-.61-1.19-1.58-1.79-2.94-1.79s-2.31.59-2.92,1.76c-.61,1.18-.92,3.06-.92,5.66Z"/>
    <path d="M1280.64,207.1h-11.73v-1.75l4.7-4.72c1.43-1.45,2.38-2.48,2.83-3.1.46-.62.8-1.22,1.03-1.81.23-.59.34-1.22.34-1.89,0-.95-.29-1.71-.87-2.26-.58-.56-1.38-.84-2.4-.84-.74,0-1.44.12-2.11.37-.66.24-1.4.69-2.21,1.33l-1.07-1.38c1.64-1.37,3.43-2.05,5.37-2.05,1.68,0,2.99.43,3.94,1.29.95.86,1.43,2.01,1.43,3.46,0,1.13-.32,2.25-.95,3.36-.63,1.11-1.82,2.51-3.56,4.2l-3.91,3.82v.1h9.18v1.88Z"/>
    <path d="M1283.41,199.47c0-3.51.68-6.13,2.04-7.87,1.36-1.74,3.38-2.61,6.05-2.61.92,0,1.64.08,2.17.23v1.75c-.63-.2-1.34-.31-2.15-.31-1.91,0-3.37.6-4.38,1.79-1.01,1.19-1.56,3.07-1.66,5.62h.15c.9-1.4,2.31-2.1,4.25-2.1,1.6,0,2.87.48,3.79,1.45.92.97,1.38,2.28,1.38,3.94,0,1.86-.51,3.31-1.52,4.38-1.01,1.06-2.38,1.59-4.11,1.59-1.85,0-3.31-.69-4.39-2.08-1.08-1.39-1.62-3.32-1.62-5.79ZM1289.4,205.63c1.16,0,2.05-.36,2.69-1.09.64-.73.96-1.78.96-3.16,0-1.18-.3-2.11-.89-2.78-.59-.68-1.48-1.01-2.66-1.01-.73,0-1.4.15-2.01.45-.61.3-1.1.72-1.46,1.25-.36.53-.54,1.08-.54,1.65,0,.84.16,1.62.49,2.34.33.72.79,1.3,1.39,1.72.6.42,1.28.63,2.04.63Z"/>
  </g>
  <path class="cls-1" d="M1437.61,79.51H5.18c-.83,0-1.5-.67-1.5-1.5s.67-1.5,1.5-1.5h1432.44c.83,0,1.5.67,1.5,1.5s-.67,1.5-1.5,1.5Z"/>
  <path class="cls-2" d="M56.61,79.38v16.44c0,.84-2.22,1.84-3.46,1.46-1.5-.46-1.84-4.96-3.03-4.93-.75.02-2.11,3.87-5.49-.02.91,4.35-3.78,12.96-7.22,6.68l-2.78-7.68c.4,1.76-.85,14.19-3.99,11.95-4.76-7.57-7.82-15.8-11.52-23.91H1.11c-1.48,0-1.48-2.99,0-2.99h17.5c.2,0-.17-3.3,0-3.99,2.64-.5,4,.66,5.99,2v-8.97c2.47-1.5,6.68,2.21,6.99,2,.22-.15.3-3.47,2.51-2.99l4.5,4.98c-1.65-3.31,4.14-6.95,6.55-7,3.92-.07,3.51,9.31,6.45,10.98.7-5.89-1.65-11.44-.89-17.34.7-5.4,3.9-3.44,3.9-2.08v18.93c0,.52,1.23,2.26,1.15,3.34"/>
  <path class="cls-2" d="M352.7,79.38v16.44c0,.84-2.22,1.84-3.46,1.46-1.5-.46-1.84-4.96-3.03-4.93-.75.02-2.11,3.87-5.49-.02.91,4.35-3.78,12.96-7.22,6.68l-2.78-7.68c.4,1.76-.85,14.19-3.99,11.95-4.76-7.57-7.82-15.8-11.52-23.91h-18c-1.48,0-1.48-2.99,0-2.99h17.5c.2,0-.17-3.3,0-3.99,2.64-.5,4,.66,5.99,2v-8.97c2.47-1.5,6.68,2.21,6.99,2,.22-.15.3-3.47,2.51-2.99l4.5,4.98c-1.65-3.31,4.14-6.95,6.55-7,3.92-.07,3.51,9.31,6.45,10.98.7-5.89-1.65-11.44-.89-17.34.7-5.4,3.9-3.44,3.9-2.08v18.93c0,.52,1.23,2.26,1.15,3.34"/>
  <path class="cls-2" d="M657.06,79.38v16.44c0,.84-2.22,1.84-3.46,1.46-1.5-.46-1.84-4.96-3.03-4.93-.75.02-2.11,3.87-5.49-.02.91,4.35-3.78,12.96-7.22,6.68l-2.78-7.68c.4,1.76-.85,14.19-3.99,11.95-4.76-7.57-7.82-15.8-11.52-23.91h-18c-1.48,0-1.48-2.99,0-2.99h17.5c.2,0-.17-3.3,0-3.99,2.64-.5,4,.66,5.99,2v-8.97c2.47-1.5,6.68,2.21,6.99,2,.22-.15.3-3.47,2.51-2.99l4.5,4.98c-1.65-3.31,4.14-6.95,6.55-7,3.92-.07,3.51,9.31,6.45,10.98.7-5.89-1.65-11.44-.89-17.34.7-5.4,3.9-3.44,3.9-2.08v18.93c0,.52,1.23,2.26,1.15,3.34"/>
  <path class="cls-2" d="M944.14,79.38v16.44c0,.84-2.22,1.84-3.46,1.46-1.5-.46-1.84-4.96-3.03-4.93-.75.02-2.11,3.87-5.49-.02.91,4.35-3.78,12.96-7.22,6.68l-2.78-7.68c.4,1.76-.85,14.19-3.99,11.95-4.76-7.57-7.82-15.8-11.52-23.91h-18c-1.48,0-1.48-2.99,0-2.99h17.5c.2,0-.17-3.3,0-3.99,2.64-.5,4,.66,5.99,2v-8.97c2.47-1.5,6.68,2.21,6.99,2,.22-.15.3-3.47,2.51-2.99l4.5,4.98c-1.65-3.31,4.14-6.95,6.55-7,3.92-.07,3.51,9.31,6.45,10.98.7-5.89-1.65-11.44-.89-17.34.7-5.4,3.9-3.44,3.9-2.08v18.93c0,.52,1.23,2.26,1.15,3.34"/>
  <path class="cls-2" d="M1236.5,79.38v16.44c0,.84-2.22,1.84-3.46,1.46-1.5-.46-1.84-4.96-3.03-4.93-.75.02-2.11,3.87-5.49-.02.91,4.35-3.78,12.96-7.22,6.68l-2.78-7.68c.4,1.76-.85,14.19-3.99,11.95-4.76-7.57-7.82-15.8-11.52-23.91h-18c-1.48,0-1.48-2.99,0-2.99h17.5c.2,0-.17-3.3,0-3.99,2.64-.5,4,.66,5.99,2v-8.97c2.47-1.5,6.68,2.21,6.99,2,.22-.15.3-3.47,2.51-2.99l4.5,4.98c-1.65-3.31,4.14-6.95,6.55-7,3.92-.07,3.51,9.31,6.45,10.98.7-5.89-1.65-11.44-.89-17.34.7-5.4,3.9-3.44,3.9-2.08v18.93c0,.52,1.23,2.26,1.15,3.34"/>
</svg>