<?xml version="1.0" encoding="UTF-8"?>
<svg id="Capa_1" data-name="Capa 1" xmlns="http://www.w3.org/2000/svg" viewBox="0 0 1435.44 177.35">
  <defs>
    <style>
      .cls-1 {
        fill: #1d1d1b;
      }

      .cls-2 {
        fill: #5ca51c;
      }
    </style>
  </defs>
  <g>
    <path d="M86.34,147.1h-9.95v-17.85h9.95v1.84h-7.87v5.75h7.4v1.83h-7.4v6.57h7.87v1.86Z"/>
    <path d="M92.02,147.1h-2.03v-18.99h2.03v18.99Z"/>
    <path d="M113.62,147.1h-11.73v-1.75l4.7-4.72c1.43-1.45,2.38-2.48,2.83-3.1.46-.62.8-1.22,1.03-1.81.23-.59.34-1.22.34-1.89,0-.95-.29-1.71-.87-2.26-.58-.56-1.38-.84-2.4-.84-.74,0-1.44.12-2.11.37-.66.24-1.4.69-2.22,1.33l-1.07-1.38c1.64-1.37,3.43-2.05,5.37-2.05,1.68,0,2.99.43,3.94,1.29.95.86,1.43,2.01,1.43,3.46,0,1.13-.32,2.25-.95,3.36-.63,1.11-1.82,2.51-3.56,4.2l-3.91,3.82v.1h9.18v1.88Z"/>
    <path d="M121.76,136.2c1.88,0,3.36.47,4.44,1.4,1.08.93,1.62,2.21,1.62,3.83,0,1.85-.59,3.3-1.76,4.35-1.18,1.05-2.8,1.57-4.86,1.57s-3.54-.32-4.6-.96v-1.95c.57.37,1.28.65,2.12.86.85.21,1.68.31,2.5.31,1.43,0,2.54-.34,3.34-1.01.79-.68,1.19-1.65,1.19-2.93,0-2.49-1.53-3.74-4.58-3.74-.77,0-1.81.12-3.1.35l-1.05-.67.67-8.35h8.87v1.87h-7.14l-.45,5.36c.94-.19,1.87-.28,2.8-.28Z"/>
    <path d="M147,145.31h-.11c-.94,1.36-2.34,2.04-4.2,2.04-1.75,0-3.11-.6-4.08-1.79-.97-1.2-1.46-2.9-1.46-5.1s.49-3.92,1.46-5.14,2.34-1.83,4.08-1.83,3.21.66,4.17,1.98h.16l-.09-.96-.05-.94v-5.44h2.03v18.99h-1.65l-.27-1.79ZM142.95,145.65c1.38,0,2.39-.38,3.01-1.13.62-.75.93-1.97.93-3.64v-.43c0-1.9-.32-3.25-.95-4.06-.63-.81-1.64-1.21-3.02-1.21-1.19,0-2.1.46-2.73,1.39-.63.92-.95,2.23-.95,3.91s.31,3,.94,3.87c.63.87,1.55,1.31,2.76,1.31Z"/>
    <path d="M158.87,147.35c-1.98,0-3.54-.6-4.68-1.81-1.14-1.2-1.72-2.88-1.72-5.02s.53-3.87,1.59-5.14c1.06-1.27,2.49-1.9,4.28-1.9,1.68,0,3,.55,3.98,1.65.98,1.1,1.46,2.56,1.46,4.36v1.28h-9.22c.04,1.57.44,2.76,1.19,3.58.75.81,1.81,1.22,3.18,1.22,1.44,0,2.86-.3,4.27-.9v1.81c-.72.31-1.39.53-2.03.67-.64.13-1.41.2-2.31.2ZM158.32,135.18c-1.07,0-1.93.35-2.57,1.05-.64.7-1.02,1.67-1.13,2.91h6.99c0-1.28-.29-2.26-.85-2.94-.57-.68-1.38-1.02-2.44-1.02Z"/>
    <path d="M190.79,147.1v-8.7c0-1.07-.23-1.87-.68-2.4-.46-.53-1.16-.8-2.12-.8-1.26,0-2.19.36-2.8,1.09-.6.72-.9,1.84-.9,3.34v7.47h-2.03v-8.7c0-1.07-.23-1.87-.68-2.4-.46-.53-1.17-.8-2.14-.8-1.27,0-2.2.38-2.79,1.14-.59.76-.88,2.01-.88,3.74v7.02h-2.03v-13.38h1.65l.33,1.83h.1c.38-.65.92-1.16,1.62-1.53.7-.37,1.48-.55,2.34-.55,2.09,0,3.46.76,4.1,2.27h.1c.4-.7.98-1.25,1.73-1.66.76-.41,1.62-.61,2.59-.61,1.51,0,2.65.39,3.4,1.17.75.78,1.13,2.02,1.13,3.73v8.73h-2.03Z"/>
    <path d="M205.22,147.1l-.4-1.9h-.1c-.67.84-1.33,1.41-2,1.7-.66.3-1.49.45-2.48.45-1.33,0-2.37-.34-3.12-1.03-.75-.68-1.13-1.66-1.13-2.92,0-2.7,2.16-4.12,6.48-4.25l2.27-.07v-.83c0-1.05-.23-1.82-.68-2.33-.45-.5-1.17-.75-2.17-.75-1.12,0-2.38.34-3.78,1.03l-.62-1.55c.66-.36,1.38-.64,2.17-.84.79-.2,1.57-.31,2.36-.31,1.59,0,2.78.35,3.55,1.06.77.71,1.15,1.84,1.15,3.41v9.13h-1.5ZM200.64,145.67c1.26,0,2.25-.35,2.97-1.04.72-.69,1.08-1.66,1.08-2.91v-1.21l-2.03.09c-1.61.06-2.77.31-3.48.75-.71.44-1.07,1.13-1.07,2.07,0,.73.22,1.29.67,1.67.44.38,1.06.57,1.86.57Z"/>
    <path d="M208.77,133.72h2.17l2.93,7.63c.64,1.74,1.04,3,1.2,3.77h.1c.11-.42.33-1.12.67-2.13.34-1.01,1.44-4.1,3.31-9.27h2.17l-5.75,15.23c-.57,1.51-1.23,2.57-2,3.2-.76.63-1.7.95-2.8.95-.62,0-1.23-.07-1.83-.21v-1.62c.45.1.95.15,1.5.15,1.39,0,2.38-.78,2.98-2.34l.74-1.9-5.4-13.45Z"/>
    <path d="M235.04,140.4c0,2.18-.55,3.88-1.65,5.11-1.1,1.22-2.62,1.84-4.55,1.84-1.2,0-2.26-.28-3.19-.84s-1.64-1.37-2.15-2.42c-.5-1.05-.76-2.28-.76-3.69,0-2.18.54-3.88,1.64-5.1,1.09-1.22,2.6-1.83,4.54-1.83s3.36.62,4.46,1.87c1.1,1.25,1.65,2.93,1.65,5.05ZM224.85,140.4c0,1.71.34,3.01,1.03,3.91.68.9,1.69,1.34,3.02,1.34s2.33-.45,3.02-1.34c.69-.89,1.03-2.2,1.03-3.91s-.34-2.99-1.03-3.88c-.69-.88-1.7-1.32-3.05-1.32s-2.33.44-3,1.31c-.68.87-1.01,2.17-1.01,3.89Z"/>
    <path d="M254.19,145.31h-.11c-.94,1.36-2.34,2.04-4.2,2.04-1.75,0-3.11-.6-4.08-1.79-.97-1.2-1.46-2.9-1.46-5.1s.49-3.92,1.46-5.14,2.34-1.83,4.08-1.83,3.21.66,4.17,1.98h.16l-.09-.96-.05-.94v-5.44h2.03v18.99h-1.65l-.27-1.79ZM250.14,145.65c1.38,0,2.39-.38,3.01-1.13.62-.75.93-1.97.93-3.64v-.43c0-1.9-.32-3.25-.95-4.06-.63-.81-1.64-1.21-3.02-1.21-1.19,0-2.1.46-2.73,1.39-.63.92-.95,2.23-.95,3.91s.31,3,.94,3.87c.63.87,1.55,1.31,2.76,1.31Z"/>
    <path d="M266.06,147.35c-1.98,0-3.54-.6-4.68-1.81-1.14-1.2-1.72-2.88-1.72-5.02s.53-3.87,1.59-5.14c1.06-1.27,2.49-1.9,4.28-1.9,1.68,0,3,.55,3.98,1.65.98,1.1,1.46,2.56,1.46,4.36v1.28h-9.22c.04,1.57.44,2.76,1.19,3.58.75.81,1.81,1.22,3.18,1.22,1.44,0,2.86-.3,4.27-.9v1.81c-.72.31-1.39.53-2.03.67-.64.13-1.41.2-2.31.2ZM265.51,135.18c-1.07,0-1.93.35-2.57,1.05-.64.7-1.02,1.67-1.13,2.91h6.99c0-1.28-.29-2.26-.85-2.94-.57-.68-1.38-1.02-2.44-1.02Z"/>
    <path d="M291.73,147.1h-11.73v-1.75l4.7-4.72c1.43-1.45,2.38-2.48,2.83-3.1.46-.62.8-1.22,1.03-1.81.23-.59.34-1.22.34-1.89,0-.95-.29-1.71-.87-2.26-.58-.56-1.38-.84-2.4-.84-.74,0-1.44.12-2.11.37-.66.24-1.4.69-2.22,1.33l-1.07-1.38c1.64-1.37,3.43-2.05,5.37-2.05,1.68,0,2.99.43,3.94,1.29.95.86,1.43,2.01,1.43,3.46,0,1.13-.32,2.25-.95,3.36-.63,1.11-1.82,2.51-3.56,4.2l-3.91,3.82v.1h9.18v1.88Z"/>
    <path d="M306.12,138.15c0,3.08-.49,5.39-1.46,6.91-.97,1.52-2.46,2.28-4.46,2.28s-3.38-.78-4.38-2.34c-1-1.56-1.5-3.84-1.5-6.85s.48-5.42,1.45-6.92c.97-1.51,2.45-2.26,4.43-2.26s3.41.79,4.41,2.36c1,1.57,1.51,3.85,1.51,6.82ZM296.37,138.15c0,2.6.31,4.49.92,5.67.61,1.18,1.58,1.78,2.92,1.78s2.33-.6,2.94-1.8c.61-1.2.91-3.08.91-5.65s-.3-4.44-.91-5.63c-.61-1.19-1.58-1.79-2.94-1.79s-2.31.59-2.92,1.76c-.61,1.18-.92,3.06-.92,5.66Z"/>
    <path d="M320.32,147.1h-11.73v-1.75l4.7-4.72c1.43-1.45,2.38-2.48,2.83-3.1.46-.62.8-1.22,1.03-1.81.23-.59.34-1.22.34-1.89,0-.95-.29-1.71-.87-2.26-.58-.56-1.38-.84-2.4-.84-.74,0-1.44.12-2.11.37-.66.24-1.4.69-2.22,1.33l-1.07-1.38c1.64-1.37,3.43-2.05,5.37-2.05,1.68,0,2.99.43,3.94,1.29.95.86,1.43,2.01,1.43,3.46,0,1.13-.32,2.25-.95,3.36-.63,1.11-1.82,2.51-3.56,4.2l-3.91,3.82v.1h9.18v1.88Z"/>
    <path d="M330.39,147.1h-1.98v-12.72c0-1.06.03-2.06.1-3-.17.17-.36.35-.57.54-.21.19-1.18.98-2.91,2.38l-1.07-1.39,4.72-3.65h1.71v17.85Z"/>
  </g>
  <g>
    <path d="M86.72,9.99c-1.71,0-3.03.64-3.97,1.93s-1.41,3.07-1.41,5.37c0,4.78,1.79,7.16,5.38,7.16,1.5,0,3.33-.38,5.46-1.13v3.81c-1.76.73-3.72,1.1-5.89,1.1-3.12,0-5.5-.94-7.15-2.83s-2.48-4.6-2.48-8.14c0-2.23.41-4.18,1.22-5.85s1.98-2.96,3.49-3.85,3.3-1.34,5.34-1.34,4.17.5,6.27,1.51l-1.46,3.69c-.8-.38-1.61-.71-2.42-1s-1.61-.42-2.39-.42Z"/>
    <path d="M116.17,17.2c0,3.54-.88,6.27-2.64,8.17s-4.28,2.86-7.56,2.86-5.8-.95-7.56-2.86-2.64-4.64-2.64-8.2.88-6.29,2.64-8.17,4.29-2.82,7.58-2.82,5.81.95,7.55,2.84,2.61,4.62,2.61,8.17ZM100.54,17.2c0,2.39.45,4.19,1.36,5.41s2.27,1.82,4.07,1.82c3.62,0,5.43-2.41,5.43-7.22s-1.8-7.24-5.41-7.24c-1.81,0-3.17.61-4.09,1.82s-1.38,3.02-1.38,5.41Z"/>
    <path d="M139.61,27.93h-5.77l-9.32-16.2h-.13c.19,2.86.28,4.9.28,6.12v10.08h-4.06V6.52h5.73l9.3,16.04h.1c-.15-2.78-.22-4.75-.22-5.9V6.52h4.09v21.42Z"/>
    <path d="M153.26,27.93h-4.54V10.3h-5.82v-3.78h16.17v3.78h-5.82v17.64Z"/>
    <path d="M166.92,19.72v8.22h-4.54V6.52h6.24c2.91,0,5.06.53,6.46,1.59s2.09,2.67,2.09,4.83c0,1.26-.35,2.38-1.04,3.36s-1.67,1.75-2.94,2.31c3.22,4.81,5.32,7.92,6.3,9.33h-5.04l-5.11-8.22h-2.42ZM166.92,16.03h1.46c1.44,0,2.5-.24,3.18-.72s1.03-1.23,1.03-2.26-.35-1.74-1.05-2.17-1.78-.64-3.24-.64h-1.38v5.79Z"/>
    <path d="M195.29,27.93l-1.55-5.1h-7.81l-1.55,5.1h-4.89l7.56-21.5h5.55l7.59,21.5h-4.89ZM192.65,19.03c-1.44-4.62-2.24-7.23-2.42-7.84s-.31-1.08-.39-1.44c-.32,1.25-1.25,4.34-2.77,9.27h5.58Z"/>
    <path d="M211.14,27.93h-4.54V10.3h-5.82v-3.78h16.17v3.78h-5.82v17.64Z"/>
    <path d="M239.69,17.2c0,3.54-.88,6.27-2.64,8.17s-4.28,2.86-7.56,2.86-5.8-.95-7.56-2.86-2.64-4.64-2.64-8.2.88-6.29,2.64-8.17,4.29-2.82,7.58-2.82,5.81.95,7.55,2.84,2.61,4.62,2.61,8.17ZM224.06,17.2c0,2.39.45,4.19,1.36,5.41s2.27,1.82,4.07,1.82c3.62,0,5.43-2.41,5.43-7.22s-1.8-7.24-5.41-7.24c-1.81,0-3.17.61-4.09,1.82s-1.38,3.02-1.38,5.41Z"/>
  </g>
  <g>
    <path d="M423.62,13.2c0,2.3-.72,4.07-2.16,5.29s-3.49,1.83-6.15,1.83h-1.95v7.62h-4.54V6.52h6.84c2.6,0,4.57.56,5.93,1.68s2.03,2.79,2.03,5ZM413.37,16.6h1.49c1.4,0,2.44-.28,3.13-.83s1.04-1.35,1.04-2.41-.29-1.85-.87-2.36-1.49-.76-2.73-.76h-2.07v6.36Z"/>
    <path d="M432.2,19.72v8.22h-4.54V6.52h6.24c2.91,0,5.06.53,6.46,1.59s2.09,2.67,2.09,4.83c0,1.26-.35,2.38-1.04,3.36s-1.67,1.75-2.94,2.31c3.22,4.81,5.32,7.92,6.3,9.33h-5.04l-5.11-8.22h-2.42ZM432.2,16.03h1.46c1.44,0,2.5-.24,3.18-.72s1.03-1.23,1.03-2.26-.35-1.74-1.05-2.17-1.78-.64-3.24-.64h-1.38v5.79Z"/>
    <path d="M466.91,17.2c0,3.54-.88,6.27-2.64,8.17s-4.28,2.86-7.56,2.86-5.8-.95-7.56-2.86-2.64-4.64-2.64-8.2.88-6.29,2.64-8.17,4.29-2.82,7.58-2.82,5.81.95,7.55,2.84,2.61,4.62,2.61,8.17ZM451.28,17.2c0,2.39.45,4.19,1.36,5.41s2.27,1.82,4.07,1.82c3.62,0,5.43-2.41,5.43-7.22s-1.8-7.24-5.41-7.24c-1.81,0-3.17.61-4.09,1.82s-1.38,3.02-1.38,5.41ZM454.41,4.8v-.4c1.68-1.95,2.83-3.42,3.44-4.41h5.01v.31c-.51.51-1.37,1.26-2.6,2.26s-2.19,1.75-2.88,2.23h-2.97Z"/>
    <path d="M475.89,19.72v8.22h-4.54V6.52h6.24c2.91,0,5.06.53,6.46,1.59s2.09,2.67,2.09,4.83c0,1.26-.35,2.38-1.04,3.36s-1.67,1.75-2.94,2.31c3.22,4.81,5.32,7.92,6.3,9.33h-5.04l-5.11-8.22h-2.42ZM475.89,16.03h1.46c1.44,0,2.5-.24,3.18-.72s1.03-1.23,1.03-2.26-.35-1.74-1.05-2.17-1.78-.64-3.24-.64h-1.38v5.79Z"/>
    <path d="M495.69,19.72v8.22h-4.54V6.52h6.24c2.91,0,5.06.53,6.46,1.59s2.09,2.67,2.09,4.83c0,1.26-.35,2.38-1.04,3.36s-1.67,1.75-2.94,2.31c3.22,4.81,5.32,7.92,6.3,9.33h-5.04l-5.11-8.22h-2.42ZM495.69,16.03h1.46c1.44,0,2.5-.24,3.18-.72s1.03-1.23,1.03-2.26-.35-1.74-1.05-2.17-1.78-.64-3.24-.64h-1.38v5.79Z"/>
    <path d="M530.39,17.2c0,3.54-.88,6.27-2.64,8.17s-4.28,2.86-7.56,2.86-5.8-.95-7.56-2.86-2.64-4.64-2.64-8.2.88-6.29,2.64-8.17,4.29-2.82,7.58-2.82,5.81.95,7.55,2.84,2.61,4.62,2.61,8.17ZM514.76,17.2c0,2.39.45,4.19,1.36,5.41s2.27,1.82,4.07,1.82c3.62,0,5.43-2.41,5.43-7.22s-1.8-7.24-5.41-7.24c-1.81,0-3.17.61-4.09,1.82s-1.38,3.02-1.38,5.41Z"/>
    <path d="M542.96,15.91h8.5v11.1c-1.38.45-2.67.76-3.89.94s-2.46.27-3.73.27c-3.23,0-5.7-.95-7.4-2.85s-2.56-4.63-2.56-8.18.99-6.15,2.97-8.09,4.72-2.9,8.23-2.9c2.2,0,4.32.44,6.36,1.32l-1.51,3.63c-1.56-.78-3.19-1.17-4.88-1.17-1.96,0-3.54.66-4.72,1.98s-1.77,3.09-1.77,5.32.48,4.1,1.43,5.32,2.34,1.84,4.15,1.84c.95,0,1.91-.1,2.89-.29v-4.47h-4.06v-3.78Z"/>
    <path d="M569.67,27.93l-1.55-5.1h-7.81l-1.55,5.1h-4.89l7.56-21.5h5.55l7.59,21.5h-4.89ZM567.03,19.03c-1.44-4.62-2.24-7.23-2.42-7.84s-.31-1.08-.39-1.44c-.32,1.25-1.25,4.34-2.77,9.27h5.58Z"/>
    <path d="M594.74,27.93h-4.53v-12.39l.04-2.04.07-2.23c-.75.75-1.27,1.25-1.57,1.48l-2.46,1.98-2.18-2.72,6.9-5.49h3.72v21.42Z"/>
  </g>
  <g>
    <path d="M786.47,13.2c0,2.3-.72,4.07-2.16,5.29s-3.49,1.83-6.15,1.83h-1.95v7.62h-4.54V6.52h6.84c2.6,0,4.57.56,5.93,1.68s2.03,2.79,2.03,5ZM776.22,16.6h1.49c1.4,0,2.44-.28,3.13-.83s1.04-1.35,1.04-2.41-.29-1.85-.87-2.36-1.49-.76-2.73-.76h-2.07v6.36Z"/>
    <path d="M795.06,19.72v8.22h-4.54V6.52h6.24c2.91,0,5.06.53,6.46,1.59s2.09,2.67,2.09,4.83c0,1.26-.35,2.38-1.04,3.36s-1.67,1.75-2.94,2.31c3.22,4.81,5.32,7.92,6.3,9.33h-5.04l-5.11-8.22h-2.42ZM795.06,16.03h1.46c1.44,0,2.5-.24,3.18-.72s1.03-1.23,1.03-2.26-.35-1.74-1.05-2.17-1.78-.64-3.24-.64h-1.38v5.79Z"/>
    <path d="M829.76,17.2c0,3.54-.88,6.27-2.64,8.17s-4.28,2.86-7.56,2.86-5.8-.95-7.56-2.86-2.64-4.64-2.64-8.2.88-6.29,2.64-8.17,4.29-2.82,7.58-2.82,5.81.95,7.55,2.84,2.61,4.62,2.61,8.17ZM814.13,17.2c0,2.39.45,4.19,1.36,5.41s2.27,1.82,4.07,1.82c3.62,0,5.43-2.41,5.43-7.22s-1.8-7.24-5.41-7.24c-1.81,0-3.17.61-4.09,1.82s-1.38,3.02-1.38,5.41ZM817.26,4.8v-.4c1.68-1.95,2.83-3.42,3.44-4.41h5.01v.31c-.51.51-1.37,1.26-2.6,2.26s-2.19,1.75-2.88,2.23h-2.97Z"/>
    <path d="M838.74,19.72v8.22h-4.54V6.52h6.24c2.91,0,5.06.53,6.46,1.59s2.09,2.67,2.09,4.83c0,1.26-.35,2.38-1.04,3.36s-1.67,1.75-2.94,2.31c3.22,4.81,5.32,7.92,6.3,9.33h-5.04l-5.11-8.22h-2.42ZM838.74,16.03h1.46c1.44,0,2.5-.24,3.18-.72s1.03-1.23,1.03-2.26-.35-1.74-1.05-2.17-1.78-.64-3.24-.64h-1.38v5.79Z"/>
    <path d="M858.54,19.72v8.22h-4.54V6.52h6.24c2.91,0,5.06.53,6.46,1.59s2.09,2.67,2.09,4.83c0,1.26-.35,2.38-1.04,3.36s-1.67,1.75-2.94,2.31c3.22,4.81,5.32,7.92,6.3,9.33h-5.04l-5.11-8.22h-2.42ZM858.54,16.03h1.46c1.44,0,2.5-.24,3.18-.72s1.03-1.23,1.03-2.26-.35-1.74-1.05-2.17-1.78-.64-3.24-.64h-1.38v5.79Z"/>
    <path d="M893.25,17.2c0,3.54-.88,6.27-2.64,8.17s-4.28,2.86-7.56,2.86-5.8-.95-7.56-2.86-2.64-4.64-2.64-8.2.88-6.29,2.64-8.17,4.29-2.82,7.58-2.82,5.81.95,7.55,2.84,2.61,4.62,2.61,8.17ZM877.62,17.2c0,2.39.45,4.19,1.36,5.41s2.27,1.82,4.07,1.82c3.62,0,5.43-2.41,5.43-7.22s-1.8-7.24-5.41-7.24c-1.81,0-3.17.61-4.09,1.82s-1.38,3.02-1.38,5.41Z"/>
    <path d="M905.81,15.91h8.5v11.1c-1.38.45-2.67.76-3.89.94s-2.46.27-3.73.27c-3.23,0-5.7-.95-7.4-2.85s-2.56-4.63-2.56-8.18.99-6.15,2.97-8.09,4.72-2.9,8.23-2.9c2.2,0,4.32.44,6.36,1.32l-1.51,3.63c-1.56-.78-3.19-1.17-4.88-1.17-1.96,0-3.54.66-4.72,1.98s-1.77,3.09-1.77,5.32.48,4.1,1.43,5.32,2.34,1.84,4.15,1.84c.95,0,1.91-.1,2.89-.29v-4.47h-4.06v-3.78Z"/>
    <path d="M932.52,27.93l-1.55-5.1h-7.81l-1.55,5.1h-4.89l7.56-21.5h5.55l7.59,21.5h-4.89ZM929.88,19.03c-1.44-4.62-2.24-7.23-2.42-7.84s-.31-1.08-.39-1.44c-.32,1.25-1.25,4.34-2.77,9.27h5.58Z"/>
    <path d="M961.38,27.93h-14.97v-3.15l5.38-5.43c1.59-1.63,2.63-2.76,3.12-3.39s.84-1.21,1.05-1.75.32-1.09.32-1.67c0-.86-.24-1.5-.71-1.92s-1.11-.63-1.9-.63c-.83,0-1.64.19-2.42.57s-1.6.92-2.45,1.63l-2.46-2.92c1.05-.9,1.93-1.53,2.62-1.9s1.45-.66,2.27-.86,1.74-.3,2.75-.3c1.34,0,2.52.24,3.54.73s1.82,1.17,2.39,2.05.85,1.88.85,3.02c0,.99-.17,1.91-.52,2.78s-.88,1.75-1.61,2.66-2.01,2.2-3.85,3.88l-2.75,2.59v.21h9.33v3.81Z"/>
  </g>
  <g>
    <path d="M1114.97,13.2c0,2.3-.72,4.07-2.16,5.29s-3.49,1.83-6.15,1.83h-1.95v7.62h-4.54V6.52h6.84c2.6,0,4.57.56,5.93,1.68s2.03,2.79,2.03,5ZM1104.71,16.6h1.49c1.4,0,2.44-.28,3.13-.83s1.04-1.35,1.04-2.41-.29-1.85-.87-2.36-1.49-.76-2.73-.76h-2.07v6.36Z"/>
    <path d="M1123.55,19.72v8.22h-4.54V6.52h6.24c2.91,0,5.06.53,6.46,1.59s2.09,2.67,2.09,4.83c0,1.26-.35,2.38-1.04,3.36s-1.67,1.75-2.94,2.31c3.22,4.81,5.32,7.92,6.3,9.33h-5.04l-5.11-8.22h-2.42ZM1123.55,16.03h1.46c1.44,0,2.5-.24,3.18-.72s1.03-1.23,1.03-2.26-.35-1.74-1.05-2.17-1.78-.64-3.25-.64h-1.38v5.79Z"/>
    <path d="M1158.25,17.2c0,3.54-.88,6.27-2.64,8.17s-4.28,2.86-7.56,2.86-5.8-.95-7.56-2.86-2.64-4.64-2.64-8.2.88-6.29,2.64-8.17,4.29-2.82,7.58-2.82,5.81.95,7.55,2.84,2.61,4.62,2.61,8.17ZM1142.62,17.2c0,2.39.45,4.19,1.36,5.41s2.27,1.82,4.07,1.82c3.62,0,5.43-2.41,5.43-7.22s-1.8-7.24-5.41-7.24c-1.81,0-3.17.61-4.09,1.82s-1.38,3.02-1.38,5.41ZM1145.76,4.8v-.4c1.68-1.95,2.83-3.42,3.44-4.41h5.01v.31c-.51.51-1.37,1.26-2.6,2.26s-2.19,1.75-2.88,2.23h-2.97Z"/>
    <path d="M1167.23,19.72v8.22h-4.54V6.52h6.24c2.91,0,5.06.53,6.46,1.59s2.09,2.67,2.09,4.83c0,1.26-.35,2.38-1.04,3.36s-1.67,1.75-2.94,2.31c3.22,4.81,5.32,7.92,6.3,9.33h-5.04l-5.11-8.22h-2.42ZM1167.23,16.03h1.46c1.44,0,2.5-.24,3.18-.72s1.03-1.23,1.03-2.26-.35-1.74-1.05-2.17-1.78-.64-3.25-.64h-1.38v5.79Z"/>
    <path d="M1187.04,19.72v8.22h-4.54V6.52h6.24c2.91,0,5.06.53,6.46,1.59s2.09,2.67,2.09,4.83c0,1.26-.35,2.38-1.04,3.36s-1.67,1.75-2.94,2.31c3.22,4.81,5.32,7.92,6.3,9.33h-5.04l-5.11-8.22h-2.42ZM1187.04,16.03h1.46c1.44,0,2.5-.24,3.18-.72s1.03-1.23,1.03-2.26-.35-1.74-1.05-2.17-1.78-.64-3.25-.64h-1.38v5.79Z"/>
    <path d="M1221.74,17.2c0,3.54-.88,6.27-2.64,8.17s-4.28,2.86-7.56,2.86-5.8-.95-7.56-2.86-2.64-4.64-2.64-8.2.88-6.29,2.64-8.17,4.29-2.82,7.58-2.82,5.81.95,7.55,2.84,2.61,4.62,2.61,8.17ZM1206.11,17.2c0,2.39.45,4.19,1.36,5.41s2.27,1.82,4.07,1.82c3.62,0,5.43-2.41,5.43-7.22s-1.8-7.24-5.41-7.24c-1.81,0-3.17.61-4.09,1.82s-1.38,3.02-1.38,5.41Z"/>
    <path d="M1234.31,15.91h8.5v11.1c-1.38.45-2.67.76-3.89.94s-2.46.27-3.73.27c-3.23,0-5.7-.95-7.4-2.85s-2.56-4.63-2.56-8.18.99-6.15,2.97-8.09,4.72-2.9,8.22-2.9c2.2,0,4.32.44,6.36,1.32l-1.51,3.63c-1.56-.78-3.19-1.17-4.88-1.17-1.96,0-3.54.66-4.72,1.98s-1.77,3.09-1.77,5.32.48,4.1,1.43,5.32,2.34,1.84,4.15,1.84c.95,0,1.91-.1,2.89-.29v-4.47h-4.06v-3.78Z"/>
    <path d="M1261.01,27.93l-1.55-5.1h-7.81l-1.55,5.1h-4.89l7.56-21.5h5.55l7.59,21.5h-4.89ZM1258.37,19.03c-1.44-4.62-2.24-7.23-2.42-7.84s-.31-1.08-.39-1.44c-.32,1.25-1.25,4.34-2.77,9.27h5.58Z"/>
    <path d="M1289.03,11.31c0,1.34-.41,2.48-1.22,3.41s-1.95,1.58-3.41,1.93v.09c1.73.21,3.04.74,3.93,1.57s1.33,1.96,1.33,3.38c0,2.06-.75,3.66-2.24,4.81s-3.63,1.72-6.4,1.72c-2.32,0-4.38-.39-6.18-1.16v-3.85c.83.42,1.74.76,2.74,1.03s1.98.4,2.96.4c1.49,0,2.6-.25,3.31-.76s1.07-1.32,1.07-2.45c0-1.01-.41-1.72-1.23-2.14s-2.13-.63-3.93-.63h-1.63v-3.47h1.66c1.66,0,2.87-.22,3.64-.65s1.15-1.18,1.15-2.23c0-1.62-1.02-2.43-3.05-2.43-.7,0-1.42.12-2.15.35s-1.54.64-2.42,1.22l-2.09-3.12c1.95-1.41,4.28-2.11,6.99-2.11,2.22,0,3.97.45,5.25,1.35s1.93,2.15,1.93,3.75Z"/>
  </g>
  <g>
    <path d="M770.97,147.1h-9.95v-17.85h9.95v1.84h-7.87v5.75h7.4v1.83h-7.4v6.57h7.87v1.86Z"/>
    <path d="M776.65,147.1h-2.03v-18.99h2.03v18.99Z"/>
    <path d="M798.24,147.1h-11.73v-1.75l4.7-4.72c1.43-1.45,2.38-2.48,2.83-3.1.46-.62.8-1.22,1.03-1.81.23-.59.34-1.22.34-1.89,0-.95-.29-1.71-.87-2.26-.58-.56-1.38-.84-2.4-.84-.74,0-1.44.12-2.11.37-.66.24-1.4.69-2.22,1.33l-1.07-1.38c1.64-1.37,3.43-2.05,5.37-2.05,1.68,0,2.99.43,3.94,1.29.95.86,1.43,2.01,1.43,3.46,0,1.13-.32,2.25-.95,3.36-.63,1.11-1.82,2.51-3.56,4.2l-3.91,3.82v.1h9.18v1.88Z"/>
    <path d="M806.39,136.2c1.88,0,3.36.47,4.44,1.4,1.08.93,1.62,2.21,1.62,3.83,0,1.85-.59,3.3-1.76,4.35-1.18,1.05-2.8,1.57-4.86,1.57s-3.54-.32-4.6-.96v-1.95c.57.37,1.28.65,2.12.86.85.21,1.68.31,2.5.31,1.43,0,2.54-.34,3.34-1.01.79-.68,1.19-1.65,1.19-2.93,0-2.49-1.53-3.74-4.58-3.74-.77,0-1.81.12-3.1.35l-1.05-.67.67-8.35h8.87v1.87h-7.14l-.45,5.36c.94-.19,1.87-.28,2.8-.28Z"/>
    <path d="M831.63,145.31h-.11c-.94,1.36-2.34,2.04-4.2,2.04-1.75,0-3.11-.6-4.08-1.79-.97-1.2-1.46-2.9-1.46-5.1s.49-3.92,1.46-5.14,2.34-1.83,4.08-1.83,3.21.66,4.17,1.98h.16l-.09-.96-.05-.94v-5.44h2.03v18.99h-1.65l-.27-1.79ZM827.58,145.65c1.38,0,2.39-.38,3.01-1.13.62-.75.93-1.97.93-3.64v-.43c0-1.9-.32-3.25-.95-4.06-.63-.81-1.64-1.21-3.02-1.21-1.19,0-2.1.46-2.73,1.39-.63.92-.95,2.23-.95,3.91s.31,3,.94,3.87c.63.87,1.55,1.31,2.76,1.31Z"/>
    <path d="M843.5,147.35c-1.98,0-3.54-.6-4.68-1.81-1.14-1.2-1.72-2.88-1.72-5.02s.53-3.87,1.59-5.14c1.06-1.27,2.49-1.9,4.28-1.9,1.68,0,3,.55,3.98,1.65.98,1.1,1.46,2.56,1.46,4.36v1.28h-9.22c.04,1.57.44,2.76,1.19,3.58.75.81,1.81,1.22,3.18,1.22,1.44,0,2.86-.3,4.27-.9v1.81c-.72.31-1.39.53-2.03.67-.64.13-1.41.2-2.31.2ZM842.95,135.18c-1.07,0-1.93.35-2.57,1.05-.64.7-1.02,1.67-1.13,2.91h6.99c0-1.28-.29-2.26-.85-2.94-.57-.68-1.38-1.02-2.44-1.02Z"/>
    <path d="M875.42,147.1v-8.7c0-1.07-.23-1.87-.68-2.4-.46-.53-1.16-.8-2.12-.8-1.26,0-2.19.36-2.8,1.09-.6.72-.9,1.84-.9,3.34v7.47h-2.03v-8.7c0-1.07-.23-1.87-.68-2.4-.46-.53-1.17-.8-2.14-.8-1.27,0-2.2.38-2.79,1.14-.59.76-.88,2.01-.88,3.74v7.02h-2.03v-13.38h1.65l.33,1.83h.1c.38-.65.92-1.16,1.62-1.53.7-.37,1.48-.55,2.34-.55,2.09,0,3.46.76,4.1,2.27h.1c.4-.7.98-1.25,1.73-1.66.76-.41,1.62-.61,2.59-.61,1.51,0,2.65.39,3.4,1.17.75.78,1.13,2.02,1.13,3.73v8.73h-2.03Z"/>
    <path d="M889.85,147.1l-.4-1.9h-.1c-.67.84-1.33,1.41-2,1.7-.66.3-1.49.45-2.48.45-1.33,0-2.37-.34-3.12-1.03-.75-.68-1.13-1.66-1.13-2.92,0-2.7,2.16-4.12,6.48-4.25l2.27-.07v-.83c0-1.05-.23-1.82-.68-2.33-.45-.5-1.17-.75-2.17-.75-1.12,0-2.38.34-3.78,1.03l-.62-1.55c.66-.36,1.38-.64,2.17-.84.79-.2,1.57-.31,2.36-.31,1.59,0,2.78.35,3.55,1.06.77.71,1.15,1.84,1.15,3.41v9.13h-1.5ZM885.27,145.67c1.26,0,2.25-.35,2.97-1.04.72-.69,1.08-1.66,1.08-2.91v-1.21l-2.03.09c-1.61.06-2.77.31-3.48.75-.71.44-1.07,1.13-1.07,2.07,0,.73.22,1.29.67,1.67.44.38,1.06.57,1.86.57Z"/>
    <path d="M893.4,133.72h2.17l2.93,7.63c.64,1.74,1.04,3,1.2,3.77h.1c.11-.42.33-1.12.67-2.13.34-1.01,1.44-4.1,3.31-9.27h2.17l-5.75,15.23c-.57,1.51-1.23,2.57-2,3.2-.76.63-1.7.95-2.8.95-.62,0-1.23-.07-1.83-.21v-1.62c.45.1.95.15,1.5.15,1.39,0,2.38-.78,2.98-2.34l.74-1.9-5.4-13.45Z"/>
    <path d="M919.67,140.4c0,2.18-.55,3.88-1.65,5.11-1.1,1.22-2.62,1.84-4.55,1.84-1.2,0-2.26-.28-3.19-.84s-1.64-1.37-2.15-2.42c-.5-1.05-.76-2.28-.76-3.69,0-2.18.54-3.88,1.64-5.1,1.09-1.22,2.6-1.83,4.54-1.83s3.36.62,4.46,1.87c1.1,1.25,1.65,2.93,1.65,5.05ZM909.47,140.4c0,1.71.34,3.01,1.03,3.91.68.9,1.69,1.34,3.02,1.34s2.33-.45,3.02-1.34c.69-.89,1.03-2.2,1.03-3.91s-.34-2.99-1.03-3.88c-.69-.88-1.7-1.32-3.05-1.32s-2.33.44-3,1.31c-.68.87-1.01,2.17-1.01,3.89Z"/>
    <path d="M938.82,145.31h-.11c-.94,1.36-2.34,2.04-4.2,2.04-1.75,0-3.11-.6-4.08-1.79-.97-1.2-1.46-2.9-1.46-5.1s.49-3.92,1.46-5.14,2.34-1.83,4.08-1.83,3.21.66,4.17,1.98h.16l-.09-.96-.05-.94v-5.44h2.03v18.99h-1.65l-.27-1.79ZM934.77,145.65c1.38,0,2.39-.38,3.01-1.13.62-.75.93-1.97.93-3.64v-.43c0-1.9-.32-3.25-.95-4.06-.63-.81-1.64-1.21-3.02-1.21-1.19,0-2.1.46-2.73,1.39-.63.92-.95,2.23-.95,3.91s.31,3,.94,3.87c.63.87,1.55,1.31,2.76,1.31Z"/>
    <path d="M950.69,147.35c-1.98,0-3.54-.6-4.68-1.81-1.14-1.2-1.71-2.88-1.71-5.02s.53-3.87,1.59-5.14c1.06-1.27,2.49-1.9,4.28-1.9,1.68,0,3,.55,3.98,1.65.98,1.1,1.46,2.56,1.46,4.36v1.28h-9.22c.04,1.57.44,2.76,1.19,3.58.75.81,1.81,1.22,3.18,1.22,1.44,0,2.86-.3,4.27-.9v1.81c-.72.31-1.39.53-2.03.67-.64.13-1.41.2-2.31.2ZM950.14,135.18c-1.07,0-1.93.35-2.57,1.05-.64.7-1.02,1.67-1.13,2.91h6.99c0-1.28-.29-2.26-.85-2.94-.57-.68-1.38-1.02-2.44-1.02Z"/>
    <path d="M771.52,177.1h-11.73v-1.75l4.7-4.72c1.43-1.45,2.38-2.48,2.83-3.1.46-.62.8-1.22,1.03-1.81.23-.59.34-1.22.34-1.89,0-.95-.29-1.71-.87-2.26-.58-.56-1.38-.84-2.4-.84-.74,0-1.44.12-2.11.37-.66.24-1.4.69-2.22,1.33l-1.07-1.38c1.64-1.37,3.43-2.05,5.37-2.05,1.68,0,2.99.43,3.94,1.29.95.86,1.43,2.01,1.43,3.46,0,1.13-.32,2.25-.95,3.36-.63,1.11-1.82,2.51-3.56,4.2l-3.91,3.82v.1h9.18v1.88Z"/>
    <path d="M785.91,168.15c0,3.08-.49,5.39-1.46,6.91-.97,1.52-2.46,2.28-4.46,2.28s-3.38-.78-4.38-2.34c-1-1.56-1.5-3.84-1.5-6.85s.48-5.42,1.45-6.92c.97-1.51,2.45-2.26,4.43-2.26s3.41.79,4.41,2.36c1,1.57,1.51,3.85,1.51,6.82ZM776.16,168.15c0,2.6.31,4.49.92,5.67.61,1.18,1.58,1.78,2.92,1.78s2.33-.6,2.94-1.8c.61-1.2.91-3.08.91-5.65s-.3-4.44-.91-5.63c-.61-1.19-1.58-1.79-2.94-1.79s-2.31.59-2.92,1.76c-.61,1.18-.92,3.06-.92,5.66Z"/>
    <path d="M800.11,177.1h-11.73v-1.75l4.7-4.72c1.43-1.45,2.38-2.48,2.83-3.1.46-.62.8-1.22,1.03-1.81.23-.59.34-1.22.34-1.89,0-.95-.29-1.71-.87-2.26-.58-.56-1.38-.84-2.4-.84-.74,0-1.44.12-2.11.37-.66.24-1.4.69-2.22,1.33l-1.07-1.38c1.64-1.37,3.43-2.05,5.37-2.05,1.68,0,2.99.43,3.94,1.29.95.86,1.43,2.01,1.43,3.46,0,1.13-.32,2.25-.95,3.36-.63,1.11-1.82,2.51-3.56,4.2l-3.91,3.82v.1h9.18v1.88Z"/>
    <path d="M813.73,163.46c0,1.14-.32,2.07-.96,2.8-.64.72-1.54,1.21-2.72,1.45v.1c1.43.18,2.49.63,3.19,1.37.69.73,1.04,1.69,1.04,2.88,0,1.7-.59,3.01-1.77,3.92-1.18.92-2.86,1.37-5.03,1.37-.94,0-1.81-.07-2.59-.21-.79-.14-1.55-.39-2.29-.75v-1.93c.77.38,1.6.67,2.47.87.88.2,1.7.3,2.48.3,3.08,0,4.63-1.21,4.63-3.63,0-2.16-1.7-3.25-5.1-3.25h-1.76v-1.75h1.78c1.39,0,2.49-.31,3.31-.92.81-.61,1.22-1.47,1.22-2.56,0-.87-.3-1.55-.9-2.05-.6-.5-1.41-.74-2.44-.74-.78,0-1.52.11-2.21.32-.69.21-1.48.6-2.37,1.17l-1.03-1.37c.73-.58,1.58-1.03,2.53-1.36.96-.33,1.96-.49,3.02-.49,1.73,0,3.08.4,4.04,1.19.96.79,1.44,1.88,1.44,3.27Z"/>
  </g>
  <g>
    <path d="M421.4,147.1h-9.95v-17.85h9.95v1.84h-7.87v5.75h7.4v1.83h-7.4v6.57h7.87v1.86Z"/>
    <path d="M427.08,147.1h-2.03v-18.99h2.03v18.99Z"/>
    <path d="M448.67,147.1h-11.73v-1.75l4.7-4.72c1.43-1.45,2.38-2.48,2.83-3.1.46-.62.8-1.22,1.03-1.81.23-.59.34-1.22.34-1.89,0-.95-.29-1.71-.87-2.26-.58-.56-1.38-.84-2.4-.84-.74,0-1.44.12-2.11.37-.66.24-1.4.69-2.22,1.33l-1.07-1.38c1.64-1.37,3.43-2.05,5.37-2.05,1.68,0,2.99.43,3.94,1.29.95.86,1.43,2.01,1.43,3.46,0,1.13-.32,2.25-.95,3.36-.63,1.11-1.82,2.51-3.56,4.2l-3.91,3.82v.1h9.18v1.88Z"/>
    <path d="M456.81,136.2c1.88,0,3.36.47,4.44,1.4,1.08.93,1.62,2.21,1.62,3.83,0,1.85-.59,3.3-1.76,4.35-1.18,1.05-2.8,1.57-4.86,1.57s-3.54-.32-4.6-.96v-1.95c.57.37,1.28.65,2.12.86.85.21,1.68.31,2.5.31,1.43,0,2.54-.34,3.34-1.01.79-.68,1.19-1.65,1.19-2.93,0-2.49-1.53-3.74-4.58-3.74-.77,0-1.81.12-3.1.35l-1.05-.67.67-8.35h8.87v1.87h-7.14l-.45,5.36c.94-.19,1.87-.28,2.8-.28Z"/>
    <path d="M482.06,145.31h-.11c-.94,1.36-2.34,2.04-4.2,2.04-1.75,0-3.11-.6-4.08-1.79-.97-1.2-1.46-2.9-1.46-5.1s.49-3.92,1.46-5.14,2.34-1.83,4.08-1.83,3.21.66,4.17,1.98h.16l-.09-.96-.05-.94v-5.44h2.03v18.99h-1.65l-.27-1.79ZM478.01,145.65c1.38,0,2.39-.38,3.01-1.13.62-.75.93-1.97.93-3.64v-.43c0-1.9-.32-3.25-.95-4.06-.63-.81-1.64-1.21-3.02-1.21-1.19,0-2.1.46-2.73,1.39-.63.92-.95,2.23-.95,3.91s.31,3,.94,3.87c.63.87,1.55,1.31,2.76,1.31Z"/>
    <path d="M493.92,147.35c-1.98,0-3.54-.6-4.68-1.81-1.14-1.2-1.72-2.88-1.72-5.02s.53-3.87,1.59-5.14c1.06-1.27,2.49-1.9,4.28-1.9,1.68,0,3,.55,3.98,1.65.98,1.1,1.46,2.56,1.46,4.36v1.28h-9.22c.04,1.57.44,2.76,1.19,3.58.75.81,1.81,1.22,3.18,1.22,1.44,0,2.86-.3,4.27-.9v1.81c-.72.31-1.39.53-2.03.67-.64.13-1.41.2-2.31.2ZM493.38,135.18c-1.07,0-1.93.35-2.57,1.05-.64.7-1.02,1.67-1.13,2.91h6.99c0-1.28-.29-2.26-.85-2.94-.57-.68-1.38-1.02-2.44-1.02Z"/>
    <path d="M525.85,147.1v-8.7c0-1.07-.23-1.87-.68-2.4-.46-.53-1.16-.8-2.12-.8-1.26,0-2.19.36-2.8,1.09-.6.72-.9,1.84-.9,3.34v7.47h-2.03v-8.7c0-1.07-.23-1.87-.68-2.4-.46-.53-1.17-.8-2.14-.8-1.27,0-2.2.38-2.79,1.14-.59.76-.88,2.01-.88,3.74v7.02h-2.03v-13.38h1.65l.33,1.83h.1c.38-.65.92-1.16,1.62-1.53.7-.37,1.48-.55,2.34-.55,2.09,0,3.46.76,4.1,2.27h.1c.4-.7.98-1.25,1.73-1.66.76-.41,1.62-.61,2.59-.61,1.51,0,2.65.39,3.4,1.17.75.78,1.13,2.02,1.13,3.73v8.73h-2.03Z"/>
    <path d="M540.27,147.1l-.4-1.9h-.1c-.67.84-1.33,1.41-2,1.7-.66.3-1.49.45-2.48.45-1.33,0-2.37-.34-3.12-1.03-.75-.68-1.13-1.66-1.13-2.92,0-2.7,2.16-4.12,6.48-4.25l2.27-.07v-.83c0-1.05-.23-1.82-.68-2.33-.45-.5-1.17-.75-2.17-.75-1.12,0-2.38.34-3.78,1.03l-.62-1.55c.66-.36,1.38-.64,2.17-.84.79-.2,1.57-.31,2.36-.31,1.59,0,2.78.35,3.55,1.06.77.71,1.15,1.84,1.15,3.41v9.13h-1.5ZM535.7,145.67c1.26,0,2.25-.35,2.97-1.04.72-.69,1.08-1.66,1.08-2.91v-1.21l-2.03.09c-1.61.06-2.77.31-3.48.75-.71.44-1.07,1.13-1.07,2.07,0,.73.22,1.29.67,1.67.44.38,1.06.57,1.86.57Z"/>
    <path d="M543.83,133.72h2.17l2.93,7.63c.64,1.74,1.04,3,1.2,3.77h.1c.11-.42.33-1.12.67-2.13.34-1.01,1.44-4.1,3.31-9.27h2.17l-5.75,15.23c-.57,1.51-1.23,2.57-2,3.2-.76.63-1.7.95-2.8.95-.62,0-1.23-.07-1.83-.21v-1.62c.45.1.95.15,1.5.15,1.39,0,2.38-.78,2.98-2.34l.74-1.9-5.4-13.45Z"/>
    <path d="M570.1,140.4c0,2.18-.55,3.88-1.65,5.11-1.1,1.22-2.62,1.84-4.55,1.84-1.2,0-2.26-.28-3.19-.84s-1.64-1.37-2.15-2.42c-.5-1.05-.76-2.28-.76-3.69,0-2.18.54-3.88,1.64-5.1,1.09-1.22,2.6-1.83,4.54-1.83s3.36.62,4.46,1.87c1.1,1.25,1.65,2.93,1.65,5.05ZM559.9,140.4c0,1.71.34,3.01,1.03,3.91.68.9,1.69,1.34,3.02,1.34s2.33-.45,3.02-1.34c.69-.89,1.03-2.2,1.03-3.91s-.34-2.99-1.03-3.88c-.69-.88-1.7-1.32-3.05-1.32s-2.33.44-3,1.31c-.68.87-1.01,2.17-1.01,3.89Z"/>
    <path d="M589.25,145.31h-.11c-.94,1.36-2.34,2.04-4.2,2.04-1.75,0-3.11-.6-4.08-1.79-.97-1.2-1.46-2.9-1.46-5.1s.49-3.92,1.46-5.14,2.34-1.83,4.08-1.83,3.21.66,4.17,1.98h.16l-.09-.96-.05-.94v-5.44h2.03v18.99h-1.65l-.27-1.79ZM585.2,145.65c1.38,0,2.39-.38,3.01-1.13.62-.75.93-1.97.93-3.64v-.43c0-1.9-.32-3.25-.95-4.06-.63-.81-1.64-1.21-3.02-1.21-1.19,0-2.1.46-2.73,1.39-.63.92-.95,2.23-.95,3.91s.31,3,.94,3.87c.63.87,1.55,1.31,2.76,1.31Z"/>
    <path d="M601.11,147.35c-1.98,0-3.54-.6-4.68-1.81-1.14-1.2-1.72-2.88-1.72-5.02s.53-3.87,1.59-5.14c1.06-1.27,2.49-1.9,4.28-1.9,1.68,0,3,.55,3.98,1.65.98,1.1,1.46,2.56,1.46,4.36v1.28h-9.22c.04,1.57.44,2.76,1.19,3.58.75.81,1.81,1.22,3.18,1.22,1.44,0,2.86-.3,4.27-.9v1.81c-.72.31-1.39.53-2.03.67-.64.13-1.41.2-2.31.2ZM600.56,135.18c-1.07,0-1.93.35-2.57,1.05-.64.7-1.02,1.67-1.13,2.91h6.99c0-1.28-.29-2.26-.85-2.94-.57-.68-1.38-1.02-2.44-1.02Z"/>
    <path d="M421.95,177.1h-11.73v-1.75l4.7-4.72c1.43-1.45,2.38-2.48,2.83-3.1.46-.62.8-1.22,1.03-1.81.23-.59.34-1.22.34-1.89,0-.95-.29-1.71-.87-2.26-.58-.56-1.38-.84-2.4-.84-.74,0-1.44.12-2.11.37-.66.24-1.4.69-2.22,1.33l-1.07-1.38c1.64-1.37,3.43-2.05,5.37-2.05,1.68,0,2.99.43,3.94,1.29.95.86,1.43,2.01,1.43,3.46,0,1.13-.32,2.25-.95,3.36-.63,1.11-1.82,2.51-3.56,4.2l-3.91,3.82v.1h9.18v1.88Z"/>
    <path d="M436.34,168.15c0,3.08-.49,5.39-1.46,6.91-.97,1.52-2.46,2.28-4.46,2.28s-3.38-.78-4.38-2.34c-1-1.56-1.5-3.84-1.5-6.85s.48-5.42,1.45-6.92c.97-1.51,2.45-2.26,4.43-2.26s3.41.79,4.41,2.36c1,1.57,1.51,3.85,1.51,6.82ZM426.59,168.15c0,2.6.31,4.49.92,5.67.61,1.18,1.58,1.78,2.92,1.78s2.33-.6,2.94-1.8c.61-1.2.91-3.08.91-5.65s-.3-4.44-.91-5.63c-.61-1.19-1.58-1.79-2.94-1.79s-2.31.59-2.92,1.76c-.61,1.18-.92,3.06-.92,5.66Z"/>
    <path d="M450.54,177.1h-11.73v-1.75l4.7-4.72c1.43-1.45,2.38-2.48,2.83-3.1.46-.62.8-1.22,1.03-1.81.23-.59.34-1.22.34-1.89,0-.95-.29-1.71-.87-2.26-.58-.56-1.38-.84-2.4-.84-.74,0-1.44.12-2.11.37-.66.24-1.4.69-2.22,1.33l-1.07-1.38c1.64-1.37,3.43-2.05,5.37-2.05,1.68,0,2.99.43,3.94,1.29.95.86,1.43,2.01,1.43,3.46,0,1.13-.32,2.25-.95,3.36-.63,1.11-1.82,2.51-3.56,4.2l-3.91,3.82v.1h9.18v1.88Z"/>
    <path d="M464.83,177.1h-11.73v-1.75l4.7-4.72c1.43-1.45,2.38-2.48,2.83-3.1.46-.62.8-1.22,1.03-1.81.23-.59.34-1.22.34-1.89,0-.95-.29-1.71-.87-2.26-.58-.56-1.38-.84-2.4-.84-.74,0-1.44.12-2.11.37-.66.24-1.4.69-2.22,1.33l-1.07-1.38c1.64-1.37,3.43-2.05,5.37-2.05,1.68,0,2.99.43,3.94,1.29.95.86,1.43,2.01,1.43,3.46,0,1.13-.32,2.25-.95,3.36-.63,1.11-1.82,2.51-3.56,4.2l-3.91,3.82v.1h9.18v1.88Z"/>
  </g>
  <g>
    <path d="M1103.98,147.1h-9.95v-17.85h9.95v1.84h-7.87v5.75h7.4v1.83h-7.4v6.57h7.87v1.86Z"/>
    <path d="M1109.65,147.1h-2.03v-18.99h2.03v18.99Z"/>
    <path d="M1131.25,147.1h-11.73v-1.75l4.7-4.72c1.43-1.45,2.38-2.48,2.83-3.1.46-.62.8-1.22,1.03-1.81s.34-1.22.34-1.89c0-.95-.29-1.71-.87-2.26-.58-.56-1.38-.84-2.41-.84-.74,0-1.44.12-2.11.37s-1.4.69-2.22,1.33l-1.07-1.38c1.64-1.37,3.43-2.05,5.37-2.05,1.68,0,2.99.43,3.94,1.29.95.86,1.43,2.01,1.43,3.46,0,1.13-.32,2.25-.95,3.36-.63,1.11-1.82,2.51-3.56,4.2l-3.91,3.82v.1h9.18v1.88Z"/>
    <path d="M1139.39,136.2c1.88,0,3.36.47,4.44,1.4,1.08.93,1.62,2.21,1.62,3.83,0,1.85-.59,3.3-1.76,4.35-1.18,1.05-2.8,1.57-4.86,1.57s-3.54-.32-4.6-.96v-1.95c.57.37,1.28.65,2.12.86.85.21,1.68.31,2.5.31,1.43,0,2.54-.34,3.34-1.01.79-.68,1.19-1.65,1.19-2.93,0-2.49-1.53-3.74-4.58-3.74-.77,0-1.81.12-3.1.35l-1.05-.67.67-8.35h8.87v1.87h-7.14l-.45,5.36c.94-.19,1.87-.28,2.8-.28Z"/>
    <path d="M1164.64,145.31h-.11c-.94,1.36-2.34,2.04-4.2,2.04-1.75,0-3.11-.6-4.08-1.79s-1.46-2.9-1.46-5.1.49-3.92,1.46-5.14,2.34-1.83,4.08-1.83,3.21.66,4.17,1.98h.16l-.09-.96-.05-.94v-5.44h2.03v18.99h-1.65l-.27-1.79ZM1160.58,145.65c1.38,0,2.39-.38,3.01-1.13.62-.75.93-1.97.93-3.64v-.43c0-1.9-.32-3.25-.95-4.06-.63-.81-1.64-1.21-3.02-1.21-1.19,0-2.1.46-2.73,1.39-.63.92-.95,2.23-.95,3.91s.31,3,.94,3.87c.63.87,1.55,1.31,2.76,1.31Z"/>
    <path d="M1176.5,147.35c-1.98,0-3.54-.6-4.68-1.81-1.14-1.2-1.71-2.88-1.71-5.02s.53-3.87,1.59-5.14c1.06-1.27,2.49-1.9,4.28-1.9,1.68,0,3,.55,3.98,1.65.98,1.1,1.46,2.56,1.46,4.36v1.28h-9.22c.04,1.57.44,2.76,1.19,3.58.75.81,1.81,1.22,3.18,1.22,1.44,0,2.86-.3,4.27-.9v1.81c-.72.31-1.39.53-2.03.67-.64.13-1.41.2-2.31.2ZM1175.95,135.18c-1.07,0-1.93.35-2.57,1.05-.64.7-1.02,1.67-1.13,2.91h6.99c0-1.28-.29-2.26-.85-2.94-.57-.68-1.38-1.02-2.44-1.02Z"/>
    <path d="M1208.42,147.1v-8.7c0-1.07-.23-1.87-.68-2.4-.46-.53-1.16-.8-2.12-.8-1.26,0-2.19.36-2.79,1.09-.6.72-.9,1.84-.9,3.34v7.47h-2.03v-8.7c0-1.07-.23-1.87-.68-2.4-.46-.53-1.17-.8-2.14-.8-1.27,0-2.2.38-2.79,1.14-.59.76-.88,2.01-.88,3.74v7.02h-2.03v-13.38h1.65l.33,1.83h.1c.38-.65.92-1.16,1.62-1.53.7-.37,1.47-.55,2.34-.55,2.09,0,3.46.76,4.1,2.27h.1c.4-.7.98-1.25,1.73-1.66.76-.41,1.62-.61,2.59-.61,1.51,0,2.65.39,3.4,1.17.75.78,1.13,2.02,1.13,3.73v8.73h-2.03Z"/>
    <path d="M1222.85,147.1l-.4-1.9h-.1c-.67.84-1.33,1.41-2,1.7-.66.3-1.49.45-2.48.45-1.33,0-2.37-.34-3.12-1.03-.75-.68-1.13-1.66-1.13-2.92,0-2.7,2.16-4.12,6.48-4.25l2.27-.07v-.83c0-1.05-.23-1.82-.68-2.33-.45-.5-1.17-.75-2.17-.75-1.12,0-2.38.34-3.78,1.03l-.62-1.55c.66-.36,1.38-.64,2.17-.84.79-.2,1.57-.31,2.36-.31,1.59,0,2.78.35,3.55,1.06.77.71,1.15,1.84,1.15,3.41v9.13h-1.5ZM1218.27,145.67c1.26,0,2.25-.35,2.97-1.04.72-.69,1.08-1.66,1.08-2.91v-1.21l-2.03.09c-1.61.06-2.77.31-3.49.75-.71.44-1.07,1.13-1.07,2.07,0,.73.22,1.29.67,1.67.44.38,1.06.57,1.86.57Z"/>
    <path d="M1226.4,133.72h2.17l2.93,7.63c.64,1.74,1.04,3,1.2,3.77h.1c.11-.42.33-1.12.67-2.13.34-1.01,1.44-4.1,3.31-9.27h2.17l-5.75,15.23c-.57,1.51-1.23,2.57-2,3.2-.76.63-1.7.95-2.8.95-.62,0-1.23-.07-1.83-.21v-1.62c.45.1.95.15,1.5.15,1.39,0,2.38-.78,2.98-2.34l.75-1.9-5.4-13.45Z"/>
    <path d="M1252.67,140.4c0,2.18-.55,3.88-1.65,5.11-1.1,1.22-2.62,1.84-4.55,1.84-1.2,0-2.26-.28-3.19-.84s-1.64-1.37-2.15-2.42-.76-2.28-.76-3.69c0-2.18.54-3.88,1.64-5.1,1.09-1.22,2.6-1.83,4.54-1.83s3.36.62,4.46,1.87,1.65,2.93,1.65,5.05ZM1242.48,140.4c0,1.71.34,3.01,1.03,3.91.68.9,1.69,1.34,3.02,1.34s2.33-.45,3.02-1.34c.69-.89,1.03-2.2,1.03-3.91s-.34-2.99-1.03-3.88c-.69-.88-1.7-1.32-3.05-1.32s-2.33.44-3,1.31c-.68.87-1.01,2.17-1.01,3.89Z"/>
    <path d="M1271.82,145.31h-.11c-.94,1.36-2.34,2.04-4.2,2.04-1.75,0-3.11-.6-4.08-1.79-.97-1.2-1.46-2.9-1.46-5.1s.49-3.92,1.46-5.14,2.33-1.83,4.08-1.83,3.21.66,4.17,1.98h.16l-.08-.96-.05-.94v-5.44h2.03v18.99h-1.65l-.27-1.79ZM1267.77,145.65c1.38,0,2.39-.38,3.01-1.13.62-.75.93-1.97.93-3.64v-.43c0-1.9-.32-3.25-.95-4.06-.63-.81-1.64-1.21-3.02-1.21-1.19,0-2.1.46-2.73,1.39-.63.92-.95,2.23-.95,3.91s.31,3,.94,3.87c.63.87,1.55,1.31,2.76,1.31Z"/>
    <path d="M1283.69,147.35c-1.98,0-3.54-.6-4.68-1.81-1.14-1.2-1.72-2.88-1.72-5.02s.53-3.87,1.59-5.14c1.06-1.27,2.49-1.9,4.28-1.9,1.68,0,3,.55,3.98,1.65.98,1.1,1.46,2.56,1.46,4.36v1.28h-9.22c.04,1.57.44,2.76,1.19,3.58.75.81,1.81,1.22,3.18,1.22,1.44,0,2.86-.3,4.27-.9v1.81c-.72.31-1.39.53-2.03.67-.64.13-1.41.2-2.31.2ZM1283.14,135.18c-1.07,0-1.93.35-2.57,1.05-.64.7-1.02,1.67-1.13,2.91h7c0-1.28-.29-2.26-.85-2.94-.57-.68-1.38-1.02-2.44-1.02Z"/>
    <path d="M1309.36,147.1h-11.73v-1.75l4.7-4.72c1.43-1.45,2.38-2.48,2.83-3.1.46-.62.8-1.22,1.03-1.81.23-.59.34-1.22.34-1.89,0-.95-.29-1.71-.87-2.26-.58-.56-1.38-.84-2.4-.84-.74,0-1.44.12-2.11.37-.66.24-1.4.69-2.21,1.33l-1.07-1.38c1.64-1.37,3.43-2.05,5.37-2.05,1.68,0,2.99.43,3.94,1.29.95.86,1.43,2.01,1.43,3.46,0,1.13-.32,2.25-.95,3.36-.63,1.11-1.82,2.51-3.56,4.2l-3.91,3.82v.1h9.18v1.88Z"/>
    <path d="M1323.75,138.15c0,3.08-.49,5.39-1.46,6.91-.97,1.52-2.46,2.28-4.46,2.28s-3.38-.78-4.38-2.34c-1-1.56-1.5-3.84-1.5-6.85s.48-5.42,1.45-6.92c.97-1.51,2.45-2.26,4.43-2.26s3.41.79,4.41,2.36c1,1.57,1.51,3.85,1.51,6.82ZM1314,138.15c0,2.6.3,4.49.92,5.67.61,1.18,1.58,1.78,2.92,1.78s2.33-.6,2.94-1.8c.61-1.2.91-3.08.91-5.65s-.3-4.44-.91-5.63c-.61-1.19-1.58-1.79-2.94-1.79s-2.31.59-2.92,1.76c-.61,1.18-.92,3.06-.92,5.66Z"/>
    <path d="M1337.95,147.1h-11.73v-1.75l4.7-4.72c1.43-1.45,2.38-2.48,2.83-3.1.46-.62.8-1.22,1.03-1.81.23-.59.34-1.22.34-1.89,0-.95-.29-1.71-.87-2.26-.58-.56-1.38-.84-2.4-.84-.74,0-1.44.12-2.11.37-.66.24-1.4.69-2.21,1.33l-1.07-1.38c1.64-1.37,3.43-2.05,5.37-2.05,1.68,0,2.99.43,3.94,1.29.95.86,1.43,2.01,1.43,3.46,0,1.13-.32,2.25-.95,3.36-.63,1.11-1.82,2.51-3.56,4.2l-3.91,3.82v.1h9.18v1.88Z"/>
    <path d="M1353.09,143h-2.65v4.1h-1.94v-4.1h-8.68v-1.77l8.47-12.07h2.15v12h2.65v1.84ZM1348.5,141.16v-5.93c0-1.16.04-2.48.12-3.94h-.1c-.39.78-.76,1.43-1.1,1.94l-5.58,7.93h6.65Z"/>
  </g>
  <path class="cls-1" d="M1433.94,79.51H1.5c-.83,0-1.5-.67-1.5-1.5s.67-1.5,1.5-1.5h1432.44c.83,0,1.5.67,1.5,1.5s-.67,1.5-1.5,1.5Z"/>
  <path class="cls-2" d="M114.94,79.38v16.44c0,.84-2.22,1.84-3.46,1.46-1.5-.46-1.84-4.96-3.03-4.93-.75.02-2.11,3.87-5.49-.02.91,4.35-3.78,12.96-7.22,6.68l-2.78-7.68c.4,1.76-.85,14.19-3.99,11.95-4.76-7.57-7.82-15.8-11.52-23.91h-18c-1.48,0-1.48-2.99,0-2.99h17.5c.2,0-.17-3.3,0-3.99,2.64-.5,4,.66,5.99,2v-8.97c2.47-1.5,6.68,2.21,6.99,2,.22-.15.3-3.47,2.51-2.99l4.5,4.98c-1.65-3.31,4.14-6.95,6.55-7,3.92-.07,3.51,9.31,6.45,10.98.7-5.89-1.65-11.44-.89-17.34.7-5.4,3.9-3.44,3.9-2.08v18.93c0,.52,1.23,2.26,1.15,3.34"/>
  <path class="cls-2" d="M444.02,79.38v16.44c0,.84-2.22,1.84-3.46,1.46-1.5-.46-1.84-4.96-3.03-4.93-.75.02-2.11,3.87-5.49-.02.91,4.35-3.78,12.96-7.22,6.68l-2.78-7.68c.4,1.76-.85,14.19-3.99,11.95-4.76-7.57-7.82-15.8-11.52-23.91h-18c-1.48,0-1.48-2.99,0-2.99h17.5c.2,0-.17-3.3,0-3.99,2.64-.5,4,.66,5.99,2v-8.97c2.47-1.5,6.68,2.21,6.99,2,.22-.15.3-3.47,2.51-2.99l4.5,4.98c-1.65-3.31,4.14-6.95,6.55-7,3.92-.07,3.51,9.31,6.45,10.98.7-5.89-1.65-11.44-.89-17.34.7-5.4,3.9-3.44,3.9-2.08v18.93c0,.52,1.23,2.26,1.15,3.34"/>
  <path class="cls-2" d="M803.39,79.38v16.44c0,.84-2.22,1.84-3.46,1.46-1.5-.46-1.84-4.96-3.03-4.93-.75.02-2.11,3.87-5.49-.02.91,4.35-3.78,12.96-7.22,6.68l-2.78-7.68c.4,1.76-.85,14.19-3.99,11.95-4.76-7.57-7.82-15.8-11.52-23.91h-18c-1.48,0-1.48-2.99,0-2.99h17.5c.2,0-.17-3.3,0-3.99,2.64-.5,4,.66,5.99,2v-8.97c2.47-1.5,6.68,2.21,6.99,2,.22-.15.3-3.47,2.51-2.99l4.5,4.98c-1.65-3.31,4.14-6.95,6.55-7,3.92-.07,3.51,9.31,6.45,10.98.7-5.89-1.65-11.44-.89-17.34.7-5.4,3.9-3.44,3.9-2.08v18.93c0,.52,1.23,2.26,1.15,3.34"/>
  <path class="cls-2" d="M1132.46,79.38v16.44c0,.84-2.22,1.84-3.46,1.46-1.5-.46-1.84-4.96-3.03-4.93-.75.02-2.11,3.87-5.49-.02.91,4.35-3.78,12.96-7.22,6.68l-2.78-7.68c.4,1.76-.85,14.19-3.99,11.95-4.76-7.57-7.82-15.8-11.52-23.91h-18c-1.48,0-1.48-2.99,0-2.99h17.5c.2,0-.17-3.3,0-3.99,2.64-.5,4,.66,5.99,2v-8.97c2.47-1.5,6.68,2.21,6.99,2,.22-.15.3-3.47,2.51-2.99l4.5,4.98c-1.65-3.31,4.14-6.95,6.55-7,3.92-.07,3.51,9.31,6.45,10.98.7-5.89-1.65-11.44-.89-17.34.7-5.4,3.9-3.44,3.9-2.08v18.93c0,.52,1.23,2.26,1.15,3.34"/>
</svg>