<?xml version="1.0" encoding="UTF-8"?>
<svg id="Capa_1" xmlns="http://www.w3.org/2000/svg" version="1.1" viewBox="0 0 217 217">
  <!-- Generator: Adobe Illustrator 29.2.1, SVG Export Plug-In . SVG Version: 2.1.0 Build 116)  -->
  <defs>
    <style>
      .st0, .st1 {
        fill: #44174f;
      }

      .st2, .st1 {
        isolation: isolate;
      }

      .st3 {
        fill: #fff;
      }

      .st4 {
        fill: #fffdb6;
      }

      .st1 {
        opacity: .3;
      }
    </style>
  </defs>
  <g id="Glossary">
    <path class="st1" d="M198.9,10.8H42.4c-.8,0-1.5.2-2.1.7l-13.6,10.5c-1,.8-1.6,2.2-1.4,3.7v183.4c0,2.6,1.8,4.7,4,4.7h156.3c2.2,0,4-2.1,4-4.7h0v-1.6l5.5-4.3h3.8c2.2,0,4-2.1,4-4.7h0V15.5c0-2.6-1.8-4.7-4-4.7h0Z"/>
    <rect class="st0" x="31.9" y="3" width="164.3" height="192.4" rx="3" ry="3"/>
    <path class="st3" d="M186.9,8.8H35.6c-5,0-9,4.7-9,10.5h0v178.1c0,2.1,1.5,3.8,3.2,3.8h144.8c2.6,0,5.1-.7,7.3-2.1l.9.5,5.9-4.6c1.3-1,2.1-2.8,2.1-4.7V13.5c0-2.6-1.8-4.7-4-4.7h0Z"/>
    <path class="st0" d="M178.9,13.5H34l5.9-4.6c.4-.3.5-.8.2-1.3h0l-1.6-2.9c-1.1-1.9-3.3-2.4-4.9-1.2h0l-13.5,10.5c-1,.8-1.6,2.2-1.4,3.7v183.4c0,2.6,1.8,4.7,4,4.7h156.3c2.2,0,4-2.1,4-4.7h0V18.2c0-2.6-1.8-4.7-4-4.7h-.1Z"/>
    <g class="st2">
      <g class="st2">
        <path class="st4" d="M114.1,116.8h-18.7l-3.3,7.6c-.8,1.9-1.2,3.3-1.2,4.2s.3,1.4,1,1.9c.7.6,2.2.9,4.5,1.1v1.3h-15.2v-1.3c2-.4,3.3-.8,3.9-1.4,1.2-1.1,2.5-3.4,4-6.9l17-39.7h1.2l16.8,40.1c1.4,3.2,2.6,5.3,3.7,6.3,1.1,1,2.6,1.5,4.6,1.6v1.3h-19v-1.3c1.9,0,3.2-.4,3.9-1,.7-.5,1-1.2,1-2s-.5-2.7-1.4-4.9l-2.9-6.9ZM113.1,114.1l-8.2-19.5-8.4,19.5h16.6Z"/>
        <path class="st4" d="M154.1,128.2c-3.3,2.6-5.4,4.1-6.3,4.5-1.3.6-2.6.9-4.1.9-2.3,0-4.1-.8-5.6-2.3-1.5-1.5-2.2-3.6-2.2-6.1s.4-3,1.1-4.1c1-1.6,2.7-3.1,5.1-4.5s6.4-3.2,12-5.2v-1.3c0-3.2-.5-5.5-1.5-6.7-1-1.2-2.5-1.8-4.5-1.8s-2.7.4-3.6,1.2c-.9.8-1.4,1.7-1.4,2.8v2.1c0,1.1-.2,1.9-.8,2.5-.6.6-1.3.9-2.2.9s-1.6-.3-2.2-.9c-.6-.6-.8-1.5-.8-2.5,0-2,1-3.9,3.1-5.6,2.1-1.7,5-2.6,8.8-2.6s5.3.5,7.1,1.5c1.4.7,2.4,1.9,3.1,3.4.4,1,.6,3.1.6,6.3v11.1c0,3.1,0,5,.2,5.7.1.7.3,1.2.6,1.4.3.2.6.4.9.4s.7,0,1-.2c.5-.3,1.5-1.2,2.9-2.6v2c-2.7,3.6-5.2,5.3-7.6,5.3s-2.1-.4-2.8-1.2c-.7-.8-1-2.2-1.1-4.1ZM154.1,125.9v-12.4c-3.6,1.4-5.9,2.4-6.9,3-1.9,1-3.2,2.1-4,3.3-.8,1.1-1.2,2.4-1.2,3.7s.5,3.1,1.5,4.2c1,1.1,2.2,1.7,3.5,1.7s4.2-1.2,7.1-3.6Z"/>
      </g>
    </g>
    <rect class="st4" x="18.6" y="91" width="53.1" height="35.5"/>
  </g>
</svg>