<?xml version="1.0" encoding="UTF-8"?>
<svg id="Capa_1" xmlns="http://www.w3.org/2000/svg" version="1.1" viewBox="0 0 217 217">
  <!-- Generator: Adobe Illustrator 29.2.1, SVG Export Plug-In . SVG Version: 2.1.0 Build 116)  -->
  <defs>
    <style>
      .st0, .st1 {
        fill: #ccc;
      }

      .st2, .st1 {
        isolation: isolate;
      }

      .st3 {
        fill: #fff;
      }

      .st1 {
        opacity: .3;
      }

      .st4 {
        fill: #680000;
      }
    </style>
  </defs>
  <g id="Glossary">
    <path class="st1" d="M198.9,10.8H42.4c-.8,0-1.5.2-2.1.7l-13.6,10.5c-1,.8-1.6,2.2-1.4,3.7v183.4c0,2.6,1.8,4.7,4,4.7h156.3c2.2,0,4-2.1,4-4.7h0v-1.6l5.5-4.3h3.8c2.2,0,4-2.1,4-4.7h0V15.5c0-2.6-1.8-4.7-4-4.7h0Z"/>
    <rect class="st0" x="31.9" y="3" width="164.3" height="192.4" rx="3" ry="3"/>
    <path class="st3" d="M186.9,8.8H35.6c-5,0-9,4.7-9,10.5h0v178.1c0,2.1,1.5,3.8,3.2,3.8h144.8c2.6,0,5.1-.7,7.3-2.1l.9.5,5.9-4.6c1.3-1,2.1-2.8,2.1-4.7V13.5c0-2.6-1.8-4.7-4-4.7h0Z"/>
    <path class="st0" d="M178.9,13.5H34l5.9-4.6c.4-.3.5-.8.2-1.3h0l-1.6-2.9c-1.1-1.9-3.3-2.4-4.9-1.2h0l-13.5,10.5c-1,.8-1.6,2.2-1.4,3.7v183.4c0,2.6,1.8,4.7,4,4.7h156.3c2.2,0,4-2.1,4-4.7h0V18.2c0-2.6-1.8-4.7-4-4.7,0,0-.1,0-.1,0Z"/>
    <g class="st2">
      <g class="st2">
        <path class="st4" d="M87,132.9v-1.3h1.8c2,0,3.5-.7,4.3-2,.5-.8.8-2.5.8-5.3v-31.1c0-3-.3-4.9-1-5.7-.9-1-2.3-1.6-4.1-1.6h-1.8v-1.3h19.6c7.2,0,12.7.8,16.4,2.5,3.8,1.6,6.8,4.4,9.1,8.2,2.3,3.8,3.4,8.2,3.4,13.2s-2,12.3-6.1,16.8c-4.6,5-11.5,7.5-20.9,7.5h-21.5,0ZM100.8,129.4c3,.7,5.5,1,7.6,1,5.5,0,10.1-1.9,13.7-5.8s5.4-9.1,5.4-15.7-1.8-11.9-5.4-15.7-8.3-5.8-14-5.8-4.6.3-7.3,1c0,0,0,41,0,41Z"/>
        <path class="st4" d="M163.6,129.2c-1.6,1.7-3.1,2.8-4.7,3.6-1.5.7-3.2,1.1-4.9,1.1-3.6,0-6.7-1.5-9.3-4.5-2.7-3-4-6.8-4-11.5s1.5-8.9,4.4-12.8,6.7-5.8,11.3-5.8,5.2.9,7.1,2.7v-6c0-3.7,0-6-.3-6.9-.2-.9-.5-1.4-.8-1.7-.4-.3-.9-.5-1.4-.5s-1.4.2-2.5.6l-.5-1.2,9.7-4h1.6v37.6c0,3.8,0,6.1.3,7,.2.8.5,1.4.9,1.8.4.3.8.5,1.4.5s1.5-.2,2.6-.6l.4,1.2-9.7,4h-1.6v-4.7h0ZM163.6,126.8v-16.8c-.1-1.6-.6-3.1-1.3-4.4s-1.7-2.3-2.8-3c-1.2-.7-2.3-1-3.4-1-2.1,0-3.9.9-5.6,2.8-2.2,2.5-3.2,6.1-3.2,10.8s1,8.5,3.1,11c2.1,2.5,4.4,3.8,7,3.8s4.2-1.1,6.3-3.2h-.1Z"/>
      </g>
    </g>
    <rect class="st4" x="18.6" y="91" width="53.1" height="35.5"/>
  </g>
</svg>