<?xml version="1.0" encoding="UTF-8"?>
<svg id="Capa_1" xmlns="http://www.w3.org/2000/svg" version="1.1" viewBox="0 0 217 217">
  <!-- Generator: Adobe Illustrator 29.2.1, SVG Export Plug-In . SVG Version: 2.1.0 Build 116)  -->
  <defs>
    <style>
      .st0, .st1 {
        fill: #ccc;
      }

      .st2, .st1 {
        isolation: isolate;
      }

      .st3 {
        fill: #fff;
      }

      .st1 {
        opacity: .3;
      }

      .st4 {
        fill: #680000;
      }
    </style>
  </defs>
  <g id="Glossary">
    <path class="st1" d="M198.9,10.8H42.4c-.8,0-1.5.2-2.1.7l-13.6,10.5c-1,.8-1.6,2.2-1.4,3.7v183.4c0,2.6,1.8,4.7,4,4.7h156.3c2.2,0,4-2.1,4-4.7h0v-1.6l5.5-4.3h3.8c2.2,0,4-2.1,4-4.7h0V15.5c0-2.6-1.8-4.7-4-4.7h0Z"/>
    <rect class="st0" x="31.9" y="3" width="164.3" height="192.4" rx="3" ry="3"/>
    <path class="st3" d="M186.9,8.8H35.6c-5,0-9,4.7-9,10.5h0v178.1c0,2.1,1.5,3.8,3.2,3.8h144.8c2.6,0,5.1-.7,7.3-2.1l.9.5,5.9-4.6c1.3-1,2.1-2.8,2.1-4.7V13.5c0-2.6-1.8-4.7-4-4.7h0Z"/>
    <path class="st0" d="M178.9,13.5H34l5.9-4.6c.4-.3.5-.8.2-1.3h0l-1.6-2.9c-1.1-1.9-3.3-2.4-4.9-1.2h0l-13.5,10.5c-1,.8-1.6,2.2-1.4,3.7v183.4c0,2.6,1.8,4.7,4,4.7h156.3c2.2,0,4-2.1,4-4.7h0V18.2c0-2.6-1.8-4.7-4-4.7,0,0-.1,0-.1,0Z"/>
    <g class="st2">
      <g class="st2">
        <path class="st4" d="M88.1,86v-1.3h20.7v1.3h-1.7c-2,0-3.4.6-4.3,1.7-.6.8-.9,2.6-.9,5.5v23.6c0,3.6-.4,6.6-1.2,8.8-.8,2.3-2.2,4.2-4.1,5.9s-4.3,2.5-7,2.5-4-.6-5.3-1.7c-1.3-1.1-1.9-2.4-1.9-3.8s.3-2,.9-2.6c.8-.7,1.7-1.1,2.7-1.1s1.4.2,2,.7,1.4,1.8,2.3,4c.5,1.3,1.2,1.9,2.1,1.9s1.2-.4,1.8-1.2c.6-.8.8-2.2.8-4.2v-32.9c0-2.4-.2-4.1-.5-4.8-.2-.6-.7-1.1-1.5-1.5-1-.6-2.1-.9-3.2-.9h-1.7Z"/>
        <path class="st4" d="M122.7,99.4v32.8c0,5.6-1.2,9.7-3.6,12.4s-5.5,4.1-9.2,4.1-3.8-.4-4.8-1.2-1.6-1.6-1.6-2.4.3-1.5.9-2.1,1.3-.9,2-.9,1.2.2,1.9.5c.4.2,1.2.8,2.3,1.8,1.1,1,2.1,1.5,2.9,1.5s1.1-.2,1.7-.7c.5-.4.9-1.2,1.2-2.2.3-1,.4-3.3.4-6.7v-23.2c0-3.6,0-5.9-.3-6.9-.2-.8-.4-1.3-.8-1.6-.4-.3-.8-.4-1.5-.4s-1.5.2-2.4.5l-.5-1.3,9.8-4h1.6ZM119.7,82.3c1,0,1.9.4,2.6,1.1s1.1,1.6,1.1,2.6-.4,1.8-1.1,2.6-1.6,1.1-2.6,1.1-1.8-.4-2.6-1.1-1.1-1.6-1.1-2.6.4-1.9,1.1-2.6,1.6-1.1,2.6-1.1Z"/>
      </g>
    </g>
    <rect class="st4" x="18.6" y="91" width="53.1" height="35.5"/>
  </g>
</svg>