<?xml version="1.0" encoding="UTF-8"?>
<svg id="Capa_1" xmlns="http://www.w3.org/2000/svg" version="1.1" viewBox="0 0 217 217">
  <!-- Generator: Adobe Illustrator 29.2.1, SVG Export Plug-In . SVG Version: 2.1.0 Build 116)  -->
  <defs>
    <style>
      .st0, .st1 {
        fill: #ccc;
      }

      .st2, .st1 {
        isolation: isolate;
      }

      .st3 {
        fill: #fff;
      }

      .st1 {
        opacity: .3;
      }

      .st4 {
        fill: #680000;
      }
    </style>
  </defs>
  <g id="Glossary">
    <path class="st1" d="M198.9,10.8H42.4c-.8,0-1.5.2-2.1.7l-13.6,10.5c-1,.8-1.6,2.2-1.4,3.7v183.4c0,2.6,1.8,4.7,4,4.7h156.3c2.2,0,4-2.1,4-4.7h0v-1.6l5.5-4.3h3.8c2.2,0,4-2.1,4-4.7h0V15.5c0-2.6-1.8-4.7-4-4.7h0Z"/>
    <rect class="st0" x="31.9" y="3" width="164.3" height="192.4" rx="3" ry="3"/>
    <path class="st3" d="M186.9,8.8H35.6c-5,0-9,4.7-9,10.5h0v178.1c0,2.1,1.5,3.8,3.2,3.8h144.8c2.6,0,5.1-.7,7.3-2.1l.9.5,5.9-4.6c1.3-1,2.1-2.8,2.1-4.7V13.5c0-2.6-1.8-4.7-4-4.7h0Z"/>
    <path class="st0" d="M178.9,13.5H34l5.9-4.6c.4-.3.5-.8.2-1.3h0l-1.6-2.9c-1.1-1.9-3.3-2.4-4.9-1.2h0l-13.5,10.5c-1,.8-1.6,2.2-1.4,3.7v183.4c0,2.6,1.8,4.7,4,4.7h156.3c2.2,0,4-2.1,4-4.7h0V18.2c0-2.6-1.8-4.7-4-4.7,0,0-.1,0-.1,0Z"/>
    <g class="st2">
      <g class="st2">
        <path class="st4" d="M95.7,110.3v14c0,3,.3,4.9,1,5.7.9,1,2.3,1.6,4.1,1.6h1.8v1.3h-20.7v-1.3h1.8c2,0,3.5-.7,4.4-2,.5-.7.7-2.5.7-5.2v-31.1c0-3-.3-4.9-1-5.7-.9-1-2.3-1.6-4.1-1.6h-1.8v-1.3h17.7c4.3,0,7.7.4,10.2,1.3s4.6,2.4,6.3,4.5c1.7,2.1,2.6,4.6,2.6,7.5s-1.3,7.1-3.9,9.6-6.3,3.7-11,3.7-2.4,0-3.8-.2-2.8-.4-4.3-.7h0ZM95.7,108.3c1.3.2,2.4.4,3.3.5,1,0,1.8.2,2.5.2,2.5,0,4.6-1,6.4-2.9s2.7-4.4,2.7-7.4-.4-4-1.3-5.8-2.1-3.1-3.6-4-3.3-1.3-5.3-1.3-2.8.2-4.7.7v20h0Z"/>
        <path class="st4" d="M121.2,103.6l10-4.1h1.4v7.6c1.7-2.9,3.4-4.9,5.1-6,1.7-1.1,3.5-1.7,5.3-1.7,3.3,0,6,1.3,8.2,3.8,2.7,3.1,4,7.2,4,12.2s-1.6,10.3-4.8,13.9c-2.7,3-6,4.5-10,4.5s-3.3-.2-4.5-.7c-.9-.4-2-1.1-3.2-2.1v9.9c0,2.2.1,3.6.4,4.2.3.6.7,1.1,1.4,1.4.7.4,1.9.5,3.7.5v1.3h-17.1v-1.3h.9c1.3,0,2.4-.2,3.3-.7.4-.3.8-.7,1-1.3s.4-2.1.4-4.4v-30.8c0-2.1,0-3.4-.3-4-.2-.6-.5-1-.9-1.3s-1-.4-1.7-.4-1.3.2-2.2.5l-.4-1.1h0ZM132.6,109.2v12.2c0,2.6.1,4.4.3,5.2.3,1.4,1.1,2.6,2.4,3.6,1.3,1,2.9,1.6,4.9,1.6s4.3-.9,5.8-2.8c1.9-2.4,2.9-5.8,2.9-10.2s-1.1-8.8-3.3-11.5c-1.5-1.8-3.3-2.8-5.4-2.8s-2.3.3-3.4.9c-.9.4-2.3,1.7-4.2,3.8Z"/>
      </g>
    </g>
    <rect class="st4" x="18.6" y="91" width="53.1" height="35.5"/>
  </g>
</svg>