<?xml version="1.0" encoding="UTF-8"?>
<svg id="Capa_1" xmlns="http://www.w3.org/2000/svg" version="1.1" viewBox="0 0 217 217">
  <!-- Generator: Adobe Illustrator 29.2.1, SVG Export Plug-In . SVG Version: 2.1.0 Build 116)  -->
  <defs>
    <style>
      .st0, .st1 {
        fill: #ccc;
      }

      .st2, .st1 {
        isolation: isolate;
      }

      .st3 {
        fill: #fff;
      }

      .st1 {
        opacity: .3;
      }

      .st4 {
        fill: #680000;
      }
    </style>
  </defs>
  <g id="Glossary">
    <path class="st1" d="M198.9,10.8H42.4c-.8,0-1.5.2-2.1.7l-13.6,10.5c-1,.8-1.6,2.2-1.4,3.7v183.4c0,2.6,1.8,4.7,4,4.7h156.3c2.2,0,4-2.1,4-4.7h0v-1.6l5.5-4.3h3.8c2.2,0,4-2.1,4-4.7h0V15.5c0-2.6-1.8-4.7-4-4.7h0Z"/>
    <rect class="st0" x="31.9" y="3" width="164.3" height="192.4" rx="3" ry="3"/>
    <path class="st3" d="M186.9,8.8H35.6c-5,0-9,4.7-9,10.5h0v178.1c0,2.1,1.5,3.8,3.2,3.8h144.8c2.6,0,5.1-.7,7.3-2.1l.9.5,5.9-4.6c1.3-1,2.1-2.8,2.1-4.7V13.5c0-2.6-1.8-4.7-4-4.7h0Z"/>
    <path class="st0" d="M178.9,13.5H34l5.9-4.6c.4-.3.5-.8.2-1.3h0l-1.6-2.9c-1.1-1.9-3.3-2.4-4.9-1.2h0l-13.5,10.5c-1,.8-1.6,2.2-1.4,3.7v183.4c0,2.6,1.8,4.7,4,4.7h156.3c2.2,0,4-2.1,4-4.7h0V18.2c0-2.6-1.8-4.7-4-4.7,0,0-.1,0-.1,0Z"/>
    <g class="st2">
      <g class="st2">
        <path class="st4" d="M114.2,83.6v16.7h-1.3c-.4-3.2-1.2-5.7-2.3-7.6-1.1-1.9-2.7-3.4-4.7-4.5s-4.1-1.7-6.3-1.7-4.5.8-6.1,2.3-2.4,3.2-2.4,5.1.5,2.8,1.5,4c1.5,1.8,5,4.1,10.5,7.1,4.5,2.4,7.6,4.3,9.2,5.6,1.6,1.3,2.9,2.8,3.8,4.6s1.3,3.6,1.3,5.5c0,3.6-1.4,6.8-4.2,9.4-2.8,2.6-6.5,4-10.9,4s-2.7-.1-3.9-.3c-.7-.1-2.3-.6-4.6-1.3-2.3-.7-3.8-1.1-4.4-1.1s-1.1.2-1.4.5c-.3.4-.6,1.1-.8,2.2h-1.3v-16.5h1.3c.6,3.5,1.4,6,2.5,7.8,1,1.7,2.6,3.1,4.8,4.3,2.1,1.1,4.5,1.7,7.1,1.7s5.3-.8,7-2.3c1.7-1.6,2.6-3.4,2.6-5.5s-.3-2.4-1-3.6-1.7-2.3-3-3.4c-.9-.7-3.4-2.2-7.6-4.5s-7.1-4.2-8.8-5.5-3.1-2.9-4-4.5c-.9-1.7-1.4-3.5-1.4-5.5,0-3.5,1.3-6.4,4-8.9s6-3.8,10.1-3.8,5.3.6,8.1,1.9c1.3.6,2.3.9,2.8.9s1.1-.2,1.5-.6.7-1.1.9-2.2h1.3v-.3Z"/>
        <path class="st4" d="M144.6,99.4v11.1h-1.2c-.9-3.5-2.1-5.9-3.5-7.1-1.4-1.3-3.2-1.9-5.4-1.9s-3,.4-4,1.3-1.5,1.8-1.5,2.9.4,2.5,1.1,3.4c.7,1,2.2,2,4.5,3.1l5.2,2.5c4.8,2.3,7.2,5.4,7.2,9.3s-1.1,5.3-3.4,7.2c-2.2,1.8-4.7,2.7-7.5,2.7s-4.3-.4-6.8-1.1c-.8-.2-1.4-.4-1.9-.4s-1,.3-1.3.9h-1.2v-11.6h1.2c.7,3.3,1.9,5.8,3.8,7.5,1.9,1.7,4,2.5,6.3,2.5s3-.5,4-1.4c1-1,1.5-2.1,1.5-3.5s-.6-3-1.7-4.1c-1.1-1.1-3.4-2.5-6.9-4.2-3.4-1.7-5.7-3.2-6.8-4.6-1.1-1.4-1.6-3.1-1.6-5.1s.9-4.9,2.8-6.7c1.8-1.8,4.2-2.7,7.1-2.7s2.8.3,4.7.8c1.2.4,2,.5,2.4.5s.7,0,.9-.2.5-.5.7-1.1h1.3Z"/>
      </g>
    </g>
    <rect class="st4" x="18.6" y="91" width="53.1" height="35.5"/>
  </g>
</svg>