<?xml version="1.0" encoding="UTF-8"?>
<svg id="Capa_1" xmlns="http://www.w3.org/2000/svg" version="1.1" viewBox="0 0 100 100">
  <!-- Generator: Adobe Illustrator 29.2.1, SVG Export Plug-In . SVG Version: 2.1.0 Build 116)  -->
  <defs>
    <style>
      .st0 {
        fill: #8e3838;
      }

      .st1 {
        fill: #ffd7d7;
        stroke: #af0000;
        stroke-miterlimit: 10;
        stroke-width: 3px;
      }
    </style>
  </defs>
  <circle class="st1" cx="50" cy="50" r="45"/>
  <path class="st0" d="M32.5,67l4.2-4.2c6.2-1.5,11.2-4,15-7.5s5.7-7.4,5.7-11.6-.9-4.4-2.7-6c-1.8-1.6-4.1-2.4-6.8-2.4s-6.5,1.2-9.6,3.7c-.2-.5-.3-.8-.3-.9,0-1.2,1.8-2.6,5.4-4.1,3.6-1.5,6.8-2.3,9.6-2.3s5.3.9,7.4,2.7,3.2,3.8,3.2,6.2-1.9,7-5.8,11.3c-3.8,4.3-8.5,8-14.1,11l20,1-4,4-27.2-.9Z"/>
</svg>