<?xml version="1.0" encoding="UTF-8"?>
<svg id="Capa_1" xmlns="http://www.w3.org/2000/svg" xmlns:xlink="http://www.w3.org/1999/xlink" version="1.1" viewBox="0 0 261 174">
  <!-- Generator: Adobe Illustrator 29.2.1, SVG Export Plug-In . SVG Version: 2.1.0 Build 116)  -->
  <defs>
    <style>
      .st0 {
        isolation: isolate;
      }

      .st1 {
        fill: #330808;
      }

      .st2 {
        fill: #e5c391;
      }

      .st3 {
        fill: #bc9362;
      }
    </style>
  </defs>
  <g class="st0">
    <g id="Capa_11">
      <path class="st2" d="M169.2,152h-92.2c-22.4,0-68.9-35.5-68.9-78.9V8.2h230v64.9c0,43.4-46.5,78.9-68.9,78.9h0Z"/>
    </g>
  </g>
  <rect class="st2" y="8.2" width="261" height="8.5"/>
  <g id="Cu9QlB">
    <path class="st3" d="M73.5,151.8c0-1.7-2.2-1.9-2.7-2.9s.3-1.5,0-2.3-2-.9-2.1-2.3,1-1.6,1-2.4-1.1-1.5-.6-2.5c.7-1.6,3.5-1.2,3-2.3-2.2-3.1-22.6-21.3-22.5-23s.9-1.4.9-2.2l3.6,2.4c8.1,2.2,16.7,0,24.9-.9,5,8.2,11.1,15.3,17.1,22.7,5,0,9.4,1,14.1,2.7,1.2.5,2.3,1.7,3.5,1.8,2.2.2,4.3-1.6,6.4-1.4-2-4.3,2.2-3,2.8-3.9s.5-3.1.6-3.5c.1-3-1.9-7.5-1.4-9.5s1.4-.6,1-1.8l1,1c.3-5.6,3.6-11.7,7.7-15.6-2.2-.6.7-1.1,1.8-2.5,2.4-2.8,4.5-8.1,6.3-11.5l-1.4-.2c.5-2.2-.9-8.2,0-9.7s9.6-3.3,10-3.7,0-1.4,0-1.4c-.1-.2-2.7.8-3.5.8-4.9-.1-4.7-4-5.7-7.6s-.9-1.2-1.1-1.8.4-1.8.2-2-3.3.3-3.8-1.3.9-2.9,1.3-4.4,1.4-5.3-.8-4.4c2.8-3.3-.8-2.9-1.7-4.8s-.7-3.4-.7-4.1,1.4-7.2,1.8-8.3c1.5-5.1,6.8-7.5,10.5-10.6s1-1.8,1.7-2.1,3.9-1.5,4.1-1.5c1.7-.3,5,0,6.7-.1s3.5-.9,5.2-.5-.4.2,2,.4-.1,1.6,1.7.5l-.5,1c7.7,1.4,13.7,12.8,13.9,20,.1,4.2-1.8,7.6-2.3,11s.5,7.9-2.2,12.2-3.3,3.2-3.6,4.6,3.6.2,3.9,1.5-.8,7.2-1.1,8-1.4.7-1.4,1.1c0,1.3,2.7,4.4,3.5,5.6,2,3.3,4.5,7,5.6,10.7s1.5,5.7,1.5,7.6c0,3.6-3.8,9.7-4.3,13.5-.7,4.3-.6,9.2-1.5,13.9s-6.4,16.1-6.4,16.1h-97.7Z"/>
  </g>
  <g>
    <path class="st1" d="M54.3,53.6c-.1.2-.3.3-.4.4-.1,0-.3.1-.5.1s-.4,0-.6-.2c-.2-.2-.5-.3-.8-.5s-.6-.4-1-.5c-.4-.2-.9-.2-1.4-.2s-1,0-1.5.2c-.4.2-.8.4-1.1.7-.3.3-.5.6-.6,1s-.2.8-.2,1.2.1.8.4,1.1c.2.3.5.6.9.8.4.2.8.4,1.3.6.5.2,1,.4,1.5.6.5.2,1,.4,1.5.7.5.3.9.6,1.3,1,.4.4.7.8.9,1.4.2.5.4,1.2.4,1.9s-.2,2.1-.5,3c-.4.9-.9,1.8-1.6,2.5s-1.5,1.3-2.5,1.7c-1,.4-2.1.6-3.3.6s-1.2,0-1.9-.2c-.6-.1-1.2-.3-1.7-.6s-1-.5-1.5-.9-.9-.7-1.2-1.2l1.4-1.9c.1-.1.2-.3.4-.3s.3-.1.5-.1.3,0,.5.2c.2.1.3.2.5.4.2.1.4.3.6.5.2.2.5.3.7.5.3.1.6.3.9.4.3.1.8.1,1.2.1,1.1,0,2-.3,2.7-1,.6-.6,1-1.5,1-2.7s-.1-.9-.3-1.2c-.2-.3-.5-.6-.9-.8-.4-.2-.8-.4-1.3-.6s-1-.3-1.5-.5-1-.4-1.5-.6-.9-.6-1.3-.9c-.4-.4-.7-.9-.9-1.4-.2-.6-.3-1.2-.3-2.1s.2-1.8.5-2.7c.3-.9.8-1.6,1.5-2.3.6-.7,1.4-1.2,2.3-1.6.9-.4,1.9-.6,3.1-.6s1.2,0,1.7.2c.5.1,1.1.3,1.5.5.5.2.9.5,1.3.8.4.3.7.6,1,1l-1.2,1.6Z"/>
    <path class="st1" d="M61.2,56c-.2,1.7-.4,3.1-.5,4.3s-.3,2.1-.3,2.9c0,.8-.2,1.4-.2,1.8,0,.5,0,.8-.1,1s0,.4,0,.5c0,0,0,.1,0,.2,0,.7.1,1.1.4,1.4s.6.4,1.1.4.8-.1,1.2-.3c.4-.2.8-.5,1.2-.9s.7-.9,1.1-1.5c.3-.6.6-1.2.8-1.9l1-8h3.7l-1.9,15.4h-1.9c-.2,0-.3,0-.5,0-.2,0-.3-.1-.4-.2s-.2-.2-.3-.3c0-.1-.1-.3-.1-.5h0c0,0,0-1.9,0-1.9-.8,1.1-1.6,1.9-2.6,2.5-.9.5-1.9.8-2.9.8s-1.1-.1-1.6-.3c-.5-.2-.9-.5-1.2-.9s-.6-.9-.8-1.4c-.2-.6-.3-1.2-.3-2s0-.4,0-.6c0-.2,0-.4,0-.6l1.2-9.8h3.7Z"/>
    <path class="st1" d="M72.1,71.4l2.7-22.3h3.6l-1.2,9.9c.7-1,1.5-1.8,2.4-2.4.9-.6,1.8-.9,2.8-.9s1.2.1,1.7.4,1,.6,1.3,1.1c.4.5.7,1.1.9,1.8.2.7.3,1.6.3,2.5s0,1.7-.3,2.6c-.2.8-.4,1.6-.8,2.4s-.7,1.4-1.2,2.1c-.5.6-1,1.2-1.5,1.6s-1.2.8-1.8,1.1c-.6.3-1.3.4-2,.4s-1.5-.2-2.1-.5c-.6-.3-1.1-.7-1.6-1.3v.5c-.2.4-.3.6-.5.8-.2.2-.5.2-.9.2h-2ZM81,58.7c-.4,0-.8.1-1.2.4-.4.3-.8.7-1.2,1.2-.4.5-.8,1.1-1.1,1.7-.3.7-.6,1.4-.9,2.1l-.4,3.7c.3.4.7.6,1.2.8.4.1.9.2,1.3.2.7,0,1.3-.2,1.8-.6s1-.9,1.4-1.6c.4-.7.7-1.4.9-2.2.2-.8.3-1.7.3-2.5s-.2-1.9-.5-2.4-.8-.8-1.5-.8Z"/>
    <path class="st1" d="M93.9,71.6c-.9,0-1.6-.1-2.4-.4-.7-.3-1.4-.7-1.9-1.3-.5-.5-.9-1.2-1.2-2-.3-.8-.5-1.7-.5-2.7s.2-2.6.6-3.7c.4-1.1,1-2.1,1.7-3,.7-.8,1.6-1.5,2.6-2,1-.5,2-.7,3.1-.7s1.6.1,2.4.4c.7.3,1.4.7,1.9,1.3.5.6.9,1.2,1.2,2,.3.8.4,1.7.4,2.7s-.2,2.6-.6,3.7-1,2.1-1.7,3c-.7.8-1.6,1.5-2.6,2-1,.5-2,.7-3.1.7ZM94.2,68.8c.6,0,1.2-.2,1.7-.5.5-.4.9-.8,1.3-1.4.4-.6.6-1.3.8-2.1.2-.8.3-1.6.3-2.5,0-1.2-.2-2.2-.6-2.8-.4-.6-1.1-.9-1.9-.9s-1.2.2-1.7.5c-.5.4-.9.8-1.3,1.4-.4.6-.6,1.3-.8,2.1s-.3,1.6-.3,2.5c0,1.2.2,2.2.6,2.8s1.1.9,1.9.9Z"/>
    <path class="st1" d="M103.4,71.4l1.9-15.4h1.9c.4,0,.7,0,.9.2.2.2.3.4.3.8s0,.2,0,.4c0,.2,0,.4,0,.8,0,.4,0,.9,0,1.5.6-1.2,1.3-2.1,2.1-2.8.8-.7,1.5-1,2.3-1s.8,0,1.2.3l-.7,3.5c-.5-.2-1-.3-1.4-.3-.9,0-1.7.4-2.3,1.3-.7.9-1.2,2.2-1.6,4l-.8,6.7h-3.6Z"/>
    <path class="st1" d="M124.4,71.4c-.5,0-.8-.1-.9-.3-.2-.2-.3-.5-.3-.8v-2.2c-.6,1.1-1.5,2-2.4,2.6-.9.6-1.9,1-2.9,1s-1.2-.1-1.7-.4-1-.6-1.3-1.1c-.4-.5-.7-1.1-.9-1.8-.2-.7-.3-1.6-.3-2.5s0-1.7.3-2.6c.2-.8.4-1.6.8-2.4.3-.8.7-1.4,1.2-2.1s1-1.2,1.5-1.6c.6-.5,1.2-.8,1.8-1.1.6-.3,1.3-.4,2-.4s1.3.1,1.9.4,1,.6,1.5,1l1-8.1h3.6l-2.7,22.3h-2ZM119.3,68.7c.4,0,.8-.1,1.2-.4.4-.3.8-.7,1.2-1.1.4-.5.8-1.1,1.1-1.7.3-.7.6-1.4.9-2.1l.5-3.7c-.3-.4-.7-.6-1.2-.8s-.9-.2-1.3-.2c-.7,0-1.3.2-1.8.6s-1,.9-1.4,1.6c-.4.7-.7,1.4-.9,2.2-.2.8-.3,1.7-.3,2.5s.2,1.9.5,2.4c.4.5.8.8,1.5.8Z"/>
    <path class="st1" d="M135.7,56l-1.8,15.4h-3.7l1.8-15.4h3.7ZM136.7,51.5c0,.3,0,.6-.2.9-.1.3-.3.5-.5.7-.2.2-.5.4-.7.5s-.6.2-.9.2-.6,0-.8-.2c-.3-.1-.5-.3-.7-.5-.2-.2-.4-.5-.5-.7-.1-.3-.2-.6-.2-.9s0-.6.2-.9.3-.5.5-.8.5-.4.7-.5c.3-.1.6-.2.8-.2s.6,0,.9.2c.3.1.5.3.7.5.2.2.4.5.5.8.1.3.2.6.2.9Z"/>
    <path class="st1" d="M137.6,71.4l1.8-15.4h1.9c.4,0,.7,0,.9.3.2.2.3.5.3.9v2c.7-1.1,1.5-2,2.5-2.6,1-.6,1.9-.8,2.9-.8s1.1.1,1.6.3.9.5,1.2.9.6.9.8,1.5c.2.6.3,1.2.3,2s0,.4,0,.6c0,.2,0,.4,0,.6l-1.2,9.8h-3.7c.2-1.7.4-3.1.5-4.3.1-1.2.3-2.2.3-2.9s.2-1.4.2-1.8,0-.8.1-1c0-.2,0-.4,0-.5,0,0,0-.1,0-.2,0-.7-.1-1.1-.4-1.4-.2-.3-.6-.4-1.1-.4s-.8.1-1.3.4c-.4.2-.9.6-1.3,1-.4.4-.8,1-1.1,1.6-.3.6-.6,1.3-.8,2.1l-.8,7.6h-3.7Z"/>
    <path class="st1" d="M165.9,71.4h-2c-.4,0-.8-.1-.9-.3s-.3-.5-.3-.8v-2.1c-.6,1.1-1.3,1.9-2.2,2.5-.8.6-1.8.9-2.8.9s-1.1-.1-1.6-.3c-.5-.2-.9-.6-1.3-1s-.7-1-.9-1.7c-.2-.7-.3-1.5-.3-2.4s.1-1.8.3-2.7c.2-.9.6-1.7,1-2.5.4-.8.9-1.5,1.5-2.1.6-.6,1.3-1.2,2-1.7.7-.5,1.5-.8,2.4-1.1s1.8-.4,2.7-.4,1.4,0,2.1.2c.7.1,1.4.3,2,.5l-1.9,14.9ZM159.2,68.6c.4,0,.8-.1,1.2-.4.4-.3.8-.7,1.1-1.2.3-.5.7-1.1,1-1.7s.6-1.4.8-2.2l.6-4.6c-.3,0-.5,0-.8,0-.8,0-1.6.2-2.3.6-.7.4-1.3.9-1.8,1.5-.5.6-.9,1.4-1.2,2.2s-.4,1.8-.4,2.7.2,1.9.5,2.4c.3.5.8.8,1.4.8Z"/>
    <path class="st1" d="M179.6,70.1c-.5.4-.9.7-1.4.9-.5.2-1,.4-1.5.5s-1.1.1-1.7.1-1.7-.2-2.4-.5c-.7-.3-1.3-.7-1.8-1.3s-.9-1.2-1.1-2c-.3-.8-.4-1.7-.4-2.6s.2-2.4.6-3.6c.4-1.1,1-2.1,1.7-3,.7-.9,1.6-1.6,2.6-2.1,1-.5,2.1-.8,3.2-.8s1.9.2,2.6.5c.7.4,1.4.9,1.9,1.6l-1.2,1.4c0,0-.2.2-.3.2-.1,0-.2.1-.4.1s-.3,0-.5-.2c-.1-.1-.3-.2-.5-.3-.2-.1-.4-.2-.7-.3-.3-.1-.6-.2-1.1-.2s-1.1.2-1.6.5c-.5.3-1,.8-1.4,1.3-.4.6-.7,1.3-.9,2.1-.2.8-.4,1.7-.4,2.7s.2,2,.8,2.6,1.2.9,2,.9,1,0,1.4-.2.7-.3,1-.5c.3-.2.5-.4.7-.5.2-.2.4-.2.7-.2s.2,0,.4,0c.1,0,.2.1.3.2l.9,1.1c-.5.6-1,1-1.5,1.4Z"/>
    <path class="st1" d="M188.2,56l-1.8,15.4h-3.7l1.8-15.4h3.7ZM189.1,51.5c0,.3,0,.6-.2.9-.1.3-.3.5-.5.7-.2.2-.5.4-.7.5-.3.1-.6.2-.9.2s-.6,0-.8-.2-.5-.3-.7-.5c-.2-.2-.4-.5-.5-.7-.1-.3-.2-.6-.2-.9s0-.6.2-.9.3-.5.5-.8c.2-.2.5-.4.7-.5.3-.1.6-.2.8-.2s.6,0,.9.2c.3.1.5.3.7.5.2.2.4.5.5.8.1.3.2.6.2.9Z"/>
    <path class="st1" d="M195.9,71.6c-.9,0-1.6-.1-2.4-.4-.7-.3-1.3-.7-1.9-1.3-.5-.5-.9-1.2-1.2-2-.3-.8-.5-1.7-.5-2.7s.2-2.6.6-3.7,1-2.1,1.7-3c.7-.8,1.6-1.5,2.6-2,1-.5,2-.7,3.1-.7s1.6.1,2.4.4c.7.3,1.4.7,1.9,1.3.5.6.9,1.2,1.2,2,.3.8.5,1.7.5,2.7s-.2,2.6-.6,3.7c-.4,1.1-1,2.1-1.7,3-.7.8-1.6,1.5-2.6,2-1,.5-2,.7-3.1.7ZM196.2,68.8c.6,0,1.2-.2,1.7-.5.5-.4.9-.8,1.3-1.4.4-.6.6-1.3.8-2.1.2-.8.3-1.6.3-2.5,0-1.2-.2-2.2-.6-2.8-.4-.6-1.1-.9-1.9-.9s-1.2.2-1.7.5-.9.8-1.3,1.4c-.4.6-.6,1.3-.8,2.1-.2.8-.3,1.6-.3,2.5,0,1.2.2,2.2.6,2.8.4.6,1.1.9,1.9.9ZM203.6,49.5l-3.9,3.9c-.2.2-.4.3-.6.4-.2,0-.4.1-.7.1h-2.1l2.4-3.6c.2-.3.4-.5.6-.6s.5-.2.9-.2h3.5Z"/>
    <path class="st1" d="M205.4,71.4l1.8-15.4h1.9c.4,0,.7,0,.9.3.2.2.3.5.3.9v2c.7-1.1,1.5-2,2.5-2.6.9-.6,1.9-.8,2.9-.8s1.1.1,1.6.3.9.5,1.2.9.6.9.8,1.5c.2.6.3,1.2.3,2s0,.4,0,.6c0,.2,0,.4,0,.6l-1.2,9.8h-3.7c.2-1.7.4-3.1.5-4.3.1-1.2.3-2.2.3-2.9s.2-1.4.2-1.8,0-.8.1-1c0-.2,0-.4,0-.5,0,0,0-.1,0-.2,0-.7-.1-1.1-.4-1.4-.2-.3-.6-.4-1.1-.4s-.8.1-1.3.4c-.4.2-.9.6-1.3,1-.4.4-.8,1-1.1,1.6s-.6,1.3-.8,2.1l-.8,7.6h-3.7Z"/>
    <path class="st1" d="M79.1,85.7l-.4,3.1h-8.7l-.8,6.2h6.9l-.4,3h-6.9l-.8,6.3h8.8l-.4,3.1h-12.7l2.7-21.7h12.6Z"/>
    <path class="st1" d="M89.6,106.1c-.5.4-.9.7-1.4.9-.5.2-1,.4-1.5.5-.5,0-1.1.1-1.7.1s-1.7-.2-2.4-.5c-.7-.3-1.3-.7-1.8-1.3-.5-.6-.9-1.2-1.1-2-.3-.8-.4-1.7-.4-2.6s.2-2.4.6-3.6c.4-1.1,1-2.1,1.7-3,.7-.9,1.6-1.6,2.6-2.1,1-.5,2.1-.8,3.2-.8s1.9.2,2.6.5,1.4.9,1.9,1.6l-1.2,1.4c0,0-.2.2-.3.2-.1,0-.2.1-.4.1s-.3,0-.5-.2c-.1-.1-.3-.2-.5-.3-.2-.1-.4-.2-.7-.3-.3-.1-.6-.2-1.1-.2s-1.1.2-1.6.5c-.5.3-1,.8-1.4,1.3-.4.6-.7,1.3-.9,2.1-.2.8-.4,1.7-.4,2.7s.2,2,.8,2.6,1.2.9,2,.9,1,0,1.4-.2.7-.3,1-.5c.3-.2.5-.4.7-.5s.4-.2.7-.2.2,0,.4,0c.1,0,.2.1.3.2l.9,1.1c-.5.6-1,1-1.5,1.4Z"/>
    <path class="st1" d="M98.1,107.6c-.9,0-1.6-.1-2.4-.4-.7-.3-1.4-.7-1.9-1.3s-.9-1.2-1.2-2c-.3-.8-.5-1.7-.5-2.7s.2-2.6.6-3.7c.4-1.1,1-2.1,1.7-3,.7-.8,1.6-1.5,2.6-2,1-.5,2-.7,3.1-.7s1.6.1,2.4.4c.7.3,1.4.7,1.9,1.3.5.5.9,1.2,1.2,2,.3.8.4,1.7.4,2.7s-.2,2.6-.6,3.7c-.4,1.1-1,2.1-1.7,3-.7.8-1.6,1.5-2.6,2-1,.5-2,.7-3.1.7ZM98.4,104.8c.6,0,1.2-.2,1.7-.5.5-.4.9-.8,1.3-1.4.4-.6.6-1.3.8-2.1.2-.8.3-1.6.3-2.5,0-1.2-.2-2.2-.6-2.8-.4-.6-1.1-.9-1.9-.9s-1.2.2-1.7.5c-.5.4-.9.8-1.3,1.4-.4.6-.6,1.3-.8,2.1s-.3,1.6-.3,2.5c0,1.2.2,2.2.6,2.8s1.1.9,1.9.9Z"/>
    <path class="st1" d="M107.6,107.4l1.8-15.4h1.9c.4,0,.7,0,.9.3s.3.5.3.9v2c.7-1.2,1.5-2,2.5-2.6,1-.6,1.9-.8,2.9-.8s1.1.1,1.6.3.9.5,1.2.9c.3.4.6.9.8,1.5s.3,1.2.3,2,0,.4,0,.6c0,.2,0,.4,0,.6l-1.2,9.8h-3.7c.2-1.7.4-3.1.5-4.3s.3-2.2.3-2.9c0-.8.2-1.4.2-1.8,0-.4,0-.8.1-1s0-.4,0-.5c0,0,0-.1,0-.2,0-.7-.1-1.1-.4-1.4-.2-.3-.6-.4-1.1-.4s-.8.1-1.3.4c-.4.2-.9.6-1.3,1-.4.4-.8,1-1.1,1.6-.3.6-.6,1.3-.8,2.1l-.8,7.6h-3.7Z"/>
    <path class="st1" d="M129.5,107.6c-.9,0-1.6-.1-2.4-.4-.7-.3-1.4-.7-1.9-1.3s-.9-1.2-1.2-2c-.3-.8-.5-1.7-.5-2.7s.2-2.6.6-3.7c.4-1.1,1-2.1,1.7-3,.7-.8,1.6-1.5,2.6-2,1-.5,2-.7,3.1-.7s1.6.1,2.4.4c.7.3,1.4.7,1.9,1.3.5.5.9,1.2,1.2,2,.3.8.4,1.7.4,2.7s-.2,2.6-.6,3.7c-.4,1.1-1,2.1-1.7,3-.7.8-1.6,1.5-2.6,2-1,.5-2,.7-3.1.7ZM129.9,104.8c.6,0,1.2-.2,1.7-.5.5-.4.9-.8,1.3-1.4.4-.6.6-1.3.8-2.1.2-.8.3-1.6.3-2.5,0-1.2-.2-2.2-.6-2.8-.4-.6-1.1-.9-1.9-.9s-1.2.2-1.7.5c-.5.4-.9.8-1.3,1.4-.4.6-.6,1.3-.8,2.1s-.3,1.6-.3,2.5c0,1.2.2,2.2.6,2.8s1.1.9,1.9.9ZM137.2,85.5l-3.9,3.9c-.2.2-.4.3-.6.4-.2,0-.4.1-.7.1h-2.1l2.4-3.6c.2-.3.4-.5.6-.6.2-.1.5-.2.9-.2h3.5Z"/>
    <path class="st1" d="M139.1,107.4l1.9-15.4h1.9c.4,0,.7,0,.9.3.2.2.3.5.3.9h0c0,0,0,.1,0,.2,0,.1,0,.3,0,.5,0,.2,0,.6,0,1,.7-1.1,1.4-1.8,2.2-2.3.8-.5,1.7-.8,2.5-.8s1.7.3,2.2.9.9,1.5,1,2.7c.7-1.3,1.5-2.2,2.4-2.8.9-.6,1.8-.9,2.9-.9s2,.4,2.7,1.2c.6.8.9,1.9.9,3.4s0,.4,0,.6c0,.2,0,.5,0,.7l-1.2,9.8h-3.7c.2-1.7.4-3.1.5-4.3.1-1.2.3-2.2.3-3s.2-1.4.2-1.9c0-.5,0-.8.1-1,0-.2,0-.4,0-.5,0,0,0-.2,0-.2,0-.6-.1-1-.3-1.3-.2-.3-.5-.4-1-.4s-.8.1-1.1.3c-.4.2-.7.5-1,.9-.3.4-.6.8-.9,1.4-.3.5-.5,1.2-.7,1.9l-1,8.2h-3.6l1.2-9.8c0-.2,0-.4,0-.6,0-.2,0-.4,0-.5,0-.6,0-1-.3-1.3-.2-.3-.5-.4-1-.4s-.8.1-1.1.3-.7.5-1,.9c-.3.4-.6.9-.9,1.4-.3.6-.5,1.2-.7,1.9l-1,8h-3.6Z"/>
    <path class="st1" d="M168.6,92l-1.8,15.4h-3.7l1.8-15.4h3.7ZM169.5,87.5c0,.3,0,.6-.2.9-.1.3-.3.5-.5.7s-.5.4-.7.5c-.3.1-.6.2-.9.2s-.6,0-.8-.2-.5-.3-.7-.5-.4-.5-.5-.7c-.1-.3-.2-.6-.2-.9s0-.6.2-.9.3-.5.5-.8c.2-.2.5-.4.7-.5.3-.1.6-.2.8-.2s.6,0,.9.2c.3.1.5.3.7.5.2.2.4.5.5.8.1.3.2.6.2.9Z"/>
    <path class="st1" d="M180.8,106.1c-.5.4-.9.7-1.4.9-.5.2-1,.4-1.5.5s-1.1.1-1.7.1-1.7-.2-2.4-.5c-.7-.3-1.3-.7-1.8-1.3-.5-.6-.9-1.2-1.1-2-.3-.8-.4-1.7-.4-2.6s.2-2.4.6-3.6c.4-1.1,1-2.1,1.7-3,.7-.9,1.6-1.6,2.6-2.1,1-.5,2.1-.8,3.2-.8s1.9.2,2.6.5,1.4.9,1.9,1.6l-1.2,1.4c0,0-.2.2-.3.2s-.2.1-.4.1-.3,0-.5-.2c-.1-.1-.3-.2-.5-.3-.2-.1-.4-.2-.7-.3-.3-.1-.6-.2-1.1-.2s-1.1.2-1.6.5c-.5.3-1,.8-1.4,1.3-.4.6-.7,1.3-.9,2.1-.2.8-.4,1.7-.4,2.7s.2,2,.8,2.6,1.2.9,2,.9,1,0,1.4-.2.7-.3,1-.5c.3-.2.5-.4.7-.5.2-.2.4-.2.7-.2s.2,0,.4,0c.1,0,.2.1.3.2l.9,1.1c-.5.6-1,1-1.5,1.4Z"/>
    <path class="st1" d="M195.7,107.4h-2c-.5,0-.8-.1-.9-.3-.2-.2-.3-.5-.3-.8v-2.1c-.6,1.1-1.3,1.9-2.2,2.5-.9.6-1.8.9-2.8.9s-1.1-.1-1.6-.3c-.5-.2-.9-.6-1.3-1s-.7-1-.9-1.7c-.2-.7-.3-1.5-.3-2.4s.1-1.8.3-2.7c.2-.9.6-1.7,1-2.5.4-.8.9-1.5,1.5-2.1.6-.6,1.3-1.2,2-1.7s1.5-.8,2.4-1.1,1.8-.4,2.7-.4,1.4,0,2.1.2c.7,0,1.4.3,2,.5l-1.9,14.9ZM189,104.6c.4,0,.8-.1,1.2-.4.4-.3.8-.7,1.1-1.2s.7-1.1,1-1.7c.3-.7.6-1.4.8-2.2l.6-4.7c-.3,0-.5,0-.8,0-.8,0-1.6.2-2.3.6s-1.3.9-1.8,1.5c-.5.6-.9,1.4-1.2,2.2-.3.9-.4,1.8-.4,2.7s.2,1.9.5,2.4c.3.5.8.8,1.4.8Z"/>
  </g>
</svg>