<?xml version="1.0" encoding="UTF-8"?>
<svg id="Capa_1" xmlns="http://www.w3.org/2000/svg" xmlns:xlink="http://www.w3.org/1999/xlink" version="1.1" viewBox="0 0 261 175">
  <!-- Generator: Adobe Illustrator 29.2.1, SVG Export Plug-In . SVG Version: 2.1.0 Build 116)  -->
  <defs>
    <style>
      .st0 {
        isolation: isolate;
      }

      .st1 {
        fill: #ce6387;
      }

      .st2 {
        fill: #e591a9;
      }
    </style>
  </defs>
  <g class="st0">
    <g id="Capa_11">
      <path class="st2" d="M169.3,152.2h-92.2c-22.4,0-68.9-35.5-68.9-78.9V8.5h230v64.9c0,43.4-46.5,78.9-68.9,78.9h0Z"/>
      <g id="Cu9QlB">
        <path class="st1" d="M73.5,151.8c0-1.7-2.2-1.9-2.7-2.9s.3-1.5,0-2.3-2-.9-2.1-2.3,1-1.6,1-2.4-1.1-1.5-.6-2.5c.7-1.6,3.5-1.2,3-2.3-2.2-3.1-22.6-21.3-22.5-23s.9-1.4.9-2.2l3.6,2.4c8.1,2.2,16.7,0,24.9-.9,5,8.2,11.1,15.3,17.1,22.7,5,0,9.4,1,14.1,2.7,1.2.5,2.3,1.7,3.5,1.8,2.2.2,4.3-1.6,6.4-1.4-2-4.3,2.2-3,2.8-3.9s.5-3.1.6-3.5c0-3-1.9-7.5-1.4-9.5s1.4-.6,1-1.8l1,1c.3-5.6,3.6-11.7,7.7-15.6-2.2-.6.7-1.1,1.8-2.5,2.4-2.8,4.5-8.1,6.3-11.5l-1.4-.2c.5-2.2-.9-8.2,0-9.7s9.6-3.3,10-3.7,0-1.4,0-1.4c-.1-.2-2.7.8-3.5.8-4.9,0-4.7-4-5.7-7.6s-.9-1.2-1.1-1.8.4-1.8.2-2-3.3.3-3.8-1.3.9-2.9,1.3-4.4,1.4-5.3-.8-4.4c2.8-3.3-.8-2.9-1.7-4.8s-.7-3.4-.7-4.1,1.4-7.2,1.8-8.3c1.5-5.1,6.8-7.5,10.5-10.6s1-1.8,1.7-2.1,3.9-1.5,4.1-1.5c1.7-.3,5,0,6.7-.1s3.5-.9,5.2-.5-.4.2,2,.4-.1,1.6,1.7.5l-.5,1c7.7,1.4,13.7,12.8,13.9,20,.1,4.2-1.8,7.6-2.3,11s.5,7.9-2.2,12.2-3.3,3.2-3.6,4.6,3.6.2,3.9,1.5-.8,7.2-1.1,8-1.4.7-1.4,1.1c0,1.3,2.7,4.4,3.5,5.6,2,3.3,4.5,7,5.6,10.7s1.5,5.7,1.5,7.6c0,3.6-3.8,9.7-4.3,13.5-.7,4.3-.6,9.2-1.5,13.9s-6.4,16.1-6.4,16.1h-98Z"/>
      </g>
      <g>
        <path d="M50,53.9c-.1.2-.3.3-.4.4s-.3.1-.5.1-.4,0-.6-.2-.5-.3-.8-.5c-.3-.2-.6-.4-1-.5-.4-.2-.9-.2-1.4-.2s-1,0-1.5.2c-.4.2-.8.4-1.1.7-.3.3-.5.6-.6,1s-.2.8-.2,1.2.1.8.4,1.1c.2.3.5.6.9.8.4.2.8.4,1.3.6.5.2,1,.4,1.5.6s1,.4,1.5.7c.5.3.9.6,1.3,1,.4.4.7.8.9,1.4s.4,1.2.4,1.9-.2,2.1-.5,3c-.4.9-.9,1.8-1.6,2.5s-1.5,1.3-2.5,1.7c-1,.4-2.1.6-3.3.6s-1.2,0-1.9-.2-1.2-.3-1.7-.6-1-.5-1.5-.9c-.5-.3-.9-.7-1.2-1.2l1.4-1.9c.1-.1.2-.3.4-.3s.3-.1.5-.1.3,0,.5.2c.2,0,.3.2.5.4s.4.3.6.5c.2.2.5.3.7.5s.6.3.9.4c.3.1.8.2,1.2.2,1.1,0,2-.3,2.7-1,.6-.6,1-1.5,1-2.7s-.1-.9-.3-1.2c-.2-.3-.5-.6-.9-.8-.4-.2-.8-.4-1.3-.6s-1-.3-1.5-.5c-.5-.2-1-.4-1.5-.6s-.9-.6-1.3-.9-.7-.9-.9-1.4c-.2-.6-.3-1.2-.3-2.1s.2-1.8.5-2.7c.3-.9.8-1.6,1.5-2.3.6-.7,1.4-1.2,2.3-1.6.9-.4,1.9-.6,3.1-.6s1.2,0,1.7.2c.5.1,1.1.3,1.5.5.5.2.9.5,1.3.8s.7.6,1,1l-1.2,1.6Z"/>
        <path d="M56.9,56.2c-.2,1.7-.4,3.1-.5,4.3s-.3,2.1-.3,2.9c0,.8-.2,1.4-.2,1.8,0,.5,0,.8-.1,1,0,.2,0,.4,0,.5,0,0,0,.1,0,.2,0,.7.1,1.1.4,1.4s.6.4,1.1.4.8-.1,1.2-.3c.4-.2.8-.5,1.2-.9.4-.4.7-.9,1.1-1.5.3-.6.6-1.2.8-1.9l1-8h3.7l-1.9,15.4h-1.9c-.2,0-.3,0-.5,0-.2,0-.3-.1-.4-.2s-.2-.2-.3-.3c0-.1-.1-.3-.1-.5h0c0,0,0-1.9,0-1.9-.8,1.1-1.6,1.9-2.6,2.5-.9.5-1.9.8-2.9.8s-1.1-.1-1.6-.3c-.5-.2-.9-.5-1.2-.9-.3-.4-.6-.9-.8-1.4-.2-.6-.3-1.2-.3-2s0-.4,0-.6,0-.4,0-.6l1.2-9.8h3.7Z"/>
        <path d="M67.8,71.6l2.7-22.3h3.6l-1.2,9.9c.7-1,1.5-1.8,2.4-2.4.9-.6,1.8-.9,2.8-.9s1.2.1,1.7.4c.5.2,1,.6,1.3,1.1.4.5.7,1.1.9,1.8.2.7.3,1.6.3,2.5s0,1.7-.3,2.6c-.2.8-.4,1.6-.8,2.4s-.7,1.4-1.2,2.1c-.5.6-1,1.2-1.5,1.6s-1.2.8-1.8,1.1c-.6.3-1.3.4-2,.4s-1.5-.2-2.1-.5c-.6-.3-1.1-.7-1.6-1.3v.5c-.2.4-.3.6-.5.8s-.5.2-.9.2h-2ZM76.7,58.9c-.4,0-.8.1-1.2.4-.4.3-.8.7-1.2,1.2-.4.5-.8,1.1-1.1,1.7-.3.7-.6,1.4-.9,2.1l-.4,3.7c.3.4.7.6,1.2.8s.9.2,1.3.2c.7,0,1.3-.2,1.8-.6s1-.9,1.4-1.6c.4-.7.7-1.4.9-2.2.2-.8.3-1.7.3-2.5s-.2-1.9-.5-2.4c-.4-.5-.8-.8-1.5-.8Z"/>
        <path d="M89.6,71.9c-.9,0-1.6-.1-2.4-.4-.7-.3-1.3-.7-1.9-1.3-.5-.5-.9-1.2-1.2-2-.3-.8-.5-1.7-.5-2.7s.2-2.6.6-3.7c.4-1.1,1-2.1,1.7-3,.7-.8,1.6-1.5,2.6-2,1-.5,2-.7,3.1-.7s1.6.1,2.4.4c.7.3,1.4.7,1.9,1.3.5.5.9,1.2,1.2,2,.3.8.5,1.7.5,2.7s-.2,2.6-.6,3.7c-.4,1.1-1,2.1-1.7,3-.7.8-1.6,1.5-2.6,2-1,.5-2,.7-3.1.7ZM89.9,69c.6,0,1.2-.2,1.7-.5.5-.4.9-.8,1.3-1.4.4-.6.6-1.3.8-2.1.2-.8.3-1.6.3-2.5,0-1.2-.2-2.2-.6-2.8s-1.1-.9-1.9-.9-1.2.2-1.7.5c-.5.4-.9.8-1.3,1.4-.4.6-.6,1.3-.8,2.1-.2.8-.3,1.6-.3,2.5,0,1.2.2,2.2.6,2.8.4.6,1.1.9,1.9.9Z"/>
        <path d="M99.1,71.6l1.9-15.4h1.9c.4,0,.7,0,.9.2.2.2.3.4.3.8s0,.2,0,.4,0,.4,0,.8c0,.4,0,.9,0,1.5.6-1.2,1.3-2.1,2.1-2.8.8-.7,1.5-1,2.3-1s.8,0,1.2.3l-.7,3.5c-.5-.2-1-.3-1.4-.3-.9,0-1.7.4-2.3,1.3-.7.9-1.2,2.2-1.7,4l-.8,6.7h-3.6Z"/>
        <path d="M120.1,71.6c-.5,0-.8-.1-.9-.3-.2-.2-.3-.5-.3-.8v-2.2c-.6,1.1-1.5,2-2.4,2.6-.9.6-1.9,1-2.9,1s-1.2-.1-1.7-.4c-.5-.2-1-.6-1.3-1.1-.4-.5-.7-1.1-.9-1.8-.2-.7-.3-1.6-.3-2.5s0-1.7.3-2.6c.2-.8.4-1.6.8-2.4s.7-1.4,1.2-2.1,1-1.2,1.5-1.6,1.2-.8,1.8-1.1c.6-.3,1.3-.4,2-.4s1.3.1,1.9.4c.6.2,1.1.6,1.5,1l1-8.1h3.6l-2.7,22.3h-2ZM115,69c.4,0,.8-.1,1.2-.4.4-.3.8-.7,1.2-1.1.4-.5.8-1.1,1.1-1.7.3-.7.6-1.4.9-2.1l.5-3.7c-.3-.4-.7-.6-1.2-.8-.4-.2-.9-.2-1.3-.2-.7,0-1.3.2-1.8.6s-1,.9-1.4,1.6c-.4.7-.7,1.4-.9,2.2-.2.8-.3,1.7-.3,2.5s.2,1.9.5,2.4c.3.5.8.8,1.5.8Z"/>
        <path d="M131.4,56.2l-1.8,15.4h-3.7l1.8-15.4h3.7ZM132.4,51.8c0,.3,0,.6-.2.9-.1.3-.3.5-.5.7s-.5.4-.7.5c-.3.1-.6.2-.9.2s-.6,0-.8-.2-.5-.3-.7-.5-.4-.5-.5-.7c-.1-.3-.2-.6-.2-.9s0-.6.2-.9.3-.5.5-.8c.2-.2.5-.4.7-.5.3-.1.6-.2.8-.2s.6,0,.9.2.5.3.7.5c.2.2.4.5.5.8.1.3.2.6.2.9Z"/>
        <path d="M133.3,71.6l1.8-15.4h1.9c.4,0,.7,0,.9.3.2.2.3.5.3.9v2c.7-1.2,1.5-2,2.5-2.6.9-.6,1.9-.8,2.9-.8s1.1.1,1.6.3.9.5,1.2.9c.3.4.6.9.8,1.5.2.6.3,1.2.3,2s0,.4,0,.6c0,.2,0,.4,0,.6l-1.2,9.8h-3.7c.2-1.7.4-3.1.5-4.3.1-1.2.3-2.2.3-2.9,0-.8.2-1.4.2-1.8,0-.4,0-.8.1-1,0-.2,0-.4,0-.5,0,0,0-.1,0-.2,0-.7-.1-1.1-.4-1.4-.2-.3-.6-.4-1.1-.4s-.8.1-1.3.4c-.4.2-.9.6-1.3,1-.4.4-.8,1-1.1,1.6s-.6,1.3-.8,2.1l-.8,7.6h-3.7Z"/>
        <path d="M161.6,71.6h-2c-.5,0-.8-.1-.9-.3-.2-.2-.3-.5-.3-.8v-2.1c-.6,1.1-1.3,1.9-2.2,2.5-.9.6-1.8.9-2.8.9s-1.1-.1-1.6-.3c-.5-.2-.9-.6-1.3-1s-.7-1-.9-1.7c-.2-.7-.3-1.5-.3-2.4s.1-1.8.3-2.7c.2-.9.6-1.7,1-2.5.4-.8.9-1.5,1.5-2.1.6-.6,1.3-1.2,2-1.7s1.5-.8,2.4-1.1,1.8-.4,2.7-.4,1.4,0,2.1.2c.7,0,1.4.3,2,.5l-1.9,14.9ZM154.9,68.8c.4,0,.8-.1,1.2-.4.4-.3.8-.7,1.1-1.2s.7-1.1,1-1.7c.3-.7.6-1.4.8-2.2l.6-4.7c-.3,0-.5,0-.8,0-.8,0-1.6.2-2.3.6s-1.3.9-1.8,1.5c-.5.6-.9,1.4-1.2,2.2-.3.9-.4,1.8-.4,2.7s.2,1.9.5,2.4c.3.5.8.8,1.4.8Z"/>
        <path d="M175.3,70.3c-.5.4-.9.7-1.4.9-.5.2-1,.4-1.5.5s-1.1.1-1.7.1-1.7-.2-2.4-.5c-.7-.3-1.3-.7-1.8-1.3-.5-.6-.9-1.2-1.1-2-.3-.8-.4-1.7-.4-2.6s.2-2.4.6-3.6c.4-1.1,1-2.1,1.7-3,.7-.9,1.6-1.6,2.6-2.1,1-.5,2.1-.8,3.2-.8s1.9.2,2.6.5,1.4.9,1.9,1.6l-1.2,1.4c0,0-.2.2-.3.2s-.2.1-.4.1-.3,0-.5-.2c-.1-.1-.3-.2-.5-.3-.2-.1-.4-.2-.7-.3-.3-.1-.6-.2-1.1-.2s-1.1.2-1.6.5c-.5.3-1,.8-1.4,1.3-.4.6-.7,1.3-.9,2.1-.2.8-.4,1.7-.4,2.7s.2,2,.8,2.6,1.2.9,2,.9,1,0,1.4-.2.7-.3,1-.5c.3-.2.5-.4.7-.5.2-.2.4-.2.7-.2s.2,0,.4,0c.1,0,.2.1.3.2l.9,1.1c-.5.6-1,1-1.5,1.4Z"/>
        <path d="M183.9,56.2l-1.8,15.4h-3.7l1.8-15.4h3.7ZM184.8,51.8c0,.3,0,.6-.2.9-.1.3-.3.5-.5.7s-.5.4-.7.5c-.3.1-.6.2-.9.2s-.6,0-.8-.2-.5-.3-.7-.5-.4-.5-.5-.7c-.1-.3-.2-.6-.2-.9s0-.6.2-.9.3-.5.5-.8c.2-.2.5-.4.7-.5.3-.1.6-.2.8-.2s.6,0,.9.2.5.3.7.5c.2.2.4.5.5.8.1.3.2.6.2.9Z"/>
        <path d="M191.6,71.9c-.9,0-1.6-.1-2.4-.4-.7-.3-1.3-.7-1.9-1.3-.5-.5-.9-1.2-1.2-2-.3-.8-.5-1.7-.5-2.7s.2-2.6.6-3.7c.4-1.1,1-2.1,1.7-3,.7-.8,1.6-1.5,2.6-2,1-.5,2-.7,3.1-.7s1.6.1,2.4.4c.7.3,1.4.7,1.9,1.3.5.5.9,1.2,1.2,2,.3.8.5,1.7.5,2.7s-.2,2.6-.6,3.7c-.4,1.1-1,2.1-1.7,3-.7.8-1.6,1.5-2.6,2-1,.5-2,.7-3.1.7ZM191.9,69c.6,0,1.2-.2,1.7-.5.5-.4.9-.8,1.3-1.4.4-.6.6-1.3.8-2.1.2-.8.3-1.6.3-2.5,0-1.2-.2-2.2-.6-2.8s-1.1-.9-1.9-.9-1.2.2-1.7.5c-.5.4-.9.8-1.3,1.4-.4.6-.6,1.3-.8,2.1-.2.8-.3,1.6-.3,2.5,0,1.2.2,2.2.6,2.8.4.6,1.1.9,1.9.9ZM199.3,49.7l-3.9,3.9c-.2.2-.4.3-.6.4s-.4.1-.7.1h-2.1l2.4-3.6c.2-.3.4-.5.6-.6s.5-.2.9-.2h3.5Z"/>
        <path d="M201.1,71.6l1.8-15.4h1.9c.4,0,.7,0,.9.3.2.2.3.5.3.9v2c.7-1.2,1.5-2,2.5-2.6.9-.6,1.9-.8,2.9-.8s1.1.1,1.6.3.9.5,1.2.9c.3.4.6.9.8,1.5.2.6.3,1.2.3,2s0,.4,0,.6c0,.2,0,.4,0,.6l-1.2,9.8h-3.7c.2-1.7.4-3.1.5-4.3.1-1.2.3-2.2.3-2.9,0-.8.2-1.4.2-1.8,0-.4,0-.8.1-1,0-.2,0-.4,0-.5,0,0,0-.1,0-.2,0-.7-.1-1.1-.4-1.4-.2-.3-.6-.4-1.1-.4s-.8.1-1.3.4c-.4.2-.9.6-1.3,1-.4.4-.8,1-1.1,1.6s-.6,1.3-.8,2.1l-.8,7.6h-3.7Z"/>
        <path d="M34.5,100.1c-.2,1.2-.4,2.3-.8,3.2-.4,1-.9,1.8-1.5,2.4-.6.7-1.4,1.2-2.2,1.5-.9.4-1.8.5-2.9.5s-1,0-1.5,0c-.5,0-1-.2-1.5-.3l.3-2.3c0-.2,0-.4.2-.5.1-.1.3-.2.6-.2s.5,0,.8.1c.3,0,.7.1,1.2.1s.9,0,1.3-.2.7-.4,1.1-.8c.3-.4.6-.8.8-1.4.2-.6.4-1.3.5-2.1l1.7-14.3h3.9l-1.7,14.2Z"/>
        <path d="M42.6,92.2c-.2,1.7-.4,3.1-.5,4.3s-.3,2.1-.3,2.9c0,.8-.2,1.4-.2,1.8,0,.5,0,.8-.1,1,0,.2,0,.4,0,.5,0,0,0,.1,0,.2,0,.7.1,1.1.4,1.4s.6.4,1.1.4.8-.1,1.2-.3c.4-.2.8-.5,1.2-.9.4-.4.7-.9,1.1-1.5.3-.6.6-1.2.8-1.9l1-8h3.7l-1.9,15.4h-1.9c-.2,0-.3,0-.5,0-.2,0-.3-.1-.4-.2s-.2-.2-.3-.3c0-.1-.1-.3-.1-.5h0c0,0,0-1.9,0-1.9-.8,1.1-1.6,1.9-2.6,2.5-.9.5-1.9.8-2.9.8s-1.1-.1-1.6-.3c-.5-.2-.9-.5-1.2-.9-.3-.4-.6-.9-.8-1.4-.2-.6-.3-1.2-.3-2s0-.4,0-.6,0-.4,0-.6l1.2-9.8h3.7Z"/>
        <path d="M53.4,107.6l1.9-15.4h1.9c.4,0,.7,0,.9.2s.3.4.3.8,0,.2,0,.4c0,.2,0,.4,0,.8,0,.4,0,.9,0,1.5.6-1.2,1.3-2.1,2.1-2.8.8-.7,1.5-1,2.3-1s.8,0,1.2.3l-.7,3.5c-.5-.2-1-.3-1.4-.3-.9,0-1.7.4-2.3,1.3-.7.9-1.2,2.2-1.6,4l-.8,6.7h-3.6Z"/>
        <path d="M70.1,92.2l-1.8,15.4h-3.7l1.8-15.4h3.7ZM73.9,85.7l-3.9,3.9c-.2.2-.4.3-.6.4-.2,0-.4.1-.7.1h-2.1l2.4-3.6c.2-.3.4-.5.6-.6.2-.1.5-.2.9-.2h3.5Z"/>
        <path d="M82.6,107.6c-.5,0-.8-.1-.9-.3-.2-.2-.3-.5-.3-.8v-2.2c-.6,1.1-1.5,2-2.4,2.6-.9.6-1.9,1-2.9,1s-1.2-.1-1.7-.4c-.5-.2-1-.6-1.3-1.1-.4-.5-.7-1.1-.9-1.8-.2-.7-.3-1.6-.3-2.5s0-1.7.3-2.6c.2-.8.4-1.6.8-2.4.3-.8.7-1.4,1.2-2.1s1-1.2,1.5-1.6,1.2-.8,1.8-1.1,1.3-.4,2-.4,1.3.1,1.9.4,1.1.6,1.5,1l1-8.1h3.6l-2.7,22.3h-2ZM77.5,105c.4,0,.8-.1,1.2-.4s.8-.7,1.2-1.1c.4-.5.8-1.1,1.1-1.7.3-.7.6-1.4.9-2.1l.5-3.7c-.3-.4-.7-.6-1.2-.8-.4-.2-.9-.2-1.3-.2-.7,0-1.3.2-1.8.6s-1,.9-1.4,1.6c-.4.7-.7,1.4-.9,2.2-.2.8-.3,1.7-.3,2.5s.2,1.9.5,2.4.8.8,1.5.8Z"/>
        <path d="M94,92.2l-1.8,15.4h-3.7l1.8-15.4h3.7ZM94.9,87.8c0,.3,0,.6-.2.9-.1.3-.3.5-.5.7s-.5.4-.7.5c-.3.1-.6.2-.9.2s-.6,0-.8-.2-.5-.3-.7-.5-.4-.5-.5-.7c-.1-.3-.2-.6-.2-.9s0-.6.2-.9.3-.5.5-.8c.2-.2.5-.4.7-.5.3-.1.6-.2.8-.2s.6,0,.9.2.5.3.7.5c.2.2.4.5.5.8.1.3.2.6.2.9Z"/>
        <path d="M106.2,106.3c-.5.4-.9.7-1.4.9-.5.2-1,.4-1.5.5s-1.1.1-1.7.1-1.7-.2-2.4-.5c-.7-.3-1.3-.7-1.8-1.3-.5-.6-.9-1.2-1.1-2-.3-.8-.4-1.7-.4-2.6s.2-2.4.6-3.6c.4-1.1,1-2.1,1.7-3,.7-.9,1.6-1.6,2.6-2.1,1-.5,2.1-.8,3.2-.8s1.9.2,2.6.5,1.4.9,1.9,1.6l-1.2,1.4c0,0-.2.2-.3.2s-.2.1-.4.1-.3,0-.5-.2c-.1-.1-.3-.2-.5-.3-.2-.1-.4-.2-.7-.3-.3-.1-.6-.2-1.1-.2s-1.1.2-1.6.5c-.5.3-1,.8-1.4,1.3-.4.6-.7,1.3-.9,2.1-.2.8-.4,1.7-.4,2.7s.2,2,.8,2.6,1.2.9,2,.9,1,0,1.4-.2.7-.3,1-.5c.3-.2.5-.4.7-.5.2-.2.4-.2.7-.2s.2,0,.4,0c.1,0,.2.1.3.2l.9,1.1c-.5.6-1,1-1.5,1.4Z"/>
        <path d="M114.7,107.9c-.9,0-1.6-.1-2.4-.4-.7-.3-1.3-.7-1.9-1.3-.5-.5-.9-1.2-1.2-2-.3-.8-.5-1.7-.5-2.7s.2-2.6.6-3.7c.4-1.1,1-2.1,1.7-3,.7-.8,1.6-1.5,2.6-2,1-.5,2-.7,3.1-.7s1.6.1,2.4.4c.7.3,1.4.7,1.9,1.3.5.5.9,1.2,1.2,2,.3.8.5,1.7.5,2.7s-.2,2.6-.6,3.7c-.4,1.1-1,2.1-1.7,3-.7.8-1.6,1.5-2.6,2-1,.5-2,.7-3.1.7ZM115.1,105c.6,0,1.2-.2,1.7-.5.5-.4.9-.8,1.3-1.4.4-.6.6-1.3.8-2.1.2-.8.3-1.6.3-2.5,0-1.2-.2-2.2-.6-2.8s-1.1-.9-1.9-.9-1.2.2-1.7.5c-.5.4-.9.8-1.3,1.4-.4.6-.6,1.3-.8,2.1-.2.8-.3,1.6-.3,2.5,0,1.2.2,2.2.6,2.8.4.6,1.1.9,1.9.9Z"/>
        <path d="M125.2,97.1h7.2l-.4,3h-7.2l.4-3Z"/>
        <path d="M138.7,104.4h7.9l-.4,3.2h-11.8l2.7-21.7h3.9l-2.3,18.5Z"/>
        <path d="M160.6,107.6h-2c-.5,0-.8-.1-.9-.3-.2-.2-.3-.5-.3-.8v-2.1c-.6,1.1-1.3,1.9-2.2,2.5-.9.6-1.8.9-2.8.9s-1.1-.1-1.6-.3c-.5-.2-.9-.6-1.3-1s-.7-1-.9-1.7c-.2-.7-.3-1.5-.3-2.4s.1-1.8.3-2.7c.2-.9.6-1.7,1-2.5.4-.8.9-1.5,1.5-2.1.6-.6,1.3-1.2,2-1.7s1.5-.8,2.4-1.1,1.8-.4,2.7-.4,1.4,0,2.1.2c.7,0,1.4.3,2,.5l-1.9,14.9ZM153.9,104.8c.4,0,.8-.1,1.2-.4.4-.3.8-.7,1.1-1.2s.7-1.1,1-1.7c.3-.7.6-1.4.8-2.2l.6-4.7c-.3,0-.5,0-.8,0-.8,0-1.6.2-2.3.6s-1.3.9-1.8,1.5c-.5.6-.9,1.4-1.2,2.2-.3.9-.4,1.8-.4,2.7s.2,1.9.5,2.4c.3.5.8.8,1.4.8Z"/>
        <path d="M164.1,107.6l2.7-22.3h3.6l-1.2,9.9c.7-1,1.5-1.8,2.4-2.4.9-.6,1.8-.9,2.8-.9s1.2.1,1.7.4c.5.2,1,.6,1.3,1.1.4.5.7,1.1.9,1.8.2.7.3,1.6.3,2.5s0,1.7-.3,2.6c-.2.8-.4,1.6-.8,2.4s-.7,1.4-1.2,2.1-1,1.2-1.5,1.6c-.6.5-1.2.8-1.8,1.1-.6.3-1.3.4-2,.4s-1.5-.2-2.1-.5c-.6-.3-1.1-.7-1.6-1.3v.5c-.2.4-.3.6-.5.8-.2.2-.5.2-.9.2h-2ZM173,94.9c-.4,0-.8.1-1.2.4-.4.3-.8.7-1.2,1.2-.4.5-.8,1.1-1.1,1.7s-.6,1.4-.9,2.1l-.5,3.7c.3.4.7.6,1.2.8.4.2.9.2,1.3.2.7,0,1.3-.2,1.8-.6s1-.9,1.4-1.6.7-1.4.9-2.2.3-1.7.3-2.5-.2-1.9-.5-2.4c-.4-.5-.8-.8-1.5-.8Z"/>
        <path d="M185.9,107.9c-.9,0-1.6-.1-2.4-.4-.7-.3-1.3-.7-1.9-1.3-.5-.5-.9-1.2-1.2-2-.3-.8-.5-1.7-.5-2.7s.2-2.6.6-3.7c.4-1.1,1-2.1,1.7-3,.7-.8,1.6-1.5,2.6-2,1-.5,2-.7,3.1-.7s1.6.1,2.4.4c.7.3,1.4.7,1.9,1.3.5.5.9,1.2,1.2,2,.3.8.5,1.7.5,2.7s-.2,2.6-.6,3.7c-.4,1.1-1,2.1-1.7,3-.7.8-1.6,1.5-2.6,2-1,.5-2,.7-3.1.7ZM186.3,105c.6,0,1.2-.2,1.7-.5.5-.4.9-.8,1.3-1.4.4-.6.6-1.3.8-2.1.2-.8.3-1.6.3-2.5,0-1.2-.2-2.2-.6-2.8s-1.1-.9-1.9-.9-1.2.2-1.7.5c-.5.4-.9.8-1.3,1.4-.4.6-.6,1.3-.8,2.1-.2.8-.3,1.6-.3,2.5,0,1.2.2,2.2.6,2.8.4.6,1.1.9,1.9.9Z"/>
        <path d="M195.4,107.6l1.9-15.4h1.9c.4,0,.7,0,.9.2.2.2.3.4.3.8s0,.2,0,.4,0,.4,0,.8c0,.4,0,.9,0,1.5.6-1.2,1.3-2.1,2.1-2.8.8-.7,1.5-1,2.3-1s.8,0,1.2.3l-.7,3.5c-.5-.2-1-.3-1.4-.3-.9,0-1.7.4-2.3,1.3-.7.9-1.2,2.2-1.7,4l-.8,6.7h-3.6Z"/>
        <path d="M217.8,107.6h-2c-.5,0-.8-.1-.9-.3-.2-.2-.3-.5-.3-.8v-2.1c-.6,1.1-1.3,1.9-2.2,2.5-.9.6-1.8.9-2.8.9s-1.1-.1-1.6-.3c-.5-.2-.9-.6-1.3-1s-.7-1-.9-1.7c-.2-.7-.3-1.5-.3-2.4s.1-1.8.3-2.7c.2-.9.6-1.7,1-2.5.4-.8.9-1.5,1.5-2.1.6-.6,1.3-1.2,2-1.7s1.5-.8,2.4-1.1,1.8-.4,2.7-.4,1.4,0,2.1.2c.7,0,1.4.3,2,.5l-1.9,14.9ZM211.2,104.8c.4,0,.8-.1,1.2-.4.4-.3.8-.7,1.1-1.2s.7-1.1,1-1.7c.3-.7.6-1.4.8-2.2l.6-4.7c-.3,0-.5,0-.8,0-.8,0-1.6.2-2.3.6s-1.3.9-1.8,1.5c-.5.6-.9,1.4-1.2,2.2-.3.9-.4,1.8-.4,2.7s.2,1.9.5,2.4c.3.5.8.8,1.4.8Z"/>
        <path d="M221.5,107.6l2.7-22.3h3.6l-2.7,22.3h-3.6Z"/>
      </g>
    </g>
  </g>
  <rect class="st2" y="8.2" width="261" height="8.5"/>
</svg>