<?xml version="1.0" encoding="UTF-8"?>
<svg id="Layer_1" xmlns="http://www.w3.org/2000/svg" version="1.1" viewBox="0 0 118 40">
  <!-- Generator: Adobe Illustrator 29.2.1, SVG Export Plug-In . SVG Version: 2.1.0 Build 116)  -->
  <defs>
    <style>
      .st0 {
        fill: none;
        stroke: #8e8e8e;
        stroke-miterlimit: 10;
      }

      .st1 {
        fill: #8e8e8e;
      }

      .st2 {
        isolation: isolate;
      }

      .st3 {
        fill: #fff;
      }

      .st4 {
        fill: #bbb06d;
      }
    </style>
  </defs>
  <rect class="st1" x="1.3" y="12.8" width="114.1" height="16.2" rx="6.5" ry="6.5"/>
  <rect class="st3" x="3.3" y="11" width="114.1" height="16.2" rx="6.5" ry="6.5"/>
  <g class="st2">
    <g class="st2">
      <path class="st1" d="M37.3,17.5c.4,0,1.1-.1,1.7-.1.9,0,1.5.2,2,.5.3.3.5.8.5,1.3,0,.9-.6,1.5-1.3,1.7h0c.5.2.8.7,1,1.4.2.9.4,1.6.5,1.9h-.9c0-.2-.3-.8-.5-1.6-.2-.9-.6-1.3-1.3-1.3h-.8v2.9h-.9v-6.7ZM38.2,20.5h.9c.9,0,1.5-.5,1.5-1.3s-.6-1.2-1.5-1.3h-.9v2.5h0Z"/>
      <path class="st1" d="M43.2,21.8c0,1.2.8,1.7,1.7,1.7s1-.1,1.3-.2l.2.6c-.3.1-.8.3-1.6.3-1.5,0-2.4-1-2.4-2.4s.9-2.6,2.3-2.6,2,1.4,2,2.3,0,.3,0,.4h-3.5ZM45.8,21.2c0-.6-.2-1.4-1.2-1.4s-1.3.8-1.3,1.4h2.6,0Z"/>
      <path class="st1" d="M47.8,24.1v-4.2h-.7v-.7h.7v-.2c0-.7.2-1.3.6-1.7.3-.3.8-.5,1.2-.5s.6,0,.8.1v.7c-.2,0-.4-.1-.7-.1-.8,0-.9.7-.9,1.4v.3h1.2v.7h-1.2v4.2h-1Z"/>
      <path class="st1" d="M51,21.8c0,1.2.8,1.7,1.7,1.7s1-.1,1.3-.2l.2.6c-.3.1-.8.3-1.6.3-1.5,0-2.4-1-2.4-2.4s.9-2.6,2.3-2.6,2,1.4,2,2.3,0,.3,0,.4h-3.5ZM53.6,21.2c0-.6-.2-1.4-1.2-1.4s-1.3.8-1.3,1.4h2.6,0Z"/>
      <path class="st1" d="M55.5,20.8v-1.5h.8v1h0c.2-.6.8-1.1,1.3-1.1s.2,0,.2,0v.8h-.3c-.6,0-1.1.5-1.2,1.1v3h-.9v-3.3h.1Z"/>
      <path class="st1" d="M59.2,21.8c0,1.2.8,1.7,1.7,1.7s1-.1,1.3-.2l.2.6c-.3.1-.8.3-1.6.3-1.5,0-2.4-1-2.4-2.4s.9-2.6,2.3-2.6,2,1.4,2,2.3,0,.3,0,.4h-3.5ZM61.8,21.2c0-.6-.2-1.4-1.2-1.4s-1.3.8-1.3,1.4h2.6,0Z"/>
      <path class="st1" d="M63.7,20.6v-1.3h.8v.8h0c.2-.5.8-.9,1.6-.9s1.7.4,1.7,2.1v2.9h-.9v-2.8c0-.8-.3-1.4-1.1-1.4s-1,.4-1.2.9v3.3h-.9v-3.5h0Z"/>
      <path class="st1" d="M72.7,23.9c-.2.1-.7.3-1.4.3-1.5,0-2.4-1-2.4-2.5s1-2.6,2.6-2.6,1,.1,1.2.2l-.2.7c-.2-.1-.5-.2-1-.2-1.1,0-1.7.8-1.7,1.8s.7,1.8,1.7,1.8.8-.1,1.1-.2c0,0,.2.7.1.7Z"/>
      <path class="st1" d="M74.7,17.9c0,.3-.2.5-.6.5s-.5-.2-.5-.5.2-.5.6-.5.5.2.5.5ZM73.7,24.1v-4.8h.9v4.8s-.9,0-.9,0Z"/>
      <path class="st1" d="M78.8,24.1v-.6h0c-.3.4-.8.7-1.5.7-1,0-1.5-.7-1.5-1.4,0-1.2,1-1.8,2.9-1.8h0c0-.5,0-1.2-1.1-1.2s-.9.1-1.3.4l-.2-.6c.4-.3,1-.4,1.6-.4,1.5,0,1.8,1,1.8,2v3h-.8,0ZM78.6,21.6c-1,0-2.1.1-2.1,1.1s.4.8.8.8,1-.4,1.2-.8v-1.1h0Z"/>
      <path class="st1" d="M80.8,23.2c.3.2.7.4,1.2.4s.9-.3.9-.7-.2-.6-.9-.9c-.9-.3-1.3-.8-1.3-1.4s.6-1.4,1.7-1.4.9.1,1.2.3l-.2.6c-.2-.1-.5-.3-1-.3s-.8.3-.8.7.3.6.9.8,1.3.7,1.3,1.5-.7,1.5-1.8,1.5-1-.1-1.4-.3l.2-.7h0Z"/>
    </g>
  </g>
  <path class="st4" d="M92.8,11h18.2c3.6,0,6.5,2.9,6.5,6.5v3.2c0,3.6-2.9,6.5-6.5,6.5h-18.2V11Z"/>
  <line class="st0" x1="20.5" y1="24.3" x2="32.2" y2="24.3"/>
  <path class="st3" d="M104,24.2l-5.9-6.5h1.7l4.9,5.5h0l4.9-5.5h1.7l-5.9,6.5h-1.4,0Z"/>
  <g>
    <path class="st4" d="M11.4,25.6c0,0-.2,0-.2-.2v-9c0,0,0-.2.2-.2s.2,0,.2.2v9c0,0,0,.2-.2.2Z"/>
    <path class="st4" d="M16,17.6c0,.3-.2.6-.4.8-.1.1-.2.2-.4.3,0,0,0,0,0,0-.3.1-.7.2-1,0-.3-.2-.6-.5-.6-.8,0-.4.3-.7.6-.8.2,0,.4,0,.6.1.2.1.3.3.3.5,0,0,0,.2-.2.2,0,0-.2,0-.2-.2,0,0,0-.2-.1-.2,0,0-.2,0-.3,0-.2,0-.3.3-.3.5,0,.2.2.4.4.5.2,0,.5,0,.7,0,0,0,.2,0,.2-.2.2-.2.3-.4.4-.6,0-.3-.1-.7-.4-1h-2.6v7.8l-.8.9-.5.6-.5-.6-.8-.9v-7.8h-2.6c-.2.2-.4.7-.4,1,0,.2.2.5.4.6,0,0,.2.1.2.2.2.1.5.1.7,0,.2,0,.4-.3.4-.5,0-.2-.2-.4-.3-.5,0,0-.2,0-.3,0,0,0-.1.1-.1.2,0,0,0,.2-.2.2,0,0-.2,0-.2-.2,0-.2.1-.3.3-.5.2-.1.4-.2.6-.1.4,0,.6.4.6.8,0,.3-.2.7-.6.8-.3.1-.7.1-1,0,0,0,0,0,0,0-.1,0-.3-.1-.4-.3-.2-.2-.4-.5-.4-.8,0-.4.2-1,.5-1.3h0s3.1,0,3.1,0v8l.9,1,.9-1v-8h3.1c.4.4.6.9.5,1.4Z"/>
    <path class="st4" d="M15.8,15.1H7c0,0-.2,0-.2.2s0,.2.2.2h8.8c0,0,.2,0,.2-.2s0-.2-.2-.2Z"/>
    <path class="st4" d="M9.3,19.3v3.7c-.3-.3-.6-.6-.8-.8v-2.6c.2,0,.4,0,.5-.2.1,0,.2-.1.3-.2M9.6,18.5c-.2.3-.4.6-.8.7-.2,0-.4.1-.7.1s0,0,0,0v3.1c.3.3.8.8,1.5,1.4v-5.3h0Z"/>
    <path class="st4" d="M13.5,19.3c0,0,.2.1.3.2.2,0,.3.1.5.2v2.6c-.2.2-.5.5-.8.8v-3.7M13.2,18.5v5.3c.7-.6,1.2-1.1,1.5-1.4v-3.1s0,0,0,0c-.2,0-.5,0-.7-.1-.3-.2-.6-.4-.8-.7h0Z"/>
    <path class="st4" d="M15.5,18.4v4.4h0c0,.1-2,2.3-4,3.2h0s0,0,0,0c-2.1-.8-4-3-4-3.1h0v-4.4c0,0,0-.2.2-.2s0,0,.1,0c0,0,0,0,0,.1v4.2c.3.3,1.7,1.9,3.3,2.7.2,0,.3.2.5.2.2,0,.3-.2.5-.2,1.6-.9,3-2.4,3.3-2.7v-4.2c0,0,0-.1,0-.1,0,0,0,0,.1,0,0,0,.2,0,.2.2Z"/>
    <path class="st4" d="M14.5,14.2c-.1,0-.3,0-.5,0-.1,0-.3.2-.3.3,0,0,0,.2.1.2,0,0,.2,0,.2-.1,0,0,0,0,0,0,0,0,.1,0,.2,0,0,0,.1.2.1.3,0,.1-.2.2-.3.3-.2,0-.4,0-.5,0-.3-.1-.6-.5-.7-.8h0c0-.1-.4-.1-.4-.1h-2.6c-.1.5-.4.9-.7,1-.1,0-.3,0-.5,0-.1,0-.3-.1-.3-.3,0-.1,0-.3.1-.3,0,0,.1,0,.2,0,0,0,0,0,0,0,0,0,.1.1.2.1,0,0,.1-.1.1-.2,0-.1-.2-.2-.3-.3-.2,0-.3,0-.5,0-.2.1-.4.5-.3.7,0,.2.3.4.6.5,0,0,.2,0,.3,0,.1,0,.3,0,.4,0,.4-.2.8-.5.9-1h2.4c.2.4.5.8.9,1,.2,0,.3,0,.4,0s.2,0,.3,0c.3,0,.5-.3.6-.5,0-.3,0-.6-.3-.7Z"/>
  </g>
  <g id="LsyWpj">
    <g>
      <path class="st4" d="M24.4,19.9c-1.1-.1-1.8-1.4-1.1-2.4s2.2-.8,2.6.3,0,1.4-.5,2-.8.8-1.1.9-.2,0-.2-.1.1-.3.2-.4.1-.2.1-.4h0Z"/>
      <path class="st4" d="M28,19.9c-1.1-.1-1.8-1.4-1.1-2.4s2.2-.8,2.6.3,0,1.4-.5,2-.8.8-1.1.9-.2,0-.2-.1.1-.3.2-.4.1-.2.1-.4h0Z"/>
    </g>
  </g>
</svg>