<?xml version="1.0" encoding="UTF-8"?>
<svg id="Capa_1" xmlns="http://www.w3.org/2000/svg" version="1.1" viewBox="0 0 100 100">
  <!-- Generator: Adobe Illustrator 29.2.1, SVG Export Plug-In . SVG Version: 2.1.0 Build 116)  -->
  <defs>
    <style>
      .st0 {
        fill: #ffd7d7;
        stroke: #af0000;
        stroke-miterlimit: 10;
        stroke-width: 3px;
      }
    </style>
  </defs>
  <circle class="st0" cx="50" cy="50" r="45"/>
  <g>
    <path d="M50.1,17.9v1.7l-1,.8-1,.8v3.9c-.1,2.1-.1,3.9-.1,3.9,0,0-1.2.1-4.8.5-.6,0-1.4.1-1.8.2s-3.3.3-6.4.7c-3.1.3-5.7.6-5.8.6-.2,0-.2,0-.2-.2,0-.3-.2-.6-.3-.7-.1,0-.2,0-.3.5,0,.2,0,.4,0,.4s-.3,0-.6,0c-1,.1-1,.1-1,.2s0,.1,0,.1c0,0,1.1.2,1.2.2,0,0,.1,0,.1.2,0,.2,0,.3-.2.8-.9,2-3.4,9.6-5.9,17.4v.4c-.1,0-.4,0-.4,0h-.3s0,.2,0,.2c0,.3.4,1.1.8,1.6.4.6,1.3,1.5,1.9,1.9.8.5,1.6.9,2.8,1.1.5.1.7.1,1.9.1,1.5,0,1.8,0,2.8-.4,1.6-.5,3-1.7,3.8-3.2.2-.3.5-1.2.5-1.3s-1.6,0-3.5,0h-3.5v-.3c0-.2,0-.8,0-1.5.1-2.3.2-6.2.3-9.3,0-1.8,0-3.4,0-3.6v-.4s.4,1,.4,1c.8,2.4,3.1,8,4.7,12.1.7,1.6.8,1.9.9,1.8.1,0,.2.1-1-3.2-2-5.9-3.7-11-4.8-13.7-.2-.5-.3-.8-.3-1.1,0-.4,0-.4,0-.4s1,.1,6.6,1c1.3.2,3.7.6,5.2.8,5.9.9,6.9,1.1,7,1.1s0,4.3-.2,9.3c0,1.2,0,3.8-.1,5.6,0,1.8,0,3.4,0,3.4,0,0-.6.2-2.2.6-.8.2-1.9.5-2.6.7-.6.2-2.3.6-3.6.9-1.3.3-2.5.7-2.6.7-.1,0-1,.7-1.9,1.4l-1.7,1.3h-5.4c-5.1,0-5.4,0-5.5,0s-.1.3-.2,1.1c-.6,4.8-.6,9.4-.1,14.1,0,.8.1,1.2.2,1.3,0,0,.4,0,5,0h4.9l1.6,1.5c.9.8,1.6,1.5,1.7,1.6,0,0,.2,0,.2,0,0,0,1.4-1.4,3.1-3s3-2.9,3.1-3c0,0,.1,0,.2,0,0,0,.9.5,1.7,1.1s1.6,1.1,1.7,1.1c.1,0,.5-.3,1.1-1.1.2-.3.5-.6.6-.7h.1c0-.1.2,0,.2,0,.1,0,1.7,1.3,3.4,2.7,3.6,2.8,3.3,2.5,3,3.1-.4.6-.4.4-.4,2.7v2s.2,0,.2,0c.1,0,.6-.2,1.6-.9l1.5-.9v-3.1c0-2.1,0-3.1,0-3.2,0-.2-.2-.3-3.4-3.4l-2.1-2.1v-1.1h.3v.8l.7.7c.4.4,1.6,1.6,2.8,2.7l2.1,2.1v3.2c0,2.1,0,3.2,0,3.3,0,0,.1.1.2.1,0,0,2.5-1.5,2.7-1.7,0,0,0-1.8,0-4.1v-4l-.3-.3c-3-3.1-4.6-4.8-5.1-5.3l-.6-.6h.6l2.9,3,2.9,3v4.2c0,2.8,0,4.2,0,4.3.1.2.2.2,2-.9.5-.3,1-.6,1-.7h.1v-9.5l-1.7-1.7-1.7-1.7v-.2c0,0,.1-.2.1-.2l1.9,1.9,1.8,1.8v4.7c0,4.5,0,4.7.1,4.7,0,0,.3,0,1.6,0h1.5s1.6-1.6,1.6-1.6l1.6-1.6h4c3.1,0,4,0,4.1,0,0,0,.2-.7.3-2.3.2-1.9.2-2.9.2-5.6s0-3.7-.2-5.8c-.2-2.1-.2-2.4-.4-2.5,0,0-.8,0-3.9,0h-3.8l-1.3-1.1c-.7-.6-1.4-1.1-1.4-1.2-.2,0-.8-.2-4.3-1.1-1-.3-3.7-.9-5.9-1.5-3.1-.8-4.1-1-4.4-1h-.3s0-1.8,0-1.8c0-1,0-2.8,0-4.1-.2-7.4-.2-9.4-.1-9.5,0,0,0-.9,0-2.1,0-.5,0-1,0-1,0,0,.5,0,1.1-.2.6,0,1.8-.3,2.8-.4,3.2-.5,8.7-1.4,9.7-1.5,3.7-.6,4.9-.8,5-.8.2,0,.2,0,0,.5-.7,1.6-3.2,9-5.8,16.9l-.4,1.1h-.3q-.3,0-.3.1c.1.6.6,1.5,1,2,1.1,1.4,2.5,2.3,4.4,2.7.4,0,.8.1,1.7.1,1,0,1.3,0,1.8,0,1.8-.3,3.1-1,4.2-2.3.6-.7,1.2-1.8,1.3-2.4v-.2s-3.5,0-3.5,0h-3.5v-.3c0-.3.2-3.4.3-6.3,0-.9,0-3,.1-4.7s0-3.2,0-3.4v-.3s.4,1.1.4,1.1c.5,1.5,1.7,4.7,2.7,7.2,1.1,2.8,2.7,6.6,2.7,6.7s0,0,.1,0c.1,0-4.3-13.1-5.7-16.9-.2-.6-.3-.8-.3-1.2v-.5s.6-.1.6-.1c1-.1,1-.1,1-.3s0-.1-1.1-.2c-.7,0-.6,0-.7-.5,0-.4-.2-.6-.3-.6s-.2.1-.2.6v.3s-.4,0-.4,0c-.7,0-3-.3-10.8-1.1-4.3-.4-7.7-.8-7.8-.8,0,0,0-1.6,0-3.6,0-2,0-3.7,0-3.9v-.3s-1-.8-1-.8l-1-.8v-1.7c0-1.7,0-1.7-.1-1.7s-.1,0-.1,1.7ZM28.2,42.3c0,3.3.1,6.4.2,7.5v.6s-3.2,0-3.2,0c-1.8,0-3.2,0-3.2,0s.5-1.2,1.1-2.7c2.1-5.4,4-10.5,4.8-12.9l.2-.5v2.5c0,1.3.1,3.9.1,5.6ZM71.3,39.5c0,3.9,0,6.1.2,9.6v1.3s-3.1,0-3.1,0h-3.2l.4-1c2-4.9,4.2-10.9,5.1-13.6l.5-1.4v.5c0,.3,0,2.4,0,4.7ZM47.4,56.1q0,.2-1.1.8c-.6.3-1.1.6-1.2.7s0,.3,0,1v.9s-.2,0-.2,0h-.2s0-.8,0-.8c0-1.3-.1-1.1,1.4-2,.7-.4,1.3-.7,1.4-.7,0,0,0,0,0,.2ZM40.2,64v.4h-.2c-.3-.4-.3-.4,0-.7.1,0,.2-.2.2-.2s0,.2,0,.4ZM42.5,66l.2.2h3.5l.3-.2c.3-.2.3-.2.6-.2s.3,0,.3,0c0,0-.2.2-.5.4l-.5.4h-3.7s-.4-.4-.4-.4l-.4-.4h.3c.3,0,.3,0,.5.2Z"/>
    <path d="M38.3,76c-2.2,2.1-3.1,3-3.1,3.1,0,.1.2.3,1.7,1.6,1,.8,1.8,1.5,1.9,1.5.1,0,1.2-1.3,4.3-5.1,1-1.2,1.5-1.9,1.5-2s-.3-.3-1.6-1.2c-.9-.6-1.6-1-1.7-1,0,0-1.5,1.4-3.2,3ZM41.1,75.4c-.4.4-.4.4,0,.7,0,0,.4.3.6.5l.4.4h0c0,.2-.1.3-.1.3,0,0-1.6-1.2-1.7-1.3,0,0,.1-.3.5-.6l.5-.5h.1c0,.1.1.3.1.3l-.3.3Z"/>
    <path d="M45.2,75.4c-4.3,5.3-5.7,6.9-5.7,7s0,.1,0,.2c0,0,1.5.5,3.7,1l1.2.3h.1c.2-.3,5.5-7.5,5.6-7.7,0,0,0-.1,0-.3-.3-.3-3.1-2.5-3.2-2.5s-.6.6-1.8,2ZM46.9,75.8c-.2.2-.3.5-.3.5,0,.1.2.3.8.6.2.1.4.3.4.3s0,0,0,.2h0c0,.1-.8-.3-.8-.3-.4-.3-.8-.5-.8-.6,0,0,.1-.3.4-.7l.5-.6h.2c0,.1.2.2.2.2l-.3.4Z"/>
    <path d="M49.7,77.6c-.5.7-1.7,2.3-2.7,3.7s-1.8,2.5-1.8,2.6,0,.1.1.2c0,0,1,.3,2,.6,1.8.5,1.8.5,2,.4,0,0,2.8-4.5,3.7-5.9.2-.4.4-.7.4-.8,0-.2-2.3-2-2.5-2,0,0-.3.3-1,1.2ZM50.8,78h.1c0,.1-.2.4-.2.4-.1.2-.2.3-.2.4s.1.2.4.4c.2.1.4.3.4.3s0,0-.1.2h-.1c0,.1-.6-.2-.6-.2-.4-.3-.6-.4-.6-.5s.6-1,.7-1c0,0,0,0,.2.1Z"/>
    <path d="M31.9,76.8c-.2.2-1.2,1-1.6,1.4-.2.2-.2.2-.2.3,0,.2,2.4,2.3,2.5,2.3s2.1-1.9,2.1-2-.3-.4-.6-.7c-1.2-1.1-1.7-1.6-1.8-1.6s-.2,0-.4.2Z"/>
    <path d="M34.2,80.1c-.6.6-.7.7-.6.8,0,.2,3.2,2.4,3.3,2.4s1.2-.6,1.3-.7c0,0,0-.1,0-.2,0-.2-3.2-2.8-3.4-2.8s-.3.2-.6.5Z"/>
    <path d="M52.4,80.6c-.1.1-1.3,1.9-1.7,2.7-.4.6-.3.7.1.7.4,0,1.8-.2,1.9-.3.1,0,.1-2.9,0-3.1,0-.1-.1-.1-.3,0Z"/>
    <path d="M39.7,83.2c0,0,0,.1.1.3.2.3,1.6,1.4,1.8,1.5.1,0,.1,0,.8-.4.5-.4.6-.5.5-.6,0-.1,0-.2-.2-.2-.4-.1-2.7-.7-2.9-.7s-.1,0-.2.1Z"/>
    <path d="M45.1,84.5c-.2.1-.3,1.3-.1,1.3,0,0,1,.1,1.7.2h.6s.3-.3.3-.3c.1-.2.3-.4.3-.4,0-.2-.2-.2-1.3-.5-.6-.2-1.1-.3-1.2-.3,0,0-.1,0-.2,0Z"/>
  </g>
</svg>