<?xml version="1.0" encoding="UTF-8"?>
<svg id="_425" data-name="425" xmlns="http://www.w3.org/2000/svg" viewBox="0 0 500 500">
  <defs>
    <style>
      .cls-1 {
        fill: #595959;
        fill-rule: evenodd;
      }

      .cls-2 {
        fill: #c6c6c6;
      }

      .cls-3 {
        fill: #5e1111;
      }

      .cls-4 {
        fill: #fff;
      }
    </style>
  </defs>
  <g>
    <path class="cls-1" d="M141.38,52.26c4.14,0,8.14.56,12.01,1.69,7.58-21.49,28.16-36.94,52.26-36.94,29.22,0,53.1,22.62,55.28,51.2,15.45,4.57,26.69,18.82,26.69,35.68,0,20.58-16.65,37.23-37.23,37.23h-111.89c-5.27,0-10.19-1.27-14.54-3.51-15.87-6.81-27.04-22.55-27.04-40.88,0-24.58,19.95-44.46,44.46-44.46h0ZM125.72,100.51h82.32c1.82,0,3.3,1.48,3.3,3.3h0c0,1.82-1.47,3.23-3.3,3.23h-82.32c-1.83,0-3.3-1.41-3.3-3.23h0c0-1.83,1.47-3.3,3.3-3.3h0ZM188.02,117.93h82.39c1.76,0,3.23,1.47,3.23,3.23h0c0,1.83-1.48,3.3-3.23,3.3h-82.39c-1.75,0-3.23-1.47-3.23-3.3h0c0-1.76,1.47-3.23,3.23-3.23h0ZM8.7,117.93h82.32c1.83,0,3.3,1.47,3.3,3.23h0c0,1.83-1.47,3.3-3.3,3.3H8.7c-1.83,0-3.3-1.47-3.3-3.3h0c0-1.76,1.47-3.23,3.3-3.23h0ZM57.8,38.14h82.32c1.76,0,3.23,1.48,3.23,3.3h0c0,1.76-1.47,3.23-3.23,3.23H57.8c-1.83,0-3.3-1.47-3.3-3.23h0c0-1.82,1.48-3.3,3.3-3.3h0Z"/>
    <path class="cls-2" d="M461.47,483.46H39.97c-2.99,0-5.41-2.42-5.41-5.41s2.42-5.41,5.41-5.41h421.5c2.99,0,5.41,2.42,5.41,5.41s-2.42,5.41-5.41,5.41Z"/>
  </g>
  <g>
    <path class="cls-3" d="M250.95,170.63c-52.53,0-95.26,42.52-95.26,94.79s42.74,94.79,95.26,94.79,95.26-42.53,95.26-94.79-42.73-94.79-95.26-94.79ZM250.95,337.82c-40.1,0-72.72-32.48-72.72-72.4s32.62-72.4,72.72-72.4,72.72,32.48,72.72,72.4-32.62,72.4-72.72,72.4Z"/>
    <path class="cls-3" d="M254.72,270.26v19.97c2.56-.56,4.65-1.77,6.25-3.65,1.62-1.88,2.42-4.09,2.42-6.65,0-2.26-.68-4.23-2.04-5.87-1.34-1.65-3.56-2.91-6.64-3.8Z"/>
    <path class="cls-3" d="M250.95,200.99c-35.7,0-64.75,28.9-64.75,64.43s29.05,64.43,64.75,64.43,64.75-28.9,64.75-64.43-29.05-64.43-64.75-64.43ZM220.4,273.03h-15.26v-15.18h15.26v15.18ZM270.33,293.65c-3.75,4.21-8.94,6.83-15.61,7.87v9.51h-7.43v-9.4c-5.86-.72-10.62-2.87-14.29-6.51-3.68-3.64-6.01-8.8-7.04-15.43l13.28-1.57c.54,2.72,1.57,5.05,3.07,7.02,1.5,1.97,3.15,3.38,4.98,4.27v-21.33c-6.64-1.9-11.5-4.77-14.59-8.62-3.11-3.87-4.66-8.54-4.66-14.04s1.76-10.26,5.26-14.04c3.5-3.8,8.16-5.97,13.98-6.54v-5.02h7.43v5.02c5.43.64,9.76,2.49,12.99,5.54,3.21,3.05,5.27,7.12,6.15,12.22l-12.97,1.67c-.8-4-2.86-6.72-6.17-8.15v19.9c8.2,2.19,13.8,5.07,16.77,8.57,2.98,3.52,4.46,8.03,4.46,13.53,0,6.15-1.86,11.32-5.61,15.53ZM281.5,273.03v-15.18h15.25v15.18h-15.25Z"/>
    <path class="cls-3" d="M242.55,239.42c-1.17,1.64-1.75,3.43-1.75,5.4,0,1.79.53,3.47,1.59,5.02,1.06,1.53,2.7,2.79,4.9,3.73v-17.66c-2.01.72-3.57,1.88-4.74,3.52Z"/>
    <path class="cls-3" d="M434.25,261.44h-49.54c-.27-9.14-1.47-18.04-3.51-26.63l22.01-5.87c2.13-.57,3.39-2.75,2.82-4.88-.57-2.13-2.75-3.39-4.88-2.82l-22.04,5.87c-2.62-8.67-6.1-16.97-10.35-24.8l19.75-11.35c1.91-1.1,2.56-3.53,1.47-5.44-1.09-1.91-3.53-2.57-5.44-1.47l-19.8,11.38c-4.76-7.65-10.28-14.78-16.44-21.29l35.05-34.89c1.56-1.55,1.57-4.08.01-5.64-1.55-1.56-4.08-1.56-5.64-.01l-35.08,34.92c-6.55-6.14-13.71-11.64-21.4-16.38l11.41-19.66c1.11-1.9.46-4.34-1.45-5.45-1.9-1.11-4.34-.46-5.45,1.45l-11.42,19.68c-7.88-4.24-16.22-7.71-24.94-10.32l5.89-21.9c.57-2.13-.69-4.31-2.81-4.88-2.13-.57-4.31.69-4.88,2.81l-5.9,21.91c-8.64-2.03-17.6-3.23-26.79-3.5v-49.29c0-2.2-1.78-3.98-3.98-3.98s-3.98,1.78-3.98,3.98v49.29c-9.19.27-18.15,1.47-26.79,3.5l-5.9-21.91c-.57-2.12-2.76-3.38-4.88-2.81-2.13.57-3.38,2.76-2.81,4.88l5.9,21.9c-8.72,2.61-17.07,6.08-24.95,10.32l-11.42-19.68c-1.1-1.9-3.54-2.55-5.45-1.45-1.9,1.1-2.55,3.54-1.45,5.45l11.41,19.67c-7.68,4.74-14.85,10.24-21.4,16.38l-35.09-34.92c-1.56-1.55-4.08-1.55-5.64.01-1.55,1.56-1.55,4.08.01,5.64l35.06,34.89c-6.17,6.52-11.68,13.65-16.44,21.29l-19.8-11.38c-1.91-1.1-4.34-.44-5.44,1.47-1.1,1.91-.44,4.34,1.47,5.44l19.76,11.35c-4.25,7.83-7.73,16.13-10.35,24.8l-22.03-5.87c-2.12-.57-4.31.7-4.88,2.82-.57,2.13.7,4.31,2.82,4.88l22.01,5.87c-2.04,8.59-3.24,17.49-3.51,26.63h-49.55c-2.2,0-3.98,1.78-3.98,3.99s1.78,3.98,3.98,3.98h49.55c.27,9.13,1.47,18.04,3.51,26.63l-22.01,5.87c-2.13.57-3.39,2.75-2.82,4.88.48,1.78,2.09,2.96,3.85,2.96.34,0,.69-.04,1.03-.13l22.03-5.87c2.62,8.67,6.1,16.97,10.35,24.8l-19.76,11.35c-1.91,1.1-2.57,3.53-1.47,5.44.74,1.28,2.08,2,3.46,2,.67,0,1.36-.17,1.98-.53l19.8-11.37c4.76,7.64,10.27,14.78,16.44,21.29l-35.06,34.89c-1.56,1.55-1.56,4.08-.01,5.64.78.78,1.8,1.17,2.82,1.17s2.03-.39,2.81-1.16l35.08-34.92c6.55,6.14,13.72,11.64,21.4,16.38l-11.41,19.67c-1.1,1.9-.46,4.34,1.45,5.45.63.36,1.32.54,2,.54,1.37,0,2.71-.71,3.45-1.99l11.42-19.68c7.88,4.24,16.23,7.71,24.94,10.32l-5.89,21.9c-.57,2.12.69,4.31,2.81,4.88.35.09.69.14,1.04.14,1.76,0,3.37-1.17,3.84-2.95l5.9-21.91c8.64,2.03,17.6,3.23,26.8,3.5v49.29c0,2.2,1.78,3.98,3.98,3.98s3.98-1.78,3.98-3.98v-49.29c9.19-.27,18.15-1.47,26.79-3.5l5.9,21.91c.48,1.78,2.09,2.95,3.85,2.95.34,0,.69-.04,1.04-.14,2.13-.57,3.38-2.76,2.81-4.88l-5.89-21.9c8.72-2.61,17.07-6.08,24.95-10.32l11.42,19.68c.74,1.27,2.08,1.99,3.45,1.99.68,0,1.37-.17,2-.54,1.9-1.1,2.55-3.54,1.45-5.45l-11.41-19.67c7.68-4.74,14.85-10.23,21.4-16.38l35.08,34.92c.78.77,1.79,1.16,2.81,1.16s2.05-.39,2.82-1.17c1.55-1.56,1.55-4.08-.01-5.64l-35.05-34.89c6.17-6.52,11.68-13.65,16.44-21.29l19.79,11.38c.63.36,1.31.53,1.98.53,1.38,0,2.72-.72,3.46-2,1.1-1.91.44-4.34-1.47-5.44l-19.75-11.35c4.25-7.83,7.73-16.13,10.35-24.8l22.03,5.87c.34.09.69.13,1.03.13,1.76,0,3.37-1.18,3.85-2.96.57-2.13-.7-4.31-2.82-4.88l-22.01-5.87c2.04-8.59,3.23-17.49,3.51-26.63h49.54c2.2,0,3.98-1.78,3.98-3.98s-1.78-3.99-3.98-3.99ZM372.49,232.91c-1.09-4.02-2.37-7.95-3.84-11.8,1.47,3.85,2.75,7.78,3.84,11.8ZM301.22,150.62c-1.89-.82-3.81-1.6-5.75-2.33,1.94.73,3.85,1.51,5.75,2.33ZM289.58,146.23c-1.98-.64-3.99-1.23-6.01-1.77,2.03.54,4.03,1.13,6.01,1.77ZM283.47,144.43c-3.81-1.01-7.69-1.85-11.63-2.51,3.94.66,7.82,1.5,11.63,2.51ZM230.07,141.92c-3.95.66-7.85,1.5-11.67,2.52,3.82-1.02,7.71-1.86,11.67-2.52ZM218.35,144.45c-4.05,1.08-8.03,2.36-11.91,3.83,3.88-1.47,7.85-2.74,11.91-3.83ZM206.44,148.28c-3.88,1.46-7.66,3.11-11.35,4.93,3.68-1.82,7.47-3.47,11.35-4.93ZM184.32,159.22c-3.46,2.16-6.82,4.48-10.04,6.96,3.23-2.47,6.58-4.8,10.04-6.96ZM174.26,166.19c-8.62,6.62-16.36,14.31-23.01,22.89,6.65-8.58,14.39-16.28,23.01-22.89ZM138.2,209.82c-1.83,3.66-3.49,7.42-4.96,11.27,1.47-3.85,3.12-7.61,4.96-11.27ZM126.83,286.18c.66,3.93,1.51,7.8,2.53,11.6-1.02-3.8-1.87-7.67-2.53-11.6ZM126.84,244.66c.66-3.93,1.51-7.8,2.53-11.6-1.02,3.8-1.87,7.67-2.53,11.6ZM133.24,221.12c-1.47,3.86-2.76,7.8-3.84,11.83,1.09-4.03,2.37-7.97,3.84-11.83ZM136.14,316.67c.66,1.47,1.35,2.93,2.07,4.37-.72-1.44-1.4-2.9-2.07-4.37ZM141.1,326.47c1,1.78,2.05,3.53,3.13,5.26-1.09-1.73-2.13-3.48-3.13-5.26ZM145.83,334.21s.03.04.04.06c-.01-.02-.03-.04-.04-.06ZM171.26,362.28c8.93,7.29,18.88,13.37,29.6,18.02-10.72-4.65-20.67-10.73-29.6-18.02ZM169.02,360.41c.47.4.94.79,1.41,1.18-.47-.39-.95-.78-1.41-1.18ZM201.85,380.72c1.17.49,2.35.97,3.54,1.43-1.19-.46-2.37-.94-3.54-1.43ZM218.44,386.42c3.81,1.01,7.7,1.86,11.65,2.51-3.95-.66-7.83-1.5-11.65-2.51ZM250.95,368.19c-56.92,0-103.23-46.1-103.23-102.76s46.31-102.76,103.23-102.76,103.23,46.1,103.23,102.76-46.31,102.76-103.23,102.76ZM271.81,388.94c3.94-.66,7.82-1.5,11.62-2.51-3.81,1.01-7.68,1.85-11.62,2.51ZM372.54,297.76c1.02-3.79,1.86-7.65,2.52-11.57-.66,3.92-1.5,7.78-2.52,11.57ZM372.54,233.11c1.02,3.79,1.86,7.64,2.52,11.56-.66-3.92-1.5-7.77-2.52-11.56Z"/>
  </g>
  <path class="cls-4" d="M215.17,63.68h7.28v5.72c0,.53-.17.99-.52,1.38-.35.39-.85.58-1.52.58h-5.24v14.12h-8.64v-14.12h-24.4c-.67,0-1.25-.21-1.76-.62-.51-.41-.83-.93-.96-1.54l-1-5,27.4-36.6h9.36v36.08ZM206.53,44.76c0-.85.03-1.77.08-2.76.05-.99.15-2.01.28-3.08l-17.96,24.76h17.6v-18.92Z"/>
</svg>