<?xml version="1.0" encoding="UTF-8"?>
<svg id="Capa_1" data-name="Capa 1" xmlns="http://www.w3.org/2000/svg" viewBox="0 0 400 400">
  <defs>
    <style>
      .cls-1 {
        fill: #af2828;
      }

      .cls-2 {
        fill: #e3e3e3;
      }
    </style>
  </defs>
  <g>
    <circle class="cls-2" cx="200" cy="200" r="176.41"/>
    <path class="cls-1" d="M200,379.41c-98.93,0-179.41-80.48-179.41-179.41S101.07,20.59,200,20.59s179.41,80.48,179.41,179.41-80.48,179.41-179.41,179.41ZM200,26.59C104.38,26.59,26.59,104.38,26.59,200s77.79,173.41,173.41,173.41,173.41-77.79,173.41-173.41S295.62,26.59,200,26.59Z"/>
  </g>
  <g>
    <path class="cls-1" d="M342.5,122.94c1.31.41.66,9.33.51,11.03-.82,1.18-6.73-.29-8.3,1.03-.37,1.64-.7,3.59-1.3,5.15-.56,1.46-3.43,6.45-3.52,7.05-.3,1.98,4.82,4.37,4.62,6.51-.08.88-6.12,7.16-6.94,7.4-3.09.93-4.67-4.45-7.03-4.24-.68.06-2.74,1.58-3.78,2.01-1.76.73-6.63,2.06-7.69,2.83-2.11,1.53.98,7.43-2.45,8.07-1.42.27-9.96.17-10.9-.43-1.61-1.02-.29-6.99-.84-7.64-.21-.24-4.96-1.24-6.16-1.73-1.56-.63-4.58-2.82-5.62-3.03-3.06-.63-3.61,4.69-6.55,4.25-.75-.11-7.13-6.3-7.35-7.05-.93-3.09,4.45-4.67,4.24-7.03-.06-.66-2.58-4.75-3.12-6.02-.64-1.54-1.42-6.68-2.88-6.68h-6.93c-.41-2.15-1.08-8.8-.24-10.52,1-2.06,6.39-.17,7.91-1.17.67-.44,1.34-4.64,1.81-5.84.65-1.65,3.23-5.73,3.36-6.73.3-2.15-4.66-3.78-4.25-6.55.07-.49,6.09-7.22,6.56-7.36,2.96-.91,4.74,4.17,6.58,4.22.98.02,4.57-2.48,6-3.09,1.3-.55,5.69-1.52,6.22-1.91,1.68-1.25-1.68-7.08,3.12-7.87,1.54-.25,8.95-.24,9.98.49,1.84,1.3-.3,5.46,1.44,7.17.68.67,5.74,2.23,7.2,2.84,1.12.47,3.72,2.22,4.41,2.33,2,.32,3.97-4.48,6.08-4.27.81.08,7.5,6.71,7.7,7.63.39,1.79-4.53,4.47-4.56,6.01-.02.79,1.97,3.52,2.47,4.71,1.16,2.8,1.71,5.74,3.03,8.45,1.87.35,5.6-.49,7.17,0ZM299.13,103.48c-32.65,3.22-29.07,53.69,5.59,50.53,32.08-2.93,28.38-53.88-5.59-50.53Z"/>
    <path class="cls-1" d="M298.64,106.81c29.86-3.82,33.75,40.6,6.52,43.81-30.6,3.61-34.01-40.29-6.52-43.81ZM303.53,115.29c-.38-.38.84-4.61-.95-5.51-3.64-1.82-1.81,3.92-2.6,5.06-.59.84-5.03-.46-7.16,3.36-1.27,2.27-1.09,7.45.27,9.69,2.65,4.36,9.11,1.98,13.06,2.72,2.64.49,2.1,7.21.73,7.88-.74.36-9.32.46-10.2.16-2.59-.87.4-5.89-2.96-6.17-2.73-.23-1.69,5.65-.63,7.37,2,3.24,6.82,2.42,7.1,2.7.69.67-1.54,5.01,1.68,5.3,2.75.24,1.19-4.86,1.66-5.3.28-.27,4.91.43,6.92-2.89,1.86-3.08,1.75-9.72-1.69-11.65-3.33-1.87-9.84.39-12.36-1.5-1.5-1.12-1.53-6.4.18-7.41,1.06-.63,9.19-.76,10.31-.21,2.02.98-.33,5.74,2.65,6,3.23.29,1.99-5.78.7-7.44-2.21-2.86-6.45-1.88-6.71-2.14Z"/>
  </g>
  <g id="FFOykE">
    <path class="cls-1" d="M101.75,151.85c.04.16.25.31.5.27.8-.13,2.18-.93,3.16-1.18,3.45-.85,7.91-.65,11.25.55-.49-2.18-5.43-2.63-6.08-4.16-.44-1.03,1.23-4.08.33-5.31-.26-.36-1.44-.19-1.23-1.7.11-.77,2.83-2.31,2.41-2.78-1.48-.21-3.6-.88-4.69-1.93-.9-.87-2.83-4.37-.48-4.35,2.07.02,5.24,1.25,7.02.31,1.04-.55,2-1.68,3.2-2.09,3.82-1.3,6.45-.5,9.76,1.3,1.26.69,2.18,1.1,3.22,2.31,1.31,1.53,2.08,3.59,2.34,5.6.08.6-.04,2.84.07,2.94.1.09,1.03-.2,1.34.23s.37,2.71.71,3.37c.23.43,1.33.9,1.73,1.28.36.34,2.54,3.24,2.66,3.71.13.52-.03,1.1.11,1.57.44,1.46,1.37,3.03,1.4,4.63.01.92-.64,1.73-.64,2.15.02,1.74,1.57,2.83,1.06,5.24-.11.52-.63.98-.67,1.52-.04.58.46,1.02.5,1.66.07,1.24-.4,1.96-1.7,1.8l.24-.46-1.19-.62.72-.12c-.13-1.4-.91-.99-1.5-1.25-.47-.21-.6-.73-1.14-.67-.23.62-.18,1.31-.35,1.93-1.63,5.92-4.3,11.9-6.81,17.48-.17.38-.68.68-.75.96-.15.58.82.86.22,1.83-.1.16-.49.15-.49.29,0,.5.62.89.7,1.25.11.51-.43.74-.41,1.1s.64,1.13.81,1.6c.88,2.51,2.38,4.76,3.14,7.45.62,2.19.76,4.77,1.42,6.99.13.45.59.65.63,1.32s-1.13,2.94-.27,2.64c.92-.32,1.84-.5,2.75-.84,1.96.46.67,1.53.16,2.56s-.99,1.62-1.62,2.71c-.91,1.56-.76,1.55-.78,3.26-.02,1.94-.26,1.26-.94,2.45-1.19,2.11-1.87,3.21-3.27,5.15-.72.99-1.43,3.04-2.77,3.25-.44.07-.83-.18-1.27-.1-.52.1-2.07,1.08-2.48.45-.74-1.15,1.36-5.19,1.64-6.57.04-.22.24-.64-.19-.66-.32-.01-1.97,1.67-2.28,2.04-.63.73-2.53,3.29-2.9,4.07-1.27,2.64-.63,10.44-.7,13.73-.02.85-.52,1.65-.12,2.51.18.39,1.19,1.1,1.55,1.57.6.78,1.21,1.75,1.73,2.6,3.29,5.31,5.5,11.24,8.62,16.65.43.57,1.09.06,1.8.1,1.66.09,3.98,1.71,5.34,2.62.39.26,1.35.32,1.43.87-.44,2.02-1,5.27-2.86,6.43-.42.26-1.02.33-1.36.57-.94.65-1.03,2.59-1.44,3.61s-1.51,3.14-2.4,3.84c-1.35,1.05-2.92,1.48-4.53.67-.39-.2-.15-.6-.53-.56.4,1.54.08,2.77,0,4.21-.04.74.6,1.14-.13,2.03-1.5,1.83-4.97,1.95-7.08,1.34-.76-.22-1.7-.94-2.54-1.07-1.43-.22-3.28.09-4.79-.02-2.67-.19-7.83-1.02-7.82-4.45.01-2.99,3.56-2.53,5.39-2.78,2.3-.32,4.14-3.38,6.17-4.41.61-.84-.1-3.46-.33-4.52-1.73-8.14-4.74-16.07-5.28-24.54-.8-.95-1.76-2.02-2.71-2.82-2.58-2.2-5.67-2.79-5.66-6.86,0-4.09,1.85-7.84,1.95-11.3.06-2.24-.74-5.56-.97-7.94-.16-1.58-.23-3.21-.24-4.81-.1-.92-1.11-.47-1.75-.66-4.45-1.28-1.48-2.41-1.62-2.59-.58-.07-1.39-.46-1.45-1.09-.02-.27.9-2.78,1.1-2.99.5-.56,1.96-.52,2.05-.89.25-1.06-.91-4.15-.7-4.97.13-.51.87-.53.93-.81.1-.45-.09-1.04.05-1.58.11-.45.47-.83.6-1.32.15-.55.21-1.9.42-2.22.26-.39,1.05-.3,1.39-.48.67-.35,1.28-5.52,1.45-6.55.69-4.06,1.3-7.06.3-11.27-.45-1.89-1.74-3.4-1.99-5.46s.69-3.51-.9-5.11c-.23.59.04,1.4-.77,1.63-.63.18-2.96.17-3.33-.43-.45-.74,1.12-4.4-.02-4.78-.73-.24-3.58.25-4.77.2-2.98-.12-6.25-1.03-9.17-1.18-1.13-.06-1.89.67-3.21-.16-.34-.21-1.55-1.5-1.93-1.91-5.16-5.61-8-11.14-12.17-17.18-.97-1.41-2.27-2.35-3.18-3.8-1.1-1.76-1.77-4.08-2.71-5.97.06-.64.69-.54.74-.61s-.69-.82-.72-1.34c-.11-1.84,1.86.19,2.25.12,1.07-.18-.48-2.23,1.94-2.13,1.27.05,3.14,2.49,3.63,3.59.97,2.22.99,5.08,2.42,7.2,2.32,3.42,9.61,11.37,12.84,13.85.39.3.89.68,1.38.78,1.6.33,7.96-1.06,9.97-1.46,2.2-.45,4.22-.28,4.53-2.92.18-1.53.47-7.09.22-8.41-.47-2.54-2.84-1.75-4.69-2.28-.64-3.55,1.1-2.22,3.38-2.16,2,.06,2.99-.37,5.09.66,1.3.64,5.4,5.43,3.09,5.76-.71.1-2.61-3.74-3.95-3.29-.06.87-1,1.33-1.17,2.08-.1.44-.29,2.85-.29,3.32,0,1.19-.23,4.14,0,5.05ZM108.25,161.59c-.13-.14-2.69.57-3.02.95-.2.33,1,2.79,1.47,2.89.69.15,1.83-3.18,1.56-3.84ZM122.91,263.56c-.66-.64-.5,1.78-.49,2.05.2,3.72.48,8.07,1.01,11.74.08.59.45,3.09.66,3.38.18.25.69.11.98.26.45.24.3.82.73.84l1.44-2.77c-.43-1.99-1.2-3.92-1.92-5.79-.13-.89.74-1.22.71-2.11-.02-.82-.74-2.44-1.08-3.27-.23-.55-1.87-4.17-2.04-4.34Z"/>
  </g>
  <g>
    <path class="cls-1" d="M76.25,286.32l173.97-.1c4.63.75,2.87,5.86,3.41,9.64.72,5.07,3.72,10.18,8.32,12.67,5.55,3,16.95,2.23,15.77,11.36-.87,6.7-10.97,11.38-12.84,17.23-1.53,4.79.58,7.43-5.27,10.62-17.9,9.75-58.47,13.19-78.49,10.43-2.01-.28-8.47-.95-6.35-3.94.6-.85,12.73-2.22,15.46-3.26,11.35-4.31,11.52-16.8,1.84-23.04s-35.77-4.71-48.45-6c-5.01-.51-9.95-.9-13.91-4.24-3.46-2.92-4.59-7.01-8.55-9.6-7.62-4.98-17.6-3.11-23.2,3.92-2.72,3.41-2.67,8.43-8.25,3.14-3.8-3.6-15.48-16.98-17.21-21.35-1.57-3.97-.09-6.16,3.76-7.47Z"/>
    <path class="cls-1" d="M273.42,332.33c3.56-3.94,7.72-6,8.31-12.39,1.33-14.37-15.82-10.44-21.56-18.16-2.77-3.73-5.82-15.58,1.39-15.62,19.48,1.46,41.58-1.85,60.74,0,7.38.71,6.74,5.36,3.55,10.42-8.78,13.93-26.27,29.33-40.21,38.06-2.62,1.64-12.31,7.55-14.65,8-1.4.27-2.73-1.31-2.61-2.63.22-2.35,3.41-5.89,5.03-7.68Z"/>
    <path class="cls-1" d="M109.16,309.6c3.29-.48,6.61-.14,9.51,1.54,5.91,3.41,5.3,10.39,15.21,13.15,13.92,3.87,47.74-.02,57.28,7.94,4.04,3.37,5.62,9.14,1.22,12.96-5.18,4.49-15.17,2.96-21.65,6.14-2.19,1.07-3.59,3.23-6.21,3.48-3.83.36-16.56-4.23-20.77-5.79-12.85-4.74-27.12-12.11-38.05-20.37-1.65-1.25-7.54-5.46-7.77-7.03s3.28-7.8,4.55-9.05c1.42-1.39,4.72-2.68,6.67-2.97Z"/>
  </g>
  <path class="cls-1" d="M90.46,116.89c.91-.57,3.91-3.07,4.71-2.89,5.3,6.23,4.63,11.85,13.84,6.39l27.75-18.25c2.58-.91,3,3.25,4.74,4.67,2.12,1.71,2.52.26,2.95-1.77s2.1-13.44,1.75-14.5c-.37-1.12-6.27-2.51-7.86-2.96-1.45-.4-8.96-2.44-9.54-1.82-1.49,1.61,4.45,6.82,3.44,8.17l-26.29,16.87c-.36.17-.72.2-1.1.04-.93-.38-3.53-6.34-4.93-7.34-1.35-.96-3.24-1.23-4.86-.97l-48.56,31.63c-4.03,3.74-.42,9.36,4.81,8.03,13.13-8.31,26.01-17.01,39.14-25.31Z"/>
  <path class="cls-1" d="M201.51,146.58c4.56,0,8.73.67,12.52,2.02,3.78,1.35,7.02,3.25,9.71,5.71,2.69,2.46,4.79,5.43,6.29,8.89,1.5,3.47,2.26,7.32,2.26,11.56,0,3.65-.54,7.02-1.61,10.12-1.07,3.1-2.51,6.07-4.31,8.89-1.8,2.83-3.91,5.56-6.33,8.21-2.42,2.65-4.95,5.33-7.59,8.07l-22.3,22.78c2.19-.64,4.33-1.13,6.43-1.47,2.1-.34,4.1-.51,6.02-.51h25.37c1.82,0,3.27.51,4.34,1.54,1.07,1.03,1.61,2.38,1.61,4.07v10.12h-67.85v-5.61c0-1.14.24-2.33.72-3.56.48-1.23,1.24-2.37,2.29-3.42l30.03-30.09c2.51-2.55,4.75-4.99,6.74-7.32,1.98-2.33,3.65-4.63,4.99-6.91,1.34-2.28,2.37-4.59,3.08-6.94.71-2.35,1.06-4.82,1.06-7.42,0-2.37-.34-4.46-1.03-6.26-.68-1.8-1.66-3.32-2.94-4.55-1.28-1.23-2.79-2.15-4.55-2.77-1.76-.62-3.73-.92-5.92-.92-4.06,0-7.4,1.03-10.02,3.08s-4.46,4.81-5.5,8.28c-.5,1.73-1.25,2.97-2.26,3.73-1,.75-2.28,1.13-3.83,1.13-.68,0-1.44-.07-2.26-.21l-8.89-1.57c.68-4.74,2.01-8.9,3.97-12.48,1.96-3.58,4.41-6.57,7.35-8.96,2.94-2.39,6.31-4.19,10.12-5.4,3.81-1.21,7.9-1.81,12.28-1.81Z"/>
  <path class="cls-1" d="M321.15,170.57c.05-2.01.52-2.62,2.57-2.55,1.84.05,4.81,1.68,5.11,3.65s-.03,3.48-1.55,1.31c-.96.45-.47,3.3-.07,3.79.3.36,1.47.12,1.9.63.45.54-.05,1.11.09,1.36.1.18.64.31.86.58.38.46,1.86,3.57,1.91,4.12.02.27-.28,2.86-.35,2.99-.47.77-3.9,1.62-4.41,2.8-2.07,5.9-3.93,10.88-7.54,16.03-.66.95-2.82,4.13-3.48,4.7-.87.75-3.13.6-4.31.52-1.82-.11-3.69-.58-5.52-.73-2.58-.22-5.27-.32-7.82-.36.53,3.92,1.89,7.83,2.17,11.78.3,4.31-.25,9.48.24,13.71.04.35.11.84.36,1.08.3.3,3.66.4,4.51.54,4.35.7,16.07,3.45,19.51,5.75,3.27,2.2,2.32,5.77.93,8.78-1.25,2.7-10.74,15.6-12.95,17.35-.62.49-3.17,1.75-3.31,1.96-.23.35.14,1.82.08,1.9-.05.07-.59.2-.83.5-.23.28-1.18,1.77-1.07,1.94.03.04.56.04.83.49.19.33.18.88.39,1.29.41.77,1.99,2.96,2.72,3.29,1.72.76,4.72-.45,6.41.81,1.21.9,1.15,2.82.33,3.97-.06.09-1.38,1.42-1.47,1.47-.15.09-3.07.89-3.31.91-1.37.1-4.18.09-5.52-.22-1.44-.33-3.05-1.99-4.95-1.43.84,3.11-2.28,9.93-5.69,10.09s-11.38-1.97-14.75-3.24c-2.51-.94-8.27-3.95-10.11-5.76-.5-.49-.92-1.47-1.37-1.82-.19-.15-2.46-1.14-2.63-1.16s-1.34.81-1.41.92c-.23.37.73,1.47-.9.91-.4-.14-.56-.6-.91-.78-.48-.25-1.17-.27-1.72-.45-.75-.24-.83-1.01-1.76-.17-2.92,2.63,1.75,3.86,2.24,5.46.4,1.32-.23,2.44-1.31,3.16-1.81,1.21-2.32.82-4.03,1-.68.07-.88.67-1.83.38-1.31-.4-.72-.47-2.46-.67-1.28-.15-1.04-1.06-1.59-1.54-.49-.43-1.11-.23-1.59-.82-.51-.64-.1-1.23-.45-1.94-.25-.5-.75-.59-.84-.86-.29-.89.35-1.54.45-2.36.17-1.32-.16-3.91-.96-5-.2-.27-.6-.34-.84-.66-.9-1.19-.26-2-.63-3.18-.07-.22-.44-.11-.49-.53-.14-1.26.63-4.36,1.36-5.41,1.02-1.5,3.34-.74,4.8-.73,2.09.01,3.96-.46,5.89-.12,1.73.31,2.94.98,4.5,1.51.71.24,1.35-.16,2.15.62,1.14,1.12.02.77,2.01,1.48.29.1,1.01.59,1.09.58.42-.04.3-1.87,2.75-.57.86.46,1.71,1.7,2.4,1.92,2.86.92,7.1.79,9.94,1.36.6.12,2.58,1.59,2.82,1.39-.62-1.32-1.16-2.69-1.56-4.09-.29-.99-.75-4.15-1.1-4.67s-2.58-1.07-3.33-1.48c-2.59-1.38-3.83-3.76-4.94-6.36-.72-1.68-1.11-3.69-1.68-5.3-.35-.98-2.99-5.37-1.17-5.97.88-.29,1.58.27,1.53,1.17,2.65-.88.69-3.01.95-4.68.07-.44,1.47-2.25,1.74-3.09.7-2.11-1.86-1.58-1.97-3.19-.13-2.05,1.84-3.61,1.9-4.57.1-1.61-.28-5.92-.47-7.69-.16-1.45-1.04-3.5-1.37-5.13-1.19-5.85-2.33-13.49-2.93-19.43-.18-1.77-.2-4.21-.03-5.98.27-2.76,2.59-4.81,3.95-7.12.22-.37,1.29-2.27,1.29-2.46-.04-2.7-5.72-6.32-6.34-9.29-1.46-7.01,2.78-11.04,9.42-11.77,2.4-.26,5.94,1.72,7.27,3.74.51.77.72,2.01,1.24,2.61.57.66,2.77,1.55,3.02,2.04.5.99-.6,1.22-.61,1.8,0,.34.4.78.48,1.23.07.35-.22.78-.11,1.07.08.21.55.35.6.83.03.37-.3.78-.21,1.15.15.61,1.23.99.83,2.34-.38,1.26-3.23,1.98-3.63,2.63-.29.48-.05,1.82-.14,2.51-.07.53-.69,1.63-.43,2.03,1.49.34,3.26,2.43,4.53,2.81,1.62.48,4.23-.08,5.89-.14,3.57-.13,4.3.55,7.57-1.33,5.5-3.17,9.78-7.83,13.82-12.63.23-.56.39-1.1.34-1.71-.06-.75-1.17-4.19-1.51-5-.47-1.12-3.48-6.31-4.21-7.12-.08-.08-1.97-.76-2.11-.78-1.65-.28-1.71,2.16-2.16,3.28-.15.37.14.65-.54.53-.3-2.93.53-6.88,3.62-8.04.48-.18,1.02-.08,1.44-.24.8-.32,2.47-1.88,3.12-1.46.4.25.86,1.66.7,2.14-.33.95-3.61.43-3.09,3.15.24,1.23,3.06,4.64,3.83,5.9Z"/>
</svg>