<?xml version="1.0" encoding="UTF-8"?>
<svg xmlns="http://www.w3.org/2000/svg" xmlns:xlink="http://www.w3.org/1999/xlink" viewBox="0 0 595.27 79.17">
  <defs>
    <style>
      .cls-1 {
        fill: none;
      }

      .cls-2 {
        fill: #dd0b17;
      }

      .cls-3 {
        fill: #21201e;
      }

      .cls-4 {
        fill: #752a15;
      }

      .cls-5 {
        fill: #1d1d1b;
      }

      .cls-6 {
        isolation: isolate;
      }

      .cls-7 {
        fill: url(#Degradado_sin_nombre_12-2);
      }

      .cls-8 {
        fill: url(#linear-gradient);
        mix-blend-mode: overlay;
      }

      .cls-9 {
        fill: #0d191d;
      }

      .cls-10 {
        fill: #de0917;
      }

      .cls-11 {
        fill: #e20613;
      }

      .cls-12 {
        fill: #fff;
      }

      .cls-13 {
        fill: url(#radial-gradient);
      }

      .cls-13, .cls-14, .cls-15, .cls-16 {
        mix-blend-mode: color-burn;
      }

      .cls-14 {
        fill: url(#radial-gradient-3);
      }

      .cls-15 {
        fill: url(#radial-gradient-2);
      }

      .cls-16 {
        fill: url(#radial-gradient-4);
      }

      .cls-17 {
        fill: #bb9609;
      }

      .cls-18 {
        fill: url(#Degradado_sin_nombre_12);
      }

      .cls-19 {
        clip-path: url(#clippath);
      }

      .cls-20 {
        fill: #e00817;
      }
    </style>
    <linearGradient id="Degradado_sin_nombre_12" data-name="Degradado sin nombre 12" x1="279.37" y1="39.32" x2="326.18" y2="39.32" gradientUnits="userSpaceOnUse">
      <stop offset="0" stop-color="#dd0b19"/>
      <stop offset="1" stop-color="#62160f"/>
    </linearGradient>
    <linearGradient id="Degradado_sin_nombre_12-2" data-name="Degradado sin nombre 12" y1="39.38" x2="418.51" y2="39.38" xlink:href="#Degradado_sin_nombre_12"/>
    <clipPath id="clippath">
      <path class="cls-1" d="M290.59,11.69l10.23,3.52c1.07.53,2.83.53,3.9,0l8.65-2.97v2.56c0,.45.4.81.89.81s.88-.37.88-.81v-3.2c.89-.53.83-1.31-.19-1.8l-10.23-4.31c-1.07-.52-2.83-.52-3.9,0l-10.23,4.31c-1.07.53-1.07,1.38,0,1.9ZM315.14,19.37l-.44-1.72c0-.22-.19-.41-.44-.41s-.44.18-.44.41l-.45,1.72c0,.45.4.81.89.81s.88-.37.88-.81ZM293.4,26.96c0,5.15,4.17,9.32,9.32,9.32s9.32-4.17,9.32-9.32-4.17-9.32-9.32-9.32-9.32,4.17-9.32,9.32ZM320.59,36.56c-.14-.08-.26-.17-.36-.28-1.25.44-2.42,1.04-3.47,1.81.06.15.09.32.09.49,1.53.25,3.03.74,4.47,1.52,0,0,.02,0,.02.01.08-.07.17-.13.27-.19,0-1.08-.15-2.16-.41-3.2-.21,0-.41-.06-.6-.16ZM312.11,39.41c.05.71.2,1.42.47,2.1.49-.81,1.06-1.56,1.69-2.24-.02-.03-.03-.06-.04-.09-.72.01-1.42.1-2.12.23ZM312.11,38.62c.65-.11,1.31-.19,1.98-.21.02-.17.07-.34.16-.51.37-.68,1.21-.92,1.88-.55.06.04.12.08.17.12,1.09-.8,2.29-1.43,3.59-1.89-.05-.3,0-.61.15-.9.07-.15.18-.27.29-.37-.39-.85-.88-1.66-1.47-2.41-1.25.05-2.49.43-3.61,1.17-1.95,1.29-3.04,3.38-3.14,5.55ZM304.66,67.91s.02.01.02.02c.09-.06.18-.11.29-.15.12-1.08.11-2.17-.03-3.24-.2-.03-.4-.11-.58-.23-.13-.09-.24-.2-.33-.32-1.3.29-2.54.75-3.68,1.39.04.16.05.33.03.5,1.49.43,2.93,1.11,4.27,2.05ZM325.31,35.55c-.91-.04-1.82,0-2.72.14-.03.11-.07.21-.13.31-.12.23-.3.4-.51.53.07.25.12.51.17.76.16.82.25,1.65.27,2.47.18.02.36.06.53.16.61.33.87,1.05.64,1.69.49.4.96.84,1.39,1.3,1.46-2.14,1.66-4.99.36-7.37ZM320.93,40.77c-1.38-.75-2.84-1.22-4.3-1.46-.39.59-1.15.8-1.79.49-.7.77-1.33,1.62-1.85,2.55.09.16.18.32.29.47.22.33.46.64.73.92l-8.81,16.19c-.32-.13-.66-.23-.99-.3.37.69.67,1.4.91,2.14.3,0,.6.07.86.25.31.21.49.52.55.86.75-.02,1.5.02,2.24.12-.08-.13-.16-.26-.24-.39-.02-.02-.03-.05-.05-.07l9.25-16.71c.83.17,1.69.19,2.53.06.58-1.17.96-2.4,1.18-3.66-.45-.35-.65-.93-.5-1.46ZM323.11,42.23c-.27.21-.61.31-.94.29-.19,1.07-.51,2.13-.95,3.14.63-.19,1.24-.48,1.82-.86.55-.37,1.04-.8,1.45-1.27-.42-.46-.87-.9-1.36-1.3ZM321.91,34.12c.33.17.55.46.65.78.75-.11,1.5-.16,2.25-.15-1.22-1.66-3.04-2.63-4.96-2.83.46.65.85,1.33,1.19,2.05.29-.04.6,0,.88.15ZM297.74,66.23s-.02-.06-.03-.09c-.7-.07-1.39-.08-2.08-.03-.04.7.03,1.41.2,2.11.57-.73,1.22-1.39,1.91-1.98ZM304.19,68.54c-1.29-.91-2.68-1.56-4.12-1.97-.46.54-1.25.66-1.84.27-.78.67-1.5,1.43-2.12,2.28.18.44.4.87.67,1.28,1.41,2.12,3.76,3.23,6.13,3.15.71-1.1,1.24-2.27,1.6-3.48-.41-.4-.53-1-.32-1.52ZM306.46,63.66c-.04.1-.1.2-.16.3-.15.21-.35.37-.57.47.04.25.06.52.08.78.06.84.05,1.67-.03,2.5.17.04.36.11.51.23.57.4.74,1.15.43,1.76.44.46.85.95,1.22,1.46,1.75-1.99,2.24-4.82,1.23-7.3-.89-.15-1.8-.22-2.72-.18ZM305.21,70.43c-.32,1.04-.76,2.05-1.32,3,.92-.16,1.82-.51,2.64-1.06.3-.2.59-.42.85-.66-.36-.5-.76-.99-1.2-1.45-.3.18-.64.23-.98.18ZM285.49,34.69c.16.29.2.6.15.9,1.29.46,2.5,1.09,3.59,1.89.06-.04.11-.09.17-.12.68-.37,1.51-.12,1.88.55.09.17.14.34.16.51.67.02,1.34.1,2,.21,0,.1,0,.21,0,.31,0,.16,0,.32-.02.48-.7-.13-1.42-.22-2.14-.23-.01.03-.03.06-.04.09.63.69,1.21,1.45,1.7,2.27-.03.09-.07.17-.11.26.94-2.12.81-4.67-.56-6.75-1.3-1.97-3.42-3.07-5.62-3.15-.58.76-1.07,1.56-1.47,2.41.11.1.22.23.29.37ZM295.71,65.32c.64-.03,1.29-.02,1.94.03.04-.16.11-.33.22-.49.45-.63,1.31-.77,1.94-.32.06.05.11.09.16.14,1.18-.66,2.46-1.15,3.8-1.45-.02-.3.07-.61.26-.88.09-.14.21-.25.33-.34-.29-.88-.67-1.73-1.14-2.54-1.02-.08-2.07.05-3.06.43l-8.73-16.05c.44-.45.81-.95,1.11-1.49-.52-.94-1.16-1.81-1.87-2.58-.63.32-1.4.11-1.79-.49-1.47.24-2.92.71-4.3,1.46.15.53-.05,1.11-.5,1.46.21,1.25.6,2.48,1.17,3.65.78.13,1.59.13,2.38-.01,1.46,2.64,2.92,5.27,4.38,7.89,1.61,2.89,3.22,5.81,4.84,8.74-.59.85-.98,1.82-1.15,2.82ZM282.96,34.91c.1-.32.32-.61.65-.78.28-.15.58-.19.88-.15.34-.71.73-1.4,1.19-2.04-1.09.11-2.18.48-3.16,1.13-.71.47-1.3,1.04-1.78,1.69.74,0,1.48.04,2.22.15ZM282.41,42.23c-.49.4-.93.83-1.35,1.28.88,1.03,2.01,1.75,3.24,2.14-.44-1.01-.76-2.06-.95-3.13-.34.01-.67-.08-.94-.29ZM284.93,36.56c-.19.1-.39.16-.6.16-.27,1.05-.41,2.12-.41,3.2.1.05.18.12.27.19,0,0,.01-.01.02-.01,1.43-.78,2.94-1.27,4.47-1.52,0-.17.03-.33.09-.49-1.05-.77-2.22-1.37-3.47-1.81-.1.11-.22.2-.36.28ZM282.6,39.92c.17-.1.36-.14.53-.16.02-.82.11-1.65.27-2.47.05-.25.11-.51.17-.76-.21-.12-.39-.3-.51-.53-.06-.1-.1-.21-.13-.31-.9-.14-1.8-.18-2.7-.14-1.22,2.22-1.19,5.02.3,7.28.02.02.03.05.05.07.42-.46.88-.89,1.37-1.28-.23-.64.03-1.36.64-1.69Z"/>
    </clipPath>
    <linearGradient id="linear-gradient" x1="-6143.38" y1="1304.43" x2="-6068.46" y2="1366.27" gradientTransform="translate(6441.85 -1067.38) rotate(2.31)" gradientUnits="userSpaceOnUse">
      <stop offset=".52" stop-color="#000"/>
      <stop offset=".61" stop-color="#434343"/>
      <stop offset=".72" stop-color="#858585"/>
      <stop offset=".81" stop-color="#b9b9b9"/>
      <stop offset=".89" stop-color="#dfdfdf"/>
      <stop offset=".96" stop-color="#f6f6f6"/>
      <stop offset="1" stop-color="#fff"/>
    </linearGradient>
    <radialGradient id="radial-gradient" cx="-6326.59" cy="2792.56" fx="-6326.59" fy="2792.56" r="16.92" gradientTransform="translate(7054.21 -1454.95) rotate(11.3)" gradientUnits="userSpaceOnUse">
      <stop offset=".52" stop-color="#000"/>
      <stop offset=".61" stop-color="#434343"/>
      <stop offset=".72" stop-color="#858585"/>
      <stop offset=".81" stop-color="#b9b9b9"/>
      <stop offset=".89" stop-color="#dfdfdf"/>
      <stop offset=".96" stop-color="#f6f6f6"/>
      <stop offset="1" stop-color="#fff"/>
    </radialGradient>
    <radialGradient id="radial-gradient-2" cx="-6343.5" cy="2769.27" fx="-6343.5" fy="2769.27" r="16.92" xlink:href="#radial-gradient"/>
    <radialGradient id="radial-gradient-3" cx="-6325.47" cy="2800.91" fx="-6325.47" fy="2800.91" r="16.92" xlink:href="#radial-gradient"/>
    <radialGradient id="radial-gradient-4" cx="-6316" cy="2773.73" fx="-6316" fy="2773.73" r="16.92" xlink:href="#radial-gradient"/>
  </defs>
  <g class="cls-6">
    <g id="Capa_1" data-name="Capa 1">
      <polygon class="cls-12" points="504.95 79.17 15.88 79.17 0 0 489.07 0 504.95 79.17"/>
      <polygon class="cls-11" points="595.27 79.17 521.28 79.17 517.65 61.08 591.64 61.08 595.27 79.17"/>
      <g>
        <g>
          <g>
            <g>
              <path class="cls-5" d="M99.24,40.76h9.44v2.01h-1.02c-.65,0-1.06.08-1.24.23-.18.15-.27.52-.27,1.1v9.98h1.28c1.23,0,2.08-.06,2.55-.17.47-.11.86-.3,1.16-.57.34-.3.6-.72.79-1.25.19-.54.32-1.29.4-2.26h2.13v6.25h-15.22v-2.01h.9c.63,0,1.03-.07,1.21-.22.18-.15.26-.52.26-1.1v-8.65c0-.59-.09-.96-.26-1.11-.18-.15-.58-.22-1.21-.22h-.9v-2.01Z"/>
              <path class="cls-5" d="M115.89,56.08v-1.42h.7c.45,0,.73-.05.86-.16.13-.11.19-.37.19-.78v-6.12c0-.42-.06-.68-.19-.78-.12-.1-.41-.15-.86-.15h-.7v-1.42h6.78v1.42h-.7c-.45,0-.74.05-.87.16-.13.11-.19.37-.19.78v6.12c0,.41.06.67.19.78.13.11.42.16.87.16h.7v1.42h-6.78Z"/>
              <path class="cls-5" d="M123.35,56.08v-1.42h.64c.45,0,.73-.05.86-.16.13-.11.19-.37.19-.78v-6.12c0-.42-.06-.68-.19-.78-.12-.1-.41-.15-.86-.15h-.64v-1.42h6.71c1.5,0,2.6.2,3.3.62.7.41,1.05,1.05,1.05,1.93,0,.6-.2,1.12-.61,1.55-.41.44-1,.77-1.77,1,1,.21,1.75.53,2.24.99.49.45.73,1.04.73,1.78,0,1.06-.39,1.82-1.17,2.28-.78.46-2.1.69-3.95.69h-6.52ZM128.25,49.75h.77c.76,0,1.32-.13,1.67-.38.35-.25.52-.65.52-1.21,0-.52-.16-.91-.5-1.14-.33-.24-.87-.36-1.63-.36h-.84v3.08ZM128.25,54.66h.9c.85,0,1.47-.14,1.86-.42.39-.28.58-.72.58-1.33s-.2-1.09-.58-1.37c-.39-.28-1.02-.43-1.88-.43h-.89v3.54Z"/>
              <path class="cls-5" d="M140.88,53.72c0,.41.06.67.19.78.13.11.42.16.87.16h.61v1.42h-6.57v-1.42h.64c.45,0,.73-.05.86-.16.13-.11.19-.37.19-.78v-6.12c0-.42-.06-.68-.19-.78-.13-.1-.41-.15-.86-.15h-.64v-1.42h7.55c1.4,0,2.44.22,3.12.67.68.44,1.02,1.12,1.02,2.03,0,.64-.23,1.16-.68,1.58-.45.42-1.11.7-1.96.86.74.12,1.26.34,1.57.68.31.34.47.84.47,1.5v1.05c0,.45.04.76.11.92.07.16.2.24.39.24.22,0,.37-.12.46-.36.09-.24.13-.68.13-1.34h1.14c0,.05,0,.13,0,.22,0,.09,0,.16,0,.2,0,.99-.22,1.73-.65,2.2-.43.47-1.1.71-2.02.71-.97,0-1.67-.22-2.12-.67-.45-.45-.67-1.15-.67-2.11v-1.03c0-.6-.1-1-.31-1.18-.2-.18-.62-.28-1.27-.28h-1.4v2.59ZM140.88,49.71h1.21c.87,0,1.46-.11,1.77-.32.31-.21.47-.6.47-1.15,0-.58-.16-.99-.47-1.23-.31-.24-.86-.36-1.64-.36h-1.35v3.05Z"/>
              <path class="cls-5" d="M149.73,56.08v-1.42h.64c.44,0,.73-.05.86-.16.13-.11.19-.37.19-.78v-6.12c0-.42-.06-.68-.19-.78-.13-.1-.41-.15-.86-.15h-.64v-1.42h11.35v4.13h-1.51c-.1-.63-.21-1.11-.33-1.43-.13-.32-.3-.58-.51-.76-.21-.19-.49-.32-.82-.4-.33-.08-.93-.12-1.8-.12h-1.49v3.08h.29c.63,0,1.06-.11,1.27-.34.21-.23.32-.68.32-1.37h1.44v4.94h-1.44c-.02-.76-.12-1.25-.32-1.48-.19-.23-.62-.34-1.28-.34h-.29v3.49h1.54c1.26,0,2.11-.2,2.55-.62.44-.41.73-1.22.86-2.44h1.51v4.47h-11.35Z"/>
              <path class="cls-5" d="M164.31,44.38c.09,0,.18.02.25.05.08.03.14.07.19.12.05.05.09.11.12.18.03.07.04.15.04.23,0,.12-.03.23-.08.32-.05.09-.14.16-.26.2h0c.06.02.1.05.14.08.04.03.07.07.09.11.02.04.04.09.05.15.01.05.02.11.02.16,0,.03,0,.07,0,.12,0,.05,0,.09.01.14,0,.05.01.09.03.13.01.04.03.08.05.11h-.46c-.03-.07-.04-.15-.05-.24,0-.09-.02-.18-.03-.27-.02-.11-.05-.19-.1-.24-.05-.05-.13-.08-.25-.08h-.46v.82h-.46v-2.1h1.13ZM164.14,45.33c.11,0,.19-.02.24-.07.05-.05.08-.12.08-.23s-.03-.18-.08-.22c-.05-.05-.13-.07-.24-.07h-.5v.59h.5Z"/>
              <path class="cls-5" d="M164.08,47.32c-1.04,0-1.89-.85-1.89-1.89s.85-1.89,1.89-1.89,1.89.85,1.89,1.89-.85,1.89-1.89,1.89ZM164.08,43.88c-.85,0-1.55.69-1.55,1.55s.69,1.55,1.55,1.55,1.55-.69,1.55-1.55-.69-1.55-1.55-1.55Z"/>
            </g>
            <g>
              <path class="cls-5" d="M99.39,24.11v-1.95h9.55v1.96c-.11,0-.22-.01-.34-.02-.12,0-.29,0-.5,0-.69,0-1.14.12-1.37.35-.23.23-.34.88-.34,1.93v6.19c0,1.18.22,2.01.67,2.5.45.49,1.19.73,2.23.73,1.24,0,2.13-.23,2.66-.7.53-.46.8-1.25.8-2.34v-6.26c0-1.05-.12-1.71-.35-1.99-.23-.27-.71-.41-1.43-.41-.17,0-.3,0-.4,0-.09,0-.18.01-.25.02v-1.96h7.51v1.96c-.64,0-1.12.03-1.46.08-.34.06-.56.15-.67.29-.07.08-.13.23-.15.46-.03.23-.04.75-.04,1.56v6.53c0,1.65-.6,2.9-1.8,3.76-1.2.86-2.96,1.29-5.26,1.29-2.11,0-3.75-.42-4.93-1.28-1.17-.85-1.76-2.04-1.76-3.58v-6.79c0-.96-.11-1.59-.34-1.9-.23-.3-.65-.45-1.27-.45-.18,0-.32,0-.43,0-.11,0-.2,0-.29,0Z"/>
              <path class="cls-5" d="M120.35,29.06c0-.41-.07-.67-.2-.78-.13-.11-.43-.16-.9-.16h-.62v-1.43h5.7l4.57,7.62v-5.24c0-.41-.07-.67-.2-.78-.13-.11-.43-.16-.9-.16h-.68v-1.43h5.44v1.43h-.56c-.47,0-.77.06-.9.16-.13.11-.2.37-.2.78v8.55h-3.66l-4.89-8.13v5.75c0,.41.07.67.2.78.13.11.43.16.9.16h.68v1.43h-5.51v-1.43h.62c.47,0,.77-.05.9-.16s.2-.37.2-.78v-6.17Z"/>
              <path class="cls-5" d="M133.19,37.61v-1.43h.73c.46,0,.76-.05.89-.16.13-.11.19-.37.19-.79v-6.17c0-.42-.07-.69-.19-.79-.13-.1-.43-.16-.89-.16h-.73v-1.43h7.04v1.43h-.73c-.47,0-.77.06-.9.16-.13.11-.2.37-.2.78v6.17c0,.41.07.67.2.78.13.11.43.16.9.16h.73v1.43h-7.04Z"/>
              <path class="cls-5" d="M148.64,37.61h-3.32l-3.02-8.24c-.2-.55-.42-.9-.66-1.05-.24-.15-.62-.24-1.15-.26v-1.38h6.67v1.38c-.1,0-.19-.01-.29-.01-.1,0-.24,0-.4,0-.38,0-.64.04-.78.12-.14.08-.22.21-.22.4,0,.08.02.17.05.3.03.13.11.34.22.63l1.88,5.33,2.02-5.59c.09-.25.15-.43.18-.52.03-.09.04-.16.04-.21,0-.15-.08-.27-.26-.34-.17-.07-.43-.11-.78-.11-.14,0-.26,0-.33,0-.08,0-.15,0-.21.01v-1.38h5.17v1.38c-.55,0-.96.12-1.23.33-.27.22-.5.64-.7,1.28l-2.87,7.93Z"/>
              <path class="cls-5" d="M153.73,37.61v-1.43h.66c.46,0,.76-.05.89-.16.13-.11.2-.37.2-.79v-6.17c0-.42-.07-.69-.2-.79-.13-.1-.43-.16-.89-.16h-.66v-1.43h11.79v4.17h-1.56c-.1-.64-.21-1.12-.35-1.44-.13-.33-.31-.58-.53-.77-.22-.19-.5-.33-.85-.41-.35-.08-.97-.12-1.87-.12h-1.54v3.11h.3c.66,0,1.1-.11,1.32-.34.22-.23.33-.69.33-1.38h1.49v4.99h-1.49c-.02-.77-.13-1.26-.33-1.49-.2-.23-.64-.34-1.33-.34h-.3v3.52h1.6c1.31,0,2.19-.21,2.65-.62.46-.41.76-1.23.89-2.46h1.56v4.51h-11.79Z"/>
              <path class="cls-5" d="M172.11,35.24c0,.41.06.67.19.78.13.11.43.16.91.16h.63v1.43h-6.82v-1.43h.66c.46,0,.76-.05.89-.16.13-.11.19-.37.19-.79v-6.17c0-.42-.06-.69-.19-.79-.13-.1-.43-.16-.89-.16h-.66v-1.43h7.84c1.45,0,2.53.22,3.24.67.71.45,1.06,1.13,1.06,2.05,0,.64-.23,1.17-.7,1.59-.47.42-1.15.71-2.04.86.76.12,1.31.35,1.63.69.32.34.49.85.49,1.52v1.06c0,.46.04.77.11.93.07.16.21.24.4.24.23,0,.38-.12.47-.36.09-.24.13-.69.13-1.35h1.19c0,.05,0,.13.01.22,0,.09,0,.16,0,.2,0,1-.23,1.74-.67,2.22-.45.48-1.15.72-2.1.72-1,0-1.73-.22-2.2-.67-.47-.45-.7-1.16-.7-2.12v-1.04c0-.61-.11-1.01-.32-1.19-.21-.19-.65-.28-1.31-.28h-1.46v2.61ZM172.11,31.19h1.26c.9,0,1.52-.11,1.84-.32.32-.21.49-.6.49-1.16s-.16-1-.49-1.24c-.32-.24-.89-.36-1.7-.36h-1.4v3.08Z"/>
              <path class="cls-5" d="M183.15,37.75h-1.44v-4.3h1.6c.14.88.55,1.57,1.22,2.1.67.52,1.49.78,2.47.78.67,0,1.2-.12,1.58-.35.38-.23.57-.55.57-.95,0-.63-.71-1.1-2.14-1.4-.23-.05-.41-.08-.53-.11-1.24-.27-2.1-.49-2.58-.67-.48-.17-.87-.38-1.19-.6-.4-.29-.7-.63-.91-1.03-.21-.4-.31-.84-.31-1.32,0-1.1.42-1.96,1.27-2.57.85-.61,2.04-.91,3.59-.91.77,0,1.45.08,2.04.23.59.15,1.11.38,1.54.69l.35-.77h1.48v3.99h-1.63c-.1-.81-.47-1.44-1.09-1.9-.62-.46-1.44-.69-2.43-.69-.6,0-1.07.11-1.41.34-.35.23-.52.54-.52.92,0,.56.78.99,2.35,1.29.6.12,1.07.21,1.41.29,1.37.31,2.37.75,3,1.32.63.57.95,1.32.95,2.24,0,1.09-.44,1.95-1.33,2.59-.89.64-2.09.96-3.61.96-.73,0-1.44-.09-2.13-.27-.69-.18-1.26-.42-1.72-.71l-.48.8Z"/>
              <path class="cls-5" d="M193.22,37.61v-1.43h.73c.46,0,.76-.05.89-.16.13-.11.2-.37.2-.79v-6.17c0-.42-.07-.69-.2-.79-.13-.1-.42-.16-.89-.16h-.73v-1.43h7.04v1.43h-.73c-.47,0-.77.06-.9.16-.13.11-.2.37-.2.78v6.17c0,.41.07.67.2.78.13.11.43.16.9.16h.73v1.43h-7.04Z"/>
              <path class="cls-5" d="M200.97,37.61v-1.43h.66c.46,0,.76-.05.89-.16.13-.11.19-.37.19-.79v-6.17c0-.42-.07-.69-.19-.79-.13-.1-.43-.16-.89-.16h-.66v-1.43h6.31c2.38,0,4.14.45,5.29,1.34,1.15.89,1.73,2.27,1.73,4.11s-.58,3.23-1.73,4.12c-1.15.9-2.92,1.35-5.29,1.35h-6.31ZM206.06,36.18h1.22c1.12,0,1.93-.31,2.41-.93.48-.62.73-1.66.73-3.11s-.24-2.51-.73-3.12c-.49-.6-1.32-.91-2.5-.91h-1.14v8.07Z"/>
              <path class="cls-5" d="M214.34,37.61v-1.43h.43c.39,0,.67-.06.85-.17.18-.11.36-.41.53-.89l3.07-8.44h3.55l2.93,8.49c.15.41.31.68.47.82.17.13.41.19.75.19h.61v1.43h-6.58v-1.43h.5c.43,0,.72-.03.86-.08.15-.06.22-.16.22-.31,0-.05-.03-.12-.06-.23-.02-.05-.03-.09-.03-.12l-.46-1.34h-3.43l-.45,1.26c-.02.08-.04.15-.06.23-.02.08-.03.15-.03.21,0,.15.06.25.18.31.12.06.38.08.78.08h.58v1.43h-5.22ZM221.49,32.67l-1.2-3.45-1.22,3.45h2.42Z"/>
              <path class="cls-5" d="M227.63,37.61v-1.43h.66c.46,0,.76-.05.89-.16.13-.11.19-.37.19-.79v-6.17c0-.42-.06-.69-.19-.79-.13-.1-.43-.16-.89-.16h-.66v-1.43h6.31c2.38,0,4.14.45,5.29,1.34,1.15.89,1.73,2.27,1.73,4.11s-.58,3.23-1.73,4.12c-1.15.9-2.92,1.35-5.29,1.35h-6.31ZM232.72,36.18h1.22c1.12,0,1.93-.31,2.41-.93.49-.62.73-1.66.73-3.11s-.24-2.51-.73-3.12c-.49-.6-1.32-.91-2.5-.91h-1.14v8.07Z"/>
            </g>
            <g>
              <path class="cls-9" d="M56.21,73.4c18.79,0,34.03-15.23,34.03-34.03S75,5.35,56.21,5.35,22.18,20.59,22.18,39.38s15.23,34.03,34.03,34.03"/>
              <path class="cls-17" d="M56.21,73.83c-19,0-34.46-15.46-34.46-34.46S37.21,4.92,56.21,4.92s34.46,15.46,34.46,34.46-15.46,34.46-34.46,34.46ZM56.21,5.78c-18.53,0-33.6,15.07-33.6,33.6s15.07,33.6,33.6,33.6,33.6-15.07,33.6-33.6S74.73,5.78,56.21,5.78Z"/>
              <path class="cls-10" d="M56.21,63.44c13.28,0,24.04-10.76,24.04-24.04s-10.76-24.04-24.04-24.04-24.04,10.76-24.04,24.04,10.76,24.04,24.04,24.04"/>
              <path class="cls-17" d="M56.21,63.79c-13.45,0-24.38-10.94-24.38-24.38s10.94-24.38,24.38-24.38,24.38,10.94,24.38,24.38-10.94,24.38-24.38,24.38ZM56.21,15.71c-13.07,0-23.7,10.63-23.7,23.7s10.63,23.7,23.7,23.7,23.7-10.63,23.7-23.7-10.63-23.7-23.7-23.7Z"/>
              <path class="cls-3" d="M53.73,58.41s0-.04-.01-.06c-.11-.1-.26.01-.38-.07-2.01-.23-3.94-.73-5.77-1.61-2.22-1.06-4.13-2.54-5.84-4.3-.9-.93-1.7-1.96-2.52-2.96-.4-.48-.45-.84-.12-1.34.2-.3.33-.65.51-.98.07-.14.09-.21-.08-.3-1.84-1.02-3.74-1.92-5.72-2.66-.17-.07-.25-.06-.25.16-.02,1.14-.21,2.26-.43,3.36-.21,1.09-.66,2.12-1.09,3.14-.24.58-.56,1.14-.85,1.71-.12-.04-.13-.15-.17-.23-1.11-2.35-2.29-4.66-3.51-6.95-.55-1.03-1.26-1.98-1.91-2.96-.31-.48-.44-1.02-.46-1.56-.04-.81,0-1.63.09-2.43.08-.62.3-1.21.46-1.81.08-.29.18-.58.23-.88.09-.58.46-1.01.77-1.48.09-.14.19-.09.3-.06,1.85.46,3.7.9,5.53,1.45,2.02.61,4.04,1.21,6.01,2.01,3.2,1.29,6.21,2.91,8.94,5.04.2.15.28.28.23.56-.25,1.34-.55,2.66-1,3.95-.04.12-.1.23.04.34.74.55,1.5,1.08,2.29,1.58.07-.13.04-.25.04-.36-.02-1.01-.04-2.01-.07-3.01,0-.22.06-.36.26-.47,1.74-.9,3.57-1.45,5.53-1.56,2.7-.15,5.22.53,7.61,1.72,1.14.57.9.24.92,1.52,0,.54,0,1.08-.01,1.62,0,.02.01.04.02.08.19-.03.32-.16.47-.26.53-.36,1.05-.73,1.57-1.09.14-.09.17-.18.11-.35-.43-1.24-.73-2.51-.93-3.8-.03-.21.07-.46.28-.62,1.71-1.34,3.56-2.48,5.5-3.47,1.99-1.01,4.03-1.9,6.16-2.53,1.96-.58,3.9-1.21,5.88-1.72.96-.25,1.95-.39,2.92-.56.49-.09.81.14,1.01.59.67,1.46.87,3.04,1.16,4.59.13.68.03,1.4.03,2.1,0,.08-.05.16-.09.24-2,3.62-4,7.25-6,10.87-.02.03-.04.05-.08.11-.15-.25-.31-.48-.43-.73-.83-1.75-1.51-3.54-1.81-5.47-.12-.8-.25-1.6-.3-2.41-.01-.22-.08-.18-.23-.13-1.36.51-2.71,1.08-4.01,1.74-.54.27-1.07.57-1.61.84-.16.08-.2.15-.1.32.15.25.25.53.4.78.29.48.25.88-.11,1.33-1.04,1.34-2.13,2.64-3.37,3.81-2.23,2.09-4.77,3.66-7.74,4.49-.96.27-1.93.46-2.92.55-.63.06-.77-.07-.82-.71-.12-1.65-.26-3.3-.39-4.94-.01-.13,0-.25-.19-.28-.99-.14-1.98-.19-2.97-.03-.15.03-.22.05-.24.23-.14,1.83-.3,3.66-.43,5.49-.02.28-.04.54-.13.79h-.19Z"/>
              <path class="cls-12" d="M46.66,28.12c0-.18.02-.36-.13-.5-.06-.15,0-.31-.06-.46-.08-.16.02-.36-.09-.52-.04-.12.02-.26-.04-.38-.03-.13.05-.28-.06-.4-.07-.11-.05-.22,0-.33-.02-.04-.04-.08-.06-.11-.04-.22-.02-.45-.04-.67-.09-.28-.04-.56-.09-.84-.01-.15.03-.3-.07-.43.02-.15-.03-.29-.03-.43.01-.1-.03-.2.03-.29v-.2c-.09-.13-.06-.28-.1-.42,0-.24,0-.48,0-.73.01-.11-.03-.23.03-.33,0-.05,0-.1,0-.15-.11-.27-.04-.55-.09-.82-.01-.08.06-.11.13-.11h18.9c.08,0,.15,0,.23,0,.13.19.03.4.06.59v.48c0,.54,0,1.08,0,1.61-.07.28,0,.56-.03.83,0,.07,0,.13,0,.2-.05.13-.05.25,0,.38,0,.09,0,.18,0,.27-.16.15.03.35-.06.52v.39c-.09.1-.1.23-.1.35,0,.14-.05.27-.03.41,0,.55-.12,1.1-.13,1.65,0,.06,0,.13,0,.19-.07.1-.1.21-.06.34,0,.06,0,.12,0,.18-.17.27-.12.59-.2.89-.04.14-.04.28-.06.42,0,.11,0,.21-.06.31-.11.34-.09.71-.25,1.04-.12.1-.06.23-.07.35-.03.26-.12.5-.17.75-.02.09-.06.18-.1.27h0c-.04.13-.08.26-.11.4-.05.15-.08.31-.15.45h0c-.08.2-.17.41-.2.63-.02.05-.04.1-.06.14-.11.11-.1.28-.2.4,0,.01,0,.02,0,.04-.04.12-.1.22-.13.35-.04.08-.09.16-.13.24-.05.13-.1.25-.17.37-.08.17-.17.33-.22.51-.43.81-.91,1.59-1.49,2.31-.06.1-.15.18-.2.28,0,.02,0,.04,0,.06-.12.07-.2.18-.32.25,0,.05,0,.09,0,.14-.15.11-.3.22-.39.4-.23.23-.47.46-.7.7-.16.08-.26.24-.41.34-.04.04-.08.07-.13.11-.09.07-.17.14-.26.21-.03.05-.08.06-.14.07-.04.09-.11.14-.19.19-.3.32-.69.53-1.04.78-.09.04-.18.06-.25.13-.21.13-.43.26-.64.39-.24.21-.45.06-.66-.07-.04-.02-.08-.04-.12-.06-.1-.08-.23-.12-.33-.2-.59-.4-1.22-.74-1.75-1.23-.09-.06-.17-.14-.26-.2l-.13-.12c-.14-.1-.25-.24-.39-.34-.06-.07-.16-.08-.19-.17-.29-.21-.48-.51-.78-.71,0-.1-.08-.13-.13-.19-.08-.16-.24-.26-.33-.4-.04-.04-.07-.08-.11-.12-.07-.09-.15-.17-.21-.27-.02-.02-.04-.04-.06-.06-.05-.07-.11-.12-.14-.2-.53-.73-1.09-1.43-1.48-2.26-.15-.18-.2-.41-.34-.59l-.12-.25c-.06-.08-.06-.19-.14-.26,0-.05,0-.1-.06-.13-.07-.1-.08-.23-.14-.34-.08-.19-.16-.38-.24-.57-.1-.09-.08-.24-.17-.33-.01-.04-.03-.08-.04-.12-.08-.12-.1-.27-.14-.4,0-.18-.08-.32-.2-.45-.04-.1-.03-.21-.08-.31-.02-.12-.06-.23-.11-.34,0-.07.01-.14-.05-.19-.05-.11-.08-.24-.11-.36-.02-.13-.08-.24-.1-.36.01-.14-.07-.25-.13-.37-.03-.22-.11-.43-.13-.66,0-.07.01-.14-.05-.18-.06-.11-.06-.23-.11-.34-.03-.33-.15-.64-.16-.97"/>
              <path class="cls-12" d="M47.19,43.21c-.11.69-.27,1.39-.45,2.1-.38,1.46-.89,2.86-1.62,4.18-.13.24-.21.27-.44.1-2.95-2.19-6.1-4.03-9.51-5.43-2.9-1.19-5.9-2.01-9-2.48-.64-.1-.65-.09-.66-.75-.04-2.02.31-3.95,1.15-5.79.11-.24.22-.31.48-.26,4.83.94,9.53,2.26,13.97,4.41,2.06,1,4.01,2.17,5.82,3.57q.26.2.26.36"/>
              <path class="cls-12" d="M86.69,40.25c0,.32-.01.65,0,.97,0,.22-.08.29-.29.32-1.47.19-2.92.49-4.35.86-4.23,1.09-8.15,2.88-11.82,5.23-.78.5-1.56,1.01-2.3,1.58-.2.15-.44.2-.61.4-.08.09-.13-.05-.16-.12-.39-.66-.71-1.36-.99-2.07-.53-1.37-.88-2.8-1.14-4.24-.04-.2.07-.27.19-.36,2.18-1.69,4.55-3.05,7.07-4.17,3.47-1.55,7.1-2.63,10.81-3.44.67-.15,1.36-.26,2.03-.42.26-.06.34.03.43.24.68,1.48,1.06,3.03,1.13,4.66,0,.19,0,.39,0,.58h0"/>
              <path class="cls-12" d="M49.73,53.45c-.08-.06-.06-.13-.06-.19-.06-2.43-.11-4.86-.17-7.3,0-.23.08-.34.27-.44,3.3-1.63,6.69-1.79,10.16-.63.93.31,1.83.71,2.71,1.16.12.06.2.13.2.29-.03,2.32-.06,4.65-.09,6.97,0,.02-.02.03-.05.08-4.33-2.64-8.67-2.93-12.97.06"/>
              <path class="cls-12" d="M52.75,57.7c-1.59-.19-3.12-.63-4.59-1.29-3.23-1.45-5.76-3.76-7.94-6.49-.13-.17-.26-.34-.39-.51.02-.16.12-.11.21-.08,1.54.31,3.09.61,4.63.92,0,0,.02,0,.03,0,.16-.01.27.25.39.16.14-.11.22-.31.32-.48.35-.58.65-1.19.9-1.82.09-.22.15-.22.33-.08.7.53,1.43,1.04,2.19,1.5.19.11.27.24.27.46.02,1.22.06,2.44.07,3.66,0,.28.08.48.3.67,1.13,1.01,2.25,2.05,3.38,3.07.09.09.14.22.27.26-.11.14-.25.07-.38.05"/>
              <path class="cls-12" d="M59.51,57.33c0-.12.06-.15.11-.19,1.04-.95,2.05-1.93,3.13-2.82.41-.34.5-.66.5-1.13-.01-1.2.02-2.4.02-3.6,0-.24.08-.36.28-.49.66-.43,1.31-.87,1.95-1.33.19-.13.26-.14.35.09.28.73.63,1.42,1.03,2.09.14.24.47.25.57.18.37-.27.78-.3,1.19-.38,1.23-.25,2.46-.49,3.68-.74.05,0,.1-.05.17.03-3.32,4.33-7.35,7.53-12.97,8.3"/>
              <path class="cls-12" d="M86.41,42.12c-2.12,2.95-3.8,6.08-5.18,9.46-.11-.21-.2-.37-.28-.54-1.02-2.21-1.64-4.52-1.69-6.97,0-.27.09-.37.33-.45,1.83-.6,3.69-1.08,5.58-1.41.38-.07.78-.14,1.23-.1"/>
              <path class="cls-12" d="M26.29,42.2c1.99.3,3.94.77,5.85,1.38.02,0,.04.01.06.02q.88.28.83,1.19c-.14,2.39-.83,4.61-1.92,6.81-1.36-3.34-3.02-6.44-5.09-9.33.05-.18.17-.09.26-.07"/>
              <path class="cls-12" d="M49.83,53.98c1.22-.87,2.49-1.52,3.89-1.89.23-.06.28,0,.26.22-.14,1.65-.26,3.3-.39,4.94,0,.02-.02.04-.05.09-1.23-1.12-2.46-2.23-3.7-3.37"/>
              <path class="cls-12" d="M58.78,57.23c-.14-1.69-.26-3.33-.39-4.96-.02-.28.17-.16.27-.13.55.15,1.09.33,1.62.55.7.29,1.36.64,2.02,1.02.19.11.18.18.02.32-1.14,1.03-2.26,2.06-3.39,3.1-.03.03-.06.05-.15.11"/>
              <path class="cls-12" d="M43.71,49.56c-1.45-.29-2.89-.58-4.36-.87.24-.49.47-.94.7-1.39.04-.09.09-.14.2-.07,1.19.71,2.36,1.45,3.47,2.26,0,0,0,.02,0,.07"/>
              <path class="cls-12" d="M68.96,49.07c1.01-.72,2.06-1.37,3.12-2.01.18-.11.25-.08.33.1.15.33.32.66.49.98.09.17.06.24-.13.28-1.23.24-2.45.48-3.68.72-.08.04-.15.05-.14-.08"/>
              <path class="cls-5" d="M55.53,21.11c2.67,0,5.34,0,8.01,0,.32,0,.38.09.38.4-.04,1.82-.07,3.63-.25,5.44-.29,2.89-.82,5.71-2.15,8.33-1.22,2.39-2.99,4.26-5.32,5.6-.17.1-.28.08-.44-.01-3.14-1.79-5.23-4.47-6.57-7.78-.69-1.69-1.13-3.45-1.44-5.25-.36-2.11-.53-4.24-.58-6.38,0-.26.04-.34.32-.34,2.68.01,5.36,0,8.04,0"/>
              <path class="cls-20" d="M53.93,36.81c-.07-1.22.04-2.41.52-3.55.41-.99,1.01-1.83,2.01-2.32.51-.25,1.05-.25,1.58-.21.36.03.74.44.8.8.05.32-.13.64-.45.74-.12.04-.25.06-.38.08-.25.04-.35.18-.3.43.06.34.22.61.47.83.59.51.83,1.17.87,1.92.03.08.04.15-.01.22-.24.12-.5.05-.76.06-.22.02-.45-.02-.67.03-.03.01-.07.02-.11.03-.17.03-.35-.02-.52.05-.29.11-.6.09-.89.18-.08.02-.15.04-.23.07-.18.07-.39.08-.57.15-.1.03-.17.11-.26.16-.03.01-.05.02-.08.03-.16.04-.33.07-.47.17-.05.05-.1.1-.17.12-.13-.02-.26.14-.39.03"/>
              <path class="cls-12" d="M55.82,25.74c0-.74,0-1.47,0-2.2,0-.14,0-.25.19-.26.76-.03,1.52-.21,2.29-.15.59.04,1.13.24,1.65.51.12.06.14.15.13.26-.08,1.41-.16,2.82-.24,4.24,0,.14-.04.19-.19.15-1.2-.31-2.41-.34-3.62-.1-.19.04-.21-.05-.21-.21,0-.74,0-1.49,0-2.23"/>
              <path class="cls-12" d="M55.44,25.76c0,.73,0,1.47,0,2.2,0,.21-.06.26-.26.22-1.18-.22-2.36-.2-3.53.1-.18.05-.24.03-.25-.18-.06-1.37-.14-2.74-.22-4.11-.01-.23.07-.32.25-.42.81-.43,1.68-.52,2.57-.42.38.04.77.1,1.16.12.23.01.28.09.28.31-.01.72,0,1.45,0,2.17"/>
              <path class="cls-12" d="M60.76,25.66c-.08,1.16-.17,2.33-.24,3.49-.01.25-.09.27-.3.2-1.17-.41-2.36-.55-3.56-.22-.56.15-1.1.29-1.68.09-.59-.21-1.2-.28-1.82-.26-.71.02-1.39.16-2.06.39-.18.06-.27.08-.29-.17-.1-1.58-.22-3.17-.33-4.75-.01-.17-.03-.35-.05-.52-.01-.14-.04-.26.17-.28.19-.01.24.08.25.25.07,1.13.14,2.26.22,3.4.02.39.06.78.07,1.16,0,.19.07.25.25.19,1.36-.4,2.73-.33,4.1-.02.13.03.25.02.38-.01,1.35-.3,2.69-.37,4.03.02.27.08.27-.06.29-.26.09-1.48.19-2.95.29-4.43,0-.09-.02-.21.07-.27.08-.06.19-.05.28,0,.11.04.07.14.06.22-.05.59-.09,1.18-.14,1.78h0"/>
              <path class="cls-20" d="M59.04,36.62c-.78.36-1.6.62-2.44.81-.05-.03-.08-.07-.09-.13-.02-.33-.23-.34-.48-.32-.17,0-.25.08-.27.26,0,.12.02.27-.11.36-.51.03-1.01.07-1.52.1-.19.02-.28-.03-.16-.23.06-.13.22-.14.29-.25.04-.04.1-.07.16-.08.19-.03.36-.11.51-.22.03-.02.05-.03.08-.04.1-.03.2-.05.3-.08.17-.03.33-.09.47-.21.03-.01.06-.02.09-.02.16.01.31-.05.47-.06.4-.1.81-.09,1.2-.16.04-.01.07-.02.11-.02.45.02.91-.07,1.36.06.06.07.06.15,0,.22"/>
              <path class="cls-12" d="M55.66,37.58c0-.06.02-.13.02-.19.01-.53.11-.61.66-.53.15.02.23.09.24.25,0,.11.02.21.02.32,0,.62-.01,1.25-.02,1.87,0,.37-.03.38-.49.4-.3.01-.43-.07-.42-.4.02-.57,0-1.14-.01-1.71"/>
              <path class="cls-2" d="M54.43,37.21s-.08.03-.12.05c-.12.05-.24.15-.39.07,0-.12,0-.24,0-.37.1-.13.25-.17.41-.21.02-.04.04-.09.06-.13.2,0,.37-.09.54-.18.03,0,.06,0,.08,0,.1-.06.19-.12.3-.14.18-.07.38-.1.56-.16.15-.04.29-.1.45-.09.4-.1.82-.13,1.22-.18.04-.01.08-.02.11-.02.45.02.91-.07,1.36.05.08.13.04.27.03.41-.02.03-.06.06-.1.07-.35.02-.7,0-1.05.01-.15.01-.3-.03-.44.05-.14.03-.29.01-.43.02-.3.06-.61.08-.91.15-.1,0-.18.1-.29.04h-.03c-.16.14-.37.15-.56.21-.07.06-.17.07-.24.11-.02,0-.03,0-.05,0-.15.14-.39.11-.54.26"/>
              <path class="cls-4" d="M54,36.99l-.14-.22c.08-.05,1.91-1.23,5.22-1.09v.26c-3.23-.13-5.06,1.04-5.08,1.05Z"/>
              <path class="cls-4" d="M54.03,37.5l-.14-.21c.08-.05,1.88-1.22,5.18-1.09v.26c-3.23-.13-5.02,1.03-5.04,1.05Z"/>
              <path class="cls-5" d="M82.84,39.33s.01.05.01.06c.08.34.22.58.43.72.2.14.46.17.78.1.32-.08.54-.23.68-.45.14-.22.16-.49.09-.81-.04-.16-.09-.29-.16-.39-.06-.1-.15-.18-.25-.24-.09-.05-.32-.1-.71-.14-.06,0-.11-.01-.13-.02-.25-.03-.43-.08-.51-.15-.09-.07-.15-.19-.19-.35-.04-.17-.02-.32.06-.44.08-.12.2-.21.38-.25.17-.04.32-.02.43.06.12.08.2.22.24.41v.04s.36-.08.36-.08c0-.01,0-.02,0-.05,0-.02,0-.03,0-.04-.07-.27-.19-.47-.39-.58-.19-.12-.43-.14-.7-.08-.29.07-.5.2-.62.41-.12.2-.15.46-.08.75.04.15.09.28.16.39.07.1.17.19.28.25.07.04.25.07.55.11.11.01.19.03.25.03.25.03.42.08.51.15.08.07.15.19.18.35.05.2.03.36-.05.5-.08.14-.21.23-.4.28-.21.05-.38.03-.51-.07-.13-.09-.23-.25-.28-.49l-.03-.12-.36.08s0,.03.01.06M82.7,40.47l-.89-3.37-.39.1.89,3.37.38-.1ZM81.28,40.86l-.88-3,.8-.24-.1-.34-2.04.6.1.35.86-.25.88,3.01.38-.11ZM78.45,41.74l-.08-1.03,1.05-.35.57.87.38-.12-2.02-3-.47.16.2,3.61.37-.12ZM78.21,38.46l1.02,1.59-.88.29-.14-1.88ZM77.61,42.03l-1.1-2.93.78-.3-.13-.34-1.99.75.13.33.83-.31,1.1,2.93.37-.14ZM74.76,43.17l-.6-1.43.46-.19c.25-.1.43-.14.56-.1.13.04.25.17.37.38.04.08.09.18.16.32.13.27.23.43.31.49l.44-.19c-.12-.04-.27-.23-.44-.57-.07-.13-.12-.24-.16-.31-.11-.2-.23-.33-.36-.4-.13-.06-.29-.06-.48,0,.18-.14.29-.29.34-.46.04-.17.02-.36-.07-.58-.12-.28-.28-.45-.5-.52-.22-.07-.49-.03-.83.11l-.9.38,1.36,3.22.35-.15ZM73.54,40.27l.51-.21c.23-.1.42-.13.56-.08.14.05.25.16.34.36.09.2.09.38.02.53-.08.14-.24.27-.49.38l-.44.18-.49-1.16ZM74.06,43.49l-.16-.33-1.22.6-.57-1.15,1.13-.56-.16-.32-1.13.56-.5-1,1.2-.6-.16-.32-1.55.77,1.56,3.12,1.56-.78ZM71.26,44.98c.27-.17.44-.37.5-.61.06-.24,0-.5-.16-.77-.13-.21-.27-.35-.43-.42-.16-.07-.33-.07-.52,0,.11-.12.17-.26.17-.41,0-.15-.05-.31-.16-.49-.16-.26-.34-.41-.53-.45-.2-.04-.44.03-.72.19l-.78.48,1.82,2.97.81-.49ZM69.9,43.84l.37-.22c.23-.14.42-.19.57-.16.15.03.29.16.42.37.12.19.16.36.12.5-.04.14-.16.27-.36.39l-.42.26-.7-1.14ZM69.12,42.56l.33-.2c.22-.13.39-.19.52-.17.13.02.25.12.36.3.12.19.16.35.12.48-.04.13-.16.26-.37.38l-.35.21-.61-1ZM70.06,45.76l-2.02-2.85-.33.23,2.02,2.85.32-.23ZM69.48,46.12l-.25-.28-1.05.92-2.06-2.34-.29.26,2.3,2.62,1.34-1.18Z"/>
              <path class="cls-5" d="M58.69,48.74s-.02.04-.02.06c-.12.33-.14.61-.04.83.09.23.29.4.6.51.31.11.58.11.81,0,.23-.11.41-.32.52-.63.05-.15.08-.29.08-.41,0-.12-.03-.24-.08-.34-.04-.09-.21-.26-.51-.51-.04-.04-.08-.07-.1-.09-.19-.16-.31-.3-.35-.41-.03-.11-.02-.25.03-.4.06-.16.16-.28.29-.33.13-.06.28-.06.45,0,.16.06.27.16.33.29.05.13.05.29-.02.48v.03s.32.12.32.12c0,0,0-.02.02-.04s.01-.03.02-.04c.1-.26.1-.5,0-.7-.1-.2-.28-.35-.54-.45-.28-.1-.53-.1-.75,0-.22.1-.38.3-.48.58-.05.15-.08.28-.08.41,0,.13.04.25.1.36.04.07.17.2.4.39.08.07.15.12.19.16.19.17.3.3.33.41.03.11.02.23-.04.39-.07.19-.18.32-.32.39-.14.07-.31.07-.49,0-.2-.07-.33-.19-.39-.34s-.05-.34.03-.56l.04-.12-.35-.13s-.01.03-.02.05M56.31,49.59l.08-3.08,1.12,3.12.5.02.12-3.49h-.38s-.07,2.98-.07,2.98l-1.1-3.03-.52-.02-.12,3.49h.37ZM53.6,49.58c.22.25.53.35.92.28.39-.07.65-.26.77-.56.12-.31.13-.79.01-1.43-.11-.65-.28-1.09-.5-1.34-.22-.25-.53-.33-.92-.27-.39.07-.64.26-.77.57-.12.31-.13.79-.02,1.43.11.63.28,1.08.5,1.33M53.46,47.01c.07-.23.23-.37.49-.41.26-.05.46.03.6.21.14.19.26.56.36,1.12.1.56.11.95.05,1.18-.07.22-.23.36-.49.4-.26.05-.46-.03-.6-.22-.14-.19-.26-.57-.36-1.12-.1-.55-.11-.94-.04-1.17M52.17,50.39l-.54-1.56,1.07-.37-.12-.34-1.07.37-.37-1.06,1.14-.4-.11-.33-1.52.53,1.15,3.29.38-.13Z"/>
              <path class="cls-5" d="M41.32,45.33l.82-.63.87.68-.42.95.31.25,1.4-3.34-.39-.31-2.91,2.15.31.24ZM43.92,43.33l-.77,1.72-.73-.57,1.5-1.15ZM40.74,44.96l1.87-2.94-.34-.21-1.87,2.95.34.21ZM39.45,44.17l1.53-2.73.73.41.17-.31-1.85-1.04-.18.31.78.44-1.54,2.73.35.2ZM36.54,42.69l1.28-2.8-.2,3.31.45.21,1.48-3.16-.34-.16-1.24,2.72.18-3.22-.47-.22-1.48,3.16.34.16ZM35.79,42.36l.14-.34-1.26-.51.48-1.19,1.17.47.13-.33-1.17-.47.42-1.04,1.25.51.14-.34-1.6-.65-1.31,3.24,1.62.65ZM33.68,41.52l1.21-3.27-.37-.14-1.2,3.27.37.14ZM32.87,39.93c-.09.29-.22.49-.37.61-.15.12-.32.15-.51.09-.23-.08-.37-.24-.4-.48-.03-.25.04-.61.2-1.11.17-.51.34-.85.51-1.04.17-.19.37-.24.6-.17.18.06.31.17.37.34.06.16.06.36-.02.59l.36.12v-.04c.12-.32.12-.6.02-.83-.11-.23-.31-.4-.61-.5-.36-.12-.67-.07-.92.15-.25.22-.48.64-.69,1.25-.19.59-.26,1.05-.19,1.39.07.34.28.56.62.67.32.11.6.08.85-.09.24-.17.44-.46.58-.88l-.37-.12-.02.05ZM28.82,38.87s-.01.04-.02.06c-.1.34-.09.62.02.84.11.22.32.37.63.46.31.09.59.07.81-.06.23-.13.39-.35.47-.67.04-.15.06-.29.05-.41,0-.12-.04-.23-.1-.33-.05-.08-.23-.24-.55-.47-.05-.03-.08-.06-.11-.08-.2-.15-.33-.28-.37-.38-.04-.11-.04-.24,0-.4.05-.17.14-.29.26-.36.13-.07.28-.08.45-.03.17.05.28.13.35.27.06.13.07.29.01.48v.04s.33.1.33.1c0-.01,0-.02.01-.04,0-.02.01-.03.01-.04.07-.27.06-.5-.05-.7-.11-.2-.3-.33-.58-.41-.29-.08-.54-.06-.74.06-.21.12-.35.32-.44.62-.04.15-.06.29-.04.42.01.13.06.24.13.35.04.06.19.19.43.36.09.06.16.11.2.15.2.15.32.28.36.38.04.1.04.23,0,.39-.05.2-.15.34-.29.42-.14.08-.3.1-.49.04-.21-.06-.35-.16-.42-.31-.07-.15-.08-.33-.01-.56l.03-.12-.36-.1s0,.03-.02.05"/>
              <path class="cls-12" d="M71.02,62.06l.03-.02,1.75,2.04-.63.42-1.14-2.44ZM69.85,61.65l2.27,5.39.9-.6-.5-1.11.86-.57.8.91.99-.66-4-4.24-1.31.87ZM66.72,63.32l2.59,5.13,1.1-.55-2.59-5.13-1.1.55ZM64.56,67.49l.13-.04c.52-.18.73-.08.91.43l.11.32c.17.51.07.72-.45.9l-.13.04-.57-1.64ZM63.8,65.29l.1-.04c.45-.15.65-.07.8.37l.09.28c.15.44.04.63-.4.78l-.1.04-.49-1.43ZM62.44,64.86l1.87,5.43,1.49-.51c1.08-.37,1.43-.88,1.11-1.8l-.17-.48c-.21-.6-.66-.87-1.32-.76.53-.32.68-.78.46-1.41l-.08-.23c-.32-.91-.9-1.1-1.98-.73l-1.4.49ZM56.87,65.63l.76,5.69.95-.13-.62-4.67h.08s1.23,4.58,1.23,4.58l1.09-.15.06-4.76h.07s.62,4.66.62,4.66l1.01-.13-.76-5.69-1.63.22-.06,4.17h-.06s-1.08-4.01-1.08-4.01l-1.66.22ZM55.61,67.42c.08-1.48-.24-2.05-1.54-2.13-1.3-.07-1.68.45-1.77,1.94l-.1,1.85c-.09,1.48.23,2.06,1.54,2.13,1.3.07,1.69-.46,1.77-1.95l.11-1.85ZM54.4,67.09l-.14,2.37c-.03.6-.1.88-.49.86-.4-.02-.42-.3-.39-.91l.14-2.37c.03-.6.1-.88.49-.86.39.02.42.31.38.91M49.03,64.48l-1.26,5.6,2.56.58.2-.86-1.37-.31,1.06-4.74-1.19-.27ZM47.08,65.85c.55-1.38.43-2.02-.78-2.51-1.21-.48-1.74-.11-2.29,1.27l-.69,1.72c-.55,1.37-.44,2.02.78,2.51,1.21.48,1.75.1,2.3-1.28l.69-1.72ZM46.05,65.15l-.89,2.21c-.23.56-.38.8-.74.66-.37-.15-.3-.42-.08-.99l.89-2.21c.23-.56.38-.8.73-.66.37.15.3.42.08.98M42.94,63.55c.64-1.05.54-1.63-.44-2.24-1.12-.69-1.71-.4-2.48.86l-.97,1.57c-.78,1.26-.78,1.92.34,2.61,1,.62,1.59.45,2.24-.6l.17-.27-1.04-.64-.17.28c-.28.46-.47.64-.75.46-.31-.19-.19-.46.12-.97l1.25-2.03c.31-.51.5-.73.81-.54.31.19.19.45-.12.96l-.07.11,1.01.62.12-.19Z"/>
              <path class="cls-12" d="M85.35,26.9l-5.46,2.08.99,2.6.84-.32-.51-1.35,1.59-.61.44,1.16.84-.32-.44-1.16,1.34-.51.47,1.24.84-.32-.95-2.49ZM82.79,23.81l.06.1c.26.46.2.69-.24.93l-.28.15c-.44.25-.66.18-.92-.28l-.06-.1,1.44-.81ZM82.93,22.29l-5.1,2.85.61,1.09,2.16-1.2.07.12c.3.54.19.67-.26.92l-1.57.88.65,1.16,1.26-.7c.86-.48,1.08-.93.66-1.85.56.76,1.07.88,1.79.48l.21-.12c.86-.48.93-1.13.31-2.22l-.79-1.42ZM77.95,21.05l.09.11c.37.46.36.72-.06,1.06l-.27.21c-.42.34-.67.3-1.05-.16l-.09-.11,1.38-1.11ZM79.8,19.56l.07.09c.33.41.32.63-.04.93l-.23.19c-.37.29-.6.25-.92-.15l-.07-.09,1.2-.97ZM79.68,18.04l-4.55,3.67,1.08,1.34c.78.98,1.42,1.16,2.18.55l.41-.33c.5-.4.58-.96.23-1.58.51.43,1.03.44,1.55.02l.19-.15c.77-.62.72-1.26-.06-2.24l-1.02-1.27ZM77.36,15.81l-3.99,4.28.99.92,3.98-4.28-.98-.91ZM74.26,13.32l-3.56,4.64,2.28,1.75.55-.72-1.22-.94,3.01-3.92-1.06-.81ZM65.76,10.13l.12.04c.49.17.62.37.47.82l-.93,2.65c-.16.44-.38.52-.88.35l-.12-.04,1.34-3.81ZM64.79,8.83l-1.94,5.52,1.22.43c.78.28,1.34.39,1.83.15.47-.23.74-.71,1.01-1.48l.49-1.38c.27-.77.37-1.31.14-1.78-.25-.52-.75-.76-1.52-1.03l-1.22-.43ZM61.05,9.11h.03s-.1,2.74-.1,2.74l-.82-.14.88-2.6ZM60.41,7.99l-2.15,5.57,1.17.19.42-1.17,1.11.18-.03,1.24,1.28.21-.1-5.94-1.7-.28ZM55.41,8.64h.13c.52-.01.72.13.72.61l.04,2.81c0,.47-.18.62-.71.63h-.13s-.05-4.04-.05-4.04ZM54.05,7.75l.07,5.84,1.29-.02c.83-.01,1.39-.09,1.77-.48.37-.38.45-.92.44-1.74l-.02-1.46c0-.81-.11-1.36-.48-1.72-.41-.4-.96-.46-1.78-.45l-1.29.02ZM50.95,8.15l.81,5.79,1.33-.19-.81-5.79-1.33.19ZM49.62,9.71c-.24-.88-.87-1.2-1.83-.94-1.06.29-1.54,1-1.34,1.72l.13.5c.15.56.47.86,1.05,1.06l.63.22c.46.15.78.26.9.69l.06.22c.09.34.05.5-.23.58-.28.08-.41-.04-.51-.38l-.13-.48-1.3.35.11.42c.27.99.81,1.3,1.98.99,1.12-.31,1.6-.96,1.37-1.82l-.09-.34c-.09-.34-.21-.58-.42-.76-.24-.21-.53-.28-.8-.37l-.63-.22c-.43-.14-.68-.28-.77-.62l-.1-.37c-.08-.29-.04-.43.2-.49.24-.07.35.03.43.32l.13.5,1.26-.34-.11-.42ZM42.69,11.71l.11-.05c.47-.22.7-.15.91.31l.13.29c.21.46.13.67-.35.9l-.11.05-.7-1.49ZM41.18,11.45l2.47,5.3,1.14-.53-1.04-2.24.13-.06c.56-.26.68-.14.9.32l.76,1.63,1.21-.56-.61-1.3c-.42-.9-.85-1.14-1.79-.79.8-.51.96-1,.61-1.75l-.1-.22c-.41-.89-1.05-1-2.19-.47l-1.47.69ZM37.31,13.95l3.33,4.81,2.28-1.58-.51-.74-1.19.82-.97-1.4,1.02-.7-.51-.74-1.01.7-.82-1.18,1.09-.76-.51-.74-2.19,1.52ZM33.44,17.32l4.84,3.48,1.04-.97-3.2-5.01-.82.77,2.55,3.56-.07.06-3.38-2.78-.96.9ZM31.68,19.34l4.46,3.78.87-1.03-4.47-3.77-.87,1.03ZM28.5,23.87l4.88,3.21.59-.9-4.18-2.64.05-.07,4.65,1.93.97-1.48-4.88-3.21-.6.91,4.19,2.64-.05.08-4.66-1.91-.96,1.46ZM26.19,29.1l3.58,1.46c1.39.57,2.06.44,2.6-.86.53-1.3.15-1.88-1.25-2.45l-3.58-1.46-.51,1.24,3.83,1.56c.57.23.82.38.67.75-.15.38-.43.31-1,.07l-3.83-1.56-.5,1.24Z"/>
            </g>
          </g>
          <g>
            <path class="cls-5" d="M101.44,63.91l-1.59-4.56h.44l1.38,4.03,1.38-4.03h.42l-1.58,4.56h-.45Z"/>
            <path class="cls-5" d="M103.92,59.92v-.57h.38v.57h-.38ZM103.92,63.91v-3.29h.38v3.29h-.38Z"/>
            <path class="cls-5" d="M108.02,60.61v3.12c0,1.01-.52,1.52-1.56,1.52-.35,0-.64-.07-.87-.22-.27-.17-.42-.42-.45-.74h.39c.05.41.35.62.92.62.79,0,1.19-.39,1.19-1.17v-.41c-.27.44-.65.65-1.15.65s-.85-.17-1.11-.52c-.23-.31-.35-.71-.35-1.21s.12-.9.35-1.21c.26-.35.63-.52,1.11-.52.5,0,.89.22,1.15.65v-.57h.37ZM105.44,62.26c0,.4.08.72.25.97.19.29.48.43.86.43s.67-.14.87-.43c.17-.24.25-.57.25-.97s-.08-.73-.25-.97c-.19-.28-.48-.42-.87-.42s-.68.14-.87.42c-.16.24-.24.56-.24.97Z"/>
            <path class="cls-5" d="M108.9,59.92v-.57h.38v.57h-.38ZM108.9,63.91v-3.29h.38v3.29h-.38Z"/>
            <path class="cls-5" d="M110.21,63.91v-4.56h.38v4.56h-.38Z"/>
            <path class="cls-5" d="M113.62,63.43c-.34.37-.75.56-1.22.56-.31,0-.57-.08-.77-.24-.21-.17-.32-.41-.32-.72,0-.39.18-.66.53-.82.19-.09.52-.15.98-.19l.2-.02s.06-.01.11-.02c.31-.06.47-.2.47-.41,0-.27-.07-.46-.21-.57-.13-.1-.33-.15-.6-.15-.6,0-.9.24-.93.73h-.37c0-.36.14-.63.41-.82.23-.17.53-.25.9-.25.8,0,1.2.33,1.2,1v1.8c0,.12.01.19.03.23.03.05.1.07.2.07.05,0,.09,0,.14,0v.28c-.09.02-.19.03-.27.03-.31,0-.47-.15-.47-.45v-.05ZM113.59,62.18c-.19.07-.58.12-1.15.15-.49.13-.74.36-.74.7,0,.2.08.36.23.47.13.1.31.15.52.15.33,0,.6-.08.81-.25.22-.18.33-.43.33-.76v-.46Z"/>
            <path class="cls-5" d="M117.7,59.34v4.56h-.38v-.56c-.25.43-.64.65-1.16.65-.48,0-.84-.17-1.1-.52-.23-.31-.34-.71-.34-1.21s.12-.9.35-1.21c.26-.35.63-.52,1.11-.52.52,0,.9.22,1.14.65v-1.84h.38ZM115.13,62.26c0,.4.08.72.25.97.19.28.48.43.86.43s.68-.14.87-.42c.16-.24.24-.56.24-.98s-.08-.73-.25-.98c-.19-.28-.48-.42-.87-.42s-.68.14-.87.42c-.16.24-.24.56-.24.97Z"/>
            <path class="cls-5" d="M120.7,63.43c-.34.37-.75.56-1.22.56-.31,0-.57-.08-.77-.24-.21-.17-.32-.41-.32-.72,0-.39.18-.66.53-.82.19-.09.52-.15.98-.19l.2-.02s.06-.01.11-.02c.31-.06.47-.2.47-.41,0-.27-.07-.46-.21-.57-.13-.1-.33-.15-.6-.15-.6,0-.9.24-.93.73h-.37c0-.36.14-.63.41-.82.23-.17.53-.25.9-.25.8,0,1.2.33,1.2,1v1.8c0,.12.01.19.03.23.03.05.1.07.2.07.05,0,.09,0,.14,0v.28c-.09.02-.19.03-.27.03-.31,0-.47-.15-.47-.45v-.05ZM120.68,62.18c-.19.07-.58.12-1.15.15-.49.13-.74.36-.74.7,0,.2.08.36.23.47.13.1.31.15.52.15.33,0,.6-.08.81-.25.22-.18.33-.43.33-.76v-.46Z"/>
            <path class="cls-5" d="M123.73,63.91v-4.56h.59l1.5,4.01,1.48-4.01h.59v4.56h-.41v-3.98l-1.46,3.98h-.39l-1.49-3.98v3.98h-.41Z"/>
            <path class="cls-5" d="M128.86,59.92v-.57h.38v.57h-.38ZM128.86,63.91v-3.29h.38v3.29h-.38Z"/>
            <path class="cls-5" d="M130.12,63.91v-3.29h.37v.53c.25-.41.61-.61,1.09-.61s.8.15.99.46c.09.14.13.41.13.81v2.1h-.39v-2.04c0-.35-.05-.59-.14-.73-.12-.17-.34-.26-.66-.26s-.57.1-.75.31c-.17.19-.25.45-.25.78v1.94h-.39Z"/>
            <path class="cls-5" d="M133.76,62.33v.02c0,.37.08.67.25.91.19.27.46.41.82.41.25,0,.47-.07.64-.2.18-.14.29-.33.33-.58h.38c-.04.35-.2.62-.46.82-.25.19-.55.28-.91.28-.48,0-.85-.17-1.1-.51-.22-.3-.33-.7-.33-1.2s.11-.92.33-1.22c.25-.35.62-.52,1.11-.52s.83.17,1.08.5c.22.3.33.69.33,1.18v.13h-2.46ZM133.76,62.03h2.07c-.01-.34-.1-.61-.26-.81-.18-.24-.43-.35-.75-.35s-.58.12-.77.35c-.17.21-.27.48-.28.82Z"/>
            <path class="cls-5" d="M139.73,59.34v4.56h-.38v-.56c-.25.43-.64.65-1.16.65-.48,0-.84-.17-1.1-.52-.23-.31-.34-.71-.34-1.21s.12-.9.35-1.21c.26-.35.63-.52,1.11-.52.52,0,.9.22,1.14.65v-1.84h.38ZM137.15,62.26c0,.4.08.72.25.97.19.28.48.43.86.43s.68-.14.87-.42c.16-.24.24-.56.24-.98s-.08-.73-.25-.98c-.19-.28-.48-.42-.87-.42s-.68.14-.87.42c-.16.24-.24.56-.24.97Z"/>
            <path class="cls-5" d="M143.16,60.61v3.29h-.37v-.53c-.25.41-.61.62-1.1.62-.74,0-1.12-.39-1.12-1.17v-2.21h.38v2.12c0,.31.06.54.17.67.12.15.34.23.64.23.32,0,.58-.1.76-.3.18-.19.26-.45.26-.78v-1.95h.38Z"/>
            <path class="cls-5" d="M146.28,62.77h.38c-.04.38-.18.68-.42.9-.25.21-.56.32-.95.32-.48,0-.84-.17-1.1-.51-.23-.3-.34-.7-.34-1.2s.11-.91.34-1.23c.26-.35.63-.53,1.12-.53.36,0,.66.1.89.29.25.21.38.48.4.84h-.37c-.03-.24-.13-.44-.3-.58-.17-.14-.38-.21-.63-.21-.36,0-.64.15-.83.44-.16.25-.24.56-.24.94s.08.71.24.96c.19.3.47.45.84.45.27,0,.48-.08.66-.25.16-.16.26-.38.3-.64Z"/>
            <path class="cls-5" d="M149.43,63.43c-.34.37-.75.56-1.22.56-.31,0-.57-.08-.77-.24-.21-.17-.32-.41-.32-.72,0-.39.18-.66.53-.82.19-.09.52-.15.98-.19l.2-.02s.06-.01.11-.02c.31-.06.47-.2.47-.41,0-.27-.07-.46-.21-.57-.13-.1-.33-.15-.6-.15-.6,0-.9.24-.93.73h-.37c0-.36.14-.63.41-.82.23-.17.53-.25.9-.25.8,0,1.2.33,1.2,1v1.8c0,.12.01.19.03.23.03.05.1.07.2.07.05,0,.09,0,.14,0v.28c-.09.02-.19.03-.27.03-.31,0-.47-.15-.47-.45v-.05ZM149.41,62.18c-.19.07-.58.12-1.15.15-.49.13-.74.36-.74.7,0,.2.08.36.23.47.13.1.31.15.52.15.33,0,.6-.08.81-.25.22-.18.33-.43.33-.76v-.46Z"/>
            <path class="cls-5" d="M152.95,62.77h.38c-.04.38-.18.68-.42.9-.25.21-.56.32-.95.32-.48,0-.84-.17-1.1-.51-.23-.3-.34-.7-.34-1.2s.11-.91.34-1.23c.26-.35.63-.53,1.12-.53.36,0,.66.1.89.29.25.21.38.48.4.84h-.37c-.03-.24-.13-.44-.3-.58-.17-.14-.38-.21-.63-.21-.36,0-.64.15-.83.44-.16.25-.24.56-.24.94s.08.71.24.96c.19.3.47.45.84.45.27,0,.48-.08.66-.25.16-.16.26-.38.3-.64Z"/>
            <path class="cls-5" d="M154,59.92v-.57h.38v.57h-.38ZM154,63.91v-3.29h.38v3.29h-.38Z"/>
            <path class="cls-5" d="M155.1,62.26c0-.52.12-.93.36-1.24.26-.33.65-.5,1.15-.5s.89.17,1.16.5c.24.3.36.71.36,1.24s-.12.93-.36,1.23c-.26.33-.65.49-1.15.49s-.89-.17-1.15-.5c-.24-.3-.36-.71-.36-1.23ZM155.5,62.26c0,.4.08.73.25.97.19.28.48.42.87.42s.68-.14.87-.42c.17-.24.25-.56.25-.97s-.08-.73-.25-.98c-.19-.28-.48-.42-.87-.42s-.68.14-.87.42c-.17.24-.25.57-.25.97ZM156.51,60.19h-.28l.65-1.08h.47l-.83,1.08Z"/>
            <path class="cls-5" d="M158.81,63.91v-3.29h.37v.53c.25-.41.61-.61,1.09-.61s.8.15.99.46c.09.14.13.41.13.81v2.1h-.39v-2.04c0-.35-.05-.59-.14-.73-.12-.17-.34-.26-.66-.26s-.57.1-.75.31c-.17.19-.25.45-.25.78v1.94h-.39Z"/>
          </g>
        </g>
        <g>
          <g>
            <g>
              <path d="M331.12,42.22c-.3-.17-.53-.43-.69-.75-.16-.33-.24-.73-.24-1.19v-4.38c0-.47.08-.86.24-1.19.16-.33.39-.58.68-.76.3-.17.66-.26,1.08-.26s.78.09,1.08.26c.3.17.53.43.68.76.16.33.23.73.23,1.19v.31h-.85v-.31c0-.29-.04-.54-.13-.75s-.22-.36-.39-.47c-.17-.11-.38-.16-.62-.16s-.45.05-.62.16c-.17.11-.3.27-.39.47-.09.21-.14.46-.14.75v4.38c0,.29.05.54.14.74.09.21.22.37.39.47.17.11.38.16.62.16s.45-.05.62-.16c.17-.11.3-.27.39-.47.09-.21.13-.45.13-.75v-.31h.85v.31c0,.46-.08.86-.23,1.19s-.38.58-.68.75c-.3.17-.66.26-1.08.26s-.78-.09-1.08-.26Z"/>
              <path d="M332.2,42.75c-.46,0-.87-.1-1.21-.3h0c-.35-.2-.61-.49-.79-.87-.17-.36-.26-.8-.26-1.3v-4.38c0-.5.09-.94.26-1.31.18-.38.45-.67.79-.87.34-.2.75-.3,1.21-.3s.88.1,1.22.3c.35.2.61.49.79.87.17.36.26.8.26,1.3v.58h-1.39v-.58c0-.25-.04-.47-.11-.64-.07-.16-.16-.27-.29-.35-.13-.08-.29-.12-.48-.12s-.35.04-.48.12c-.13.08-.22.2-.29.36-.08.17-.11.39-.11.64v4.38c0,.25.04.46.11.64.07.16.17.28.29.36.13.08.29.12.48.12s.35-.04.48-.12c.13-.08.22-.2.29-.35.07-.17.11-.39.11-.64v-.58h1.39v.58c0,.5-.09.94-.26,1.3-.18.38-.45.67-.79.87-.34.2-.75.3-1.22.3ZM331.26,41.99c.26.15.58.22.94.22s.69-.08.95-.22c.25-.15.44-.36.58-.64.14-.29.21-.65.21-1.07v-.05h-.32v.05c0,.33-.05.61-.16.85-.11.25-.28.45-.49.59-.21.14-.47.2-.77.2s-.55-.07-.76-.2c-.22-.14-.38-.34-.5-.59-.11-.24-.16-.53-.16-.85v-4.38c0-.33.05-.62.16-.86.11-.26.28-.45.5-.59.21-.14.47-.2.76-.2s.55.07.77.2c.22.14.38.34.49.59.1.24.16.52.16.85v.05h.32v-.05c0-.42-.07-.78-.21-1.07-.13-.28-.32-.49-.58-.64-.26-.15-.58-.22-.95-.22s-.69.08-.95.22c-.25.15-.44.36-.58.64-.14.29-.21.65-.21,1.08v4.38c0,.42.07.78.21,1.07.14.28.33.49.58.64h0Z"/>
            </g>
            <g>
              <path d="M340.3,33.78h1.03l1.99,8.61h-.95l-1.56-7.66-1.56,7.66h-.95l1.99-8.61ZM339.42,39.51h2.93v.79h-2.93v-.79Z"/>
              <path d="M343.66,42.66h-1.5l-.43-2.09h-1.83l-.43,2.09h-1.5l2.11-9.14h.7l.02-.12.02.12h.7l2.11,9.14ZM342.59,42.12h.4l-.38-1.63v.07h-.34l.32,1.56ZM338.65,42.12h.4l.32-1.56h-.21v-.63l-.51,2.19ZM340.01,40.03h1.61l-.05-.26h-1.51l-.05.26ZM342.01,39.24h.32l-1.2-5.19h-.17l1.06,5.19ZM340.17,39.24h1.29l-.65-3.17-.65,3.17ZM339.31,39.24h.32l1.06-5.19h-.17l-1.2,5.19Z"/>
            </g>
            <g>
              <path d="M352.45,33.78h.84v8.61h-.82v-6.92l.06.38-1.65,5.35h-.72l-1.65-5.23.06-.5v6.92h-.82v-8.61h.84l1.94,6.28,1.94-6.28Z"/>
              <path d="M353.55,42.66h-1.36v-4.85l-1.12,3.65h-1.11l-1.13-3.58v4.77h-1.36v-9.14h1.3l1.74,5.64,1.74-5.64h1.3v9.14ZM352.73,42.12h.29v-8.08h-.37l-.44,1.42.52-.04.07.44-.07.21v6.05ZM348.01,42.12h.29v-5.93l-.06-.2.07-.55.52.03-.44-1.42h-.37v8.08ZM350.52,40.93h.15l1.52-4.93v-.49l-1.67,5.42ZM350.35,40.93h.16l-1.67-5.42v.61l1.52,4.82Z"/>
            </g>
            <g>
              <path d="M357.84,33.78h.85v8.61h-.85v-8.61ZM358.46,38.26h1.84c.17,0,.32-.04.45-.12s.22-.19.29-.34c.07-.15.1-.33.1-.54v-1.68c0-.22-.03-.4-.1-.55-.07-.15-.16-.27-.28-.35-.12-.08-.28-.12-.45-.12h-1.84v-.79h1.79c.36,0,.67.07.93.21.26.14.46.35.59.62.14.27.2.6.2.98v1.69c0,.38-.07.7-.2.96-.14.26-.33.47-.59.6-.26.14-.57.21-.93.21h-1.79v-.79Z"/>
              <path d="M358.96,42.66h-1.39v-9.14h2.68c.41,0,.76.08,1.06.25.31.17.54.41.7.73.15.31.23.68.23,1.1v1.69c0,.42-.08.78-.23,1.08-.16.31-.4.55-.7.72-.3.16-.65.24-1.06.24h-1.3v3.34ZM358.11,42.12h.32v-2.81h-.23v-1.33h.23v-3.15h-.23v-.79h-.09v8.08ZM358.96,38.78h1.3c.32,0,.59-.06.81-.18.21-.11.37-.27.48-.49.12-.23.17-.51.17-.84v-1.69c0-.34-.06-.63-.18-.86-.11-.22-.27-.39-.48-.51-.22-.12-.49-.18-.8-.18h-1.3v.26h1.34c.23,0,.43.05.6.16.17.11.3.26.39.47.08.18.12.41.12.66v1.68c0,.25-.04.46-.12.64-.09.2-.22.35-.39.46-.17.1-.37.15-.59.15h-1.34v.26ZM358.96,37.99h1.34c.12,0,.23-.03.31-.08.08-.05.14-.12.18-.22.05-.11.08-.26.08-.43v-1.68c0-.18-.03-.33-.08-.45-.04-.1-.1-.18-.18-.23-.08-.05-.18-.08-.31-.08h-1.34v3.15Z"/>
            </g>
            <g>
              <path d="M367.49,42.26c-.29-.15-.5-.37-.65-.67-.14-.3-.22-.68-.22-1.13v-6.68h.85v6.72c0,.38.09.67.28.86.18.19.46.28.83.28s.65-.09.84-.28c.19-.19.28-.48.28-.86v-6.72h.85v6.68c0,.45-.07.82-.22,1.12-.15.3-.36.52-.65.67-.29.15-.65.23-1.09.23s-.8-.07-1.09-.22Z"/>
              <path d="M368.57,42.75c-.48,0-.89-.08-1.21-.25-.34-.17-.6-.44-.77-.79-.16-.33-.24-.75-.24-1.24v-6.95h1.39v6.99c0,.31.07.54.2.67.13.13.34.2.64.2s.51-.07.65-.2c.13-.14.2-.36.2-.67v-6.99h1.39v6.95c0,.49-.08.91-.25,1.24-.17.35-.43.62-.77.79-.33.17-.74.25-1.22.25ZM366.89,34.04v6.41c0,.41.06.75.19,1.01.12.25.29.43.53.55h0c.25.13.57.19.97.19s.72-.07.97-.2c.24-.12.42-.31.54-.55.13-.26.19-.6.19-1.01v-6.41h-.32v6.46c0,.45-.12.8-.35,1.05-.24.24-.58.36-1.03.36s-.78-.12-1.02-.37c-.23-.24-.35-.59-.35-1.04v-6.46h-.32Z"/>
            </g>
            <g>
              <path d="M375.87,42.26c-.31-.15-.54-.37-.7-.67-.15-.3-.23-.68-.23-1.13v-.43h.84v.43c0,.41.1.72.31.93.21.21.52.31.94.31s.72-.1.92-.31c.2-.21.31-.52.31-.93v-.51c0-.28-.06-.51-.18-.71-.12-.2-.28-.36-.47-.49-.19-.13-.44-.27-.74-.42-.01,0-.02,0-.03-.01,0,0-.02-.01-.03-.01l-.08-.04c-.39-.19-.7-.37-.94-.53-.23-.16-.43-.37-.6-.64-.16-.27-.25-.6-.25-.99v-.42c0-.44.08-.81.23-1.11.15-.3.38-.52.69-.66s.7-.22,1.16-.22.83.07,1.13.22c.3.15.53.37.68.67.15.3.22.67.22,1.12v.45h-.84v-.45c0-.41-.1-.72-.3-.92-.2-.21-.49-.31-.89-.31-.41,0-.73.1-.93.29-.21.2-.31.49-.31.88v.42c0,.26.07.49.2.68.13.19.29.34.48.46s.46.26.79.42c.03.02.06.03.09.04.03.01.06.03.09.04.02,0,.03.01.04.02.01,0,.03.01.04.02.32.16.6.33.82.5.22.17.41.39.55.67s.21.6.21,1v.54c0,.45-.08.82-.23,1.12-.15.3-.38.52-.69.67-.31.15-.69.23-1.15.23s-.86-.07-1.17-.22Z"/>
              <path d="M377.04,42.75c-.51,0-.94-.08-1.28-.25h0c-.36-.17-.64-.44-.82-.79-.17-.34-.26-.76-.26-1.25v-.69h1.37v.69c0,.34.08.59.23.74.15.15.41.23.76.23s.58-.08.73-.23c.15-.15.23-.4.23-.74v-.51c0-.22-.05-.41-.14-.57-.1-.16-.24-.3-.4-.41-.18-.12-.41-.26-.69-.4-.02,0-.04-.02-.06-.03l-.09-.05c-.4-.2-.72-.38-.97-.54-.27-.18-.49-.42-.68-.72-.19-.31-.29-.69-.29-1.13v-.42c0-.48.09-.9.26-1.23.18-.35.45-.61.81-.78.34-.16.77-.24,1.28-.24s.91.08,1.24.25c.35.17.62.44.8.79.17.33.25.75.25,1.24v.72h-1.37v-.72c0-.34-.07-.59-.22-.74-.14-.15-.38-.23-.7-.23-.34,0-.6.07-.75.22-.15.14-.23.37-.23.69v.42c0,.21.05.38.15.52.11.16.24.28.41.39.18.11.44.25.76.41.03.02.06.03.09.04.03.01.06.03.1.05.01,0,.02.01.03.01.02.01.04.02.06.03.33.17.62.34.85.52.25.19.46.45.62.75.16.31.24.69.24,1.12v.54c0,.49-.09.91-.26,1.24-.18.35-.45.62-.81.79-.34.17-.77.25-1.27.25ZM375.98,42.02c.27.13.63.2,1.05.2s.77-.07,1.03-.2c.26-.13.44-.31.57-.55.13-.26.2-.6.2-1v-.54c0-.35-.06-.64-.18-.87-.12-.24-.28-.43-.47-.58-.21-.16-.47-.32-.78-.47l-.03-.02s-.03-.01-.06-.03c-.03-.01-.06-.03-.08-.04-.03-.02-.07-.03-.1-.05-.35-.17-.61-.31-.81-.44-.22-.14-.41-.32-.56-.53-.16-.23-.24-.51-.24-.83v-.42c0-.47.13-.83.39-1.07.26-.24.63-.37,1.12-.37s.83.13,1.08.39c.25.26.37.63.37,1.11v.18h.31v-.18c0-.41-.07-.74-.2-1-.12-.25-.31-.43-.56-.55-.26-.13-.6-.19-1.01-.19s-.78.07-1.05.19c-.26.12-.44.3-.57.55-.13.26-.2.59-.2.98v.42c0,.34.07.63.21.85.14.23.32.42.52.56.23.15.53.32.91.51l.08.04s.02.01.03.02h.03c.31.17.57.32.77.45.22.15.4.34.55.57.15.24.22.52.22.85v.51c0,.49-.13.86-.38,1.12-.25.26-.63.39-1.11.39s-.87-.13-1.13-.39c-.26-.26-.39-.63-.39-1.12v-.16h-.31v.16c0,.41.07.74.2,1,.13.25.32.43.57.55h0Z"/>
            </g>
          </g>
          <path class="cls-18" d="M290.59,11.69l10.23,3.52c1.07.53,2.83.53,3.9,0l8.65-2.97v2.56c0,.45.4.81.89.81s.88-.37.88-.81v-3.2c.89-.53.83-1.31-.19-1.8l-10.23-4.31c-1.07-.52-2.83-.52-3.9,0l-10.23,4.31c-1.07.53-1.07,1.38,0,1.9ZM315.14,19.37l-.44-1.72c0-.22-.19-.41-.44-.41s-.44.18-.44.41l-.45,1.72c0,.45.4.81.89.81s.88-.37.88-.81ZM293.4,26.96c0,5.15,4.17,9.32,9.32,9.32s9.32-4.17,9.32-9.32-4.17-9.32-9.32-9.32-9.32,4.17-9.32,9.32ZM320.59,36.56c-.14-.08-.26-.17-.36-.28-1.25.44-2.42,1.04-3.47,1.81.06.15.09.32.09.49,1.53.25,3.03.74,4.47,1.52,0,0,.02,0,.02.01.08-.07.17-.13.27-.19,0-1.08-.15-2.16-.41-3.2-.21,0-.41-.06-.6-.16ZM312.11,39.41c.05.71.2,1.42.47,2.1.49-.81,1.06-1.56,1.69-2.24-.02-.03-.03-.06-.04-.09-.72.01-1.42.1-2.12.23ZM312.11,38.62c.65-.11,1.31-.19,1.98-.21.02-.17.07-.34.16-.51.37-.68,1.21-.92,1.88-.55.06.04.12.08.17.12,1.09-.8,2.29-1.43,3.59-1.89-.05-.3,0-.61.15-.9.07-.15.18-.27.29-.37-.39-.85-.88-1.66-1.47-2.41-1.25.05-2.49.43-3.61,1.17-1.95,1.29-3.04,3.38-3.14,5.55ZM304.66,67.91s.02.01.02.02c.09-.06.18-.11.29-.15.12-1.08.11-2.17-.03-3.24-.2-.03-.4-.11-.58-.23-.13-.09-.24-.2-.33-.32-1.3.29-2.54.75-3.68,1.39.04.16.05.33.03.5,1.49.43,2.93,1.11,4.27,2.05ZM325.31,35.55c-.91-.04-1.82,0-2.72.14-.03.11-.07.21-.13.31-.12.23-.3.4-.51.53.07.25.12.51.17.76.16.82.25,1.65.27,2.47.18.02.36.06.53.16.61.33.87,1.05.64,1.69.49.4.96.84,1.39,1.3,1.46-2.14,1.66-4.99.36-7.37ZM320.93,40.77c-1.38-.75-2.84-1.22-4.3-1.46-.39.59-1.15.8-1.79.49-.7.77-1.33,1.62-1.85,2.55.09.16.18.32.29.47.22.33.46.64.73.92l-8.81,16.19c-.32-.13-.66-.23-.99-.3.37.69.67,1.4.91,2.14.3,0,.6.07.86.25.31.21.49.52.55.86.75-.02,1.5.02,2.24.12-.08-.13-.16-.26-.24-.39-.02-.02-.03-.05-.05-.07l9.25-16.71c.83.17,1.69.19,2.53.06.58-1.17.96-2.4,1.18-3.66-.45-.35-.65-.93-.5-1.46ZM323.11,42.23c-.27.21-.61.31-.94.29-.19,1.07-.51,2.13-.95,3.14.63-.19,1.24-.48,1.82-.86.55-.37,1.04-.8,1.45-1.27-.42-.46-.87-.9-1.36-1.3ZM321.91,34.12c.33.17.55.46.65.78.75-.11,1.5-.16,2.25-.15-1.22-1.66-3.04-2.63-4.96-2.83.46.65.85,1.33,1.19,2.05.29-.04.6,0,.88.15ZM297.74,66.23s-.02-.06-.03-.09c-.7-.07-1.39-.08-2.08-.03-.04.7.03,1.41.2,2.11.57-.73,1.22-1.39,1.91-1.98ZM304.19,68.54c-1.29-.91-2.68-1.56-4.12-1.97-.46.54-1.25.66-1.84.27-.78.67-1.5,1.43-2.12,2.28.18.44.4.87.67,1.28,1.41,2.12,3.76,3.23,6.13,3.15.71-1.1,1.24-2.27,1.6-3.48-.41-.4-.53-1-.32-1.52ZM306.46,63.66c-.04.1-.1.2-.16.3-.15.21-.35.37-.57.47.04.25.06.52.08.78.06.84.05,1.67-.03,2.5.17.04.36.11.51.23.57.4.74,1.15.43,1.76.44.46.85.95,1.22,1.46,1.75-1.99,2.24-4.82,1.23-7.3-.89-.15-1.8-.22-2.72-.18ZM305.21,70.43c-.32,1.04-.76,2.05-1.32,3,.92-.16,1.82-.51,2.64-1.06.3-.2.59-.42.85-.66-.36-.5-.76-.99-1.2-1.45-.3.18-.64.23-.98.18ZM285.49,34.69c.16.29.2.6.15.9,1.29.46,2.5,1.09,3.59,1.89.06-.04.11-.09.17-.12.68-.37,1.51-.12,1.88.55.09.17.14.34.16.51.67.02,1.34.1,2,.21,0,.1,0,.21,0,.31,0,.16,0,.32-.02.48-.7-.13-1.42-.22-2.14-.23-.01.03-.03.06-.04.09.63.69,1.21,1.45,1.7,2.27-.03.09-.07.17-.11.26.94-2.12.81-4.67-.56-6.75-1.3-1.97-3.42-3.07-5.62-3.15-.58.76-1.07,1.56-1.47,2.41.11.1.22.23.29.37ZM295.71,65.32c.64-.03,1.29-.02,1.94.03.04-.16.11-.33.22-.49.45-.63,1.31-.77,1.94-.32.06.05.11.09.16.14,1.18-.66,2.46-1.15,3.8-1.45-.02-.3.07-.61.26-.88.09-.14.21-.25.33-.34-.29-.88-.67-1.73-1.14-2.54-1.02-.08-2.07.05-3.06.43l-8.73-16.05c.44-.45.81-.95,1.11-1.49-.52-.94-1.16-1.81-1.87-2.58-.63.32-1.4.11-1.79-.49-1.47.24-2.92.71-4.3,1.46.15.53-.05,1.11-.5,1.46.21,1.25.6,2.48,1.17,3.65.78.13,1.59.13,2.38-.01,1.46,2.64,2.92,5.27,4.38,7.89,1.61,2.89,3.22,5.81,4.84,8.74-.59.85-.98,1.82-1.15,2.82ZM282.96,34.91c.1-.32.32-.61.65-.78.28-.15.58-.19.88-.15.34-.71.73-1.4,1.19-2.04-1.09.11-2.18.48-3.16,1.13-.71.47-1.3,1.04-1.78,1.69.74,0,1.48.04,2.22.15ZM282.41,42.23c-.49.4-.93.83-1.35,1.28.88,1.03,2.01,1.75,3.24,2.14-.44-1.01-.76-2.06-.95-3.13-.34.01-.67-.08-.94-.29ZM284.93,36.56c-.19.1-.39.16-.6.16-.27,1.05-.41,2.12-.41,3.2.1.05.18.12.27.19,0,0,.01-.01.02-.01,1.43-.78,2.94-1.27,4.47-1.52,0-.17.03-.33.09-.49-1.05-.77-2.22-1.37-3.47-1.81-.1.11-.22.2-.36.28ZM282.6,39.92c.17-.1.36-.14.53-.16.02-.82.11-1.65.27-2.47.05-.25.11-.51.17-.76-.21-.12-.39-.3-.51-.53-.06-.1-.1-.21-.13-.31-.9-.14-1.8-.18-2.7-.14-1.22,2.22-1.19,5.02.3,7.28.02.02.03.05.05.07.42-.46.88-.89,1.37-1.28-.23-.64.03-1.36.64-1.69Z"/>
          <path class="cls-7" d="M348.6,70.09c-.83,0-1.35-.52-1.35-1.35,0-4.55,0-9.1,0-13.66v-.23h9.47v-3.56h-9.47v-.25c0-1.96,0-3.92,0-5.88,0-.35,0-.7,0-1.05h-3.54c0,.08,0,.15,0,.23,0,8.2,0,16.4,0,24.6,0,1.34.53,2.47,1.47,3.39.94.93,2.1,1.33,3.42,1.32,2.64,0,5.29,0,7.93,0,.07,0,.13,0,.21,0v-3.56h-.25c-2.62,0-5.25,0-7.87,0ZM329.1,51.29c-.26,0-.53.02-.79.07-2.3.42-3.96,2.41-3.96,4.75,0,5.77,0,11.54,0,17.31v.23h3.57c0-.1,0-.19,0-.27,0-5.74,0-11.48,0-17.21,0-.77.53-1.3,1.3-1.3,4.07,0,8.15,0,12.22,0h.25v-3.57h-.22c-4.12,0-8.25,0-12.37,0ZM317.71,73.65h3.53v-22.34h-3.53v22.34ZM402.24,51.29c-5.88,0-11.77,0-17.65,0h-.26v3.57h.26c5.87,0,11.74,0,17.61,0,.79,0,1.29.5,1.29,1.29,0,1.44,0,2.89,0,4.33v.21h-19.17v.18c0,2.69,0,5.39,0,8.08,0,.5.09,1,.26,1.47.68,1.91,2.51,3.24,4.66,3.23,5.88-.02,11.75,0,17.63,0h.23v-.17c0-5.79,0-11.58,0-17.37,0-2.71-2.15-4.82-4.86-4.82ZM403.47,70.08c-.07,0-.13,0-.2,0-4.7,0-9.39,0-14.09,0-.76,0-1.29-.5-1.3-1.26-.01-1.49,0-2.98,0-4.46,0-.02,0-.05,0-.09h15.58v5.81ZM381.68,51.3h-3.57v.28c0,5.73,0,11.45,0,17.18,0,.14,0,.29-.04.43-.15.57-.65.91-1.32.91-4.31,0-8.63,0-12.94,0-.82,0-1.34-.52-1.34-1.34,0-5.73,0-11.46,0-17.2v-.25h-3.57v.2c0,5.78,0,11.56,0,17.35,0,.48.08.98.22,1.44.62,2,2.5,3.38,4.68,3.37,4.31-.02,8.61,0,12.92,0,.23,0,.46-.01.69-.04,2.41-.27,4.25-2.32,4.25-4.73,0-5.78,0-11.56,0-17.35v-.23ZM418.27,70.09c-1.2,0-2.4,0-3.6,0-.14,0-.29,0-.43-.04-.58-.15-.93-.65-.93-1.32,0-8.11,0-16.23,0-24.34,0-.09,0-.18,0-.26h-3.54c0,.09,0,.18,0,.26,0,8.16,0,16.33,0,24.49,0,.22.01.44.04.66.26,2.18,2.21,4.02,4.41,4.11,1.43.06,2.86.01,4.29.01v-3.54c-.08,0-.16-.02-.24-.02ZM290.59,11.69l10.23,3.52c1.07.53,2.83.53,3.9,0l8.65-2.97v2.56c0,.45.4.81.89.81s.88-.37.88-.81v-3.2c.89-.53.83-1.31-.19-1.8l-10.23-4.31c-1.07-.52-2.83-.52-3.9,0l-10.23,4.31c-1.07.53-1.07,1.38,0,1.9ZM315.14,19.37l-.44-1.72c0-.22-.19-.41-.44-.41s-.44.18-.44.41l-.45,1.72c0,.45.4.81.89.81s.88-.37.88-.81ZM312.05,26.96c0-5.15-4.17-9.32-9.32-9.32s-9.32,4.17-9.32,9.32,4.17,9.32,9.32,9.32,9.32-4.17,9.32-9.32ZM321.19,36.72c-.21,0-.41-.06-.6-.16-.14-.08-.26-.17-.36-.28-1.25.44-2.42,1.04-3.47,1.81.06.15.09.32.09.49,1.53.25,3.03.74,4.47,1.52,0,0,.02,0,.02.01.08-.07.17-.13.27-.19,0-1.08-.15-2.16-.41-3.2ZM314.23,39.18c-.72.01-1.42.1-2.12.23.05.71.2,1.42.47,2.1.49-.81,1.06-1.56,1.69-2.24-.02-.03-.03-.06-.04-.09ZM312.11,38.62c.65-.11,1.31-.19,1.98-.21.02-.17.07-.34.16-.51.37-.68,1.21-.92,1.88-.55.06.04.12.08.17.12,1.09-.8,2.29-1.43,3.59-1.89-.05-.3,0-.61.15-.9.07-.15.18-.27.29-.37-.39-.85-.88-1.66-1.47-2.41-1.25.05-2.49.43-3.61,1.17-1.95,1.29-3.04,3.38-3.14,5.55ZM304.66,67.91s.02.01.02.02c.09-.06.18-.11.29-.15.12-1.08.11-2.17-.03-3.24-.2-.03-.4-.11-.58-.23-.13-.09-.24-.2-.33-.32-1.3.29-2.54.75-3.68,1.39.04.16.05.33.03.5,1.49.43,2.93,1.11,4.27,2.05ZM322.58,35.69c-.03.11-.07.21-.13.31-.12.23-.3.4-.51.53.07.25.12.51.17.76.16.82.25,1.65.27,2.47.18.02.36.06.53.16.61.33.87,1.05.64,1.69.49.4.96.84,1.39,1.3,1.46-2.14,1.66-4.99.36-7.37-.91-.04-1.82,0-2.72.14ZM320.25,45.89c.58-1.17.96-2.4,1.18-3.66-.45-.35-.65-.93-.5-1.46-1.38-.75-2.84-1.22-4.3-1.46-.39.59-1.15.8-1.79.49-.7.77-1.33,1.62-1.85,2.55.09.16.18.32.29.47.22.33.46.64.73.92l-8.81,16.19c-.32-.13-.66-.23-.99-.3.37.69.67,1.4.91,2.14.3,0,.6.07.86.25.31.21.49.52.55.86.75-.02,1.5.02,2.24.12-.08-.13-.16-.26-.24-.39-.02-.02-.03-.05-.05-.07l9.25-16.71c.83.17,1.69.19,2.53.06ZM323.11,42.23c-.27.21-.61.31-.94.29-.19,1.07-.51,2.13-.95,3.14.63-.19,1.24-.48,1.82-.86.55-.37,1.04-.8,1.45-1.27-.42-.46-.87-.9-1.36-1.3ZM321.91,34.12c.33.17.55.46.65.78.75-.11,1.5-.16,2.25-.15-1.22-1.66-3.04-2.63-4.96-2.83.46.65.85,1.33,1.19,2.05.29-.04.6,0,.88.15ZM297.74,66.23s-.02-.06-.03-.09c-.7-.07-1.39-.08-2.08-.03-.04.7.03,1.41.2,2.11.57-.73,1.22-1.39,1.91-1.98ZM304.19,68.54c-1.29-.91-2.68-1.56-4.12-1.97-.46.54-1.25.66-1.84.27-.78.67-1.5,1.43-2.12,2.28.18.44.4.87.67,1.28,1.41,2.12,3.76,3.23,6.13,3.15.71-1.1,1.24-2.27,1.6-3.48-.41-.4-.53-1-.32-1.52ZM306.46,63.66c-.04.1-.1.2-.16.3-.15.21-.35.37-.57.47.04.25.06.52.08.78.06.84.05,1.67-.03,2.5.17.04.36.11.51.23.57.4.74,1.15.43,1.76.44.46.85.95,1.22,1.46,1.75-1.99,2.24-4.82,1.23-7.3-.89-.15-1.8-.22-2.72-.18ZM305.21,70.43c-.32,1.04-.76,2.05-1.32,3,.92-.16,1.82-.51,2.64-1.06.3-.2.59-.42.85-.66-.36-.5-.76-.99-1.2-1.45-.3.18-.64.23-.98.18ZM285.49,34.69c.16.29.2.6.15.9,1.29.46,2.5,1.09,3.59,1.89.06-.04.11-.09.17-.12.68-.37,1.51-.12,1.88.55.09.17.14.34.16.51.67.02,1.34.1,2,.21,0,.1,0,.21,0,.31,0,.16,0,.32-.02.48-.7-.13-1.42-.22-2.14-.23-.01.03-.03.06-.04.09.63.69,1.21,1.45,1.7,2.27-.03.09-.07.17-.11.26.94-2.12.81-4.67-.56-6.75-1.3-1.97-3.42-3.07-5.62-3.15-.58.76-1.07,1.56-1.47,2.41.11.1.22.23.29.37ZM295.71,65.32c.64-.03,1.29-.02,1.94.03.04-.16.11-.33.22-.49.45-.63,1.31-.77,1.94-.32.06.05.11.09.16.14,1.18-.66,2.46-1.15,3.8-1.45-.02-.3.07-.61.26-.88.09-.14.21-.25.33-.34-.29-.88-.67-1.73-1.14-2.54-1.02-.08-2.07.05-3.06.43l-8.73-16.05c.44-.45.81-.95,1.11-1.49-.52-.94-1.16-1.81-1.87-2.58-.63.32-1.4.11-1.79-.49-1.47.24-2.92.71-4.3,1.46.15.53-.05,1.11-.5,1.46.21,1.25.6,2.48,1.17,3.65.78.13,1.59.13,2.38-.01,1.46,2.64,2.92,5.27,4.38,7.89,1.61,2.89,3.22,5.81,4.84,8.74-.59.85-.98,1.82-1.15,2.82ZM282.96,34.91c.1-.32.32-.61.65-.78.28-.15.58-.19.88-.15.34-.71.73-1.4,1.19-2.04-1.09.11-2.18.48-3.16,1.13-.71.47-1.3,1.04-1.78,1.69.74,0,1.48.04,2.22.15ZM282.41,42.23c-.49.4-.93.83-1.35,1.28.88,1.03,2.01,1.75,3.24,2.14-.44-1.01-.76-2.06-.95-3.13-.34.01-.67-.08-.94-.29ZM284.93,36.56c-.19.1-.39.16-.6.16-.27,1.05-.41,2.12-.41,3.2.1.05.18.12.27.19,0,0,.01-.01.02-.01,1.43-.78,2.94-1.27,4.47-1.52,0-.17.03-.33.09-.49-1.05-.77-2.22-1.37-3.47-1.81-.1.11-.22.2-.36.28ZM282.6,39.92c.17-.1.36-.14.53-.16.02-.82.11-1.65.27-2.47.05-.25.11-.51.17-.76-.21-.12-.39-.3-.51-.53-.06-.1-.1-.21-.13-.31-.9-.14-1.8-.18-2.7-.14-1.22,2.22-1.19,5.02.3,7.28.02.02.03.05.05.07.42-.46.88-.89,1.37-1.28-.23-.64.03-1.36.64-1.69Z"/>
          <g class="cls-19">
            <g>
              <path class="cls-8" d="M283.84,43.36c-1.98-1.48-2.69-4.13-1.68-6.41,1.01-2.27,3.45-3.53,5.88-3.06,1.54.3,3.03.34,4.63.11,4.35-.65,11.45-7.76,23.7-6.28,3.62.3,7.72,2.08,10.76,4.83.91.82,1.2,2.11.74,3.24-.46,1.13-1.57,1.85-2.81,1.8.02,0,0,0,0,0-1.98-.13-4.58.32-4.98.36-5.54.9-11.33,3.96-16.33,6.46.06-.05-.19.09.14-.09-4.23,2.11-8.67,3.21-13.61,2.03-2.5-.59-4.63-1.65-6.44-2.99Z"/>
              <g>
                <path class="cls-13" d="M299.85,60.37c9.17,1.85,18.09-4.11,19.91-13.27,1.83-9.17-4.11-18.07-13.28-19.9-9.16-1.83-18.07,4.12-19.91,13.27-1.83,9.16,4.13,18.09,13.28,19.9ZM305.79,30.69c7.23,1.43,11.92,8.47,10.47,15.71-1.44,7.24-8.47,11.93-15.72,10.49-7.23-1.45-11.93-8.49-10.47-15.71,1.44-7.24,8.48-11.93,15.72-10.48Z"/>
                <path class="cls-15" d="M287.83,34.22c9.16,1.83,18.07-4.12,19.9-13.28,1.83-9.17-4.12-18.07-13.27-19.9-9.17-1.83-18.07,4.12-19.9,13.28-1.83,9.17,4.11,18.07,13.27,19.9ZM293.76,4.53c7.23,1.45,11.93,8.48,10.48,15.71-1.44,7.24-8.48,11.93-15.72,10.48-7.24-1.44-11.93-8.48-10.48-15.71,1.44-7.24,8.48-11.93,15.72-10.49Z"/>
              </g>
              <g>
                <path class="cls-14" d="M287.11,58.93c3.73,8.57,13.7,12.51,22.26,8.78,8.58-3.72,12.5-13.69,8.77-22.27-3.72-8.56-13.69-12.49-22.25-8.76-8.58,3.72-12.5,13.69-8.78,22.25ZM314.87,46.86c2.95,6.77-.15,14.65-6.92,17.59-6.76,2.93-14.64-.16-17.58-6.93-2.94-6.77.16-14.64,6.93-17.57,6.77-2.94,14.65.16,17.58,6.92Z"/>
                <path class="cls-16" d="M301.72,34.13c3.73,8.57,13.7,12.51,22.26,8.78,8.58-3.72,12.5-13.7,8.78-22.25-3.73-8.57-13.7-12.51-22.26-8.77-8.58,3.72-12.5,13.69-8.78,22.25ZM329.48,22.06c2.95,6.77-.15,14.65-6.92,17.59-6.76,2.93-14.64-.17-17.58-6.94-2.94-6.75.16-14.64,6.93-17.57,6.77-2.93,14.64.17,17.57,6.92Z"/>
              </g>
            </g>
          </g>
        </g>
      </g>
    </g>
  </g>
</svg>